/* XPM */
static char * barcoE_xpm[] = {
"32 32 359 2",
"  	c None",
". 	c #4878D8",
"+ 	c #4890D8",
"@ 	c #874D23",
"# 	c #921400",
"$ 	c #8B5028",
"% 	c #8E5D49",
"& 	c #C70E03",
"* 	c #CA0E03",
"= 	c #9F1303",
"- 	c #6C3003",
"; 	c #EBB8BB",
"> 	c #6D340B",
", 	c #774E3C",
"' 	c #B38986",
") 	c #6B3205",
"! 	c #F0BBBD",
"~ 	c #703305",
"{ 	c #C59288",
"] 	c #AB817B",
"^ 	c #724936",
"/ 	c #936554",
"( 	c #6A3407",
"_ 	c #F7C1C3",
": 	c #5E2C04",
"< 	c #C18D82",
"[ 	c #B58D8D",
"} 	c #AA7F77",
"| 	c #391A04",
"1 	c #AB7F74",
"2 	c #8E848F",
"3 	c #6C3409",
"4 	c #F7C2C4",
"5 	c #3B1A00",
"6 	c #C6948D",
"7 	c #B08787",
"8 	c #B68D8E",
"9 	c #7B564A",
"0 	c #744B37",
"a 	c #594944",
"b 	c #6E370B",
"c 	c #CDA2A5",
"d 	c #4C2100",
"e 	c #D59F98",
"f 	c #6B5151",
"g 	c #B88F90",
"h 	c #6E493B",
"i 	c #6C4530",
"j 	c #876054",
"k 	c #7A737E",
"l 	c #824C2B",
"m 	c #957678",
"n 	c #642D00",
"o 	c #E2A9A0",
"p 	c #6A5151",
"q 	c #4C2505",
"r 	c #A6776D",
"s 	c #7F533F",
"t 	c #93685D",
"u 	c #84808E",
"v 	c #655756",
"w 	c #452002",
"x 	c #7D6163",
"y 	c #612B00",
"z 	c #D49F95",
"A 	c #654D4D",
"B 	c #7D4721",
"C 	c #4C2708",
"D 	c #834711",
"E 	c #7C4F2C",
"F 	c #835B4E",
"G 	c #715A53",
"H 	c #3C2210",
"I 	c #BE9596",
"J 	c #78401A",
"K 	c #7B564C",
"L 	c #9A654B",
"M 	c #602C06",
"N 	c #6E3609",
"O 	c #592905",
"P 	c #3A1801",
"Q 	c #58300C",
"R 	c #4B2508",
"S 	c #895E24",
"T 	c #996F33",
"U 	c #925F2B",
"V 	c #6E3C1B",
"W 	c #483B35",
"X 	c #6B5F63",
"Y 	c #655452",
"Z 	c #3D2513",
"` 	c #F7C0C1",
" .	c #412C21",
"..	c #AA7735",
"+.	c #65461D",
"@.	c #79461B",
"#.	c #795852",
"$.	c #A36D52",
"%.	c #EFB9B6",
"&.	c #231912",
"*.	c #4F290C",
"=.	c #763A0A",
"-.	c #723507",
";.	c #6A3B10",
">.	c #65431A",
",.	c #452106",
"'.	c #765121",
").	c #573C18",
"!.	c #7D4B1A",
"~.	c #3F260D",
"{.	c #44331E",
"].	c #5A4E45",
"^.	c #4F3E35",
"/.	c #4E2605",
"(.	c #A47F78",
"_.	c #3E2C16",
":.	c #432C13",
"<.	c #7B5120",
"[.	c #A27534",
"}.	c #7A5625",
"|.	c #6C4212",
"1.	c #6C514F",
"2.	c #462D1C",
"3.	c #AC795F",
"4.	c #EEBCBA",
"5.	c #241A11",
"6.	c #46270E",
"7.	c #783C0B",
"8.	c #75390B",
"9.	c #A86A23",
"0.	c #B57C2E",
"a.	c #401D05",
"b.	c #CA8A34",
"c.	c #BC8030",
"d.	c #82521D",
"e.	c #744C1E",
"f.	c #422B11",
"g.	c #62452B",
"h.	c #7B6C6D",
"i.	c #834D2B",
"j.	c #9A7773",
"k.	c #936129",
"l.	c #A06E2E",
"m.	c #865722",
"n.	c #B27A36",
"o.	c #67441F",
"p.	c #563612",
"q.	c #8E6849",
"r.	c #854612",
"s.	c #603008",
"t.	c #9C6D50",
"u.	c #ECBCBB",
"v.	c #532B0C",
"w.	c #743A0C",
"x.	c #793F10",
"y.	c #A66826",
"z.	c #C18033",
"A.	c #7E4B1A",
"B.	c #C28032",
"C.	c #B8772F",
"D.	c #9C5C21",
"E.	c #C18535",
"F.	c #533717",
"G.	c #452F26",
"H.	c #574949",
"I.	c #6F380F",
"J.	c #7B5C5B",
"K.	c #B87139",
"L.	c #C08332",
"M.	c #875820",
"N.	c #D6943E",
"O.	c #6E4B1D",
"P.	c #452E1A",
"Q.	c #C5893D",
"R.	c #EEA846",
"S.	c #7E4011",
"T.	c #733F16",
"U.	c #5F3A27",
"V.	c #B4887D",
"W.	c #AC7F67",
"X.	c #EEC2C0",
"Y.	c #221911",
"Z.	c #4D2C11",
"`.	c #73380B",
" +	c #73390C",
".+	c #8E531A",
"++	c #B97C31",
"@+	c #BC7F34",
"#+	c #B97F33",
"$+	c #BB8034",
"%+	c #A06525",
"&+	c #BA7E33",
"*+	c #573B1C",
"=+	c #77615E",
"-+	c #684C3E",
";+	c #331A08",
">+	c #80615F",
",+	c #A36332",
"'+	c #BC7D31",
")+	c #8B5C21",
"!+	c #D48D3C",
"~+	c #6B471F",
"{+	c #744D21",
"]+	c #C4823B",
"^+	c #7C5426",
"/+	c #71380F",
"(+	c #603110",
"_+	c #5B3E2F",
":+	c #BA8B73",
"<+	c #F1C6C3",
"[+	c #1D1712",
"}+	c #743B0D",
"|+	c #7E3E0F",
"1+	c #70360D",
"2+	c #67320A",
"3+	c #8B561D",
"4+	c #AD742F",
"5+	c #AE7832",
"6+	c #C18738",
"7+	c #9E6424",
"8+	c #C58734",
"9+	c #5F3F18",
"0+	c #452D22",
"a+	c #5F4437",
"b+	c #2B1B13",
"c+	c #8F6254",
"d+	c #A06535",
"e+	c #C58A37",
"f+	c #865822",
"g+	c #D2913E",
"h+	c #684B22",
"i+	c #976C2F",
"j+	c #CB8F3B",
"k+	c #261C0D",
"l+	c #3B1A01",
"m+	c #381B03",
"n+	c #5F4131",
"o+	c #AE7B64",
"p+	c #261B12",
"q+	c #2C1C0C",
"r+	c #5D2619",
"s+	c #883C22",
"t+	c #723712",
"u+	c #72340E",
"v+	c #884717",
"w+	c #986024",
"x+	c #AA6D2B",
"y+	c #8C511C",
"z+	c #C78634",
"A+	c #69451E",
"B+	c #6D462E",
"C+	c #563622",
"D+	c #493124",
"E+	c #7E5138",
"F+	c #9A6534",
"G+	c #C88C38",
"H+	c #885A24",
"I+	c #E8A648",
"J+	c #8E642D",
"K+	c #A47531",
"L+	c #372713",
"M+	c #281E0F",
"N+	c #3E1C03",
"O+	c #2D1C0E",
"P+	c #5A4336",
"Q+	c #7C5644",
"R+	c #271B11",
"S+	c #241A12",
"T+	c #4C220D",
"U+	c #7D302A",
"V+	c #7A2F28",
"W+	c #703120",
"X+	c #8D3B27",
"Y+	c #783519",
"Z+	c #723E19",
"`+	c #68310A",
" @	c #CB8C38",
".@	c #644923",
"+@	c #755E4E",
"@@	c #5C4837",
"#@	c #4E361B",
"$@	c #764E27",
"%@	c #97662D",
"&@	c #D18D36",
"*@	c #764C1E",
"=@	c #B37C37",
"-@	c #865B29",
";@	c #3F2D15",
">@	c #2C2011",
",@	c #2C1D0E",
"'@	c #391C05",
")@	c #7B6964",
"!@	c #C5A8A7",
"~@	c #321D0C",
"{@	c #51240C",
"]@	c #5B2611",
"^@	c #52250D",
"/@	c #772F24",
"(@	c #7A3028",
"_@	c #82342E",
":@	c #642D0D",
"<@	c #B47227",
"[@	c #684B31",
"}@	c #705442",
"|@	c #825E3A",
"1@	c #895720",
"2@	c #8B571E",
"3@	c #9B6021",
"4@	c #BA7329",
"5@	c #583411",
"6@	c #4D371A",
"7@	c #2B2010",
"8@	c #2E2212",
"9@	c #816862",
"0@	c #291B10",
"a@	c #2E1D0D",
"b@	c #2B1B0D",
"c@	c #361E08",
"d@	c #4C260F",
"e@	c #522208",
"f@	c #5E2811",
"g@	c #512709",
"h@	c #644219",
"i@	c #4C4135",
"j@	c #4C3621",
"k@	c #634124",
"l@	c #69411C",
"m@	c #5D3D1F",
"n@	c #543F28",
"o@	c #573A19",
"p@	c #3F2912",
"q@	c #372915",
"r@	c #332614",
"s@	c #322514",
"t@	c #44332A",
"u@	c #2B1C10",
"v@	c #2B1D10",
"w@	c #412D16",
"x@	c #4A2F13",
"y@	c #48290D",
"z@	c #483319",
"A@	c #162129",
"B@	c #2D2820",
"C@	c #282621",
"D@	c #2F281F",
"E@	c #2B251F",
"F@	c #1D2326",
"G@	c #362A19",
"H@	c #3B2B16",
"I@	c #352716",
"J@	c #332615",
"K@	c #4A361C",
"L@	c #422F19",
"M@	c #362817",
"N@	c #46341C",
"O@	c #42321B",
"P@	c #40301A",
"Q@	c #2E2315",
"R@	c #392A19",
". . . . . . . . . . . + + + . . . . . . . . . . . . . + + + . . ",
". . . . . . . . . . . . . + + . . . . . . . . . . . . . . + + . ",
". . . . . . . . . . . . . . @ . . . . . . . . . . . . . . . + . ",
". . . . . . . . . . . . . # $ + . . . . . . . . . . . . . . . + ",
". . . % . . . . . . & & * = - ; . . . . . > . . . . . . . . . + ",
"+ . . . , ' . . . . . . . . ) ! + . . . . ~ { . . . . . . . . + ",
"+ + . . ] ^ / . . . . . . . ( _ + + . . . : < . . . . . . . . . ",
"+ + . . [ } | 1 . . . . . 2 3 4 + + . . . 5 6 . . . . . . . . . ",
"+ + + . 7 8 9 0 . . . . . a b c + + + . . d e f . . . . . . . . ",
"+ + + + . g h i j . . . . k l m + + + + . n o p . . . . . . . . ",
"+ + + + . . q r s t . . u v w x + + + + . y z A . . . . . . B . ",
"+ + + + + . C D E F . . . G H I + + + + + J K . . . . . . . L . ",
". M N O P Q R S T U V W X Y Z `  .+ + ..+.@.#.. . . . . . . $.%.",
"&.*.=.-.;.>.,.'.).!.~.{.].^./.(._.:.<.[.}.|.1.+ + . . . . 2.3.4.",
"5.6.7.8.9.0.a.b.c.d.e.f.g.h.i.j.k.l.m.n.o.p.q.+ + + + . r.s.t.u.",
". v.w.x.y.z.A.B.C.D.E.F.G.H.I.J.K.L.M.N.O.P.Q.R.+ + S.T.U.V.W.X.",
"Y.Z.`. +.+++@+#+$+%+&+*+=+-+;+>+,+'+)+!+~+{+]+^+/+(+. + + _+:+<+",
"[+}+|+1+2+3+4+5+6+7+8+9+0+a+b+c+d+e+f+g+h+i+j+k+l+m+. . . n+o+. ",
"p+q+r+s+t+u+v+w+x+y+z+A+B+C+D+E+F+G+H+I+J+K+L+M+N+O+. . . P+Q+. ",
"R+S+T+U+V+W+X+Y+Z+`+ @.@+@@@#@$@%@&@*@=@-@;@>@,@'@. . . . )@!@+ ",
"R+R+~@{@]@^@/@(@_@:@<@[@}@|@1@2@3@4@5@6@7@8@8@. . . . . . 9@. + ",
"+ . 0@a@b@c@d@e@f@g@h@i@j@k@l@m@n@o@p@q@r@s@. . . . . . . t@. + ",
"+ + . . . u@v@w@x@y@z@A@B@C@D@E@F@G@H@I@J@. . . . . . . . . . . ",
"+ + . . . . . . . K@L@M@N@O@P@O@Q@R@. . . . . . . . . . . . . . ",
"+ + + . . . . . . . . . . . . . + + + . . . . . . . . . . . . . ",
"+ + + + . . . . . . . . . . . . + + + + . . . . . . . . . . . . ",
"+ + + + . . . . . . . . . . . . + + + + . . . . . . . . . . . . ",
"+ + + + + . . . . . . . . . . . + + + + + . . . . . . . . . . . ",
". + + + + + + . . . . . . . . . . + + + + + + . . . . . . . . . ",
". + + + + + + + + . . . . . . . . + + + + + + + + . . . . . . . ",
". . + + + + + + + + + . . . . . . . + + + + + + + + + . . . . . ",
". . . . . + + + + + + + + . . . . . . . . + + + + + + + + . . . "};
