/* XPM */
static char * barcoS_xpm[] = {
"32 32 359 2",
"  	c None",
". 	c #4878D8",
"+ 	c #271B11",
"@ 	c #261B12",
"# 	c #1D1712",
"$ 	c #221911",
"% 	c #241A11",
"& 	c #231912",
"* 	c #4890D8",
"= 	c #241A12",
"- 	c #2C1C0C",
"; 	c #743B0D",
"> 	c #4D2C11",
", 	c #532B0C",
"' 	c #46270E",
") 	c #4F290C",
"! 	c #602C06",
"~ 	c #291B10",
"{ 	c #321D0C",
"] 	c #4C220D",
"^ 	c #5D2619",
"/ 	c #7E3E0F",
"( 	c #73380B",
"_ 	c #743A0C",
": 	c #783C0B",
"< 	c #763A0A",
"[ 	c #6E3609",
"} 	c #2E1D0D",
"| 	c #51240C",
"1 	c #7D302A",
"2 	c #883C22",
"3 	c #70360D",
"4 	c #73390C",
"5 	c #793F10",
"6 	c #75390B",
"7 	c #723507",
"8 	c #592905",
"9 	c #8E5D49",
"0 	c #2B1B0D",
"a 	c #5B2611",
"b 	c #7A2F28",
"c 	c #723712",
"d 	c #67320A",
"e 	c #8E531A",
"f 	c #A66826",
"g 	c #A86A23",
"h 	c #6A3B10",
"i 	c #3A1801",
"j 	c #B08787",
"k 	c #B58D8D",
"l 	c #AB817B",
"m 	c #774E3C",
"n 	c #2B1C10",
"o 	c #361E08",
"p 	c #52250D",
"q 	c #703120",
"r 	c #72340E",
"s 	c #8B561D",
"t 	c #B97C31",
"u 	c #C18033",
"v 	c #B57C2E",
"w 	c #65431A",
"x 	c #58300C",
"y 	c #B88F90",
"z 	c #B68D8E",
"A 	c #AA7F77",
"B 	c #724936",
"C 	c #B38986",
"D 	c #2B1D10",
"E 	c #4C260F",
"F 	c #772F24",
"G 	c #8D3B27",
"H 	c #884717",
"I 	c #AD742F",
"J 	c #BC7F34",
"K 	c #7E4B1A",
"L 	c #401D05",
"M 	c #452106",
"N 	c #4B2508",
"O 	c #4C2708",
"P 	c #4C2505",
"Q 	c #6E493B",
"R 	c #7B564A",
"S 	c #391A04",
"T 	c #936554",
"U 	c #412D16",
"V 	c #522208",
"W 	c #7A3028",
"X 	c #783519",
"Y 	c #986024",
"Z 	c #AE7832",
"` 	c #B97F33",
" .	c #C28032",
"..	c #CA8A34",
"+.	c #765121",
"@.	c #895E24",
"#.	c #834711",
"$.	c #A6776D",
"%.	c #6C4530",
"&.	c #744B37",
"*.	c #AB7F74",
"=.	c #4A2F13",
"-.	c #5E2811",
";.	c #82342E",
">.	c #723E19",
",.	c #AA6D2B",
"'.	c #C18738",
").	c #BB8034",
"!.	c #B8772F",
"~.	c #BC8030",
"{.	c #573C18",
"].	c #996F33",
"^.	c #7C4F2C",
"/.	c #7F533F",
"(.	c #876054",
"_.	c #4A361C",
":.	c #48290D",
"<.	c #512709",
"[.	c #642D0D",
"}.	c #68310A",
"|.	c #8C511C",
"1.	c #9E6424",
"2.	c #A06525",
"3.	c #9C5C21",
"4.	c #82521D",
"5.	c #7D4B1A",
"6.	c #925F2B",
"7.	c #835B4E",
"8.	c #93685D",
"9.	c #422F19",
"0.	c #483319",
"a.	c #644219",
"b.	c #B47227",
"c.	c #CB8C38",
"d.	c #C78634",
"e.	c #C58734",
"f.	c #BA7E33",
"g.	c #C18535",
"h.	c #744C1E",
"i.	c #3F260D",
"j.	c #6E3C1B",
"k.	c #C70E03",
"l.	c #362817",
"m.	c #162129",
"n.	c #4C4135",
"o.	c #684B31",
"p.	c #644923",
"q.	c #69451E",
"r.	c #5F3F18",
"s.	c #573B1C",
"t.	c #533717",
"u.	c #422B11",
"v.	c #44331E",
"w.	c #483B35",
"x.	c #46341C",
"y.	c #2D2820",
"z.	c #4C3621",
"A.	c #705442",
"B.	c #755E4E",
"C.	c #6D462E",
"D.	c #452D22",
"E.	c #77615E",
"F.	c #452F26",
"G.	c #62452B",
"H.	c #5A4E45",
"I.	c #6B5F63",
"J.	c #84808E",
"K.	c #CA0E03",
"L.	c #42321B",
"M.	c #282621",
"N.	c #634124",
"O.	c #825E3A",
"P.	c #5C4837",
"Q.	c #563622",
"R.	c #5F4437",
"S.	c #684C3E",
"T.	c #574949",
"U.	c #7B6C6D",
"V.	c #4F3E35",
"W.	c #655452",
"X.	c #715A53",
"Y.	c #655756",
"Z.	c #7A737E",
"`.	c #594944",
" +	c #8E848F",
".+	c #9F1303",
"++	c #921400",
"@+	c #40301A",
"#+	c #2F281F",
"$+	c #69411C",
"%+	c #895720",
"&+	c #4E361B",
"*+	c #493124",
"=+	c #2B1B13",
"-+	c #331A08",
";+	c #6F380F",
">+	c #834D2B",
",+	c #4E2605",
"'+	c #3D2513",
")+	c #3C2210",
"!+	c #452002",
"~+	c #824C2B",
"{+	c #6E370B",
"]+	c #6C3409",
"^+	c #6A3407",
"/+	c #6B3205",
"(+	c #6C3003",
"_+	c #8B5028",
":+	c #874D23",
"<+	c #2B251F",
"[+	c #5D3D1F",
"}+	c #8B571E",
"|+	c #764E27",
"1+	c #7E5138",
"2+	c #8F6254",
"3+	c #80615F",
"4+	c #7B5C5B",
"5+	c #9A7773",
"6+	c #A47F78",
"7+	c #F7C0C1",
"8+	c #BE9596",
"9+	c #7D6163",
"0+	c #957678",
"a+	c #CDA2A5",
"b+	c #F7C2C4",
"c+	c #F7C1C3",
"d+	c #F0BBBD",
"e+	c #EBB8BB",
"f+	c #2E2315",
"g+	c #1D2326",
"h+	c #543F28",
"i+	c #9B6021",
"j+	c #97662D",
"k+	c #9A6534",
"l+	c #A06535",
"m+	c #A36332",
"n+	c #B87139",
"o+	c #936129",
"p+	c #3E2C16",
"q+	c #412C21",
"r+	c #392A19",
"s+	c #362A19",
"t+	c #573A19",
"u+	c #BA7329",
"v+	c #D18D36",
"w+	c #C88C38",
"x+	c #C58A37",
"y+	c #BC7D31",
"z+	c #C08332",
"A+	c #A06E2E",
"B+	c #432C13",
"C+	c #3B2B16",
"D+	c #3F2912",
"E+	c #583411",
"F+	c #764C1E",
"G+	c #885A24",
"H+	c #865822",
"I+	c #8B5C21",
"J+	c #875820",
"K+	c #865722",
"L+	c #7B5120",
"M+	c #352716",
"N+	c #372915",
"O+	c #4D371A",
"P+	c #B37C37",
"Q+	c #E8A648",
"R+	c #D2913E",
"S+	c #D48D3C",
"T+	c #D6943E",
"U+	c #B27A36",
"V+	c #A27534",
"W+	c #AA7735",
"X+	c #332615",
"Y+	c #332614",
"Z+	c #2B2010",
"`+	c #865B29",
" @	c #8E642D",
".@	c #684B22",
"+@	c #6B471F",
"@@	c #6E4B1D",
"#@	c #67441F",
"$@	c #7A5625",
"%@	c #65461D",
"&@	c #322514",
"*@	c #2E2212",
"=@	c #3F2D15",
"-@	c #A47531",
";@	c #976C2F",
">@	c #744D21",
",@	c #452E1A",
"'@	c #563612",
")@	c #6C4212",
"!@	c #79461B",
"~@	c #78401A",
"{@	c #612B00",
"]@	c #642D00",
"^@	c #4C2100",
"/@	c #3B1A00",
"(@	c #5E2C04",
"_@	c #703305",
":@	c #6D340B",
"<@	c #2C2011",
"[@	c #372713",
"}@	c #CB8F3B",
"|@	c #C4823B",
"1@	c #C5893D",
"2@	c #8E6849",
"3@	c #6C514F",
"4@	c #795852",
"5@	c #7B564C",
"6@	c #D49F95",
"7@	c #E2A9A0",
"8@	c #D59F98",
"9@	c #C6948D",
"0@	c #C18D82",
"a@	c #C59288",
"b@	c #2C1D0E",
"c@	c #281E0F",
"d@	c #261C0D",
"e@	c #7C5426",
"f@	c #EEA846",
"g@	c #654D4D",
"h@	c #6A5151",
"i@	c #6B5151",
"j@	c #391C05",
"k@	c #3E1C03",
"l@	c #3B1A01",
"m@	c #71380F",
"n@	c #2D1C0E",
"o@	c #381B03",
"p@	c #603110",
"q@	c #7E4011",
"r@	c #733F16",
"s@	c #5F3A27",
"t@	c #854612",
"u@	c #44332A",
"v@	c #816862",
"w@	c #7B6964",
"x@	c #5A4336",
"y@	c #5F4131",
"z@	c #5B3E2F",
"A@	c #B4887D",
"B@	c #603008",
"C@	c #462D1C",
"D@	c #C5A8A7",
"E@	c #7C5644",
"F@	c #AE7B64",
"G@	c #BA8B73",
"H@	c #AC7F67",
"I@	c #9C6D50",
"J@	c #AC795F",
"K@	c #A36D52",
"L@	c #9A654B",
"M@	c #7D4721",
"N@	c #F1C6C3",
"O@	c #EEC2C0",
"P@	c #ECBCBB",
"Q@	c #EEBCBA",
"R@	c #EFB9B6",
". . . . . . . . . . . + + @ # $ . % & . . . . . . . . * * * . . ",
". . . . . . . . . . . + = - ; > , ' ) ! . . . . . . . . . * * . ",
". . . . . . . . . . ~ { ] ^ / ( _ : < [ . . . . . . . . . . * . ",
". . . . . . . . . . } | 1 2 3 4 5 6 7 8 . . . . . . . 9 . . . * ",
". . . . . . . . . . 0 a b c d e f g h i . . . j k l m . . . . * ",
"* . . . . . . . . n o p q r s t u v w x . . y z A B C . . . . * ",
"* * . . . . . . . D E F G H I J K L M N O P Q R S T . . . . . . ",
"* * . . . . . . . U V W X Y Z `  ...+.@.#.$.%.&.*.. . . . . . . ",
"* * * . . . . . . =.-.;.>.,.'.).!.~.{.].^./.(.. . . . . . . . . ",
"* * * * . . . . _.:.<.[.}.|.1.2.3.4.5.6.7.8.. . . . . . . . . . ",
"* * * * . . . . 9.0.a.b.c.d.e.f.g.h.i.j.. . . . . . . k.. . . . ",
"* * * * * . . . l.m.n.o.p.q.r.s.t.u.v.w.* . . . . . . k.. . . . ",
". * * * * * * . x.y.z.A.B.C.D.E.F.G.H.I.* J.* . . . . K.. . . . ",
". * * * * * * * L.M.N.O.P.Q.R.S.T.U.V.W.X.Y.Z.`. +. . .+++. . . ",
". . * * * * * * @+#+$+%+&+*+=+-+;+>+,+'+)+!+~+{+]+^+/+(+_+:+. . ",
". . . . . * * * L.<+[+}+|+1+2+3+4+5+6+7+8+9+0+a+b+c+d+e+* . . . ",
". . . . . . . . f+g+h+i+j+k+l+m+n+o+p+q+. . . . . . . * * * . . ",
". . . . . . . . r+s+t+u+v+w+x+y+z+A+B+. . . . . . . . . . * * . ",
". . . . . . . . . C+D+E+F+G+H+I+J+K+L+. . . . . . . . . . . * . ",
". . . . . . . . . M+N+O+P+Q+R+S+T+U+V+W+. . . . . . . . . . . * ",
". . . . . . . . . X+Y+Z+`+ @.@+@@@#@$@%@. . . . . . . . . . . * ",
"* . . . . . . . . . &@*@=@-@;@>@,@'@)@!@~@{@]@^@/@(@_@:@. . . * ",
"* * . . . . . . . . . *@<@[@}@|@1@2@3@4@5@6@7@8@9@0@a@. . . . . ",
"* * . . . . . . . . . . b@c@d@e@f@* . . . g@h@i@. . . . . . . . ",
"* * * . . . . . . . . . j@k@l@m@* * * . . . . . . . . . . . . . ",
"* * * * . . . . . . . . . n@o@p@* * * * . . . . . . . . . . . . ",
"* * * * . . . . . . . . . . . . q@* * * . . . . . . . . . . . . ",
"* * * * * . . . . . . . . . . . r@* * * * . . . . . . . . . . . ",
". * * * * * * . . . . . . . . . s@t@* * * * * . . . . . . . . . ",
". * * * * * * * * . u@v@w@x@y@z@A@B@C@* * * * * * . . . . . . . ",
". . * * * * * * * * * . D@E@F@G@H@I@J@K@L@M@* * * * * . . . . . ",
". . . . . * * * * * * * * . . N@O@P@Q@R@. * * * * * * * * . . . "};
