/* XPM */
static char * barcoW_xpm[] = {
"32 32 359 2",
"  	c None",
". 	c #4878D8",
"+ 	c #4890D8",
"@ 	c #874D23",
"# 	c #8B5028",
"$ 	c #921400",
"% 	c #6D340B",
"& 	c #EBB8BB",
"* 	c #6C3003",
"= 	c #9F1303",
"- 	c #CA0E03",
"; 	c #C70E03",
"> 	c #8E5D49",
", 	c #C59288",
"' 	c #703305",
") 	c #F0BBBD",
"! 	c #6B3205",
"~ 	c #B38986",
"{ 	c #774E3C",
"] 	c #C18D82",
"^ 	c #5E2C04",
"/ 	c #F7C1C3",
"( 	c #6A3407",
"_ 	c #936554",
": 	c #724936",
"< 	c #AB817B",
"[ 	c #C6948D",
"} 	c #3B1A00",
"| 	c #F7C2C4",
"1 	c #6C3409",
"2 	c #8E848F",
"3 	c #AB7F74",
"4 	c #391A04",
"5 	c #AA7F77",
"6 	c #B58D8D",
"7 	c #6B5151",
"8 	c #D59F98",
"9 	c #4C2100",
"0 	c #CDA2A5",
"a 	c #6E370B",
"b 	c #594944",
"c 	c #744B37",
"d 	c #7B564A",
"e 	c #B68D8E",
"f 	c #B08787",
"g 	c #6A5151",
"h 	c #E2A9A0",
"i 	c #642D00",
"j 	c #957678",
"k 	c #824C2B",
"l 	c #7A737E",
"m 	c #876054",
"n 	c #6C4530",
"o 	c #6E493B",
"p 	c #B88F90",
"q 	c #7D4721",
"r 	c #654D4D",
"s 	c #D49F95",
"t 	c #612B00",
"u 	c #7D6163",
"v 	c #452002",
"w 	c #655756",
"x 	c #84808E",
"y 	c #93685D",
"z 	c #7F533F",
"A 	c #A6776D",
"B 	c #4C2505",
"C 	c #9A654B",
"D 	c #7B564C",
"E 	c #78401A",
"F 	c #BE9596",
"G 	c #3C2210",
"H 	c #715A53",
"I 	c #835B4E",
"J 	c #7C4F2C",
"K 	c #834711",
"L 	c #4C2708",
"M 	c #EFB9B6",
"N 	c #A36D52",
"O 	c #795852",
"P 	c #79461B",
"Q 	c #65461D",
"R 	c #AA7735",
"S 	c #412C21",
"T 	c #F7C0C1",
"U 	c #3D2513",
"V 	c #655452",
"W 	c #6B5F63",
"X 	c #483B35",
"Y 	c #6E3C1B",
"Z 	c #925F2B",
"` 	c #996F33",
" .	c #895E24",
"..	c #4B2508",
"+.	c #58300C",
"@.	c #3A1801",
"#.	c #592905",
"$.	c #6E3609",
"%.	c #602C06",
"&.	c #EEBCBA",
"*.	c #AC795F",
"=.	c #462D1C",
"-.	c #6C514F",
";.	c #6C4212",
">.	c #7A5625",
",.	c #A27534",
"'.	c #7B5120",
").	c #432C13",
"!.	c #3E2C16",
"~.	c #A47F78",
"{.	c #4E2605",
"].	c #4F3E35",
"^.	c #5A4E45",
"/.	c #44331E",
"(.	c #3F260D",
"_.	c #7D4B1A",
":.	c #573C18",
"<.	c #765121",
"[.	c #452106",
"}.	c #65431A",
"|.	c #6A3B10",
"1.	c #723507",
"2.	c #763A0A",
"3.	c #4F290C",
"4.	c #231912",
"5.	c #ECBCBB",
"6.	c #9C6D50",
"7.	c #603008",
"8.	c #854612",
"9.	c #8E6849",
"0.	c #563612",
"a.	c #67441F",
"b.	c #B27A36",
"c.	c #865722",
"d.	c #A06E2E",
"e.	c #936129",
"f.	c #9A7773",
"g.	c #834D2B",
"h.	c #7B6C6D",
"i.	c #62452B",
"j.	c #422B11",
"k.	c #744C1E",
"l.	c #82521D",
"m.	c #BC8030",
"n.	c #CA8A34",
"o.	c #401D05",
"p.	c #B57C2E",
"q.	c #A86A23",
"r.	c #75390B",
"s.	c #783C0B",
"t.	c #46270E",
"u.	c #241A11",
"v.	c #EEC2C0",
"w.	c #AC7F67",
"x.	c #B4887D",
"y.	c #5F3A27",
"z.	c #733F16",
"A.	c #7E4011",
"B.	c #EEA846",
"C.	c #C5893D",
"D.	c #452E1A",
"E.	c #6E4B1D",
"F.	c #D6943E",
"G.	c #875820",
"H.	c #C08332",
"I.	c #B87139",
"J.	c #7B5C5B",
"K.	c #6F380F",
"L.	c #574949",
"M.	c #452F26",
"N.	c #533717",
"O.	c #C18535",
"P.	c #9C5C21",
"Q.	c #B8772F",
"R.	c #C28032",
"S.	c #7E4B1A",
"T.	c #C18033",
"U.	c #A66826",
"V.	c #793F10",
"W.	c #743A0C",
"X.	c #532B0C",
"Y.	c #F1C6C3",
"Z.	c #BA8B73",
"`.	c #5B3E2F",
" +	c #603110",
".+	c #71380F",
"++	c #7C5426",
"@+	c #C4823B",
"#+	c #744D21",
"$+	c #6B471F",
"%+	c #D48D3C",
"&+	c #8B5C21",
"*+	c #BC7D31",
"=+	c #A36332",
"-+	c #80615F",
";+	c #331A08",
">+	c #684C3E",
",+	c #77615E",
"'+	c #573B1C",
")+	c #BA7E33",
"!+	c #A06525",
"~+	c #BB8034",
"{+	c #B97F33",
"]+	c #BC7F34",
"^+	c #B97C31",
"/+	c #8E531A",
"(+	c #73390C",
"_+	c #73380B",
":+	c #4D2C11",
"<+	c #221911",
"[+	c #AE7B64",
"}+	c #5F4131",
"|+	c #381B03",
"1+	c #3B1A01",
"2+	c #261C0D",
"3+	c #CB8F3B",
"4+	c #976C2F",
"5+	c #684B22",
"6+	c #D2913E",
"7+	c #865822",
"8+	c #C58A37",
"9+	c #A06535",
"0+	c #8F6254",
"a+	c #2B1B13",
"b+	c #5F4437",
"c+	c #452D22",
"d+	c #5F3F18",
"e+	c #C58734",
"f+	c #9E6424",
"g+	c #C18738",
"h+	c #AE7832",
"i+	c #AD742F",
"j+	c #8B561D",
"k+	c #67320A",
"l+	c #70360D",
"m+	c #7E3E0F",
"n+	c #743B0D",
"o+	c #1D1712",
"p+	c #7C5644",
"q+	c #5A4336",
"r+	c #2D1C0E",
"s+	c #3E1C03",
"t+	c #281E0F",
"u+	c #372713",
"v+	c #A47531",
"w+	c #8E642D",
"x+	c #E8A648",
"y+	c #885A24",
"z+	c #C88C38",
"A+	c #9A6534",
"B+	c #7E5138",
"C+	c #493124",
"D+	c #563622",
"E+	c #6D462E",
"F+	c #69451E",
"G+	c #C78634",
"H+	c #8C511C",
"I+	c #AA6D2B",
"J+	c #986024",
"K+	c #884717",
"L+	c #72340E",
"M+	c #723712",
"N+	c #883C22",
"O+	c #5D2619",
"P+	c #2C1C0C",
"Q+	c #261B12",
"R+	c #C5A8A7",
"S+	c #7B6964",
"T+	c #391C05",
"U+	c #2C1D0E",
"V+	c #2C2011",
"W+	c #3F2D15",
"X+	c #865B29",
"Y+	c #B37C37",
"Z+	c #764C1E",
"`+	c #D18D36",
" @	c #97662D",
".@	c #764E27",
"+@	c #4E361B",
"@@	c #5C4837",
"#@	c #755E4E",
"$@	c #644923",
"%@	c #CB8C38",
"&@	c #68310A",
"*@	c #723E19",
"=@	c #783519",
"-@	c #8D3B27",
";@	c #703120",
">@	c #7A2F28",
",@	c #7D302A",
"'@	c #4C220D",
")@	c #241A12",
"!@	c #271B11",
"~@	c #816862",
"{@	c #2E2212",
"]@	c #2B2010",
"^@	c #4D371A",
"/@	c #583411",
"(@	c #BA7329",
"_@	c #9B6021",
":@	c #8B571E",
"<@	c #895720",
"[@	c #825E3A",
"}@	c #705442",
"|@	c #684B31",
"1@	c #B47227",
"2@	c #642D0D",
"3@	c #82342E",
"4@	c #7A3028",
"5@	c #772F24",
"6@	c #52250D",
"7@	c #5B2611",
"8@	c #51240C",
"9@	c #321D0C",
"0@	c #44332A",
"a@	c #322514",
"b@	c #332614",
"c@	c #372915",
"d@	c #3F2912",
"e@	c #573A19",
"f@	c #543F28",
"g@	c #5D3D1F",
"h@	c #69411C",
"i@	c #634124",
"j@	c #4C3621",
"k@	c #4C4135",
"l@	c #644219",
"m@	c #512709",
"n@	c #5E2811",
"o@	c #522208",
"p@	c #4C260F",
"q@	c #361E08",
"r@	c #2B1B0D",
"s@	c #2E1D0D",
"t@	c #291B10",
"u@	c #332615",
"v@	c #352716",
"w@	c #3B2B16",
"x@	c #362A19",
"y@	c #1D2326",
"z@	c #2B251F",
"A@	c #2F281F",
"B@	c #282621",
"C@	c #2D2820",
"D@	c #162129",
"E@	c #483319",
"F@	c #48290D",
"G@	c #4A2F13",
"H@	c #412D16",
"I@	c #2B1D10",
"J@	c #2B1C10",
"K@	c #392A19",
"L@	c #2E2315",
"M@	c #42321B",
"N@	c #40301A",
"O@	c #46341C",
"P@	c #362817",
"Q@	c #422F19",
"R@	c #4A361C",
". . . . . . . . . . . + + + . . . . . . . . . . . . . + + + . . ",
". . . . . . . . . . . . . + + . . . . . . . . . . . . . . + + . ",
". . . . . . . . . . . . . . + . . @ . . . . . . . . . . . . + . ",
". . . . . . . . . . . . . . . + . # $ . . . . . . . . . . . . + ",
". . . . . . . . . . % . . . . + & * = - ; ; . . . . . . > . . + ",
"+ . . . . . . . . , ' . . . . + ) ! . . . . . . . . ~ { . . . + ",
"+ + . . . . . . . ] ^ . . . . . / ( . . . . . . . _ : < . . . . ",
"+ + . . . . . . . [ } . . . . . | 1 2 . . . . . 3 4 5 6 . . . . ",
"+ + + . . . . . 7 8 9 . . . . . 0 a b . . . . . c d e f . . . . ",
"+ + + + . . . . g h i . . . . . j k l + . . . m n o p . . . . . ",
"+ q + + . . . . r s t . . . . . u v w x . . y z A B . . . . . . ",
"+ C + + + . . . . D E . . . . . F G H + + . I J K L . . . . . . ",
"M N + + + + + . . O P Q R . . S T U V W X Y Z `  ...+.@.#.$.%.. ",
"&.*.=.+ + + + + + -.;.>.,.'.).!.~.{.].^./.(._.:.<.[.}.|.1.2.3.4.",
"5.6.7.8.+ + + + + 9.0.a.b.c.d.e.f.g.h.i.j.k.l.m.n.o.p.q.r.s.t.u.",
"v.w.x.y.z.A.+ + B.C.D.E.F.G.H.I.J.K.L.M.N.O.P.Q.R.S.T.U.V.W.X.. ",
"Y.Z.`.. . .  +.+++@+#+$+%+&+*+=+-+;+>+,+'+)+!+~+{+]+^+/+(+_+:+<+",
". [+}+. . . |+1+2+3+4+5+6+7+8+9+0+a+b+c+d+e+f+g+h+i+j+k+l+m+n+o+",
". p+q+. . . r+s+t+u+v+w+x+y+z+A+B+C+D+E+F+G+H+I+J+K+L+M+N+O+P+Q+",
". R+S+. . . . T+U+V+W+X+Y+Z+`+ @.@+@@@#@$@%@&@*@=@-@;@>@,@'@)@!@",
". . ~@. . . . . . {@{@]@^@/@(@_@:@<@[@}@|@1@2@3@4@5@6@7@8@9@!@!@",
"+ . 0@. . . . . . . a@b@c@d@e@f@g@h@i@j@k@l@m@n@o@p@q@r@s@t@. + ",
"+ + . . . . . . . . . u@v@w@x@y@z@A@B@C@D@E@F@G@H@I@J@. . . . . ",
"+ + . . . . . . . . . . . . K@L@M@N@M@O@P@Q@R@. . . . . . . . . ",
"+ + + . . . . . . . . . . . . . + + + . . . . . . . . . . . . . ",
"+ + + + . . . . . . . . . . . . + + + + . . . . . . . . . . . . ",
"+ + + + . . . . . . . . . . . . + + + + . . . . . . . . . . . . ",
"+ + + + + . . . . . . . . . . . + + + + + . . . . . . . . . . . ",
". + + + + + + . . . . . . . . . . + + + + + + . . . . . . . . . ",
". + + + + + + + + . . . . . . . . + + + + + + + + . . . . . . . ",
". . + + + + + + + + + . . . . . . . + + + + + + + + + . . . . . ",
". . . . . + + + + + + + + . . . . . . . . + + + + + + + + . . . "};
