/* XPM */
static char * tiroagua_xpm[] = {
"32 32 4 1",
" 	c None",
".	c #4878D8",
"+	c #4890D8",
"@	c #000307",
"...........+++.............+++..",
".............++..............++.",
"..............+...............+.",
"...............+...............+",
".........@@....+...............+",
"+....@@@....@@.++..............+",
"++...@......@@@.@@@..@@@@@......",
"++....@@.@@.@@@@+@@.@@@.@@......",
"+++...@@.@@..@@@+@@@@@@.@@......",
"++++..@@......@@++++@@@.@@......",
"++++@...@@@.....++++@@@.........",
"++++@..@@@@.....+++++@@...@.....",
".++++@@@@@@@@@...+++++@@@.@.....",
".++++@@@@@@@@@...+++++@@@.@.....",
"..+++@@@@@@@@@....+@@+@@@@+.....",
".....@@@@@@@@@@....@@+@@@@+++...",
"......@@@@@@@@@.......@@@@@+++..",
".....@@@@@@@@+@...@@..@@@@@..++.",
".....@@@@@@@@.+...@@.@@@@@@...+.",
".....@@@.@@@...+..@@.@@@@......+",
".........@@@..@@@.....@@@@@....+",
"+......@@....@@@@.@@..@@@@@....+",
"++.....@@.....@@@+@@............",
"++.............@++..............",
"+++.............+++.............",
"++++............++++............",
"++++............++++............",
"+++++...........+++++...........",
".++++++..........++++++.........",
".++++++++........++++++++.......",
"..+++++++++.......+++++++++.....",
".....++++++++........++++++++..."};
