/* XPM */
static char * Aguatiro2_xpm[] = {
"32 32 39 1",
" 	c None",
".	c #4878D8",
"+	c #4890D8",
"@	c #000000",
"#	c #000001",
"$	c #000005",
"%	c #104058",
"&	c #06212E",
"*	c #0D2B41",
"=	c #000D5B",
"-	c #001DB9",
";	c #001485",
">	c #000533",
",	c #0D5BF1",
"'	c #00031E",
")	c #001EB2",
"!	c #113B4D",
"~	c #000321",
"{	c #000840",
"]	c #000002",
"^	c #3193BD",
"/	c #000003",
"(	c #000108",
"_	c #0843E6",
":	c #000540",
"<	c #093449",
"[	c #000D80",
"}	c #00085B",
"|	c #2194BD",
"1	c #000428",
"2	c #1572C1",
"3	c #1066D2",
"4	c #00052A",
"5	c #000105",
"6	c #00138B",
"7	c #04205D",
"8	c #000846",
"9	c #092B42",
"0	c #0C4470",
"...........+++.............+++..",
".............++..............++.",
"..............+...............+.",
"...............+...............+",
".........@#....+...............+",
"+....@$@....%&.++..............+",
"++...*......=-;.#>,..%'*#@......",
"++....)!.)-.~=={+]].#--.^/......",
"+++...{(.__..@:{+##*]-=./@......",
"++++..=<......**++++#--.#@......",
"++++{...-=&.....++++@-).........",
"++++[..{{{#.....+++++--...,.....",
".++++)#}};#))|...+++++1-)._.....",
".++++;#+-)#2)|...+++++/-3.).....",
"..+++4/;4)#(5#....+#=+#;3<+.....",
".....,{;+++6]*4....#{+-)+^+++...",
"......4*...;/6{.......;;$'4+++..",
"....._#{6..)=+-...##..#-%%=..++.",
".....4-565(_7.+...{:.-*_']8...+.",
".....~_*.-_@...+..{:.)=.6......+",
".........__#..]{>.....))''9....+",
"+......##....-_{}.''..0%]-)....+",
"++.....;;.....@{{+={............",
"++.............@++..............",
"+++.............+++.............",
"++++............++++............",
"++++............++++............",
"+++++...........+++++...........",
".++++++..........++++++.........",
".++++++++........++++++++.......",
"..+++++++++.......+++++++++.....",
".....++++++++........++++++++..."};
