/* XPM */
static char * Aguatiro1_xpm[] = {
"32 32 31 1",
" 	c None",
".	c #4878D8",
"+	c #4386CD",
"@	c #000000",
"#	c #215568",
"$	c #000212",
"%	c #002CE3",
"&	c #001DB9",
"*	c #00138B",
"=	c #000840",
"-	c #000003",
";	c #000001",
">	c #000D5B",
",	c #001485",
"'	c #001EB2",
")	c #233D47",
"!	c #000846",
"~	c #002EEC",
"{	c #00085B",
"]	c #000002",
"^	c #00031E",
"/	c #0020B9",
"(	c #00010D",
"_	c #000211",
":	c #062756",
"<	c #000533",
"[	c #04205D",
"}	c #00052A",
"|	c #030F33",
"1	c #092636",
"2	c #0B2632",
"...........+++.............+++..",
".............++..............++.",
"..............+...............+.",
"...............+...............+",
"...............+...............+",
"+..............++..............+",
"++.......@#$....++..............",
"++.$........%%%&*=--;&>>,%';....",
"+++..'&'&'%.%&&%'+,,>&&'&&&%)...",
"+++%*,,'.&&.%&,>!+>==,&&&&&%....",
"+++%>=>*.%&.&&$>>+!==,%%~'*%....",
"+++%=...*&&....>>++>={**........",
".++]%^{>&&%./~^>>++>==&&'~/.%...",
".++]%^>>,&%.&&...++++(&&&&'.%...",
"..+-%_>>&%%.&&....++++++,'/.&...",
"...(%=>,&&%'%%$>=..>=(~~'++:$...",
"...$%=>,&&&,&&^>>..>=$%&&%%&$+..",
"...$%=>,'''&%%<>{..>=$&&&&&&$++.",
".....^>>...~&'<>[.....}>,&&&>.+.",
"...^%|>>&*>&&&.+..>=>$%%&%&^*..+",
"...$%|>>&'&%&&.>>&[=>(&&&&&=,..+",
"+..@%=..'&&=...>>&[=>1&&=..%...+",
"++..%*}!$&%>'%'>>+!=>.%&%%%%....",
"++...2%%$##)%%%%&+%%~.===%%%....",
"+++..(&>#...;@@%%+:=<....;;;....",
"++++............++++............",
"++++............++++............",
"+++++...........+++++...........",
".++++++..........++++++.........",
".++++++++........++++++++.......",
"..+++++++++.......+++++++++.....",
".....++++++++........++++++++..."};
