/* XPM */
static char * Agua1_xpm[] = {
"32 32 36 1",
" 	c None",
".	c #4878D8",
"+	c #4890D8",
"@	c #21627A",
"#	c #215568",
"$	c #329DC4",
"%	c #3AD6FC",
"&	c #3BCDF7",
"*	c #31C5F0",
"=	c #31B5DE",
"-	c #2981A5",
";	c #217496",
">	c #31BDE6",
",	c #3BC6EF",
"'	c #31CEF6",
")	c #216B8C",
"!	c #233D47",
"~	c #28C5F0",
"{	c #29B5E0",
"]	c #31D7FD",
"^	c #31B5E6",
"/	c #297C9C",
"(	c #31A4CE",
"_	c #29CFF7",
":	c #28BDE6",
"<	c #2894BE",
"[	c #299DC3",
"}	c #3193BD",
"|	c #20ADDA",
"1	c #29ADD9",
"2	c #21B6E1",
"3	c #31ADD5",
"4	c #31A7D4",
"5	c #218CB4",
"6	c #2A8CAD",
"7	c #216783",
"...........+++.............+++..",
".............++..............++.",
"..............+...............+.",
"...............+...............+",
"...............+...............+",
"+..............++..............+",
"++.......@#$....++..............",
"++.$........%%%&*=--;&>>,%')....",
"+++..'&'&'%.%&&%'+,,>&&'&&&%!...",
"+++%~,,'.&&.%&,>{+>==,&&&&&%....",
"+++%>=>*.%&.&&$>>+{==,%%]'*%....",
"+++%=...*&&....>>++>=^**........",
".++/%(^>&&%._](:>++>==&&']_.%...",
".++/%(>>,&%.&&...++++<&&&&'.%...",
"..+-%[>>&%%.&&....++++++,'_.&...",
"...}%=>,&&%'%%$>=..>=<]]'++|$...",
"...$%=>,&&&,&&(>:..>=$%&&%%&$+..",
"...$%=>,'''&%%1>^..>=$&&&&&&$++.",
".....(>>...]&'1:2.....3>,&&&>.+.",
"...(%4>>&*>&&&.+..>=>$%%&%&(*..+",
"...$%4>>&'&%&&.>>&2=>}&&&&&=,..+",
"+..@%=..'&&=...>>&2=>5&&=..%...+",
"++..%*3{$&%>'%'>>+{=:.%&%%%%....",
"++...6%%$##!%%%%&+%%].===%%%....",
"+++..}&>#...)77%%+|=1....));....",
"++++............++++............",
"++++............++++............",
"+++++...........+++++...........",
".++++++..........++++++.........",
".++++++++........++++++++.......",
"..+++++++++.......+++++++++.....",
".....++++++++........++++++++..."};
