/* XPM */
static char * Aguatiro3_xpm[] = {
"32 32 31 1",
" 	c None",
".	c #4878D8",
"+	c #4890D8",
"@	c #000001",
"#	c #000002",
"$	c #000211",
"%	c #05121C",
"&	c #000212",
"*	c #0A3077",
"=	c #000840",
"-	c #00010D",
";	c #000000",
">	c #00052A",
",	c #00138B",
"'	c #092332",
")	c #000428",
"!	c #09222E",
"~	c #00031E",
"{	c #000540",
"]	c #144D93",
"^	c #000213",
"/	c #0B2632",
"(	c #000108",
"_	c #000533",
":	c #001EB2",
"<	c #001DB9",
"[	c #0B222E",
"}	c #002CE3",
"|	c #000321",
"1	c #001485",
"2	c #0C4470",
"...........+++.............+++..",
".............++..............++.",
"..............+...............+.",
"...............+...............+",
"..........@#...+...............+",
"+..............++..............+",
"++....@#.....$%.++..............",
"++....&......*=-+;-..>@.;.......",
"+++.......,'.)$$+&=..)).........",
"++++...=..,!..@.++;+-*).@.......",
"++++..~{........++-+.,-.].......",
"+++++.....~.....+++++@=.;.......",
".++++$+..=&......++++@*.........",
".+++;#++^{-......++++;=++.,.....",
"..+++++&/(>._-....++++++++:.....",
".....+;&+<<+=(......;@&*+++++...",
"......;[@..+%@......@)$*.}.+++..",
".......{#..>^@+.....@|.<,<...++.",
"......../(.1>=>.......#1<&]...+.",
"......:@>~.}*.|+..;@..@1&>$....+",
"......1;-~@&...+..@>.;&*;1@....+",
"+.........:#...++.@|.#*@&......+",
"++........1@..&.++.....=<!&.....",
"++............*#-+.(.....*1.....",
"+++.....[2....;(&++>............",
"++++.....@.....-(+++............",
"++++............++++............",
"+++++...........+++++...........",
".++++++..........++++++.........",
".++++++++........++++++++.......",
"..+++++++++.......+++++++++.....",
".....++++++++........++++++++..."};
