/* XPM */
static char * Agua4_xpm[] = {
"32 32 45 1",
" 	c None",
".	c #4878D8",
"+	c #4890D8",
"@	c #2894BE",
"#	c #176A8C",
"$	c #2A93B4",
"%	c #218CB4",
"&	c #217496",
"*	c #2981A5",
"=	c #31A4CE",
"-	c #1FA6D6",
";	c #31A7D4",
">	c #2A8CAD",
",	c #329DC4",
"'	c #299DC3",
")	c #31BDE6",
"!	c #31B5DE",
"~	c #29ADD9",
"{	c #297C9C",
"]	c #3BC6EF",
"^	c #215568",
"/	c #187CA3",
"(	c #31ADD5",
"_	c #20ADDA",
":	c #3193BD",
"<	c #32BDEE",
"[	c #217B9D",
"}	c #29A3D0",
"|	c #209DC5",
"1	c #298CB5",
"2	c #165A77",
"3	c #21627A",
"4	c #2183AD",
"5	c #1FA1CE",
"6	c #176481",
"7	c #29B5E0",
"8	c #31C5F0",
"9	c #28BDE6",
"0	c #216B8C",
"a	c #2A7394",
"b	c #31CEF6",
"c	c #2194BD",
"d	c #31B5E6",
"e	c #216783",
"f	c #1783AE",
"...........+++.............+++..",
".............++..............++.",
"..............+...............+.",
"..........@#...+...............+",
"...............+...............+",
"+..............++..............+",
"++...$%......&*=++.......-......",
"++..........;=%.++$..>.&........",
"+++......-;.,'..++*,.).!~.......",
"++++..{..]'.....++^+./(;=.......",
"++++..'.........++++.%(.).......",
"+++++.#.........++!_+.:.<.......",
".++++++..~.......+++++:=........",
".+++++++[!.......+++++:}+.......",
"..+@*+++{!+.......+++++++++~....",
"...}#+++|}+++........++++++(+...",
"......>....+1,........2;...+++..",
"......3%....4++.......,(,.@..++.",
"......5:..67..+.......,.1!)&..+.",
".......&:.)).:.+.......8].9>...+",
"......,.,.!7.:0+.......88......+",
"+.....}...;}...++..>%.a,...b...+",
"++.......&3=....++.c%.10.,:~....",
"++.......)%.....++.......d.0....",
"+++......9@...5(+++.......,]....",
"++++..........de+++f;......^....",
"++++....)......'(++^............",
"+++++...%.......&++++...........",
".++++++..........++++++.........",
".++++++++........++++++++.......",
"..+++++++++.......+++++++++.....",
".....++++++++........++++++++..."};
