/* XPM */
static char * Aguatiro4_xpm[] = {
"32 32 33 1",
" 	c None",
".	c #4878D8",
"+	c #4386CD",
"@	c #00010D",
"#	c #000001",
"$	c #06141F",
"%	c #092636",
"&	c #000003",
"*	c #00031E",
"=	c #00032C",
"-	c #000428",
";	c #2A8CAD",
">	c #000212",
",	c #000211",
"'	c #000D5B",
")	c #000840",
"!	c #000533",
"~	c #000002",
"{	c #001485",
"]	c #000000",
"^	c #00052A",
"/	c #000535",
"(	c #000D80",
"_	c #000321",
":	c #000213",
"<	c #0B2636",
"[	c #2183AD",
"}	c #000846",
"|	c #00138B",
"1	c #001EB2",
"2	c #09283C",
"3	c #00085B",
"4	c #1783AE",
"...........+++.............+++..",
".............++..............++.",
"..............+...............+.",
"..........@#...+...............+",
"...............+...............+",
"+..............++..............+",
"++...$%......#&*++.......=......",
"++..........-*%.++$..;.#........",
"+++......=-.>,..++&>.'.)!.......",
"++++..~..{,.....++]+.&^-*.......",
"++++..,.........++++.%^.'.......",
"+++++.#.........++)/+.@.(.......",
".++++++..!.......+++++@*........",
".+++++++~).......+++++@_+.......",
"..+@&+++~)+.......+++++++++!....",
"..._#+++:_+++........++++++^+...",
"......;....+<>........]-...+++..",
"......]%....[++.......>^>.@..++.",
"......*@..]}..+.......>.<)'#..+.",
".......#@.''.@.+.......|{.';...+",
"......>.>.)}.@#+.......||......+",
"+....._...-_...++..;%.#>...1...+",
"++.......#]*....++.2%.<#.>@!....",
"++.......'%.....++.......3.#....",
"+++......'@...*^+++.......>{....",
"++++..........3]+++4-......]....",
"++++....'......,^++]............",
"+++++...%.......#++++...........",
".++++++..........++++++.........",
".++++++++........++++++++.......",
"..+++++++++.......+++++++++.....",
".....++++++++........++++++++..."};
