/* XPM */
static char * Agua3_xpm[] = {
"32 32 43 1",
" 	c None",
".	c #4878D8",
"+	c #4890D8",
"@	c #216B8C",
"#	c #217B9D",
"$	c #176A8C",
"%	c #297C9C",
"&	c #299DC3",
"*	c #2984AE",
"=	c #329DC4",
"-	c #31BDE6",
";	c #31B5DE",
">	c #3193BD",
",	c #165A77",
"'	c #2894BE",
")	c #31ADD5",
"!	c #217496",
"~	c #216783",
"{	c #31C5F0",
"]	c #2183AD",
"^	c #31A7D4",
"/	c #217FA5",
"(	c #215568",
"_	c #2A7394",
":	c #31A4CE",
"<	c #30ACDE",
"[	c #31B5E6",
"}	c #233D47",
"|	c #209DC5",
"1	c #2A8CAD",
"2	c #298CB5",
"3	c #29ADD9",
"4	c #31CEF6",
"5	c #3BCDF7",
"6	c #2981A5",
"7	c #3AD6FC",
"8	c #29A3D0",
"9	c #2A93B4",
"0	c #3BC6EF",
"a	c #21627A",
"b	c #1FA1CE",
"c	c #214658",
"d	c #1FA6D6",
"...........+++.............+++..",
".............++..............++.",
"..............+...............+.",
"...............+...............+",
"..........@#...+...............+",
"+..............++..............+",
"++....$%.....&*.++..............",
"++....=......-;>+,'..)!.~.......",
"+++.......{].^&&+=;..^^.........",
"++++...;..{/..@.++(+>-^._.......",
"++++..:<........++'+.{'.[.......",
"+++++.....:.....+++++!;.,.......",
".++++&+..;=......++++_-.........",
".+++}%++|<'......++++,;++.{.....",
"..+++++=12).3'....++++++++4.....",
".....+,=+55+;2......(!=-+++++...",
"......(6!..+*@......_^&-.7.+++..",
".......<#..)|@+....._8.5{5...++.",
"........19.0);).......#05=[...+.",
"......4@):.7-.8+..(@.._0=)&....+",
"......0a'b@=...+..@).a=-c0!....+",
"+.........4%...++.$8.%-_=......+",
"++........0@..=.++.....;5/=.....",
"++............-#'+.2.....-0.....",
"+++.....6d....(2=++)............",
"++++.....@.....>2+++............",
"++++............++++............",
"+++++...........+++++...........",
".++++++..........++++++.........",
".++++++++........++++++++.......",
"..+++++++++.......+++++++++.....",
".....++++++++........++++++++..."};
