/* XPM */
static char * Agua2_xpm[] = {
"32 32 48 1",
" 	c None",
".	c #4878D8",
"+	c #4890D8",
"@	c #21627A",
"#	c #176A8C",
"$	c #214658",
"%	c #2183AD",
"&	c #299DC3",
"*	c #187CA3",
"=	c #329DC4",
"-	c #28BDE6",
";	c #3BCDF7",
">	c #3BC6EF",
",	c #216B8C",
"'	c #29ADD9",
")	c #31D7FD",
"!	c #31A4CE",
"~	c #215568",
"{	c #31CEF6",
"]	c #2A93B4",
"^	c #29A3D0",
"/	c #31BDE6",
"(	c #31B5DE",
"_	c #217B9D",
":	c #297C9C",
"<	c #3193BD",
"[	c #2981A5",
"}	c #218CB4",
"|	c #3AD6FC",
"1	c #30ACDE",
"2	c #217496",
"3	c #1783AE",
"4	c #2A7394",
"5	c #32BDEE",
"6	c #31B5E6",
"7	c #2194BD",
"8	c #31A7D4",
"9	c #28C5F0",
"0	c #29CFF7",
"a	c #31ADD5",
"b	c #2A8CAD",
"c	c #31C5F0",
"d	c #21B6E1",
"e	c #29B5E0",
"f	c #216783",
"g	c #209DC5",
"h	c #1FA6D6",
"i	c #233D47",
"...........+++.............+++..",
".............++..............++.",
"..............+...............+.",
"...............+...............+",
".........@#....+...............+",
"+....$%@....&*.++..............+",
"++...=......-;>.,')..&!=,~......",
"++....{].{;.^//(+_:.#;;.<[......",
"+++...(}.||..~1(+,2=:;/.[$......",
"++++../3......==++++4;;.2~......",
"++++(...;/*.....++++$;{.........",
"++++5..(((,.....+++++;;...).....",
".++++{466>2{{7...+++++8;{.|.....",
".++++>2+;{29{7...+++++[;0.{.....",
"..+++a[>a{2}b#....+#/+4>03+.....",
".....)(>+++c:=a....#(+;{+<+++...",
"......a=...>[c(.......>>%!a+++..",
".....|,(c..{/+;...24..4;&&/..++.",
".....a;bcb}|d.+...(1.;=|!:e...+.",
".....^|=.;|f...+..(1.{/.c......+",
".........||,..:('.....{{!!g....+",
"+......,,....;|(6.!!..h&:;{....+",
"++.....>>.....i((+/(............",
"++.............f++..............",
"+++.............+++.............",
"++++............++++............",
"++++............++++............",
"+++++...........+++++...........",
".++++++..........++++++.........",
".++++++++........++++++++.......",
"..+++++++++.......+++++++++.....",
".....++++++++........++++++++..."};
