/* XPM */
static char *afundando1_tmp[] = {
/* columns rows colors chars-per-pixel */
"32 50 198 2 ",
"   c #170900",
".  c #1E1407",
"X  c #251101",
"o  c #2C1402",
"O  c #241807",
"+  c #23170A",
"@  c #25190C",
"#  c #2C1E0C",
"$  c #361600",
"%  c #3A1701",
"&  c #3B1C04",
"*  c #341D0B",
"=  c #3D1F08",
"-  c #261B11",
";  c #2B1D11",
":  c #321F13",
">  c #2E200F",
",  c #33220D",
"<  c #3B290E",
"1  c #2E2112",
"2  c #26231E",
"3  c #2C261D",
"4  c #322513",
"5  c #362816",
"6  c #3C2A13",
"7  c #372818",
"8  c #3D2D1A",
"9  c #141E27",
"0  c #18222B",
"q  c #1B2731",
"w  c #431C01",
"e  c #442105",
"r  c #4C2304",
"t  c #432A06",
"y  c #44240B",
"u  c #4A250B",
"i  c #4E2A0D",
"p  c #522302",
"a  c #592704",
"s  c #542B0A",
"d  c #5C2D0B",
"f  c #5A330E",
"g  c #432E13",
"h  c #422914",
"j  c #4A2C12",
"k  c #562C12",
"l  c #463116",
"z  c #4C3114",
"x  c #44321A",
"c  c #4A341A",
"v  c #523214",
"b  c #573519",
"n  c #5B3E1A",
"m  c #632B05",
"M  c #6C3303",
"N  c #65340C",
"B  c #6B360B",
"V  c #6C3C0E",
"C  c #743707",
"Z  c #74360C",
"A  c #78370B",
"S  c #7C3C0D",
"D  c #612915",
"F  c #683814",
"G  c #763B10",
"H  c #7A3D10",
"J  c #442C20",
"K  c #502C20",
"L  c #4D3224",
"P  c #5A3621",
"I  c #563826",
"U  c #5D401E",
"Y  c #7F410F",
"T  c #64441E",
"R  c #6A4A1C",
"E  c #7E4112",
"W  c #734E1F",
"Q  c #654327",
"!  c #6B4C21",
"~  c #784526",
"^  c #7A5524",
"/  c #7B562A",
"(  c #77582C",
")  c #7D5A2B",
"_  c #6C4537",
"`  c #744D3A",
"'  c #3A4A57",
"]  c #5C484D",
"[  c #654E4D",
"{  c #694E48",
"}  c #6B5546",
"|  c #75584A",
" . c #6C5353",
".. c #665A5C",
"X. c #755959",
"o. c #756256",
"O. c #7D5F60",
"+. c #7E6561",
"@. c #746B71",
"#. c #823E0D",
"$. c #863631",
"%. c #8A3733",
"&. c #913938",
"*. c #CB0E03",
"=. c #D61004",
"-. c #84420E",
";. c #9F4E0E",
":. c #834411",
">. c #8A4612",
",. c #864B16",
"<. c #8A4916",
"1. c #914E17",
"2. c #97561D",
"3. c #845B2A",
"4. c #885C28",
"5. c #88583C",
"6. c #965233",
"7. c #8A622C",
"8. c #95662D",
"9. c #9B6530",
"0. c #A7712E",
"q. c #B77D2F",
"w. c #A47633",
"e. c #AA7635",
"r. c #B37832",
"t. c #BB7B36",
"y. c #BB7D39",
"u. c #895B49",
"i. c #955F43",
"p. c #8B6249",
"a. c #926A57",
"s. c #B16F41",
"d. c #BA7343",
"f. c #A87052",
"g. c #836465",
"h. c #866A67",
"j. c #8B6A6B",
"k. c #937474",
"l. c #A5786F",
"z. c #BD8238",
"x. c #C88537",
"c. c #C48A3D",
"v. c #CD8B3A",
"b. c #D18739",
"n. c #D38C3D",
"m. c #CC923F",
"M. c #D3923E",
"N. c #D9953C",
"B. c #E39B3F",
"V. c #E8A03F",
"C. c #BC8549",
"Z. c #B48D7C",
"A. c #CC8C40",
"S. c #CD9441",
"D. c #D59442",
"F. c #D99442",
"G. c #DA9941",
"H. c #DF8B54",
"J. c #E09443",
"K. c #E29C44",
"L. c #E5A345",
"P. c #ECA443",
"I. c #EDA948",
"U. c #F2AB4A",
"Y. c #F7AB49",
"T. c #FEB94E",
"R. c #EEBA50",
"E. c #FCB851",
"W. c #FFC254",
"Q. c #7E8196",
"!. c #95898E",
"~. c #AB8383",
"^. c #B18785",
"/. c #B38A8B",
"(. c #B88F8F",
"). c #AE989B",
"_. c #BD9292",
"`. c #9D96A2",
"'. c #B8AEBE",
"]. c #C19595",
"[. c #C49A9B",
"{. c #C1A5A5",
"}. c #D6A8A9",
"|. c #C1B1BF",
" X c #E1AEAF",
".X c #E4B4B4",
"XX c #EAB5B5",
"oX c #EAB6B8",
"OX c #F3BCBD",
"+X c #C0BBD1",
"@X c #E4C1C3",
"#X c #FDC4C5",
"$X c #FDCACB",
"%X c #FDD3D4",
"&X c #FAD7D7",
"*X c #FFDBDC",
"=X c #FFE5E7",
"-X c None",
/* pixels */
"-X-X-X-X-X-X-X-X-X-X-X-X-X-X- - -X-X-X-X-X-X-X-X-X-X-X-X-X-X-X-X",
"-X-X-X-X-X-X-X-X-X-X-X-X-X-X-X-X-X-X-X-X-X-X-X-X-X-X-X-X-X-X-X-X",
"-X-X-X-X-X-X-X-X-X-X-X .O.}.*X%X%X$X$X#XoXOX-X-X-X-X-X-X-X-X-X-X",
"-X-X-X-X-X-X-X-X- .Xk.-X-XM M m A M M M M d f.G -X-X-X-X-X-X-X-X",
"-X-X-X-X-X-X- @ k.  - - - - -X=X7 -X-X-X-X-X-X-X-X-X-X-X-X-X-X-X",
"-X-X-X-X-X- - - ; - - - - - - : <.-X-X-X-X-X-X-X-X-X-X-X-X-X-X-X",
"-X-X-X-X-X-X-X-X-X-X- -X-X-X-X* -X-X-X-X-X-X-X-X-X-X-X-X-X-X-X-X",
"-X-X-X-X-X-X-X-X-X-X- -X-X-X-XB -X-X-X-X-X-X-X-X-X-X-X-X-X-X-X-X",
"-X-X-X-X-X-X-X-X-X-X-X-X-X-X-X2.-X-X-X-X-X-X-X-X-X-X-X-X-X-X-X-X",
"-X-X-X-X-X-X-X-X-X-X- -X-X-XN -X-X-X-X-X-X-X-X-X-X-X-X-X-X-X-X-X",
"-X-X-X-X-X-X-X-X-X- = % w f 1.-X-X-X-X-X-X-X-X-X-X-X-X-X-X-X-X-X",
"-X-X-X-X-X-X-X-Xe & w e w B >.-X-X-X-X-X-X-X-X-X-X-X-X-X-X-X-X-X",
"-X-X-X-X-X-X-X* o > > @ O * @ -X-X-X-X-X-X-X-X-X-X-X-X-X-X-X-X-X",
"-X-X-X-X-X-X4 > 1 @ , O z.G.Y.E.U.-X-X-X-X-X-X-X-X-X-X-X-X-X-X-X",
"-X-X-X-X-X; 4 1 4 > . 8.M.J.U.I.C.-X-X-X-X-X-X-X-X-X-X-X-X-X-X-X",
"-X-X-X-X-X5 1 > O @ 8.T.K.K.R ] j.X.O.h.k.{.*XXXXX$Xg.-X-X-X-X-X",
"-X-X-X-X5 4 > > , + K.R.3./ u y o o u F k u s y y o -X-X@X-X-X-X",
"-X-X-X- 5 4 , > , D.U.) 3.7.3.3.( 3.-X-X-X1.F N d s -X-Xm Z -X-X",
"-X-X-X5 4 6 6 * ^ F.E.) 9.8.L.3.W.I.-X-X-X-X-X-X-X-X>.-X-X-X-X-X",
"-X-X-X1 8 6 , , A.U.e./ 4.7./ 3./ 3.-X-X-X-X-X-X-X-X-X-X-X-X-X-X",
"-X-X- 8 6 6 N r.x.j n n T ! Q < ,.-X-X-X-X-X-X-X-X-X-X-X-X-X-X-X",
"-X-X1 7 3 O B y.n.v.L.D.b.P.^ g :.-X- -X-X-X-X-X-X-X-X-X-X-X-X-X",
"-X-X8 2 9 ' B v.N.A.z.z.c.n.N.< Z -X-X-X-X-X-X-X-X-X-X-X-X-X-X-X",
"-X-X8 2 9 6 >.r.W 5.u.d.s.H.d.g ,.-X-X-X-X-X-X-X-X-X-X-X-X-X-X-X",
"-X-Xx c g g A 4.F p.i.{ u.p.| { _  .[ ] -X-X-X-X-X-X-X-X-X-X-X-X",
"-X-X8 2 0 f v.R R L X.] j.j.k.| %XXX X].].{.-X-X-X-X-X-X-X-X-X-X",
"-X-Xx 3 q G v.< c J L $ X p a a w   h. .+.j.g.&XXXoX X=X .-X-X-X",
"-X-X8 x c -.).t o.L ..5.P h.|.f s P $ o y Z.r p F b % % b } -X-X",
"-X-Xx 9 q S '.t P P | `.P j !., @.| -Xo.-Xa.-Xa.f.M V i -X-X-.-X",
"-X-Xx 9 q Z !.t 5.s.~ l P , @., ..} -X-X`.+X-X| +.Q.-X*.a H -X-X",
"-X-Xx g l A K.m.n.^ ! U ! t.6 S -X-X-X-X-X-X-X-X-X-X-X*.*.-X-X-X",
"-X-Xx j g -.2.2.2.z z v z 4., s - -X-X-X-X-X-X-X-X-X-X*.*.-X-X-X",
"-X-Xx h s D s S #.#.G S , d y s p I -X-X-X-X-X-X-X-X-X*.=.-X-X-X",
"-X-X- z s $.K ,.c.D.L.A.n.V.3.M.U.w _.-X-X-X-X-X-X-X*.*.*.-X-X-X",
"-X-X@ v s $.%.m z.S.L.t.b.V.l L.K.k.w [.-X-X-X-X-X-X-X-X-X-X-X-X",
"-X-X-Xh d %.%.C c A.I.y.v.B.8.w.K.V /.r ^.-X-X-X-X-X-X-X-X-X-X-X",
"-X-X-X4 i $.$.A T e.L.v.0.q.e.M.A.H -XQ a.[.-X-X-X-X-X-X-X-X-X-X",
"-X-X-X- e $.$.6.G z.F.N.r e % X X -X-X/.b u.[.-X-X-X-X-X-X-X-X-X",
"-X-X-X- y y d * S T N.N.q.n v.n u s = w b o L l.-X-X-X-X-X-X-X-X",
"-X-X-X- r * &.D = #.v.B.L.4.4.& & -X-X-X(.l.r ` ~ -X-X-X-X-X-X-X",
"-X-X-X-Xu Z %.$.;.S -.v N.1.i < i -X-X-X~./.^.r [.-X-X-X-X-X-X-X",
"-X-X-X-X# y %.%.N Y E E >.S N & -X-X-X-X(.~.(.(.w }.-X-X-X-X-X-X",
"-X-X-X-X- * k &.d >.-.:.-.A #.S -X-X-X-X].~.-X_.l.r -X-X-X-X-X-X",
"-X-X-X-X-X- - $ f S -.>.:.S -.E -X-X-X-X-X-X-X-X-Xk -X-X-X-X-X-X",
"-X-X-X-X-X- - - r ; - - - -.N - -X-X-X-X-X-X-X-X-X-X*X-X-X-X-X-X",
"-X-X-X-X-X- -X-X-X-X- - -X-X; - -X-X-X-X-X-X-X-X-X-X-X-X-X-X-X-X",
"-X-X-X-X-X- -X-X-X-X-X-X-X- - - -X-X-X-X-X-X-X-X-X-X-X-X-X-X-X-X",
"-X-X-X-X-X-X-X-X-X-X-X-X-X- - # -X-X-X-X-X-X-X-X-X-X-X-X-X-X-X-X",
"-X-X-X-X-X-X-X-X-X-X-X-X-X-X[  . .X.X.#XOXOXOX#X-X-X-X-X-X-X-X-X",
"-X-X-X-X-X-X-X-X-X-X-X-Xj.k.-X-X& l.i.5.| ` XX}.}.}.-X-X-X-X-X-X"
};
