/* XPM */
static char *afundando2_tmp[] = {
/* columns rows colors chars-per-pixel */
"32 32 172 2 ",
"   c #300F00",
".  c #2B1C0C",
"X  c #3C1C03",
"o  c #301D0A",
"O  c #261B11",
"+  c #2A1D13",
"@  c #2E200A",
"#  c #3D2007",
"$  c #33220C",
"%  c #3B250D",
"&  c #3C280F",
"*  c #2E2314",
"=  c #23231F",
"-  c #332515",
";  c #3C2611",
":  c #372815",
">  c #34291A",
",  c #392918",
"<  c #3B2C19",
"1  c #1A1F22",
"2  c #212423",
"3  c #332B26",
"4  c #2D302D",
"5  c #232E38",
"6  c #791102",
"7  c #442104",
"8  c #44230B",
"9  c #4A2609",
"0  c #42290F",
"q  c #4B2A09",
"w  c #572905",
"e  c #57290A",
"r  c #55300F",
"t  c #442C12",
"y  c #422816",
"u  c #502F13",
"i  c #443116",
"p  c #41311A",
"a  c #49341D",
"s  c #5C3411",
"d  c #593819",
"f  c #5D3E1A",
"g  c #602B0E",
"h  c #65340E",
"j  c #6D380E",
"k  c #713809",
"l  c #652E19",
"z  c #633512",
"x  c #633913",
"c  c #6B3B13",
"v  c #723B10",
"b  c #793F14",
"n  c #513121",
"m  c #5E3924",
"M  c #613C28",
"N  c #723323",
"B  c #65451C",
"V  c #6C461B",
"C  c #7C4214",
"Z  c #7E461D",
"A  c #45413D",
"S  c #5B4339",
"D  c #6D4222",
"F  c #6C4A22",
"G  c #6A4229",
"H  c #734826",
"J  c #7F5826",
"K  c #735429",
"L  c #694839",
"P  c #6E4C3C",
"I  c #754C38",
"U  c #7B563B",
"Y  c #785939",
"T  c #5A545C",
"R  c #614C46",
"E  c #694C45",
"W  c #755242",
"Q  c #70534D",
"!  c #6D5252",
"~  c #795B53",
"^  c #7C5E5D",
"/  c #7F6367",
"(  c #7A7077",
")  c #B61607",
"_  c #803A20",
"`  c #8B3936",
"'  c #8E3938",
"]  c #D30E04",
"[  c #DC0D04",
"{  c #89470E",
"}  c #844513",
"|  c #864617",
" . c #934D16",
".. c #86511F",
"X. c #8F4325",
"o. c #884A23",
"O. c #845824",
"+. c #815B2C",
"@. c #9A5B29",
"#. c #8A5836",
"$. c #A55E2A",
"%. c #8F632F",
"&. c #96642B",
"*. c #99682A",
"=. c #916333",
"-. c #9A6C34",
";. c #A46C2D",
":. c #BF6F27",
">. c #A16C30",
",. c #AD7330",
"<. c #A27338",
"1. c #AB7B3A",
"2. c #805544",
"3. c #895C4A",
"4. c #896248",
"5. c #9B6F44",
"6. c #987148",
"7. c #856255",
"8. c #8A6558",
"9. c #996A57",
"0. c #A66941",
"q. c #A56948",
"w. c #B1714F",
"e. c #AC7857",
"r. c #B37B51",
"t. c #846464",
"y. c #836668",
"u. c #8A6A6B",
"i. c #906963",
"p. c #9B6F62",
"a. c #906E6F",
"s. c #97736B",
"d. c #957376",
"f. c #9D7572",
"g. c #A47667",
"h. c #AA7E78",
"j. c #BD8438",
"k. c #C4863A",
"l. c #D9933D",
"z. c #A9817B",
"x. c #B08875",
"c. c #CC9040",
"v. c #C79B48",
"b. c #D99A45",
"n. c #C08A52",
"m. c #DC8854",
"M. c #D59F50",
"N. c #E59A48",
"B. c #EBAC4E",
"V. c #F4AF4C",
"C. c #F9AA4B",
"Z. c #F7B24F",
"A. c #F8B74F",
"S. c #E3A055",
"D. c #F6AC50",
"F. c #FFBC54",
"G. c #CA9B67",
"H. c #FFCC59",
"J. c #AD8483",
"K. c #A68D8F",
"L. c #B98982",
"P. c #B78E8E",
"I. c #BC9495",
"U. c #C18E85",
"Y. c #C09595",
"T. c #CC9D9B",
"R. c #C7A694",
"E. c #DCADAD",
"W. c #CDB3A2",
"Q. c #D9BABB",
"!. c #EBBCBD",
"~. c None",
/* pixels */
"~.~.~.~.~.~.~.~.~.~.~.~.~.~.~.+ + ~.~.~.~.~.~.~.~.~.~.~.~.~.~.~.",
"~.~.~.~.~.~.~.~.~.~.~.~.~.~.~.~.~.L i.p.U.L.T.!.!.~.~.~.~.~.~.~.",
"~.~.~.~.~.~.~.~.~.~.~.~.~.~.> ~.~.~.~.$.$.o.o.Z ..| #.~.~.~.~.~.",
"~.~.~.~.~.~.~.~.~.~.O O ~.O O O + O ~.~.~.} ~.~.~.~.~.~.~.~.~.~.",
"~.~.~.~.~.~.~.~.~.~.~.~.O ~.O O O O ~.0 b ~.~.~.~.~.~.~.~.~.~.~.",
"~.~.~.~.~.~.~.~.~.~.~.~.~.O ~.~.~.~.~.{ ~.~.~.~.~.~.~.~.~.~.~.~.",
"~.~.~.~.~.~.~.~.~.~.~.+ ~.7 X # 7 8 b ~.~.~.~.~.~.~.~.~.~.~.~.~.",
"~.~.~.~.~.~.~.~.~.~.. $ . . @ % o s ,.~.~.~.~.~.~.~.~.~.~.~.~.~.",
"~.~.~.~.~.~.~.~.~.+ @ . @ . - f j.N.A.A.~.~.~.~.~.~.~.~.~.~.~.~.",
"~.~.~.~.~.~.~.~.+ * @ % & & O.H.D.,.M.S.n.~.~.~.~.~.~.~.~.~.~.~.",
"~.~.~.~.~.~.~.+ : ; ; ; + c.F.v.c.#.U P W d.a.d.K.a.~.~.~.~.~.~.",
"~.~.~.~.~.~.O - : & & ; c.D.B.-.-.<.-.1.~.e x.X ~.w ~.# ~.Q.~.~.",
"~.~.~.~.~.~.+ , 2 > C j.j.K J J *.K V ~.~.~.~.~.~.| v h ~.k ~.~.",
"~.~.~.~.~.~.> - 1 A :...0.K a d =.i s ~.~.~.~.~.~.~.~.~.~.~.~.~.",
"~.~.~.~.~.O : > - x *.B w.q.q.m.<.. u O ~.~.~.~.~.~.~.~.~.~.~.~.",
"~.~.~.~.~.~.i 2 4 @.+.O.9.E ! / / ^ Q R E ~.~.~.~.~.~.~.~.~.~.~.",
"~.~.~.~.~.p > = s e.F G W m ~ L h.s.M ~.~.~.~.~.~.~.~.~.~.~.~.~.",
"~.~.~.~.~., 2 5 h G.Y 8.7.W ( S M o.o.D y.t.y.u.y.y.t.~.~.~.~.~.",
"~.~.~.~.~.< 0 u } J F 6.&.%.&.d 4.T ~.~.E L g.9.#.R.W.2.R.~.~.~.",
"~.~.~.~.~.a 9 N x q X C C h 0 O y 3 ~.~.~.~.~.~.~.w 7 q ~.r.~.~.",
"~.~.~.~.~.O 0 X.` { O.b.F.&.H O.>.0 n ~.~.~.~.~.~.~.~.) 6 ~.~.~.",
"~.~.~.~.~.O 9 _ ` { &.B.N.l.l.+.1.5.D Y.~.~.~.~.~.~.] ] [ ~.~.~.",
"~.~.~.~.~.~.9 _ ' { -.Z.N.;.l.1.b.C J.I Y.~.~.~.~.~.] ] ~.~.~.~.",
"~.~.~.~.~.~.X N e } ..V.C.V 9 x r ~.~.8.3.g.~.~.~.~.~.] ~.~.~.~.",
"~.~.~.~.~.~.9 ' ' w } k.l.j.,.z X X   s.9 J.~.~.~.~.~.~.~.~.~.~.",
"~.~.~.~.~.~.. l ' j { |  .} j h ~.~.~.f.8.m P ~.~.~.~.~.~.~.~.~.",
"~.~.~.~.~.~.~.O g c } }  . .8 y ~.~.~.P.J.z.M I.~.~.~.~.~.~.~.~.",
"~.~.~.~.~.~.~.O . e y t z z v O ~.~.~.~.~.~.p.2.~.~.~.~.~.~.~.~.",
"~.~.~.~.~.~.~.~.~.~.~.~.~.~.~.O ~.~.~.~.~.~.~.~.z ~.~.~.~.~.~.~.",
"~.~.~.~.~.~.~.~.~.~.~.~.~.~.O + O ~.~.~.~.~.~.~.v ~.~.~.~.~.~.~.",
"~.~.~.~.~.~.~.~.~.~.~.~.~.~.~.O ~.~.~.^ ~.~.! ~.~.~.~.~.~.~.~.~.",
"~.~.~.~.~.~.~.~.~.~.~.~.~.~.~.~.~.~.~.~.~ L I.E.T.E.!.~.~.~.~.~."
};
