/* XPM */
static char *afundando7_tmp[] = {
/* columns rows colors chars-per-pixel */
"32 32 77 1 ",
"  c #150C04",
". c #1F1105",
"X c #1D140A",
"o c #3B1E06",
"O c #331D08",
"+ c #331E0E",
"@ c #381C0D",
"# c #211912",
"$ c #251A11",
"% c #281C13",
"& c #3A210C",
"* c #411D00",
"= c #681D07",
"- c #47260A",
"; c #562500",
": c #532E0E",
"> c #542C0D",
", c #5C300C",
"< c #472912",
"1 c #61330E",
"2 c #6F3508",
"3 c #7D3903",
"4 c #783B09",
"5 c #6E3910",
"6 c #482F23",
"7 c #443028",
"8 c #4A362F",
"9 c #543C34",
"0 c #7E4110",
"q c #66482D",
"w c #7C523B",
"e c #514040",
"r c #6F534F",
"t c #7E605D",
"y c #776362",
"u c #8A1704",
"i c #A51409",
"p c #BC1207",
"a c #D30F04",
"s c #DA1105",
"d c #EC0F04",
"f c #E31004",
"g c #E41004",
"h c #804010",
"j c #854717",
"k c #874815",
"l c #9D591C",
"z c #915622",
"x c #A85E20",
"c c #815D45",
"v c #96644C",
"b c #90665D",
"n c #876666",
"m c #8A6969",
"M c #8C6B6B",
"N c #906D6D",
"B c #957C6A",
"V c #997474",
"C c #9F7A7A",
"Z c #A0766F",
"A c #B37D6A",
"S c #A77A73",
"D c #A37C7C",
"F c #A47D7D",
"G c #A78275",
"H c #C58873",
"J c #AA8182",
"K c #AE8686",
"L c #B1888A",
"P c #B98D8E",
"I c #AD928C",
"U c #BC9193",
"Y c #CCA087",
"T c #CE9EA1",
"R c #C5B8B2",
"E c white",
"W c None",
/* pixels */
"WWWWWWWWWWWWWWWWWWWWWWWWWWWWWWWW",
"WWWWWWWWWWWWWWWWWWWWWWWWWWWWWWWW",
"WWWWWWWWWWWWWWWWWWWWWWWWWWWWWWWW",
"WWWWWWWWWWWWWWWWWWWWWWWWWWWWWWWW",
"WWWWWWWWWWWWMmnWWWWWWWWWWWWWWWWW",
"WWWWWWWWWWWtbSZI97WWWWWWWWWWWWWW",
"WWWWWWWWWWWX*wq3h:4,cvWWWWWWWWWW",
"WWWWWWWWWWWWWWWWWWWWWWWWWWWWWWWW",
"WWWWWWWWWWWWWWWWWWWWWWWWWWWWWWWW",
"WWWWWWWWWWWWWWWWWWWWWWWWWWWWWWWW",
"WWWWWWWWWWWWWWWWWWWWWWWWWWWWWWWW",
"WWWWWWWWWWWWWWWWWWWWWWWWWWWWWWWW",
"WWWWWWWWWWWWWWWWWWWWWWWWWWWWWWWW",
"WWWWWWWWWWWWWWWWWWWWWWWWWWWWWWWW",
"WWWWWWWWWWWWWWWWWWWWWWWWWWWWWWWW",
"WWWWWWWWWWW8KFDDCVNWWWWWWWWWWWWW",
"WWWWWWWWWWW$rTPPLKJFWWWWWWWWWWWW",
"WWWWWWWWWW%$&0Y;-oO.JRWWWWWWWWWW",
"WWWWWWWWWWWWWW #<j112;BWWWWWWWWW",
"WWWWWWWWWWWWWWWW$WW>WWWWWWWWWWWW",
"WWWWWWWWWWWWWWWWWWWWWWWWWWWWWWWW",
"WWWWWWWWWWWWWWWWWWWWWWWWWWWWWWWW",
"WWWWWWWWWWWWWWWWWWWWWWWWWWWWWWWW",
"WWWWWWWWWWULKUKWWWWWWWWWWWWWWWWW",
"WWWWWWWWW+HAG6eWyrWWWWWWWWWWWWWW",
"WWWWWWWWW$%zxl0k5WEWWWWWWWWWWWWW",
"WWWWWWWWWWWWWW@WWWWWWWWWWWWWWWWW",
"WWWWWWWWWWWWWWiau=WWWWWWWWWWWWWW",
"WWWWWWWWWWWWWWsgdWWWWWWWWWWWWWWW",
"WWWWWWWWWWWWWWgfWWWWWWWWWWWWWWWW",
"WWWWWWWWWWWWWWpWWWWWWWWWWWWWWWWW",
"WWWWWWWWWWWWWWWWWWWWWWWWWWWWWWWW"
};
