/* XPM */
static char *afundando4_tmp[] = {
/* columns rows colors chars-per-pixel */
"32 32 165 2 ",
"   c #1F130C",
".  c #241001",
"X  c #25190D",
"o  c #2B1B0D",
"O  c #331804",
"+  c #3D1C03",
"@  c #331D0B",
"#  c #271B11",
"$  c #2A1D12",
"%  c #2F200C",
"&  c #32200C",
"*  c #3B230B",
"=  c #3B290F",
"-  c #2D2113",
";  c #2C231A",
":  c #2F291F",
">  c #342412",
",  c #3B2512",
"<  c #3B2911",
"1  c #33261D",
"2  c #3A2C1A",
"3  c #1B262E",
"4  c #232524",
"5  c #252B2F",
"6  c #3D2D26",
"7  c #393534",
"8  c #3E3839",
"9  c #421E03",
"0  c #571E03",
"q  c #4C2405",
"w  c #44230B",
"e  c #482508",
"r  c #40280D",
"t  c #53290B",
"y  c #5D2C08",
"u  c #5B300C",
"i  c #432D11",
"p  c #4B2D12",
"a  c #4A231E",
"s  c #562D18",
"d  c #463112",
"f  c #4B3314",
"g  c #593812",
"h  c #53351B",
"j  c #593B1D",
"k  c #632F09",
"l  c #6C360C",
"z  c #6E380D",
"x  c #633915",
"c  c #653E18",
"v  c #763B10",
"b  c #44342B",
"n  c #593F22",
"m  c #5E3D2B",
"M  c #573E37",
"N  c #783822",
"B  c #67421C",
"V  c #7E4315",
"C  c #704618",
"Z  c #7A461F",
"A  c #58433B",
"S  c #684422",
"D  c #7D5526",
"F  c #61483E",
"G  c #72493B",
"H  c #7D533B",
"J  c #474043",
"K  c #564B4A",
"L  c #5D5456",
"P  c #624B4C",
"I  c #6A4F4A",
"U  c #734E41",
"Y  c #775847",
"T  c #7F584E",
"R  c #79727D",
"E  c #881C06",
"W  c #88332F",
"Q  c #853430",
"!  c #D31204",
"~  c #E21004",
"^  c #814313",
"/  c #864816",
"(  c #88521B",
")  c #95541E",
"_  c #A7561A",
"`  c #855121",
"'  c #865B27",
"]  c #985C28",
"[  c #805237",
"{  c #895F30",
"}  c #895839",
"|  c #A55D20",
" . c #886129",
".. c #99662C",
"X. c #A06527",
"o. c #A46A2E",
"O. c #A6702C",
"+. c #A27032",
"@. c #A3743A",
"#. c #A6793B",
"$. c #B67632",
"%. c #865B48",
"&. c #8A5F53",
"*. c #8D6143",
"=. c #8F604A",
"-. c #8F6457",
";. c #8F6850",
":. c #89655C",
">. c #936C5F",
",. c #A36B4D",
"<. c #AA7243",
"1. c #A26E50",
"2. c #A67255",
"3. c #B37351",
"4. c #876768",
"5. c #8C6B6C",
"6. c #906C66",
"7. c #906C6C",
"8. c #977268",
"9. c #9E766D",
"0. c #947272",
"q. c #9A7575",
"w. c #987578",
"e. c #9D797A",
"r. c #A57565",
"t. c #A77B73",
"y. c #A37D7D",
"u. c #BD843D",
"i. c #B78741",
"p. c #BF8E41",
"a. c #BF9044",
"s. c #A38870",
"d. c #B88A77",
"f. c #C48942",
"g. c #C19240",
"h. c #D19044",
"j. c #C8965A",
"k. c #E49F4E",
"l. c #EB9E4B",
"z. c #DDA148",
"x. c #EAA44B",
"c. c #E9AA4D",
"v. c #F6AD50",
"b. c #E5B350",
"n. c #F6B455",
"m. c #FDB554",
"M. c #FCBF57",
"N. c #FFC95B",
"B. c #FFD05B",
"V. c #8D8682",
"C. c #AB8384",
"Z. c #AA8587",
"A. c #B38789",
"S. c #B48C8D",
"D. c #B38B90",
"F. c #AD9595",
"G. c #BB9193",
"H. c #B29C9F",
"J. c #C19497",
"K. c #D1AC8F",
"L. c #C29EA4",
"P. c #D7A3A3",
"I. c #CAB6B6",
"U. c #FBF9FF",
"Y. c None",
/* pixels */
"Y.Y.Y.Y.Y.Y.Y.Y.Y.Y.Y.Y.Y.Y.Y.# Y.Y.Y.Y.Y.Y.Y.Y.Y.Y.Y.Y.Y.Y.Y.Y.",
"Y.Y.Y.Y.Y.Y.Y.Y.Y.Y.Y.Y.Y.Y.Y.Y.Y.Y.Y.Y.5.7.5.5.4.Y.Y.Y.Y.Y.Y.Y.",
"Y.Y.Y.Y.Y.Y.Y.Y.Y.Y.Y.Y.Y.Y.Y.Y.Y.Y.Y.Y.Y.Y.&.%.S.Y.Y.Y.Y.Y.Y.Y.",
"Y.Y.Y.Y.Y.Y.Y.Y.Y.Y.Y.Y.# # # # # # # Y.Y.Y.Y.| Y.V l z [ t.Y.Y.",
"Y.Y.Y.Y.Y.Y.Y.Y.Y.Y.Y.Y.# o o X o o $ # Y.Y.Y.w k Y.Y.Y.Y.Y.Y.Y.",
"Y.Y.Y.Y.Y.Y.Y.Y.Y.Y.Y.q @ @ @ * * 9 e * o y z Y.Y.Y.Y.Y.Y.Y.Y.Y.",
"Y.Y.Y.Y.Y.Y.Y.Y.Y.Y.+ @ o = = i i = q q z x Y.Y.Y.Y.Y.Y.Y.Y.Y.Y.",
"Y.Y.Y.Y.Y.Y.Y.Y.Y.o - @ i = i i d < f c Y.Y.Y.Y.Y.Y.Y.Y.Y.Y.Y.Y.",
"Y.Y.Y.Y.Y.Y.Y.Y.$ > = i p f i f B  .h.m.M.Y.Y.Y.Y.Y.Y.Y.Y.Y.Y.Y.",
"Y.Y.Y.Y.Y.Y.Y.; > i f f f f D u.b.m.` C m.Y.Y.Y.Y.Y.Y.Y.Y.Y.Y.Y.",
"Y.Y.Y.Y.Y.Y.- > & f f f i +.k.N.x.l.i.X.m 8.Y.:.Y.Y.Y.Y.Y.Y.Y.Y.",
"Y.Y.Y.Y.Y.Y.> < 3 5 x o.#.@.g.f.c.a.h.j.7.0.q.q.7.7.Y.Y.Y.Y.Y.Y.",
"Y.Y.Y.Y.Y.2 = : ; j ] D } <.h { S & Y.Y.Y.Y.G.C.C.t.q.e.Y.Y.Y.Y.",
"Y.Y.Y.Y.Y.i 4 5 g ( ' i.1.,.*.[ % h Y.Y.Y.Y.s P.q.I.U.Z.y.w.Y.Y.",
"Y.Y.Y.Y.Y.4 2 b | s. .3.r.4.5.F S # # Y.Y.Y.Y.Y.Y.Y.v z z [ Y.Y.",
"Y.Y.Y.Y.Y.4 7 ` Y H d.2.=.r.y.y.P P 6 1 Y.Y.Y.Y.Y.Y.Y.+ Y.Y.Y.Y.",
"Y.Y.Y.Y.Y.r S Y.8 b H.6.F.b G.J.A.D.y.w.7.Y.Y.Y.Y.Y.Y.Y.Y.Y.Y.Y.",
"Y.Y.Y.Y.Y.N / X x , 1 # L X t c K.p , $ V.y.Y.Y.Y.Y.Y.Y.Y.Y.Y.Y.",
"Y.Y.Y.Y.Y.W s / p B > X o K 2 R J *.Z %.G m } Y.Y.Y.Y.Y.Y.Y.Y.Y.",
"Y.Y.Y.Y.Y.Q N ` $.z.] B ..c > A b Y.R Y.C.y.y.q.q.Y.Y.Y.Y.Y.Y.Y.",
"Y.Y.Y.Y.Y.a ) x.m.v.x.p.<.i.;.t.Y.Y.Y.Y.-.P.L.D.C.I.Y.Y.Y.Y.Y.Y.",
"Y.Y.Y.Y.Y.@ _ m.n.X.O.+.#.n I . $ Y.Y.Y.Y.Y.^ z / Y.M Y.Y.Y.Y.Y.",
"Y.Y.Y.Y.Y.l V B.m.n 9 O   X o O 7.X Y.Y.Y.Y.Y.Y.0 ( Y.v Y.Y.Y.Y.",
"Y.Y.Y.Y.Y.Y.Y.Y.Y.Y.# & w @ # :.9.M # Y.Y.Y.Y.Y.! E Y.Y.Y.Y.Y.Y.",
"Y.Y.Y.Y.Y.Y.Y.Y.Y.Y.# Y.Y.w U G./ S.# Y.Y.Y.Y.~ ~ ~ Y.Y.Y.Y.Y.Y.",
"Y.Y.Y.Y.Y.Y.Y.Y.Y.Y.# Y.# ; T e y S.Y.Y.Y.Y.Y.~ ~ Y.Y.Y.Y.Y.Y.Y.",
"Y.Y.Y.Y.Y.Y.Y.Y.Y.Y.Y.# # $ 5.8.U %.Y.Y.Y.Y.Y.Y.Y.Y.Y.Y.Y.Y.Y.Y.",
"Y.Y.Y.Y.Y.Y.Y.Y.Y.Y.Y.# # # X A D.u 2.Y.Y.Y.Y.Y.Y.Y.Y.Y.Y.Y.Y.Y.",
"Y.Y.Y.Y.Y.Y.Y.Y.Y.Y.Y.Y.# Y.# Y.Y.t C.Y.Y.Y.Y.Y.Y.Y.Y.Y.Y.Y.Y.Y.",
"Y.Y.Y.Y.Y.Y.Y.Y.Y.Y.Y.Y.# Y.# Y.Y.Y.>.Y.Y.Y.Y.Y.Y.Y.Y.Y.Y.Y.Y.Y.",
"Y.Y.Y.Y.Y.Y.Y.Y.Y.Y.Y.Y.Y.Y.# Y.Y.Y.z Y.Y.Y.Y.Y.Y.Y.Y.Y.Y.Y.Y.Y.",
"Y.Y.Y.Y.Y.Y.Y.Y.Y.Y.Y.Y.Y.# # Y.Y.Y.Y.Y.Y.Y.Y.Y.Y.Y.Y.Y.Y.Y.Y.Y."
};
