/* XPM */
static char *afundando5_tmp[] = {
/* columns rows colors chars-per-pixel */
"32 32 146 2 ",
"   c #1D140D",
".  c #2D1905",
"X  c #21160C",
"o  c #261A0F",
"O  c #2C1C0E",
"+  c #311B09",
"@  c #391F08",
"#  c #271B11",
"$  c #2A1E14",
"%  c #32220D",
"&  c #3B230C",
"*  c #2E221A",
"=  c #3E2910",
"-  c #30241B",
";  c #1D2831",
":  c #2C2724",
">  c #362B25",
",  c #3D2D25",
"<  c #3F2F2A",
"1  c #3D322E",
"2  c #421D02",
"3  c #621502",
"4  c #452103",
"5  c #4C2305",
"6  c #43250A",
"7  c #4B270A",
"8  c #522606",
"9  c #542E0F",
"0  c #582F0E",
"q  c #422713",
"w  c #432D11",
"e  c #4E2E14",
"r  c #562E16",
"t  c #473012",
"y  c #4A3313",
"u  c #443118",
"i  c #602707",
"p  c #66330B",
"a  c #6B360B",
"s  c #743B0F",
"d  c #7E3F0E",
"f  c #603D16",
"g  c #6C3F17",
"h  c #6B3A1B",
"j  c #4B3120",
"k  c #573F25",
"l  c #4D3730",
"z  c #513B33",
"x  c #543F3E",
"c  c #653E27",
"v  c #60431D",
"b  c #704116",
"n  c #7C4213",
"m  c #7E4B17",
"M  c #594020",
"N  c #564129",
"B  c #4A403D",
"V  c #6E4525",
"C  c #6C4921",
"Z  c #734325",
"A  c #754D25",
"S  c #76472D",
"D  c #7B5B27",
"F  c #74522A",
"G  c #664639",
"H  c #714A3B",
"J  c #4D4442",
"K  c #5B4642",
"L  c #5E4C4A",
"P  c #614A4B",
"I  c #6F5541",
"U  c #6C564D",
"Y  c #785C4D",
"T  c #6C5354",
"R  c #735452",
"E  c #7C5E5E",
"W  c #6A646D",
"Q  c #7B6F70",
"!  c #8D1906",
"~  c #D31203",
"^  c #E21004",
"/  c #8D440A",
"(  c #874514",
")  c #8F4C17",
"_  c #914E1B",
"`  c #A55B1E",
"'  c #814E2D",
"]  c #86502C",
"[  c #8D5E2C",
"{  c #8E5E33",
"}  c #9F7137",
"|  c #AB7A35",
" . c #B77F36",
".. c #B97D3A",
"X. c #855743",
"o. c #855E50",
"O. c #895D51",
"+. c #906240",
"@. c #96694B",
"#. c #8B6053",
"$. c #876058",
"%. c #A76A45",
"&. c #A56B4C",
"*. c #846563",
"=. c #8D6B6C",
"-. c #916C64",
";. c #916E6E",
":. c #9A746D",
">. c #8B7671",
",. c #847278",
"<. c #887279",
"1. c #977373",
"2. c #9B7575",
"3. c #9A7678",
"4. c #9F7A7B",
"5. c #A3756A",
"6. c #AA7E73",
"7. c #A37C7C",
"8. c #B68761",
"9. c #CA8F42",
"0. c #D69845",
"q. c #E5A24C",
"w. c #E6A94D",
"e. c #F5A64E",
"r. c #F6AA51",
"t. c #F6B454",
"y. c #F9B753",
"u. c #FABB55",
"i. c #FFC056",
"p. c #FFCA5D",
"a. c #A57F82",
"s. c #AA8284",
"d. c #A98689",
"f. c #B58B8D",
"g. c #B28C91",
"h. c #BB8F91",
"j. c #BC9296",
"k. c #B49C98",
"l. c #C79A9D",
"z. c #D2A2A4",
"x. c #C6B0B2",
"c. c #E4AEAE",
"v. c #F1EBEC",
"b. c #F9F7FC",
"n. c #FCFAF9",
"m. c None",
/* pixels */
"m.m.m.m.m.m.m.m.m.m.m.m.m.m.m.m.m.m.m.m.m.m.m.m.m.m.m.m.m.m.m.m.",
"m.m.m.m.m.m.m.m.m.m.m.m.m.m.m.m.m.T *.*.=.=.m.m.m.m.m.m.m.m.m.m.",
"m.m.m.m.m.m.m.m.m.m.m.m.# % # # - X m.s.O.$.*.m.m.m.m.m.m.m.m.m.",
"m.m.m.m.m.m.m.m.m.m.m.m.# # # # # # # m.m.` m.n s a h o.m.m.m.m.",
"m.m.m.m.m.m.m.m.m.m.m.m.O + O m.m.# # # O m.p m.m.m.m.m.m.m.m.m.",
"m.m.m.m.m.m.m.m.m.m.o % & @ 6 4 4 @ e 0 9 q m.m.m.m.m.m.m.m.m.m.",
"m.m.m.m.m.m.m.m.m.% % & = w = 6 5 8 n m.m.m.m.m.m.m.m.m.m.m.m.m.",
"m.m.m.m.m.m.m.m.O w w w w t = y w g m.m.m.m.m.m.m.m.m.m.m.m.m.m.",
"m.m.m.m.m.m.m.= t t y y t v D | 9.p.u.m.m.m.m.m.m.m.m.m.m.m.m.m.",
"m.m.m.m.m.m.m.y t y t w A w.y.r.b  .i.m.m.m.m.m.m.m.m.m.m.m.m.m.",
"m.m.m.m.m.m.u w f C | e.y.t.e.9...[ G m.m.$.m.m.m.m.m.m.m.m.m.m.",
"m.m.m.m.m.m.; k _ M X F ] A 0.} q.8.1.3.3.3.;.;.m.m.m.m.m.m.m.m.",
"m.m.m.m.m.m.N ` m.{ +.&.j X     X v m.m.j.s.s.7.2.3.m.m.m.m.m.m.",
"m.m.m.m.m.m.) m.m.@.m.m.# # O $ # # # m.r c.#.k.b.s.m.3.m.m.m.m.",
"m.m.m.m.m.m.m.m.m.E *.=.=.< $ $ # # # # m.m.m.s d a p a n.m.m.m.",
"m.m.m.m.m.m.m.I 1 L l ;.7.s.P B , - X # m.m.m.m.m.2 m.m.m.m.m.m.",
"m.m.m.m.m.m.m.Q x > W j l.f.h.s.7.=.R X # m.m.m.m.m.m.m.m.m.m.m.",
"m.m.m.m.m.m.m.* X > : - / 6.7 q q m.v.m.m.m.m.m.m.m.m.m.m.m.m.m.",
"m.m.m.m.m.m.m.m.# # - # # > >.V ' X.H G ] m.m.m.m.m.m.m.m.m.m.m.",
"m.m.m.m.m.m.m.m.m.m.# m.$ J J < ,.<.d.7.4.3.1.m.m.m.m.m.m.m.m.m.",
"m.m.m.m.m.m.m.m.m.m.# * + X O * $ Y 5.z.j.g.a.x.m.m.m.m.m.m.m.m.",
"m.m.m.m.m.m.m.m.m.m.m.# & U o o # # m./ ( s ( m.U m.m.m.m.m.m.m.",
"m.m.m.m.m.m.m.m.m.m.m.# K -.z # # # X m.m.m.i m m.m.m.m.m.m.m.m.",
"m.m.m.m.m.m.m.m.m.m.& # m.i g.. # # # m.m.m.~ ! 3 m.m.m.m.m.m.m.",
"m.m.m.m.m.m.m.m.m.m.& 2 m.6 6.m.m.m.m.m.m.^ ^ ^ m.m.m.m.m.m.m.m.",
"m.m.m.m.m.m.m.m.m.m.# m.7 + S j.m.m.m.m.^ ^ ^ m.m.m.m.m.m.m.m.m.",
"m.m.m.m.m.m.m.m.m.m.m.# m.6 2 -.m.m.m.m.m.^ m.m.m.m.m.m.m.m.m.m.",
"m.m.m.m.m.m.m.m.m.m.m.# # # z c %.m.m.m.m.m.m.m.m.m.m.m.m.m.m.m.",
"m.m.m.m.m.m.m.m.m.m.m.m.# # K Z d.m.m.m.m.m.m.m.m.m.m.m.m.m.m.m.",
"m.m.m.m.m.m.m.m.m.m.m.m.# # m.a :.m.m.m.m.m.m.m.m.m.m.m.m.m.m.m.",
"m.m.m.m.m.m.m.m.m.m.m.m.# # m.m.n m.m.m.m.m.m.m.m.m.m.m.m.m.m.m.",
"m.m.m.m.m.m.m.m.m.m.m.m.m.m.m.m.m.m.m.m.m.m.m.m.m.m.m.m.m.m.m.m."
};
