/* XPM */
static char *afundando3_tmp[] = {
/* columns rows colors chars-per-pixel */
"32 32 168 2 ",
"   c #271202",
".  c #271709",
"X  c #251A0D",
"o  c #2D1C0D",
"O  c #3D1E05",
"+  c #321D0C",
"@  c #271B11",
"#  c #291D11",
"$  c #2F200E",
"%  c #34240E",
"&  c #3B240C",
"*  c #3C290F",
"=  c #2D2113",
"-  c #2D271E",
";  c #342614",
":  c #3D2A12",
">  c #3C2815",
",  c #332A1C",
"<  c #232423",
"1  c #262B2D",
"2  c #3B2E20",
"3  c #411D04",
"4  c #7B1D07",
"5  c #432207",
"6  c #42250C",
"7  c #4A2408",
"8  c #4D290C",
"9  c #5A2B07",
"0  c #51290C",
"q  c #592D0B",
"w  c #53300D",
"e  c #442D12",
"r  c #4C2C12",
"t  c #422F19",
"y  c #562714",
"u  c #532811",
"i  c #473015",
"p  c #4C3214",
"a  c #49321A",
"s  c #5C3313",
"d  c #583519",
"f  c #65330D",
"g  c #68330C",
"h  c #73370C",
"j  c #6F2F1E",
"k  c #613212",
"l  c #663B15",
"z  c #6A3810",
"x  c #64321F",
"c  c #643C1B",
"v  c #733D14",
"b  c #7A3C1A",
"n  c #503825",
"m  c #563C2E",
"M  c #453730",
"N  c #653D26",
"B  c #763224",
"V  c #793330",
"C  c #63431B",
"Z  c #784617",
"A  c #754319",
"S  c #5B412E",
"D  c #554338",
"F  c #674426",
"G  c #774627",
"H  c #77542A",
"J  c #6B4737",
"K  c #62463B",
"L  c #764C35",
"P  c #784F38",
"I  c #6B533B",
"U  c #674A44",
"Y  c #7A5748",
"T  c #6C5E5B",
"R  c #785854",
"E  c #795D5D",
"W  c #7F6162",
"Q  c #8A3F20",
"!  c #823929",
"~  c #823433",
"^  c #893931",
"/  c #C60E04",
"(  c #DD0F04",
")  c #844816",
"_  c #8B4817",
"`  c #86441A",
"'  c #944916",
"]  c #89541E",
"[  c #8F5A1F",
"{  c #965018",
"}  c #9B521A",
"|  c #A1561B",
" . c #845523",
".. c #845B2C",
"X. c #875C31",
"o. c #83543A",
"O. c #8D5C3B",
"+. c #95662F",
"@. c #9C682F",
"#. c #8B6233",
"$. c #84603A",
"%. c #9B6C34",
"&. c #A2662B",
"*. c #A9752E",
"=. c #A06F33",
"-. c #A06D3E",
";. c #A37439",
":. c #AC7B3D",
">. c #B27B32",
",. c #C37D34",
"<. c #825D4E",
"1. c #8B5C48",
"2. c #865F52",
"3. c #876043",
"4. c #8C6843",
"5. c #8D644E",
"6. c #946042",
"7. c #926C4C",
"8. c #846056",
"9. c #8B6454",
"0. c #836559",
"q. c #986A57",
"w. c #A16F5F",
"e. c #A9755A",
"r. c #B27450",
"t. c #856565",
"y. c #8C6964",
"u. c #866768",
"i. c #8C6B6A",
"p. c #936C64",
"a. c #916E6E",
"s. c #9C7362",
"d. c #91706F",
"f. c #9C746C",
"g. c #967374",
"h. c #997475",
"j. c #9B7778",
"k. c #9D7878",
"l. c #A57A68",
"z. c #A47A75",
"x. c #A37C7C",
"c. c #C67C4B",
"v. c #B8863D",
"b. c #BF873F",
"n. c #C7873B",
"m. c #BB8941",
"M. c #BC8E52",
"N. c #9E827A",
"B. c #AF8571",
"V. c #A9817F",
"C. c #B38773",
"Z. c #C88841",
"A. c #CD9349",
"S. c #E99E4B",
"D. c #EAA64B",
"F. c #F5A54E",
"G. c #EEB854",
"H. c #F6B454",
"J. c #FEB553",
"K. c #FEB955",
"L. c #988787",
"P. c #A68282",
"I. c #AD8484",
"U. c #B08681",
"Y. c #B48C8E",
"T. c #C1999D",
"R. c #C0B5AA",
"E. c None",
/* pixels */
"E.E.E.E.E.E.E.E.E.E.E.E.E.@ @ @ E.E.E.E.E.E.E.E.E.E.E.E.E.E.E.E.",
"E.E.E.E.E.E.E.E.E.E.E.E.E.E.E.E.E.E.E t.W E E.E.E.E.E.E.E.E.E.E.",
"E.E.E.E.E.E.E.E.E.E.E.E.E.E.E.E.E.E.E.J G l.l.p.x.E.E.E.E.E.E.E.",
"E.E.E.E.E.E.E.E.E.E.@ @ @ @ @ @ E.E.E.E.E.E.E._ ` b Z q C.E.E.E.",
"E.E.E.E.E.E.E.E.E.E.@ @ @ @ @ X @ @ E.E.E.E.g E.E.E.E.E.E.E.E.E.",
"E.E.E.E.E.E.E.E.E.E.E.@ @ E.E.E.E.+ o E.E.f E.E.E.E.E.E.E.E.E.E.",
"E.E.E.E.E.E.E.E.E.E.E.o + + % & 5 5 O q z E.E.E.E.E.E.E.E.E.E.E.",
"E.E.E.E.E.E.E.E.E.E.. $ % & * * * & f E.E.E.E.E.E.E.E.E.E.E.E.E.",
"E.E.E.E.E.E.E.E.@ . $ % * & : * e i +.b.E.E.E.E.E.E.E.E.E.E.E.E.",
"E.E.E.E.E.E.E.# = = % * e : i C v.S.G.K.J.E.E.E.E.E.E.E.E.E.E.E.",
"E.E.E.E.E.E.@ = ; * e e : p :.G.J.n.Z @.M.E.E.E.E.E.E.E.E.E.E.E.",
"E.E.E.E.E.E.# ; * e e e C Z.J.J.F.b.A.<.i.a.a.i.u.E.E.E.E.E.E.E.",
"E.E.E.E.E.E.; = < - l +.%.m.Z.v.v.=.v.v.E.x.x.x.h.g.a.E.E.E.E.E.",
"E.E.E.E.E.; : ; < D @.*.:.X.H #.H % E.E.E.E.9.w.L 1.E.N.R E.E.E.",
"E.E.E.E.E.> , < , [ [ X.r.6.L O.t p E.E.E.E.E.E.E.9 9 E.h E.E.E.",
"E.E.E.E.E.> > 1 c -.#.c.e.9.2.S a r o E.E.E.E.E.E.E.E.z E.E.E.E.",
"E.E.E.E.t , < i #.7.o.9.Y y.g.h.h.u.U E.E.E.E.E.E.E.E.E.E.E.E.E.",
"E.E.E.E.a < 1 l B.4.s.q.9.Y 8.z.I.g.j.h.E.E.E.E.E.E.E.E.E.E.E.E.",
"E.E.E.E.i p s A ;.%.4.$.7.I D 0.5.G G N R 0.R.E.E.E.E.E.E.E.E.E.",
"E.E.E.E.+ u s v C X e l S : n D d.L.Y U u.i.g.i.E.E.E.E.E.E.E.E.",
"E.E.E.E.6 y ^ x 8 Z Z l r l 5 M 2 E.E.T h.U.P.k.k.g.E.E.E.E.E.E.",
"E.E.E.E.E.b ^ Q &.A.K.J.=...%.c # E.E.E.K C.e.d E.E.o.E.E.E.E.E.",
"E.E.E.E.E.B ~ _ n.H.J.J.n.;.;.F U E.E.E.E.E.E.E.g w E.E.E.E.E.E.",
"E.E.E.E.E.u u ' n.J.v.] %.:. .m r x.E.E.E.E.E.E.E./ 4 E.E.E.E.E.",
"E.E.E.E.E.V j h >.D.D. .3 u e E.2.1.E.E.E.E.E.E.( ( ( E.E.E.E.E.",
"E.E.E.E.E.~ ! } { ,.n.&.A q 3   P.O.U.E.E.E.E.E.( ( E.E.E.E.E.E.",
"E.E.E.E.E.B ` { } | _ ' s E.o a J N s.l.E.E.E.E.( ( E.E.E.E.E.E.",
"E.E.E.E.E.6 k _ } } ) d E.@ X t.V.2.7 y.E.E.E.E.E.E.E.E.E.E.E.E.",
"E.E.E.E.E.E.E.E.E.E.b : E.@ X E.x.Y.p.0 E.E.E.E.E.E.E.E.E.E.E.E.",
"E.E.E.E.E.E.E.E.E.E.E.E.@ @ @ E.E.E.T.P f.E.E.E.E.E.E.E.E.E.E.E.",
"E.E.E.E.E.E.E.E.E.E.E.E.@ @ @ E.E.E.E.c 7.E.E.E.E.E.E.E.E.E.E.E.",
"E.E.E.E.E.E.E.E.E.E.E.E.E.@ @ E.E.E.E.E.3.E.E.E.E.E.E.E.E.E.E.E."
};
