/* XPM */
static char *afundando6_tmp[] = {
/* columns rows colors chars-per-pixel */
"32 32 104 2 ",
"   c #21160C",
".  c #24180E",
"X  c #3A1300",
"o  c #311C0A",
"O  c #311F0F",
"+  c #201811",
"@  c #271B11",
"#  c #2D1E10",
"$  c #2B1F17",
"%  c #3B2409",
"&  c #3B210C",
"*  c #2D2015",
"=  c #362214",
"-  c #37281F",
";  c #2E2723",
":  c #372C27",
">  c #441E02",
",  c #462105",
"<  c #4C2401",
"1  c #442B09",
"2  c #542400",
"3  c #542A06",
"4  c #5D310D",
"5  c #432710",
"6  c #4D2C17",
"7  c #4B3314",
"8  c #5D3A15",
"9  c #593D19",
"0  c #673208",
"q  c #64340E",
"w  c #68330B",
"e  c #6A370F",
"r  c #743B0B",
"t  c #673711",
"y  c #603615",
"u  c #653813",
"i  c #793E10",
"p  c #413029",
"a  c #46342D",
"s  c #413734",
"d  c #533E39",
"f  c #673D22",
"g  c #7B4211",
"h  c #6E4423",
"j  c #734B35",
"k  c #7D4F34",
"l  c #764D3C",
"z  c #4E4444",
"x  c #5B555A",
"c  c #6B4B41",
"v  c #735647",
"b  c #7D5341",
"n  c #77554C",
"m  c #7C5649",
"M  c #725758",
"N  c #7D5F5B",
"B  c #7D5F5D",
"V  c #BD1204",
"C  c #CB1206",
"Z  c #E31004",
"A  c #824516",
"S  c #944D16",
"D  c #834927",
"F  c #814C29",
"G  c #8E5535",
"H  c #9C6228",
"J  c #AC7537",
"K  c #845B49",
"L  c #8C674E",
"P  c #856566",
"I  c #8D6B6B",
"U  c #8F6D6D",
"Y  c #936D68",
"T  c #946D69",
"R  c #906E6E",
"E  c #8D7B78",
"W  c #927072",
"Q  c #957171",
"!  c #997474",
"~  c #9E7A7C",
"^  c #A1756F",
"/  c #A57D7D",
"(  c #A77F7F",
")  c #B68038",
"_  c #AB807D",
"`  c #A28B7D",
"'  c #FFC85B",
"]  c #A47E80",
"[  c #A98181",
"{  c #AC8583",
"}  c #AC8487",
"|  c #A78982",
" . c #AF8688",
".. c #B98C89",
"X. c #BE8D88",
"o. c #BC928B",
"O. c #BF9C9C",
"+. c #D39F9C",
"@. c #CCA0A0",
"#. c #CEA6A1",
"$. c #C5AFAD",
"%. c #DFCEC0",
"&. c #FAECEC",
"*. c None",
/* pixels */
"*.*.*.*.*.*.*.*.*.*.*.*.*.*.*.*.*.*.*.*.*.*.*.*.*.*.*.*.*.*.*.*.",
"*.*.*.*.*.*.*.*.*.*.*.*.*.*.*.*.*.*.*.*.*.*.*.*.*.*.*.*.*.*.*.*.",
"*.*.*.*.*.*.*.*.*.*.*.*.*.*.*.M *.*.*.*.*.*.*.*.*.*.*.*.*.*.*.*.",
"*.*.*.*.*.*.*.*.*.*.*.*.@   a d B W U U P *.*.*.*.*.*.*.*.*.*.*.",
"*.*.*.*.*.*.*.*.*.*.*.*.*.@ @ @ p b _ c N *.&.@.*.*.*.*.*.*.*.*.",
"*.*.*.*.*.*.*.*.*.*.*.*.*.@ @ @ *.*.r 4 g q *.2 K *.*.*.*.*.*.*.",
"*.*.*.*.*.*.*.*.*.*.*.*.@ @ @ @ @ . 6 w 5 + *.*.*.i *.*.*.*.*.*.",
"*.*.*.*.*.*.*.*.*.*.*.*.*.*.*.*.& y *.*.*.*.*.*.*.*.*.*.*.*.*.*.",
"*.*.*.*.*.*.*.*.*.*.*.*.*.*.> i A *.*.*.*.*.*.*.*.*.*.*.*.*.*.*.",
"*.*.*.*.*.*.*.*.*.*.*.*.*.7 8 *.*.*.*.*.*.*.*.*.*.*.*.*.*.*.*.*.",
"*.*.*.*.*.*.*.*.*.*.*.*.9 ) J ' *.*.*.*.*.*.*.*.*.*.*.*.*.*.*.*.",
"*.*.*.*.*.*.*.*.*.*.*.*.*.*.H *.*.*.*.*.*.*.*.*.*.*.*.*.*.*.*.*.",
"*.*.*.*.*.*.*.*.*.*.*.*.*.*.2 6 *.*.*.*.*.*.*.*.*.*.*.*.*.*.*.*.",
"*.*.*.*.*.*.*.*.*.*.*.*.*.*.: I ! ! Q U *.*.*.*.*.*.*.*.*.*.*.*.",
"*.*.*.*.*.*.*.*.*.*.*.*.@ @ @   - [ _ / / Q R *.*.*.*.*.*.*.*.*.",
"*.*.*.*.*.*.*.*.*.*.*.*.@ @ @ @ . n X.O.! } ] ~ *.*.*.*.*.*.*.*.",
"*.*.*.*.*.*.*.*.*.*.*.*.@ @ @ @ @ = k L f D F G j *.*.*.*.*.*.*.",
"*.*.*.*.*.*.*.*.*.*.*.*.. @ @ @ @ @ O O # 0 , *.S { *.*.*.*.*.*.",
"*.*.*.*.*.*.*.*.*.*. ./ [ *.*.*.@ @ *.@ @ @ *.e *.*.*.*.*.*.*.*.",
"*.*.*.*.*.*.*.*.*.^ ..o.Y I R *.*.. *.*.*.*.*.*.*.*.*.*.*.*.*.*.",
"*.*.*.*.*.*.*.*.*.X v ` y < 6 | E *.*.*.*.*.*.*.*.*.*.*.*.*.*.*.",
"*.*.*.*.*.*.*.*.*.*.*.x *.m T T Q R *.*.*.*.*.*.*.*.*.*.*.*.*.*.",
"*.*.*.*.*.*.*.*.*.*.*.s : z o  .[ / / ! *.*.*.*.*.*.*.*.*.*.*.*.",
"*.*.*.*.*.*.*.*.*.*.*.*.@ . + l +.#.c *.$.*.*.*.*.*.*.*.*.*.*.*.",
"*.*.*.*.*.*.*.*.*.*.*.*.@ @ @ 5 3 t u 0 *.h %.*.*.*.*.*.*.*.*.*.",
"*.*.*.*.*.*.*.*.*.*.*.*.*.*.*.* *.; $ & 1 *.*.*.*.*.*.*.*.*.*.*.",
"*.*.*.*.*.*.*.*.*.*.*.*.*.*.*.@ *.*.*.C V % *.*.*.*.*.*.*.*.*.*.",
"*.*.*.*.*.*.*.*.*.*.*.*.*.*.*.@ @ *.Z Z Z *.*.*.*.*.*.*.*.*.*.*.",
"*.*.*.*.*.*.*.*.*.*.*.*.*.*.*.@ *.*.Z Z Z *.*.*.*.*.*.*.*.*.*.*.",
"*.*.*.*.*.*.*.*.*.*.*.*.*.*.*.@ *.*.Z Z *.*.*.*.*.*.*.*.*.*.*.*.",
"*.*.*.*.*.*.*.*.*.*.*.*.*.4 *.@ *.*.*.*.*.*.*.*.*.*.*.*.*.*.*.*.",
"*.*.*.*.*.*.*.*.*.*.*.*.*.*.*.*.*.*.*.*.*.*.*.*.*.*.*.*.*.*.*.*."
};
