/* XPM */
static char * afundando4_xpm[] = {
"32 32 165 2",
"  	c None",
". 	c #A77B73",
"+ 	c #987578",
"@ 	c #805237",
"# 	c #A37D7D",
"$ 	c #6E380D",
"% 	c #9D797A",
"& 	c #AA8587",
"* 	c #3D1C03",
"= 	c #763B10",
"- 	c #6C360C",
"; 	c #9A7575",
"> 	c #FBF9FF",
", 	c #573E37",
"' 	c #7E4315",
") 	c #906C6C",
"! 	c #CAB6B6",
"~ 	c #88521B",
"{ 	c #881C06",
"] 	c #E21004",
"^ 	c #876768",
"/ 	c #B48C8D",
"( 	c #632F09",
"_ 	c #AB8384",
": 	c #864816",
"< 	c #571E03",
"[ 	c #D31204",
"} 	c #8C6B6C",
"| 	c #865B48",
"1 	c #A55D20",
"2 	c #44230B",
"3 	c #89655C",
"4 	c #D7A3A3",
"5 	c #B38B90",
"6 	c #8A5F53",
"7 	c #BB9193",
"8 	c #562D18",
"9 	c #895839",
"0 	c #C29EA4",
"a 	c #814313",
"b 	c #5D2C08",
"c 	c #633915",
"d 	c #977268",
"e 	c #947272",
"f 	c #5E3D2B",
"g 	c #2B1B0D",
"h 	c #FCBF57",
"i 	c #FDB554",
"j 	c #8D8682",
"k 	c #72493B",
"l 	c #8F6457",
"m 	c #271B11",
"n 	c #3B230B",
"o 	c #4C2405",
"p 	c #653E18",
"q 	c #704618",
"r 	c #A06527",
"s 	c #C8965A",
"t 	c #33261D",
"u 	c #2A1D12",
"v 	c #482508",
"w 	c #4B3314",
"x 	c #D19044",
"y 	c #855121",
"z 	c #B78741",
"A 	c #3D2D26",
"B 	c #3B2512",
"C 	c #7A461F",
"D 	c #79727D",
"E 	c #A67255",
"F 	c #936C5F",
"G 	c #421E03",
"H 	c #3B290F",
"I 	c #3B2911",
"J 	c #886129",
"K 	c #EB9E4B",
"L 	c #BF9044",
"M 	c #32200C",
"N 	c #53351B",
"O 	c #624B4C",
"P 	c #4B2D12",
"Q 	c #8D6143",
"R 	c #25190D",
"S 	c #5B300C",
"T 	c #53290B",
"U 	c #432D11",
"V 	c #463112",
"W 	c #67421C",
"X 	c #E5B350",
"Y 	c #EAA44B",
"Z 	c #E9AA4D",
"` 	c #684422",
" .	c #2F200C",
"..	c #B38789",
"+.	c #D1AC8F",
"@.	c #474043",
"#.	c #44342B",
"$.	c #9E766D",
"%.	c #734E41",
"&.	c #BD843D",
"*.	c #FFC95B",
"=.	c #C48942",
"-.	c #895F30",
";.	c #61483E",
">.	c #C19497",
",.	c #58433B",
"'.	c #241001",
").	c #331804",
"!.	c #331D0B",
"~.	c #7D5526",
"{.	c #E49F4E",
"].	c #C19240",
"^.	c #3A2C1A",
"/.	c #342412",
"(.	c #8F6850",
"_.	c #6A4F4A",
":.	c #7F584E",
"<.	c #A27032",
"[.	c #A3743A",
"}.	c #AA7243",
"|.	c #A36B4D",
"1.	c #A57565",
"2.	c #564B4A",
"3.	c #593F22",
"4.	c #2C231A",
"5.	c #A6793B",
"6.	c #A26E50",
"7.	c #8F604A",
"8.	c #AD9595",
"9.	c #5D5456",
"0.	c #99662C",
"a.	c #1F130C",
"b.	c #A46A2E",
"c.	c #B37351",
"d.	c #906C66",
"e.	c #BF8E41",
"f.	c #2D2113",
"g.	c #985C28",
"h.	c #865B27",
"i.	c #B88A77",
"j.	c #B29C9F",
"k.	c #A6702C",
"l.	c #252B2F",
"m.	c #593B1D",
"n.	c #A38870",
"o.	c #7D533B",
"p.	c #DDA148",
"q.	c #F6AD50",
"r.	c #1B262E",
"s.	c #593812",
"t.	c #775847",
"u.	c #3E3839",
"v.	c #B67632",
"w.	c #F6B455",
"x.	c #2F291F",
"y.	c #FFD05B",
"z.	c #232524",
"A.	c #393534",
"B.	c #783822",
"C.	c #95541E",
"D.	c #A7561A",
"E.	c #40280D",
"F.	c #88332F",
"G.	c #853430",
"H.	c #4A231E",
"                                                                ",
"                                                                ",
"      .                   + @                                   ",
"      @                   # $                                   ",
"      $                 % & $ *             =                   ",
"      -                 ; > =             ,                     ",
"      '               ) . !             !   ~ { ]               ",
"  ^ /   (             ) _ ;           ; _ : < [ ] ]             ",
"  } | 1 2           3 ; _ 4           ; 5 $     ] ]             ",
"  } 6     $           ; 7 8         9 # 0 a                     ",
"  )       b c       d e           # f # 4                       ",
"  }       g $   h i f )         ) j k _ l                       ",
"        m n o p i q r s       t + u |                           ",
"      m u v o w x y z x     m A # B C D       m m     E _ F $   ",
"      m g G H I J i K L M N m O 5 P Q       R , / / | S T       ",
"      m g n U V W X Y Z `  .` O ..+.@.#.  u ) $.: b %.5         ",
"m     m R n U U w &.*.=.-.@ ;.# >.p D ,.. '.).3 7 v d ,.        ",
"      m g !.H U U ~.{.].N Q } # 7 T ^./.(._.g m %.:.} R m m m m ",
"      m g !.H H w w <.[.}.|.^ 1.#.R 2.p z 3.R !.2 4.u m       m ",
"      m m !.g U P w U 5.9 6.1.7.8.9.g 0.}.5.a.2   m m m m m     ",
"          o !.!.U w w b.~.z c.E d.m R W e.<.).M     m m         ",
"            * f.H w w c g.h.J i.j.t /.g.Y k.G m m m             ",
"              g /.U w l.m.~ n.o.#.B W p.q.r 3.                  ",
"                u /.M r.4.s.1 t.u.c P v.i w.i                   ",
"                  4./.I x.l.#.y   R : y Y i y.                  ",
"                    f./.H z.^.A.` : 8 B.C.D.'                   ",
"                        ^.U z.z.E.B.F.G.H.!.-                   ",
"                                                                ",
"                                                                ",
"                                                                ",
"                                                                ",
"                                                                "};
