/* XPM */
static char * afundando5_xpm[] = {
"32 32 146 2",
"  	c None",
". 	c #FCFAF9",
"+ 	c #6B360B",
"@ 	c #9A7678",
"# 	c #855E50",
"$ 	c #66330B",
"% 	c #6B3A1B",
"& 	c #421D02",
"* 	c #AA8284",
"= 	c #621502",
"- 	c #6C564D",
"; 	c #7E3F0E",
"> 	c #F9F7FC",
", 	c #9B7575",
"' 	c #743B0F",
") 	c #E21004",
"! 	c #8D1906",
"~ 	c #7E4B17",
"{ 	c #C6B0B2",
"] 	c #B49C98",
"^ 	c #A37C7C",
"/ 	c #916E6E",
"( 	c #7C4213",
"_ 	c #D31203",
": 	c #602707",
"< 	c #874514",
"[ 	c #A57F82",
"} 	c #977373",
"| 	c #8B6053",
"1 	c #846563",
"2 	c #B28C91",
"3 	c #E4AEAE",
"4 	c #876058",
"5 	c #422713",
"6 	c #A55B1E",
"7 	c #8D6B6C",
"8 	c #BC9296",
"9 	c #9F7A7B",
"0 	c #86502C",
"a 	c #271B11",
"b 	c #562E16",
"c 	c #542E0F",
"d 	c #2C1C0E",
"e 	c #895D51",
"f 	c #8D440A",
"g 	c #D2A2A4",
"h 	c #664639",
"i 	c #21160C",
"j 	c #582F0E",
"k 	c #A3756A",
"l 	c #A98689",
"m 	c #714A3B",
"n 	c #F1EBEC",
"o 	c #735452",
"p 	c #FFC056",
"q 	c #FABB55",
"r 	c #4E2E14",
"s 	c #785C4D",
"t 	c #887279",
"u 	c #855743",
"v 	c #30241B",
"w 	c #60431D",
"x 	c #B68761",
"y 	c #8D5E2C",
"z 	c #B77F36",
"A 	c #FFCA5D",
"B 	c #6C3F17",
"C 	c #522606",
"D 	c #391F08",
"E 	c #6C5354",
"F 	c #9A746D",
"G 	c #A76A45",
"H 	c #2A1E14",
"I 	c #847278",
"J 	c #814E2D",
"K 	c #3D2D25",
"L 	c #E5A24C",
"M 	c #B97D3A",
"N 	c #704116",
"O 	c #CA8F42",
"P 	c #432D11",
"Q 	c #4C2305",
"R 	c #452103",
"S 	c #734325",
"T 	c #653E27",
"U 	c #916C64",
"V 	c #2D1905",
"W 	c #261A0F",
"X 	c #2E221A",
"Y 	c #3F2F2A",
"Z 	c #6E4525",
"` 	c #4A403D",
" .	c #1D140D",
"..	c #9F7137",
"+.	c #F6AA51",
"@.	c #AB7A35",
"#.	c #4A3313",
"$.	c #43250A",
"%.	c #5B4642",
"&.	c #513B33",
"*.	c #76472D",
"=.	c #AA7E73",
"-.	c #4D4442",
";.	c #8B7671",
">.	c #4B270A",
",.	c #BB8F91",
"'.	c #614A4B",
").	c #D69845",
"!.	c #F5A64E",
"~.	c #F9B753",
"{.	c #7B5B27",
"].	c #3E2910",
"^.	c #311B09",
"/.	c #362B25",
"(.	c #B58B8D",
"_.	c #754D25",
":.	c #F6B454",
"<.	c #E6A94D",
"[.	c #473012",
"}.	c #32220D",
"|.	c #3B230C",
"1.	c #C79A9D",
"2.	c #4B3120",
"3.	c #A56B4C",
"4.	c #74522A",
"5.	c #2C2724",
"6.	c #6A646D",
"7.	c #4D3730",
"8.	c #906240",
"9.	c #5E4C4A",
"0.	c #7C5E5E",
"a.	c #96694B",
"b.	c #8E5E33",
"c.	c #594020",
"d.	c #6C4921",
"e.	c #543F3E",
"f.	c #3D322E",
"g.	c #914E1B",
"h.	c #603D16",
"i.	c #7B6F70",
"j.	c #6F5541",
"k.	c #573F25",
"l.	c #8F4C17",
"m.	c #564129",
"n.	c #1D2831",
"o.	c #443118",
"                                                                ",
"                                                                ",
"                                                                ",
"                                  .                             ",
"                                  + @                   #       ",
"                                  $                     %       ",
"                                & + * @                 +       ",
"                =   -             ; > ,                 '       ",
"              ) ! ~   {           ' ] ^ /               (       ",
"            ) ) _ : < [ }           | * /             $   1     ",
"          ) ) )     ' 2 @           3 * @ 4         5   6 4 7   ",
"            )       < 8 9 0   a     b 8 @           c d   e 7   ",
"                    f g ^ h   i a a     @           j a   * 1   ",
"                a i   k l m n o i a a   } h p q   ( r a a   1   ",
"                a a a s t u   7 v a a w x y z A B C D a a i E   ",
"  ( F l G       a a a H I J 5 ^ K a a i L M N O P Q R   a v     ",
"    + S T U 8   V a W X Y Z 5 * ` H H  ...O +.@.#.$.R   a a     ",
"      %.&.& *.=.2 &.W d -.;.>.,.'.H d  .).!.~.{.].].$.d a a     ",
"  a a a a $.^.$.: U - i -./.=.(.* Y a i _.:.<.w [.P D ^.a }.    ",
"  a a a a   >.    %.|.^.H a f 1.^ 7 a 2.0 ~._.[.P ].|.d a a     ",
"        a a   & a a a X   a v 2./ 7   3.4.!.P #.P |.}.          ",
"            a |.|.    a a v 5.6.7.1   8.i @.[.#.P }.W           ",
"                          a /./.9.0.a.b.c.d.#.[.P }.            ",
"                          a i e.f.      g.h.[.[.d               ",
"                            X i.j.    6 k.P #.].                ",
"                                    l.m.n.o.                    ",
"                                                                ",
"                                                                ",
"                                                                ",
"                                                                ",
"                                                                ",
"                                                                "};
