/* XPM */
static char * afundando6_xpm[] = {
"32 32 104 2",
"  	c None",
". 	c #AC8583",
"+ 	c #793E10",
"@ 	c #944D16",
"# 	c #734B35",
"$ 	c #845B49",
"% 	c #6A370F",
"& 	c #8E5535",
"* 	c #9E7A7C",
"= 	c #542400",
"- 	c #CCA0A0",
"; 	c #DFCEC0",
"> 	c #462105",
", 	c #814C29",
"' 	c #A47E80",
") 	c #906E6E",
"! 	c #FAECEC",
"~ 	c #3B2409",
"{ 	c #6E4423",
"] 	c #271B11",
"^ 	c #673208",
"/ 	c #834927",
"( 	c #AC8487",
"_ 	c #957171",
": 	c #201811",
"< 	c #64340E",
"[ 	c #E31004",
"} 	c #BD1204",
"| 	c #442B09",
"1 	c #C5AFAD",
"2 	c #2D1E10",
"3 	c #673D22",
"4 	c #997474",
"5 	c #A57D7D",
"6 	c #432710",
"7 	c #7B4211",
"8 	c #7D5F5B",
"9 	c #856566",
"0 	c #CB1206",
"a 	c #3B210C",
"b 	c #311F0F",
"c 	c #8C674E",
"d 	c #BF9C9C",
"e 	c #8F6D6D",
"f 	c #68330B",
"g 	c #5D310D",
"h 	c #6B4B41",
"i 	c #2B1F17",
"j 	c #653813",
"k 	c #7D4F34",
"l 	c #BE8D88",
"m 	c #AB807D",
"n 	c #4D2C17",
"o 	c #743B0B",
"p 	c #2E2723",
"q 	c #673711",
"r 	c #CEA6A1",
"s 	c #24180E",
"t 	c #362214",
"u 	c #77554C",
"v 	c #A98181",
"w 	c #603615",
"x 	c #7D5341",
"y 	c #927072",
"z 	c #542A06",
"A 	c #D39F9C",
"B 	c #8D7B78",
"C 	c #37281F",
"D 	c #824516",
"E 	c #413029",
"F 	c #7D5F5D",
"G 	c #2D2015",
"H 	c #764D3C",
"I 	c #AF8688",
"J 	c #946D69",
"K 	c #A78982",
"L 	c #21160C",
"M 	c #8D6B6B",
"N 	c #FFC85B",
"O 	c #533E39",
"P 	c #725758",
"Q 	c #311C0A",
"R 	c #372C27",
"S 	c #9C6228",
"T 	c #AC7537",
"U 	c #5D3A15",
"V 	c #441E02",
"W 	c #46342D",
"X 	c #4E4444",
"Y 	c #7C5649",
"Z 	c #4C2401",
"` 	c #B68038",
" .	c #4B3314",
"..	c #936D68",
"+.	c #593D19",
"@.	c #413734",
"#.	c #5B555A",
"$.	c #A28B7D",
"%.	c #BC928B",
"&.	c #A77F7F",
"*.	c #735647",
"=.	c #B98C89",
"-.	c #3A1300",
";.	c #A1756F",
"                                                                ",
"                                                                ",
"                                                                ",
"                                                                ",
"                                                                ",
"                                                                ",
"                            .                     +             ",
"                            @ #                     $           ",
"                          %   & *                   = -         ",
"              ;             > , ' )                   !         ",
"          ~   {           ] ^ / ( _               : <           ",
"      [ [ } |   1         ] 2 3 4 5               6 7 8 9       ",
"    [ [ [ 0 a ^   4       ] b c d 5 e             f g h e       ",
"    [ [ [   i j h 5         b k l m _             n o m e       ",
"            p q r 5 )   s ] ] t u v 4           w s   x y       ",
"        ]     z A v _ B   ] ] ] s C 4         D a ]   E F       ",
"  ] ] ] ] ] G 6 H I J K     ] ] ] L M n   N   +   ] ] ] O P     ",
"              ] : Q J n )   ] ] ] ] R = S T U V   ] ] ] W       ",
"  g           ] s X Y Z M   ] ] ] ]       `  .    ] ] ] L       ",
"              ] ] R   w ..v s ] ] ]       +.      ]     ]       ",
"                  @.#.$.%.&.                                    ",
"                      *.=.I                                     ",
"                      -.;.                                      ",
"                                                                ",
"                                                                ",
"                                                                ",
"                                                                ",
"                                                                ",
"                                                                ",
"                                                                ",
"                                                                ",
"                                                                "};
