/* XPM */
static char * afundando1_xpm[] = {
"50 32 198 2",
"  	c None",
". 	c #84420E",
"+ 	c #7A3D10",
"@ 	c #6B5546",
"# 	c #74360C",
"$ 	c #CB0E03",
"% 	c #D61004",
"& 	c #592704",
"* 	c #573519",
"= 	c #6C5353",
"- 	c #632B05",
"; 	c #E4C1C3",
"> 	c #4E2A0D",
", 	c #3A1701",
"' 	c #FFE5E7",
") 	c #FFDBDC",
"! 	c #6C3C0E",
"~ 	c #E1AEAF",
"{ 	c #8A4612",
"] 	c #836465",
"^ 	c #D6A8A9",
"/ 	c #562C12",
"( 	c #4C2304",
"_ 	c #7E8196",
": 	c #6C3303",
"< 	c #EAB6B8",
"[ 	c #542B0A",
"} 	c #2C1402",
"| 	c #FDCACB",
"1 	c #A5786F",
"2 	c #431C01",
"3 	c #C49A9B",
"4 	c #784526",
"5 	c #7E6561",
"6 	c #A87052",
"7 	c #683814",
"8 	c #EAB5B5",
"9 	c #5C2D0B",
"0 	c #44240B",
"a 	c #FDC4C5",
"b 	c #BD9292",
"c 	c #B88F8F",
"d 	c #744D3A",
"e 	c #75584A",
"f 	c #926A57",
"g 	c #522302",
"h 	c #FAD7D7",
"i 	c #65340C",
"j 	c #763B10",
"k 	c #F3BCBD",
"l 	c #B18785",
"m 	c #4D3224",
"n 	c #AB8383",
"o 	c #B38A8B",
"p 	c #895B49",
"q 	c #C0BBD1",
"r 	c #B48D7C",
"s 	c #8B6A6B",
"t 	c #C1A5A5",
"u 	c #914E17",
"v 	c #4A250B",
"w 	c #C19595",
"x 	c #9D96A2",
"y 	c #937474",
"z 	c #88583C",
"A 	c #654327",
"B 	c #756256",
"C 	c #5C484D",
"D 	c #866A67",
"E 	c #955F43",
"F 	c #755959",
"G 	c #3D1F08",
"H 	c #361600",
"I 	c #654E4D",
"J 	c #261B11",
"K 	c #7D5F60",
"L 	c #563826",
"M 	c #5A3621",
"N 	c #170900",
"O 	c #845B2A",
"P 	c #EDA948",
"Q 	c #3B1C04",
"R 	c #251101",
"S 	c #CC8C40",
"T 	c #E29C44",
"U 	c #F2AB4A",
"V 	c #665A5C",
"W 	c #746B71",
"X 	c #FDD3D4",
"Y 	c #6C4537",
"Z 	c #864B16",
"` 	c #834411",
" .	c #7B562A",
"..	c #FFC254",
"+.	c #77582C",
"@.	c #BC8549",
"#.	c #8A4916",
"$.	c #372818",
"%.	c #78370B",
"&.	c #2C1E0C",
"*.	c #7E4112",
"=.	c #7C3C0D",
"-.	c #3B290E",
";.	c #5B3E1A",
">.	c #D3923E",
",.	c #A47633",
"'.	c #E5A345",
").	c #33220D",
"!.	c #5A330E",
"~.	c #694E48",
"{.	c #432E13",
"].	c #FCB851",
"^.	c #97561D",
"/.	c #6B360B",
"(.	c #341D0B",
"_.	c #321F13",
":.	c #2B1D11",
"<.	c #823E0D",
"[.	c #885C28",
"}.	c #CD8B3A",
"|.	c #AA7635",
"1.	c #95662D",
"2.	c #463116",
"3.	c #3C2A13",
"4.	c #95898E",
"5.	c #C1B1BF",
"6.	c #BA7343",
"7.	c #D9953C",
"8.	c #7A5524",
"9.	c #6A4A1C",
"0.	c #F7AB49",
"a.	c #25190C",
"b.	c #442105",
"c.	c #B77D2F",
"d.	c #E39B3F",
"e.	c #E8A03F",
"f.	c #BB7B36",
"g.	c #4A2C12",
"h.	c #8B6249",
"i.	c #DF8B54",
"j.	c #D38C3D",
"k.	c #ECA443",
"l.	c #6B4C21",
"m.	c #8A622C",
"n.	c #E09443",
"o.	c #DA9941",
"p.	c #A7712E",
"q.	c #D18739",
"r.	c #4C3114",
"s.	c #B16F41",
"t.	c #C48A3D",
"u.	c #64441E",
"v.	c #9B6530",
"w.	c #BD8238",
"x.	c #241807",
"y.	c #523214",
"z.	c #BB7D39",
"A.	c #5D401E",
"B.	c #D59442",
"C.	c #7D5A2B",
"D.	c #EEBA50",
"E.	c #FEB94E",
"F.	c #D99442",
"G.	c #1E1407",
"H.	c #2E200F",
"I.	c #7F410F",
"J.	c #CD9441",
"K.	c #442C20",
"L.	c #23170A",
"M.	c #E4B4B4",
"N.	c #9F4E0E",
"O.	c #4A341A",
"P.	c #734E1F",
"Q.	c #C88537",
"R.	c #322513",
"S.	c #2E2112",
"T.	c #913938",
"U.	c #8A3733",
"V.	c #863631",
"W.	c #612915",
"X.	c #965233",
"Y.	c #743707",
"Z.	c #CC923F",
"`.	c #432A06",
" +	c #B37832",
".+	c #502C20",
"++	c #B8AEBE",
"@+	c #AE989B",
"#+	c #3A4A57",
"$+	c #362816",
"%+	c #1B2731",
"&+	c #18222B",
"*+	c #141E27",
"=+	c #2C261D",
"-+	c #3D2D1A",
";+	c #422914",
">+	c #44321A",
",+	c #26231E",
"                                                                                                    ",
"                                          .                                                         ",
"                                        +   @                   #                                   ",
"                                $ % $ $ &   * =                 - ;                                 ",
"                                $ $ $ $ $ > , '                                                     ",
"          )                     $         ! , ~               {     ]                               ",
"^           / ( ^                       _ : * <                 [ } |                               ",
"^             1 2 3 4                   5 6 7 8                 9 0 8                               ",
"^ a           b c ( d 1                 e f g h                 i 0 8                       j       ",
"8 k             c l ( m 3                   ( ]                 7 [ )                       6       ",
"d k           n n o 1 } p 3             q f r s t               u v t                       9 k     ",
"e k           w c n c * * f l           x   0 5 w                 / y                       : <     ",
"z a                   2 o A ( 3           B } = w C               7 D                       : a     ",
"E F                   G     o 2 b           H D ~ I     J         v K                       : |     ",
"1 F                   [   + ! y 2 L     @ e M N 8 =         O P O } F                       : |     ",
"Q =               > Q v R S T T U g J   V W [ 2 X Y Z # ` Z  ...+.} s @.U               #.$.%.X     ",
"  = &.J J J *.=.Q -.Q ;.R >.,.'.>.[ [ =.).).!.& e ~.{.-.{.-.O O O 0 C P ].        ^./.(._.' - X   J ",
"  I J J :.i . <.i > [.}., |.1.2.O 0 ).3.W 4.5.& y e 6.7.8.A  .'.O v 9.U 0.a.{ u i       J   : )   J ",
"y   J J   . =.%.=.u [.;.b.c.d.e.e.9 [.f.).g.D g s h.i.j.k.l.m.1.m. .T n.o.(./.!.        J J : ^     ",
"s         J ` . { 7.'.c.( p.}.q.j.).r.l.M M M R s p s.t.q.u.[.v.O O T >.w.x.2 2         J J   K     ",
"        J J { ` *.y.d.7.7.}.z.f.S =.y.A.2.x z H C ~.6.w.B.;. .C.C.D.E.1.x.a.b.,         J J   =     ",
"        J J . . *.. }.7.F.'.P '.'.j r.l.4 e V m F E p w.'.;.|.].U T 1.G.).H.2 G J   J J J J y       ",
"          :.=.{ I.=.<.u.w.|.S J.B.<.r.8.s.M m K.m h.z S }.g.U F.B.L.a.H.a.H.Q J         J N M.      ",
"          ( !.9 i N.G =.j u.O.w.t.<.^.j.z M B O.9.7 P.7.j.Q.S 8.).).x.R.S.} b.          :.y J       ",
"          J H T.U.V.W.(.X.%.Y.- Z =.^.Z.`.`.`.-.9.[. +}.z. +).(.H.H.H.S.H.(.            J a.        ",
"          J J / U.U.T.9 V.V.U.U..+[ ^.T 4.++@+}.}.%.{ /./.i ).3.).H.S.R.R.              J J         ",
"      J J J J (.0 # (.0 V.V.U.V.V.W.. %.# =.. j !.{.3.#+x.3.3.3.R.R.$+:.                J           ",
"              J &.v ( 0 b.> 9 [ [ [ {.2.%+%+O.%+&+{.*+*+=+3.-+R.$+$+                                ",
"                    J J J R.;+y.r.;+g.{.*+*+>+=+,+O.,+,+$.-+S.$+J                                   ",
"                              a.J >+>+>+>+>+-+>+-+>+-+-+S.J                                         ",
"                                                                                                    ",
"                                                                                                    "};
