/* XPM */
static char * afundando2_xpm[] = {
"32 32 172 2",
"  	c None",
". 	c #B37B51",
"+ 	c #713809",
"@ 	c #D9BABB",
"# 	c #DC0D04",
"$ 	c #791102",
"% 	c #C7A694",
"& 	c #D30E04",
"* 	c #B61607",
"= 	c #4B2A09",
"- 	c #805544",
"; 	c #65340E",
"> 	c #3D2007",
", 	c #EBBCBD",
"' 	c #442104",
") 	c #CDB3A2",
"! 	c #846464",
"~ 	c #723B10",
"{ 	c #8A5836",
"] 	c #DCADAD",
"^ 	c #572905",
"/ 	c #836668",
"( 	c #864617",
"_ 	c #906E6F",
": 	c #CC9D9B",
"< 	c #633512",
"[ 	c #A68D8F",
"} 	c #86511F",
"| 	c #BC9495",
"1 	c #996A57",
"2 	c #8A6A6B",
"3 	c #3C1C03",
"4 	c #957376",
"5 	c #7E461D",
"6 	c #6D5252",
"7 	c #9B6F62",
"8 	c #613C28",
"9 	c #6E4C3C",
"0 	c #A47667",
"a 	c #B08875",
"b 	c #884A23",
"c 	c #694839",
"d 	c #A9817B",
"e 	c #5E3924",
"f 	c #AD8483",
"g 	c #57290A",
"h 	c #844513",
"i 	c #B98982",
"j 	c #795B53",
"k 	c #8A6558",
"l 	c #4A2609",
"m 	c #895C4A",
"n 	c #C09595",
"o 	c #694C45",
"p 	c #755242",
"q 	c #C08A52",
"r 	c #793F14",
"s 	c #A55E2A",
"t 	c #C18E85",
"u 	c #7C5E5D",
"v 	c #B78E8E",
"w 	c #9D7572",
"x 	c #97736B",
"y 	c #754C38",
"z 	c #6D4222",
"A 	c #614C46",
"B 	c #261B11",
"C 	c #AB7B3A",
"D 	c #E3A055",
"E 	c #F8B74F",
"F 	c #89470E",
"G 	c #42290F",
"H 	c #300F00",
"I 	c #513121",
"J 	c #70534D",
"K 	c #502F13",
"L 	c #5C3411",
"M 	c #6C461B",
"N 	c #9A6C34",
"O 	c #7B563B",
"P 	c #D59F50",
"Q 	c #AD7330",
"R 	c #906963",
"S 	c #7C4214",
"T 	c #9B6F44",
"U 	c #332B26",
"V 	c #5A545C",
"W 	c #2B1C0C",
"X 	c #443116",
"Y 	c #735429",
"Z 	c #A27338",
"` 	c #E59A48",
" .	c #44230B",
"..	c #55300F",
"+.	c #D99A45",
"@.	c #A16C30",
"#.	c #422816",
"$.	c #896248",
"%.	c #AA7E78",
"&.	c #7F6367",
"*.	c #916333",
"=.	c #99682A",
"-.	c #CC9040",
";.	c #F6AC50",
">.	c #BD8438",
",.	c #301D0A",
"'.	c #2A1D13",
").	c #633913",
"!.	c #815B2C",
"~.	c #845824",
"{.	c #593819",
"].	c #5B4339",
"^.	c #DC8854",
"/.	c #7F5826",
"(.	c #C79B48",
"_.	c #FFCC59",
":.	c #5D3E1A",
"<.	c #3B250D",
"[.	c #6D380E",
"}.	c #D9933D",
"|.	c #734826",
"1.	c #96642B",
"2.	c #7A7077",
"3.	c #A56948",
"4.	c #49341D",
"5.	c #EBAC4E",
"6.	c #FFBC54",
"7.	c #332515",
"8.	c #2E200A",
"9.	c #34291A",
"0.	c #934D16",
"a.	c #A46C2D",
"b.	c #8F632F",
"c.	c #3C280F",
"d.	c #F9AA4B",
"e.	c #856255",
"f.	c #B1714F",
"g.	c #A66941",
"h.	c #442C12",
"i.	c #C4863A",
"j.	c #F4AF4C",
"k.	c #F7B24F",
"l.	c #987148",
"m.	c #6A4229",
"n.	c #65451C",
"o.	c #3C2611",
"p.	c #33220C",
"q.	c #6C4A22",
"r.	c #785939",
"s.	c #BF6F27",
"t.	c #6B3B13",
"u.	c #CA9B67",
"v.	c #AC7857",
"w.	c #9A5B29",
"x.	c #45413D",
"y.	c #2E2314",
"z.	c #602B0E",
"A.	c #8E3938",
"B.	c #8B3936",
"C.	c #2D302D",
"D.	c #1A1F22",
"E.	c #212423",
"F.	c #372815",
"G.	c #652E19",
"H.	c #723323",
"I.	c #803A20",
"J.	c #8F4325",
"K.	c #232E38",
"L.	c #23231F",
"M.	c #392918",
"N.	c #3B2C19",
"O.	c #41311A",
"                                                                ",
"                                                                ",
"                        .             + @                       ",
"                    # $   %                                     ",
"                & & & * = -           ; >                       ",
",                 & &   ' ) !         ~                   {     ",
"]                       ^ % /         ( ^ _               (     ",
":   ~ <                   { /             [               } ,   ",
"]       - |               1 2           3 4               5 ,   ",
"| 6     7 8 9             0 /           a _               b :   ",
"c         d e f 0         c !           g 4             h b i   ",
"j         f k l m n       o /   o         p q         r   s t   ",
"  u       v w x k y n       z   A B     C 9 D E     F G   s 7   ",
"              H   f z I     b 8 J K L M N O P E Q r         R   ",
"              3   S T G U V b x u W X Y Z { Q ` L  .  B B   c   ",
"    B         3 ..+.C @.#.$.8 %.&.Z *.=.N -.;.>.,.'   B '.    '.",
"  B '.B B #.; < ).C !.~.B {.].c &.^.{./.N (._.:.<.>   B B     '.",
"    B   ~  .[.Q l }.}.|.G 1.2.j 6 3.4./.5.6.~.7.8.3   B B 9.    ",
"        < 0.h >.M a.}.1.; b.p e o 3.Y Y ;.-.c.W W ' B   B       ",
"        < 0.0.}.d.` ` 6.S 1.e.p 1 f.g.>.-.'.c.8.W     B         ",
"        h.h ( i.j.k.5.+.S l.k m.~.n.} >.o.o.<.W p.'.    B       ",
"        #.h F h } N 1.~.3 q.r.q.!.=.s.S c.o.8.8.W       B       ",
"        g t.[.^ h F F F = /.u.v.w.).x.9.c.o.y.'.                ",
"        W z.A.A.g A.B.B.).h ; L C.7.D.E.F.F.'.                  ",
"        B B G.A.H.I.I.J.H.K K.L.E.9.7.M.7.'.                    ",
"            W l 3 l l G l G E.9.X F.9.'.B                       ",
"                    B B 4.N.M.O.  B                             ",
"                                                                ",
"                                                                ",
"                                                                ",
"                                                                ",
"                                                                "};
