/* XPM */
static char * afundando3_xpm[] = {
"32 32 168 2",
"  	c None",
". 	c #73370C",
"+ 	c #785854",
"@ 	c #B38773",
"# 	c #6A3810",
"$ 	c #9E827A",
"% 	c #592D0B",
"& 	c #DD0F04",
"* 	c #7B1D07",
"= 	c #83543A",
"- 	c #5A2B07",
"; 	c #916E6E",
"> 	c #784617",
", 	c #C60E04",
"' 	c #53300D",
") 	c #967374",
"! 	c #8B5C48",
"~ 	c #7A3C1A",
"{ 	c #68330C",
"] 	c #9D7878",
"^ 	c #764C35",
"/ 	c #997475",
"( 	c #866768",
"_ 	c #86441A",
": 	c #A37C7C",
"< 	c #583519",
"[ 	c #8C6B6A",
"} 	c #A16F5F",
"| 	c #8B4817",
"1 	c #936C64",
"2 	c #A9755A",
"3 	c #A68282",
"4 	c #C0B5AA",
"5 	c #8B6454",
"6 	c #A57A68",
"7 	c #B08681",
"8 	c #836559",
"9 	c #65330D",
"0 	c #795D5D",
"a 	c #876043",
"b 	c #926C4C",
"c 	c #9C746C",
"d 	c #62463B",
"e 	c #BC8E52",
"f 	c #FEB553",
"g 	c #774627",
"h 	c #7F6162",
"i 	c #643C1B",
"j 	c #784F38",
"k 	c #51290C",
"l 	c #8C6964",
"m 	c #6C5E5B",
"n 	c #674A44",
"o 	c #653D26",
"p 	c #B8863D",
"q 	c #825D4E",
"r 	c #9C682F",
"s 	c #FEB955",
"t 	c #BF873F",
"u 	c #6B4737",
"v 	c #856565",
"w 	c #C1999D",
"x 	c #4A2408",
"y 	c #9C7362",
"z 	c #7A5748",
"A 	c #9B7778",
"B 	c #2D1C0D",
"C 	c #CD9349",
"D 	c #EEB854",
"E 	c #95662F",
"F 	c #3D1E05",
"G 	c #B48C8E",
"H 	c #865F52",
"I 	c #8D5C3B",
"J 	c #988787",
"K 	c #4C2C12",
"L 	c #4C3214",
"M 	c #34240E",
"N 	c #A06F33",
"O 	c #C7873B",
"P 	c #E99E4B",
"Q 	c #473015",
"R 	c #3B240C",
"S 	c #432207",
"T 	c #321D0C",
"U 	c #271B11",
"V 	c #A9817F",
"W 	c #291D11",
"X 	c #3B2E20",
"Y 	c #91706F",
"Z 	c #8D644E",
"` 	c #AD8484",
" .	c #49321A",
"..	c #422F19",
"+.	c #77542A",
"@.	c #F5A54E",
"#.	c #442D12",
"$.	c #3C290F",
"%.	c #271202",
"&.	c #563C2E",
"*.	c #674426",
"=.	c #453730",
"-.	c #554338",
";.	c #A47A75",
">.	c #5B412E",
",.	c #8B6233",
"'.	c #63431B",
").	c #251A0D",
"!.	c #411D04",
"~.	c #845523",
"{.	c #A37439",
"].	c #9B6C34",
"^.	c #503825",
"/.	c #846056",
"(.	c #C88841",
"_.	c #AC7B3D",
":.	c #3D2A12",
"<.	c #532811",
"[.	c #845B2C",
"}.	c #663B15",
"|.	c #6B533B",
"1.	c #946042",
"2.	c #875C31",
"3.	c #BB8941",
"4.	c #5C3313",
"5.	c #754319",
"6.	c #B27450",
"7.	c #944916",
"8.	c #A2662B",
"9.	c #89541E",
"0.	c #84603A",
"a.	c #986A57",
"b.	c #C67C4B",
"c.	c #A9752E",
"d.	c #2F200E",
"e.	c #844816",
"f.	c #EAA64B",
"g.	c #8C6843",
"h.	c #8F5A1F",
"i.	c #271709",
"j.	c #9B521A",
"k.	c #A1561B",
"l.	c #C37D34",
"m.	c #F6B454",
"n.	c #A06D3E",
"o.	c #2D271E",
"p.	c #2D2113",
"q.	c #965018",
"r.	c #B27B32",
"s.	c #4D290C",
"t.	c #AF8571",
"u.	c #332A1C",
"v.	c #232423",
"w.	c #342614",
"x.	c #8A3F20",
"y.	c #64321F",
"z.	c #733D14",
"A.	c #262B2D",
"B.	c #613212",
"C.	c #823929",
"D.	c #6F2F1E",
"E.	c #823433",
"F.	c #893931",
"G.	c #3C2815",
"H.	c #42250C",
"I.	c #763224",
"J.	c #793330",
"K.	c #562714",
"                                                                ",
"                                                                ",
"                                                                ",
"                                  . +                   @       ",
"                                #   $                   %       ",
"              & *   =             -   ;                 >       ",
"          & & & , '   )           - ! )                 ~       ",
"          & & &   {   ]             ^ / (               _ :     ",
"                    < ] [           } : [               | 1     ",
"                    2 3 ) 4         5 : ;             {   6     ",
"                    @ 7 [ 8           : ;           9     6 0   ",
"a b c               d / ( +             [ e f     #       g h   ",
"  i j k l 6           m n o /         p q r s t   %       u v   ",
"    w 1 x y 7           z g A n B     p C > D E 9 F B       0   ",
"      G H o I ! :       J g ) ( K L M N t O P Q R S T U         ",
"      : V u 3 H K n W X Y Z ` /  ...+.p @.f p #.$.S   U         ",
"        v  .%.  &.*.i =.-.8 ;./ >.I ,.p f D '.$.$.R   ).U     U ",
"U U U ).).B !.#.~.{.].S ^.-./.) H ^ +.(.f _.Q :.$.M   U U     U ",
"U U U U U   % <._.{.[.}.:.|.z l 5 1.2.3.(.L :.R R T   U U     U ",
"  U U     4.5.!.].O N K >.b 5 z 2 6._.].'.:.#.$.M T U U U       ",
"      :.< 7.8.~.9.f f }.}.0.a.5 b.2.c.E #.#.$.M d.B U U U       ",
"      ~ e.| O f.p f s > #.g.y = ,.h.r }.#.#.M d.i.    U U       ",
"        j.k.l.f.f m.C > ).].g.b n.h.-.o.#.$.p.i.                ",
"        j.j.q.r.O O 8.s.'.{.t.,.i u.v.v.$.w.p.U                 ",
"        | q.j.. 7.| x.y.z.5.}.Q A.v.w.p.w.p.W                   ",
"        B._ C.D.<.E.F.F.4.4.A.v.G.u.:.w.W U                     ",
"        H.I.E.J.<.I.~ K.<.L v.u.G.G.w.                          ",
"                      H.T Q  ...                                ",
"                                                                ",
"                                                                ",
"                                                                ",
"                                                                "};
