/* XPM */
static char * afundando7_xpm[] = {
"32 32 77 1",
" 	c None",
".	c #957C6A",
"+	c #562500",
"@	c #C5B8B2",
"#	c #96644C",
"$	c #6F3508",
"%	c #AA8182",
"&	c #815D45",
"*	c #542C0D",
"=	c #61330E",
"-	c #1F1105",
";	c #A47D7D",
">	c #5C300C",
",	c #FFFFFF",
"'	c #331D08",
")	c #906D6D",
"!	c #783B09",
"~	c #681D07",
"{	c #6F534F",
"]	c #854717",
"^	c #3B1E06",
"/	c #AE8686",
"(	c #997474",
"_	c #532E0E",
":	c #443028",
"<	c #EC0F04",
"[	c #8A1704",
"}	c #6E3910",
"|	c #776362",
"1	c #251A11",
"2	c #472912",
"3	c #47260A",
"4	c #B1888A",
"5	c #9F7A7A",
"6	c #804010",
"7	c #543C34",
"8	c #E31004",
"9	c #E41004",
"0	c #D30F04",
"a	c #874815",
"b	c #211912",
"c	c #B98D8E",
"d	c #A37C7C",
"e	c #7D3903",
"f	c #AD928C",
"g	c #BC1207",
"h	c #DA1105",
"i	c #A51409",
"j	c #381C0D",
"k	c #7E4110",
"l	c #514040",
"m	c #150C04",
"n	c #CCA087",
"o	c #66482D",
"p	c #A0766F",
"q	c #876666",
"r	c #9D591C",
"s	c #482F23",
"t	c #BC9193",
"u	c #CE9EA1",
"v	c #7C523B",
"w	c #A77A73",
"x	c #8A6969",
"y	c #A85E20",
"z	c #A78275",
"A	c #3A210C",
"B	c #411D00",
"C	c #90665D",
"D	c #8C6B6B",
"E	c #915622",
"F	c #B37D6A",
"G	c #4A362F",
"H	c #1D140A",
"I	c #7E605D",
"J	c #281C13",
"K	c #C58873",
"L	c #331E0E",
"                                ",
"                                ",
"                                ",
"                                ",
"                                ",
"                                ",
"                                ",
"                                ",
"                                ",
"             .                  ",
"             +@          #      ",
"             $%          &      ",
"            *=-;         >      ",
"      ,      ='%)        !      ",
"    ~  {     ]^/(        _:     ",
"   <[ }|    12345        67     ",
"  890 a      b+cd        ef     ",
" g9hijkl/    mncd        opq    ",
"      rst     ku;        vwx    ",
"      yz/     A{/        BCD    ",
"      EF4     11G        HI     ",
"      JKt     J                 ",
"      1L                        ",
"                                ",
"                                ",
"                                ",
"                                ",
"                                ",
"                                ",
"                                ",
"                                ",
"                                "};
