/* XPM */
static char * afundando6_xpm[] = {
"32 32 140 2",
"  	c None",
". 	c #7A3E10",
"+ 	c #AC8583",
"@ 	c #845B49",
"# 	c #734B35",
"$ 	c #944D16",
"% 	c #CCA0A0",
"& 	c #542400",
"* 	c #9E7A7C",
"= 	c #8E5535",
"- 	c #6A370F",
"; 	c #FAECEC",
"> 	c #906E6E",
", 	c #A47E80",
"' 	c #814C29",
") 	c #462105",
"! 	c #DFCEC0",
"~ 	c #64340E",
"{ 	c #201811",
"] 	c #987373",
"^ 	c #AC8487",
"/ 	c #834927",
"( 	c #633009",
"_ 	c #271B11",
": 	c #6E4423",
"< 	c #3B2409",
"[ 	c #856566",
"} 	c #7D5F5B",
"| 	c #7B4211",
"1 	c #402512",
"2 	c #9F7979",
"3 	c #9A7473",
"4 	c #673D22",
"5 	c #2D1E10",
"6 	c #C5AFAD",
"7 	c #442B09",
"8 	c #BD1204",
"9 	c #E31004",
"0 	c #8F6D6D",
"a 	c #6F5047",
"b 	c #5D310D",
"c 	c #68330B",
"d 	c #8F6C6C",
"e 	c #A57D7D",
"f 	c #BF9C9C",
"g 	c #8C674E",
"h 	c #311F0F",
"i 	c #987474",
"j 	c #673208",
"k 	c #371F0E",
"l 	c #CB1206",
"m 	c #8D6B6B",
"n 	c #AB807D",
"o 	c #743B0B",
"p 	c #4E2B0F",
"q 	c #957171",
"r 	c #A88080",
"s 	c #BE8D88",
"t 	c #7D4F34",
"u 	c #301E0F",
"v 	c #A47D7D",
"w 	c #6B4B41",
"x 	c #653813",
"y 	c #2B1F17",
"z 	c #927072",
"A 	c #7D5341",
"B 	c #23170E",
"C 	c #62330F",
"D 	c #A98181",
"E 	c #77554C",
"F 	c #362214",
"G 	c #261B11",
"H 	c #24180E",
"I 	c #926F6F",
"J 	c #A77F7F",
"K 	c #CEA6A1",
"L 	c #673711",
"M 	c #2E2723",
"N 	c #7D5F5D",
"O 	c #413029",
"P 	c #241A12",
"Q 	c #3B210C",
"R 	c #824516",
"S 	c #997474",
"T 	c #37281F",
"U 	c #22180D",
"V 	c #8D7B78",
"W 	c #947070",
"X 	c #AB8282",
"Y 	c #D39F9C",
"Z 	c #542A06",
"` 	c #725758",
" .	c #533E39",
"..	c #261B12",
"+.	c #793E10",
"@.	c #FFC85B",
"#.	c #4B2A14",
"$.	c #21160C",
"%.	c #A78982",
"&.	c #906B68",
"*.	c #AF8688",
"=.	c #764D3C",
"-.	c #432710",
";.	c #2D2015",
">.	c #46342D",
",.	c #441E02",
"'.	c #5D3A15",
").	c #AC7537",
"!.	c #9C6228",
"~.	c #4E2503",
"{.	c #402F28",
"].	c #261A10",
"^.	c #916E6D",
"/.	c #4D2C17",
"(.	c #946D69",
"_.	c #311C0A",
":.	c #22180F",
"<.	c #22170D",
"[.	c #4B3314",
"}.	c #B68038",
"|.	c #8E6A67",
"1.	c #4C2401",
"2.	c #7C5649",
"3.	c #4E4444",
"4.	c #25190E",
"5.	c #5E320F",
"6.	c #593D19",
"7.	c #23180E",
"8.	c #936D68",
"9.	c #603615",
"0.	c #372C27",
"a.	c #BC928B",
"b.	c #A28B7D",
"c.	c #5B555A",
"d.	c #413734",
"e.	c #AD8484",
"f.	c #B98C89",
"g.	c #735647",
"h.	c #A1756F",
"i.	c #3A1300",
"                                                                ",
"                                                                ",
"                                                                ",
"                                                                ",
"                                                                ",
"                                                                ",
"            .                     +                             ",
"          @                     # $                             ",
"        % &                   * =   -                           ",
"        ;                   > , ' )             !               ",
"          ~ {               ] ^ / ( _           :   <           ",
"      [ } | 1               2 3 4 5 _         6   7 8 9 9       ",
"      0 a b c             d e f g h _       i   j k l 9 9 9     ",
"      m n o p             q r s t u         v w x y   9 9 9     ",
"      z A   B C           i D E F G _ H   I J K L M             ",
"      N O   P Q R         S T U _ _ _   V W X Y Z     _         ",
"    `  ._ _ ..  +.  @.  #.m $._ _ _     %.&.*.=.-.;._ _ _ _ _   ",
"      >._ _ P   ,.'.).!.~.{.]._ _ _   ^./.(._.:...              ",
"      <._ _ _     [.}.      _ _ _ _   |.1.2.3.4._           5.  ",
"      _     _       6.      _ _ _ 7.D 8.9.  0.]._               ",
"                                    D a.b.c.d.                  ",
"                                    e.f.g.                      ",
"                                      h.i.                      ",
"                                                                ",
"                                                                ",
"                                                                ",
"                                                                ",
"                                                                ",
"                                                                ",
"                                                                ",
"                                                                ",
"                                                                "};
