/* XPM */
static char * afundando7_xpm[] = {
"32 32 91 1",
" 	c None",
".	c #957C6A",
"+	c #96644C",
"@	c #C5B8B2",
"#	c #562500",
"$	c #815D45",
"%	c #91857E",
"&	c #6F3508",
"*	c #5C300C",
"=	c #A57E7E",
"-	c #1F1105",
";	c #61330E",
">	c #542C0D",
",	c #783B09",
"'	c #906D6D",
")	c #AA8182",
"!	c #331D08",
"~	c #5F3313",
"{	c #FFFFFF",
"]	c #443028",
"^	c #532E0E",
"/	c #997474",
"(	c #AF8586",
"_	c #3B1E06",
":	c #854717",
"<	c #6F534F",
"[	c #681D07",
"}	c #543C34",
"|	c #804010",
"1	c #9E7878",
"2	c #B2888A",
"3	c #47260A",
"4	c #472912",
"5	c #251A11",
"6	c #776362",
"7	c #6E3910",
"8	c #8A1704",
"9	c #EC0F04",
"0	c #AD928C",
"a	c #7D3903",
"b	c #9F7A7A",
"c	c #B88D8F",
"d	c #552600",
"e	c #211912",
"f	c #874815",
"g	c #D30F04",
"h	c #E41004",
"i	c #E31004",
"j	c #876666",
"k	c #A0766F",
"l	c #66482D",
"m	c #A37C7C",
"n	c #B98D8E",
"o	c #CCA087",
"p	c #150C04",
"q	c #AD8484",
"r	c #514040",
"s	c #7E4110",
"t	c #381C0D",
"u	c #A51409",
"v	c #DA1105",
"w	c #BC1207",
"x	c #8A6969",
"y	c #A77A73",
"z	c #7C523B",
"A	c #A47D7D",
"B	c #CE9EA1",
"C	c #7A3F0E",
"D	c #BB8F91",
"E	c #482F23",
"F	c #9D591C",
"G	c #8C6B6B",
"H	c #90665D",
"I	c #411D00",
"J	c #AE8686",
"K	c #3A210C",
"L	c #AD8485",
"M	c #A78275",
"N	c #A85E20",
"O	c #7E605D",
"P	c #1D140A",
"Q	c #4A362F",
"R	c #251A10",
"S	c #271B11",
"T	c #B1888A",
"U	c #B37D6A",
"V	c #915622",
"W	c #BC9193",
"X	c #C58873",
"Y	c #281C13",
"Z	c #331E0E",
"                                ",
"                                ",
"                                ",
"                                ",
"                                ",
"                                ",
"                                ",
"                                ",
"                                ",
"                  .             ",
"      +          @#             ",
"      $          %&             ",
"      *         =-;>            ",
"      ,        ')!~      {      ",
"     ]^        /(_:     <  [    ",
"     }|        12345    67 89   ",
"     0a        bcde      f ghi  ",
"    jkl        mnop    qrstuvhw ",
"    xyz        ABC     DEF      ",
"    GHI        J<K     LMN      ",
"     OP        QRS     TUV      ",
"                 S     WXY      ",
"                        ZS      ",
"                                ",
"                                ",
"                                ",
"                                ",
"                                ",
"                                ",
"                                ",
"                                ",
"                                "};
