/* XPM */
static char * afundando2_xpm[] = {
"32 32 365 2",
"  	c None",
". 	c #D9BABB",
"+ 	c #713303",
"@ 	c #B37B51",
"# 	c #C6A396",
"$ 	c #791102",
"% 	c #DC0D04",
"& 	c #3E210A",
"* 	c #67340D",
"= 	c #805547",
"- 	c #492C08",
"; 	c #B61607",
"> 	c #D50D04",
", 	c #D20E04",
"' 	c #D30E04",
") 	c #8C5534",
"! 	c #733B10",
"~ 	c #826363",
"{ 	c #CDB3A2",
"] 	c #452001",
"^ 	c #E8BEBE",
"/ 	c #7F471B",
"( 	c #8C6C6E",
"_ 	c #572806",
": 	c #834518",
"< 	c #836464",
"[ 	c #C7A991",
"} 	c #572904",
"| 	c #DEABAB",
"1 	c #E6B7BC",
"2 	c #834820",
"3 	c #A68D8F",
"4 	c #866666",
"5 	c #8C563C",
"6 	c #64340E",
"7 	c #713D0F",
"8 	c #C99A9A",
"9 	c #EEBABC",
"0 	c #7D451E",
"a 	c #957274",
"b 	c #3F1C00",
"c 	c #886868",
"d 	c #9C6954",
"e 	c #BC9395",
"f 	c #805541",
"g 	c #D9AEAE",
"h 	c #CF9F9C",
"i 	c #884A23",
"j 	c #906E6F",
"k 	c #B08875",
"l 	c #876767",
"m 	c #A37465",
"n 	c #704C3D",
"o 	c #5F3921",
"p 	c #9A6F60",
"q 	c #6F5353",
"r 	c #B99595",
"s 	c #B98982",
"t 	c #90501F",
"u 	c #814311",
"v 	c #957477",
"w 	c #5C2E0B",
"x 	c #806161",
"y 	c #644539",
"z 	c #A47769",
"A 	c #AD8482",
"B 	c #5C3927",
"C 	c #A9817B",
"D 	c #6A463B",
"E 	c #C18E85",
"F 	c #A55E2A",
"G 	c #793F13",
"H 	c #C08A52",
"I 	c #6D4F3F",
"J 	c #684E4A",
"K 	c #836668",
"L 	c #614F47",
"M 	c #BF9594",
"N 	c #895C4A",
"O 	c #4E2709",
"P 	c #876256",
"Q 	c #AC8485",
"R 	c #7E5B52",
"S 	c #9C6F63",
"T 	c #9F5B28",
"U 	c #44240D",
"V 	c #874713",
"W 	c #FAB251",
"X 	c #E3A055",
"Y 	c #6C4C37",
"Z 	c #A97C3C",
"` 	c #241A11",
" .	c #614945",
"..	c #6F4020",
"+.	c #C09595",
"@.	c #794B32",
"#.	c #8D6354",
"$.	c #96706A",
"%.	c #9D7572",
"&.	c #B78E8E",
"*.	c #7B5E5E",
"=.	c #906963",
"-.	c #7D4011",
";.	c #AE7731",
">.	c #F8B74F",
",.	c #D59F50",
"'.	c #7B563B",
").	c #9A6E38",
"!.	c #6C4820",
"~.	c #5A3010",
"{.	c #502F13",
"].	c #70534D",
"^.	c #613D2D",
"/.	c #854B21",
"(.	c #513121",
"_.	c #714225",
":.	c #AD8481",
"<.	c #300F00",
"[.	c #5C4037",
"}.	c #271B11",
"|.	c #411F06",
"1.	c #5C3814",
"2.	c #E19649",
"3.	c #AD7030",
"4.	c #95682D",
"5.	c #A27338",
"6.	c #6D4E25",
"7.	c #453214",
"8.	c #2E200A",
"9.	c #7C5D5B",
"0.	c #97766C",
"a.	c #844E22",
"b.	c #5A545C",
"c.	c #332B26",
"d.	c #3F260D",
"e.	c #9B6F44",
"f.	c #7A4416",
"g.	c #3A1B05",
"h.	c #2C1F16",
"i.	c #432004",
"j.	c #301B07",
"k.	c #BB8439",
"l.	c #FAAB4E",
"m.	c #C5853F",
"n.	c #9B6E35",
"o.	c #956930",
"p.	c #916334",
"q.	c #A66941",
"r.	c #7E6265",
"s.	c #AA7E78",
"t.	c #6A4323",
"u.	c #896248",
"v.	c #432918",
"w.	c #A06A2F",
"x.	c #AC7D3A",
"y.	c #D49A47",
"z.	c #55300F",
"A.	c #3A1A00",
"B.	c #291C13",
"C.	c #422004",
"D.	c #34210B",
"E.	c #5C3E1A",
"F.	c #FFCC59",
"G.	c #C79B48",
"H.	c #996933",
"I.	c #7F5627",
"J.	c #55381D",
"K.	c #DC8854",
"L.	c #7F6368",
"M.	c #6E4938",
"N.	c #5A463A",
"O.	c #5D3D19",
"P.	c #1E1305",
"Q.	c #865827",
"R.	c #815A2C",
"S.	c #AD7939",
"T.	c #633913",
"U.	c #643711",
"V.	c #61340F",
"W.	c #402613",
"X.	c #251A11",
"Y.	c #36271F",
"Z.	c #3E1E05",
"`.	c #2C1F0C",
" +	c #32220D",
".+	c #885E2A",
"++	c #FFBB56",
"@+	c #EBAD4F",
"#+	c #815B2C",
"$+	c #49321C",
"%+	c #A56848",
"&+	c #6B5151",
"*+	c #745A54",
"=+	c #7A7077",
"-+	c #965F2E",
";+	c #3F2610",
">+	c #724920",
",+	c #DA9941",
"'+	c #D8953E",
")+	c #4D280A",
"!+	c #AC7130",
"~+	c #703811",
"{+	c #42240C",
"]+	c #6E3B13",
"^+	c #241A12",
"/+	c #422105",
"(+	c #2B1D0C",
"_+	c #2E1E0C",
":+	c #422E12",
"<+	c #C68A3F",
"[+	c #F6AC50",
"}+	c #735429",
"|+	c #754E2E",
"1+	c #A56948",
"2+	c #6A4A40",
"3+	c #613B23",
"4+	c #755342",
"5+	c #916232",
"6+	c #613612",
"7+	c #94622E",
"8+	c #D58D40",
"9+	c #A76E2B",
"0+	c #6C461B",
"a+	c #BE8436",
"b+	c #854716",
"c+	c #954D15",
"d+	c #5F310F",
"e+	c #2C1C0B",
"f+	c #38260E",
"g+	c #2A1B09",
"h+	c #CC9040",
"i+	c #C0863A",
"j+	c #B0763F",
"k+	c #B1714F",
"l+	c #956B5A",
"m+	c #755141",
"n+	c #826254",
"o+	c #976628",
"p+	c #793E14",
"q+	c #FFBC52",
"r+	c #E5A047",
"s+	c #E89E46",
"t+	c #F8A848",
"u+	c #D9903C",
"v+	c #97521A",
"w+	c #954F17",
"x+	c #633512",
"y+	c #2A1B0F",
"z+	c #301F0D",
"A+	c #2D1E0B",
"B+	c #3C280F",
"C+	c #3B240D",
"D+	c #B87F3A",
"E+	c #815821",
"F+	c #664419",
"G+	c #7D5427",
"H+	c #6A4229",
"I+	c #87675B",
"J+	c #987148",
"K+	c #814415",
"L+	c #DD9C48",
"M+	c #EBAA4D",
"N+	c #F7B24F",
"O+	c #F4AF4C",
"P+	c #C28234",
"Q+	c #884615",
"R+	c #844213",
"S+	c #442811",
"T+	c #29190B",
"U+	c #2D2011",
"V+	c #30200B",
"W+	c #39270F",
"X+	c #412C11",
"Y+	c #733D10",
"Z+	c #BF6F27",
"`+	c #9D6827",
" @	c #855E32",
".@	c #64461F",
"+@	c #785939",
"@@	c #6A4820",
"#@	c #391D06",
"$@	c #855322",
"%@	c #8F632F",
"&@	c #A16C30",
"*@	c #86511F",
"=@	c #844211",
"-@	c #904C15",
";@	c #874615",
">@	c #462A14",
",@	c #271C11",
"'@	c #302313",
")@	c #37260E",
"!@	c #3C2A10",
"~@	c #372918",
"{@	c #45413D",
"]@	c #683A12",
"^@	c #9D5623",
"/@	c #AC7857",
"(@	c #CA9B67",
"_@	c #7F5826",
":@	c #522D0D",
"<@	c #8B490F",
"[@	c #8A470D",
"}@	c #87460E",
"|@	c #854613",
"1@	c #502705",
"2@	c #6C360D",
"3@	c #6E390F",
"4@	c #522C0D",
"5@	c #291D12",
"6@	c #342615",
"7@	c #382611",
"8@	c #23231F",
"9@	c #1A1F22",
"0@	c #2A2218",
"a@	c #2D302D",
"b@	c #5D3712",
"c@	c #66340C",
"d@	c #623312",
"e@	c #8A3835",
"f@	c #893835",
"g@	c #8D3937",
"h@	c #5A260E",
"i@	c #8C3937",
"j@	c #8C3938",
"k@	c #602B0E",
"l@	c #2B1D0E",
"m@	c #281C12",
"n@	c #312516",
"o@	c #372815",
"p@	c #2F2517",
"q@	c #352919",
"r@	c #222526",
"s@	c #202220",
"t@	c #232E38",
"u@	c #472F11",
"v@	c #73381E",
"w@	c #8F4325",
"x@	c #8E4224",
"y@	c #803A20",
"z@	c #723323",
"A@	c #8F3938",
"B@	c #652E19",
"C@	c #231A12",
"D@	c #261A11",
"E@	c #2C1E12",
"F@	c #382A18",
"G@	c #3F2E1A",
"H@	c #423017",
"I@	c #31291E",
"J@	c #2A251F",
"K@	c #42290F",
"L@	c #452108",
"M@	c #492608",
"N@	c #4A2509",
"O@	c #48260A",
"P@	c #3D2007",
"Q@	c #472405",
"R@	c #281B0F",
"S@	c #241810",
"T@	c #41311A",
"U@	c #352617",
"V@	c #3B2B18",
"W@	c #48351D",
"X@	c #211912",
"                                                                ",
"                                                                ",
"                      . +             @                         ",
"                                    #   $ %                     ",
"                      & *           = - ; > , '                 ",
"    )                   !         ~ { ]   ' '                 ^ ",
"    /               ( _ :         < [ }                       | ",
"  1 2               3             4 5                   6 7   8 ",
"  9 0               a b           c d               e f       g ",
"  h i               j k           l m             n o p     q r ",
"  s t u             v w           x y         z A B C         D ",
"  E F   G         H I         J   K L       M N O P Q         R ",
"  S T   U V     W X Y Z     `  .  ..      +.@.#.$.%.&.      *.  ",
"  =.        -.;.>.,.'.).!.~.{.].^./.    (._.:.  <.              ",
"  [.  }.}.  |.1.2.3.4.5.6.7.8.9.0.a.b.c.d.e.f.  g.              ",
"h.    }.}.  i.j.k.l.m.n.o.p.q.r.s.t.u.v.w.x.y.z.A.        }.    ",
"B.    }.}.  C.D.E.F.G.H.I.J.K.L.M.N.O.P.Q.R.S.T.U.V.W.X.}.}.}.  ",
"    Y.}.}.  Z.`. +.+++@+#+$+%+&+*+=+-+;+>+,+'+)+!+~+{+]+  }.    ",
"      }.  ^+/+(+_+:+<+[+}+|+1+2+3+4+5+6+7+8+9+0+a+b+c+d+        ",
"        }.    e+ +f+g+h+i+j+k+l+m+n+o+p+q+r+s+t+u+v+w+x+        ",
"      }.    y+z+A+f+B+C+D+E+F+G+H+I+J+K+L+M+N+O+P+Q+R+S+        ",
"      }.      T+U+V+W+X+Y+Z+`+ @.@+@@@#@$@%@&@*@=@-@;@>@        ",
"                ,@'@)@!@~@{@]@^@/@(@_@:@<@[@}@|@1@2@3@4@        ",
"                  5@6@7@8@9@0@a@b@c@|@d@e@f@g@h@i@j@k@l@        ",
"                    m@n@o@p@q@r@s@t@u@v@w@x@y@z@A@B@C@}.        ",
"                      D@E@F@G@H@I@J@K@L@M@N@O@P@Q@R@            ",
"                            S@  T@U@V@W@X@C@                    ",
"                                                                ",
"                                                                ",
"                                                                ",
"                                                                ",
"                                                                "};
