/* XPM */
static char * afundando4_xpm[] = {
"32 32 343 2",
"  	c None",
". 	c #9F756E",
"+ 	c #987578",
"@ 	c #805237",
"# 	c #82553F",
"$ 	c #A07C7F",
"% 	c #6D370E",
"& 	c #6F380C",
"* 	c #9C7676",
"= 	c #AB8488",
"- 	c #6C350B",
"; 	c #3E1D02",
"> 	c #763B10",
", 	c #6E360D",
"' 	c #987272",
") 	c #FBF9FF",
"! 	c #7C3D0D",
"~ 	c #5A3D37",
"{ 	c #7E4213",
"] 	c #8F6D6D",
"^ 	c #A37A7A",
"/ 	c #C6B3B1",
"( 	c #CDB9BA",
"_ 	c #85501A",
": 	c #881C06",
"< 	c #E01104",
"[ 	c #866565",
"} 	c #AF8B8A",
"| 	c #632F09",
"1 	c #916E6E",
"2 	c #AC8384",
"3 	c #9D776F",
"4 	c #977373",
"5 	c #A58082",
"6 	c #8C4813",
"7 	c #571E03",
"8 	c #D31204",
"9 	c #E31004",
"0 	c #8A6A6B",
"a 	c #7F584E",
"b 	c #A55D20",
"c 	c #41230C",
"d 	c #7C5E5E",
"e 	c #9A7575",
"f 	c #AC8484",
"g 	c #DDA6A4",
"h 	c #9C7677",
"i 	c #B38B90",
"j 	c #6E380F",
"k 	c #8D6C6E",
"l 	c #8A5F53",
"m 	c #6F380B",
"n 	c #9C7777",
"o 	c #BB9092",
"p 	c #542D12",
"q 	c #8E5735",
"r 	c #9D797A",
"s 	c #C29EA4",
"t 	c #814111",
"u 	c #906D6D",
"v 	c #5B2C09",
"w 	c #643814",
"x 	c #967164",
"y 	c #997575",
"z 	c #A27D7C",
"A 	c #604135",
"B 	c #A57E7F",
"C 	c #D1A0A1",
"D 	c #8B6B6B",
"E 	c #2D1B0C",
"F 	c #6D390E",
"G 	c #FCBF57",
"H 	c #FCB252",
"I 	c #5C3B2C",
"J 	c #917071",
"K 	c #906A6A",
"L 	c #8D8682",
"M 	c #72493B",
"N 	c #AA8385",
"O 	c #8F6457",
"P 	c #251A11",
"Q 	c #3C200A",
"R 	c #4F2605",
"S 	c #643D18",
"T 	c #FFB657",
"U 	c #704618",
"V 	c #9E672A",
"W 	c #C8965A",
"X 	c #36271E",
"Y 	c #997474",
"Z 	c #2B1E15",
"` 	c #8A5A43",
" .	c #271B11",
"..	c #2A1B10",
"+.	c #482508",
"@.	c #4B2104",
"#.	c #4B3616",
"$.	c #CF9042",
"%.	c #865220",
"&.	c #BB853E",
"*.	c #D19044",
"=.	c #3D2D26",
"-.	c #A27C7E",
";.	c #3B2211",
">.	c #7A461F",
",.	c #79707D",
"'.	c #261A10",
").	c #A97353",
"!.	c #A47F7E",
"~.	c #936B5F",
"{.	c #743B0C",
"].	c #27190E",
"^.	c #421E03",
"/.	c #3B260E",
"(.	c #402B11",
"_.	c #886129",
":.	c #FFB653",
"<.	c #E99E4B",
"[.	c #C19240",
"}.	c #35200D",
"|.	c #543519",
"1.	c #281C12",
"2.	c #634C4C",
"3.	c #B68B8D",
"4.	c #4B2B12",
"5.	c #8D6143",
"6.	c #25190F",
"7.	c #533E37",
"8.	c #B28B8B",
"9.	c #B48D8E",
"0.	c #815B4D",
"a.	c #5B300C",
"b.	c #52290B",
"c.	c #2C1B0E",
"d.	c #3C2309",
"e.	c #422E12",
"f.	c #452E11",
"g.	c #5F401B",
"h.	c #E5B350",
"i.	c #EC9E4B",
"j.	c #E9AA4D",
"k.	c #614422",
"l.	c #30200B",
"m.	c #5F3E29",
"n.	c #604A4C",
"o.	c #B38789",
"p.	c #D1AC8F",
"q.	c #474043",
"r.	c #3E3431",
"s.	c #2A1D13",
"t.	c #906C66",
"u.	c #9E756B",
"v.	c #82481B",
"w.	c #5E2C07",
"x.	c #724D40",
"y.	c #B38D8E",
"z.	c #2A1A0D",
"A.	c #392109",
"B.	c #453012",
"C.	c #463112",
"D.	c #473112",
"E.	c #BE833C",
"F.	c #FFC95B",
"G.	c #C48942",
"H.	c #895F30",
"I.	c #7D533B",
"J.	c #61483E",
"K.	c #A37C7D",
"L.	c #C19497",
"M.	c #653815",
"N.	c #79747D",
"O.	c #584439",
"P.	c #A77B73",
"Q.	c #241001",
"R.	c #341801",
"S.	c #89655C",
"T.	c #B99192",
"U.	c #4A2607",
"V.	c #97726C",
"W.	c #57423C",
"X.	c #361E08",
"Y.	c #382610",
"Z.	c #422B10",
"`.	c #442E12",
" +	c #7D5526",
".+	c #E49F4E",
"++	c #BF9044",
"@+	c #51341D",
"#+	c #955F3E",
"$+	c #A47D7D",
"%+	c #BC9194",
"&+	c #54290A",
"*+	c #372920",
"=+	c #352413",
"-+	c #8F6850",
";+	c #6A4F4A",
">+	c #744F42",
",+	c #7B5448",
"'+	c #8B6B6A",
")+	c #24180E",
"!+	c #2B1C10",
"~+	c #311E0C",
"{+	c #39250F",
"]+	c #3C2810",
"^+	c #4A3314",
"/+	c #493212",
"(+	c #A27032",
"_+	c #A1743B",
":+	c #AA7243",
"<+	c #A36B4D",
"[+	c #876768",
"}+	c #A1756A",
"|+	c #4A301F",
"1+	c #24180D",
"2+	c #564B4A",
"3+	c #65411B",
"4+	c #B78741",
"5+	c #593F22",
"6+	c #231810",
"7+	c #331C0A",
"8+	c #3E210B",
"9+	c #2D2118",
"0+	c #2B1E14",
"a+	c #301C0C",
"b+	c #2F200C",
"c+	c #432D10",
"d+	c #483012",
"e+	c #4D3413",
"f+	c #452C11",
"g+	c #A77838",
"h+	c #8C5C38",
"i+	c #A26E50",
"j+	c #A97560",
"k+	c #8F604A",
"l+	c #AD9595",
"m+	c #5D5456",
"n+	c #291A0D",
"o+	c #94642D",
"p+	c #AF7D3F",
"q+	c #A5793D",
"r+	c #1F130C",
"s+	c #462309",
"t+	c #4D2303",
"u+	c #321D0A",
"v+	c #31200C",
"w+	c #432E12",
"x+	c #4E3514",
"y+	c #4F3515",
"z+	c #A46A2E",
"A+	c #7C551E",
"B+	c #C37D54",
"C+	c #B37351",
"D+	c #A37156",
"E+	c #926C5F",
"F+	c #271A0D",
"G+	c #68421D",
"H+	c #BF8E41",
"I+	c #A47339",
"J+	c #311806",
"K+	c #341E0D",
"L+	c #3B1A03",
"M+	c #2C2111",
"N+	c #3B290F",
"O+	c #472F12",
"P+	c #603913",
"Q+	c #985D23",
"R+	c #865B22",
"S+	c #855A2C",
"T+	c #B88A77",
"U+	c #B29C9F",
"V+	c #30241C",
"W+	c #332211",
"X+	c #945E2C",
"Y+	c #EBA64A",
"Z+	c #A6702C",
"`+	c #411D02",
" @	c #261A11",
".@	c #2A1D10",
"+@	c #332411",
"@@	c #4A3212",
"#@	c #252B2F",
"$@	c #5F3A1A",
"%@	c #8B541B",
"&@	c #A38870",
"*@	c #815930",
"=@	c #44342B",
"-@	c #3E2614",
";@	c #663E18",
">@	c #DDA148",
",@	c #F6AD50",
"'@	c #A06527",
")@	c #523B1F",
"!@	c #2B1F12",
"~@	c #342510",
"{@	c #1B262E",
"]@	c #2A251C",
"^@	c #593812",
"/@	c #9B5A29",
"(@	c #735C45",
"_@	c #3E3839",
":@	c #633A16",
"<@	c #4B2F11",
"[@	c #B67632",
"}@	c #FBB455",
"|@	c #F6B455",
"1@	c #FFB351",
"2@	c #2D2114",
"3@	c #332412",
"4@	c #3A2912",
"5@	c #2F291F",
"6@	c #1D2A36",
"7@	c #47341F",
"8@	c #92511F",
"9@	c #251B0A",
"0@	c #814514",
"a@	c #835021",
"b@	c #E9A24C",
"c@	c #FAB757",
"d@	c #FFD05B",
"e@	c #2E2214",
"f@	c #352715",
"g@	c #362510",
"h@	c #222220",
"i@	c #392D1B",
"j@	c #333637",
"k@	c #6E4421",
"l@	c #844915",
"m@	c #572D1E",
"n@	c #7A3521",
"o@	c #98561C",
"p@	c #A7561A",
"q@	c #7E4316",
"r@	c #3B2B18",
"s@	c #422D14",
"t@	c #252725",
"u@	c #232626",
"v@	c #40280D",
"w@	c #763A23",
"x@	c #88332F",
"y@	c #853430",
"z@	c #4A231E",
"A@	c #321E0F",
"B@	c #6A360A",
"                                                                ",
"                                                                ",
"      .                   + @                                   ",
"      #                   $ %                                   ",
"      &                 * = - ;             >                   ",
"      ,                 ' ) !             ~                     ",
"      {               ] ^ /             (   _ : <               ",
"  [ }   |             1 2 3           4 5 6 7 8 9 9             ",
"  0 a b c           d e f g           h i j     9 9             ",
"  k l     m           n o p         q r s t                     ",
"  u       v w       x y           z A B C                       ",
"  D       E F   G H I J         K L M N O                       ",
"        P Q R S T U V W       X Y Z `                           ",
"       ...+.@.#.$.%.&.*.     .=.-.;.>.,.       .'.    ).!.~.{.  ",
"       .].^./.(._.:.<.[.}.|.1.2.3.4.5.      6.7.8.9.0.a.b.      ",
"       .c.d.e.f.g.h.i.j.k.l.m.n.o.p.q.r.  s.t.u.v.w.x.y.        ",
" .     .z.A.B.C.D.E.F.G.H.I.J.K.L.M.N.O.P.Q.R.S.T.U.V.W.        ",
"       .c.X.Y.Z.`. +.+++@+#+0 $+%+&+*+=+-+;+'.P >+,+'+)+ . . . .",
"       .!+~+{+]+^+/+(+_+:+<+[+}+|+1+2+3+4+5+6+7+8+9+0+ .       .",
"       . .a+b+c+d+e+f+g+h+i+j+k+l+m+n+o+p+q+r+s+   . . . . .    ",
"          t+u+v+w+x+y+z+A+B+C+D+E+s.F+G+H+I+J+K+     . .        ",
"            L+M+N+O+^+P+Q+R+S+T+U+V+W+X+Y+Z+`+ @ . .            ",
"              .@+@f.@@#@$@%@&@*@=@-@;@>@,@'@)@                  ",
"                !@~@+@{@]@^@/@(@_@:@<@[@}@|@1@                  ",
"                  2@3@4@5@6@7@8@  9@0@a@b@c@d@                  ",
"                    e@f@g@h@i@j@k@l@m@n@o@p@q@                  ",
"                        r@s@t@u@v@w@x@y@z@A@B@                  ",
"                                                                ",
"                                                                ",
"                                                                ",
"                                                                ",
"                                                                "};
