/* XPM */
static char * afundando1_xpm[] = {
"50 32 639 2",
"  	c None",
". 	c #83420B",
"+ 	c #70350D",
"@ 	c #665348",
"# 	c #7B3D0D",
"$ 	c #E4C1C3",
"% 	c #632A00",
"& 	c #6D4F4F",
"* 	c #53331F",
"= 	c #5C2209",
"- 	c #CB0E03",
"; 	c #D61004",
"> 	c #C80E03",
", 	c #FFE5E5",
"' 	c #361600",
") 	c #512C09",
"! 	c #BF0A03",
"~ 	c #806161",
"{ 	c #8B4712",
"] 	c #E1AEAF",
"^ 	c #3A1800",
"/ 	c #6E3B11",
"( 	c #FFD8D8",
"_ 	c #F8CACB",
": 	c #2B1402",
"< 	c #542C0A",
"[ 	c #EBB5B5",
"} 	c #5B3318",
"| 	c #6E3301",
"1 	c #7E8196",
"2 	c #D0A5AA",
"3 	c #471D00",
"4 	c #4F2A0F",
"5 	c #DBA9A9",
"6 	c #EAB5B5",
"7 	c #3E1F07",
"8 	c #5E2D09",
"9 	c #EDB6B6",
"0 	c #63381B",
"a 	c #A0735A",
"b 	c #7E6A61",
"c 	c #764122",
"d 	c #C3999B",
"e 	c #421900",
"f 	c #AD827C",
"g 	c #D6A6A6",
"h 	c #773C0D",
"i 	c #EBB6B6",
"j 	c #45240C",
"k 	c #67350D",
"l 	c #F5D9D6",
"m 	c #532300",
"n 	c #916C57",
"o 	c #775B44",
"p 	c #A87C75",
"q 	c #754E3B",
"r 	c #4F2000",
"s 	c #B88F8E",
"t 	c #BB9191",
"u 	c #FFC5C5",
"v 	c #DAA7A7",
"w 	c #B2765A",
"x 	c #FFDEDF",
"y 	c #4F2A0E",
"z 	c #6B3812",
"A 	c #886665",
"B 	c #4D1D00",
"C 	c #C09696",
"D 	c #4B3226",
"E 	c #472203",
"F 	c #B28A89",
"G 	c #B88F8F",
"H 	c #F5BEBE",
"I 	c #E8B3B4",
"J 	c #F2BBBD",
"K 	c #592700",
"L 	c #C1A2A3",
"M 	c #492407",
"N 	c #904D17",
"O 	c #C1A7A7",
"P 	c #8A6868",
"Q 	c #B48D7C",
"R 	c #87634F",
"S 	c #C0BBD1",
"T 	c #C3999A",
"U 	c #895D47",
"V 	c #2F1100",
"W 	c #AD8179",
"X 	c #B28989",
"Y 	c #AA8282",
"Z 	c #A98282",
"` 	c #F0B9B9",
" .	c #724C39",
"..	c #EAB6B8",
"+.	c #642F04",
"@.	c #957475",
"#.	c #592F14",
"$.	c #C19494",
"%.	c #7D5F60",
"&.	c #452512",
"*.	c #9D96A2",
"=.	c #B18785",
"-.	c #936757",
";.	c #5C3620",
">.	c #543118",
",.	c #B48B8D",
"'.	c #AF8686",
").	c #B98F8F",
"!.	c #BF9494",
"~.	c #F6BEBE",
"{.	c #7E533F",
"].	c #F8C1C3",
"^.	c #6A3305",
"/.	c #866667",
"(.	c #643612",
"_.	c #5C4646",
":.	c #C19595",
"<.	c #6E5351",
"[.	c #2B1504",
"}.	c #786150",
"|.	c #C69B9D",
"1.	c #4D2100",
"2.	c #64412C",
"3.	c #B48B8B",
"4.	c #401D03",
"5.	c #FFC6C6",
"6.	c #825240",
"7.	c #FFC7C9",
"8.	c #6E3504",
"9.	c #7E6061",
"0.	c #4A250B",
"a.	c #271B11",
"b.	c #674E4E",
"c.	c #E7B1B1",
"d.	c #856866",
"e.	c #BD9292",
"f.	c #431800",
"g.	c #B48B8F",
"h.	c #3C1C06",
"i.	c #765A5A",
"j.	c #955F43",
"k.	c #FFCCCE",
"l.	c #693106",
"m.	c #725757",
"n.	c #281407",
"o.	c #825A28",
"p.	c #EDA74A",
"q.	c #825B2B",
"r.	c #6A5153",
"s.	c #EAB4B4",
"t.	c #1A0700",
"u.	c #533624",
"v.	c #715A4A",
"w.	c #6F5644",
"x.	c #573A2B",
"y.	c #451D00",
"z.	c #94726B",
"A.	c #6C3C0E",
"B.	c #7A3E10",
"C.	c #572E0C",
"D.	c #785B5B",
"E.	c #A17369",
"F.	c #FFD0D3",
"G.	c #783906",
"H.	c #3A261B",
"I.	c #884A1A",
"J.	c #F2A746",
"K.	c #BC8549",
"L.	c #8E6F6F",
"M.	c #2E1301",
"N.	c #77582C",
"O.	c #FFC254",
"P.	c #7B572B",
"Q.	c #874C17",
"R.	c #814310",
"S.	c #743307",
"T.	c #844B17",
"U.	c #6C4537",
"V.	c #F8D5D4",
"W.	c #532A08",
"X.	c #746B71",
"Y.	c #61595D",
"Z.	c #261B12",
"`.	c #512607",
" +	c #EFAA46",
".+	c #E09B43",
"++	c #E3A145",
"@+	c #C48B3C",
"#+	c #271201",
"$+	c #472409",
"%+	c #391A02",
"&+	c #4D280C",
"*+	c #6E5455",
"=+	c #3B1D04",
"-+	c #FFD3D6",
";+	c #652700",
">+	c #FEE5E9",
",+	c #2B1E14",
"'+	c #351F0D",
")+	c #68330A",
"!+	c #9C561B",
"~+	c #FDB64E",
"{+	c #EEA246",
"]+	c #5C4A54",
"^+	c #402006",
"/+	c #835A2D",
"(+	c #865C2C",
"_+	c #845D2C",
":+	c #3D2B12",
"<+	c #3F2C11",
"[+	c #3C2810",
"}+	c #442E12",
"|+	c #674D42",
"1+	c #715349",
"2+	c #592805",
"3+	c #58350D",
"4+	c #33210C",
"5+	c #2F1F0B",
"6+	c #7D3C0C",
"7+	c #552D0C",
"8+	c #53290A",
"9+	c #D1903F",
"0+	c #E5A447",
"a+	c #A47633",
"b+	c #D2953F",
"c+	c #281201",
"d+	c #5C3D19",
"e+	c #3A1C06",
"f+	c #3E1F09",
"g+	c #3C1F08",
"h+	c #7A3F10",
"i+	c #7F4414",
"j+	c #251B12",
"k+	c #261A10",
"l+	c #6A5252",
"m+	c #FFD5D8",
"n+	c #6F3300",
"o+	c #64350E",
"p+	c #8D4A16",
"q+	c #8A4413",
"r+	c #231608",
"s+	c #FBAE4B",
"t+	c #F1A84A",
"u+	c #6C4E1D",
"v+	c #48240C",
"w+	c #87602C",
"x+	c #E8A545",
"y+	c #7A562A",
"z+	c #654521",
"A+	c #785226",
"B+	c #D89542",
"C+	c #B57641",
"D+	c #7E594B",
"E+	c #937174",
"F+	c #5E2902",
"G+	c #C1B1BF",
"H+	c #8E8486",
"I+	c #797071",
"J+	c #3C2B0F",
"K+	c #34240C",
"L+	c #43240B",
"M+	c #815A28",
"N+	c #493218",
"O+	c #93632C",
"P+	c #A87433",
"Q+	c #371802",
"R+	c #CF8A38",
"S+	c #8C5E27",
"T+	c #4E270B",
"U+	c #64340C",
"V+	c #7F410F",
"W+	c #86440E",
"X+	c #66320A",
"Y+	c #291C10",
"Z+	c #654F4F",
"`+	c #D2ABAD",
" @	c #703302",
".@	c #211811",
"+@	c #5B310E",
"@@	c #67350B",
"#@	c #351D09",
"$@	c #E09B45",
"%@	c #E09443",
"&@	c #E79B43",
"*@	c #7C5429",
"=@	c #8B612C",
"-@	c #92642E",
";@	c #8C642C",
">@	c #6D4E21",
",@	c #EBA340",
"'@	c #D4913D",
")@	c #DF8B54",
"!@	c #8B5D4F",
"~@	c #886869",
"{@	c #522100",
"]@	c #866F6A",
"^@	c #512C13",
"/@	c #321F13",
"(@	c #BE7D35",
"_@	c #895D29",
":@	c #542809",
"<@	c #EFA642",
"[@	c #E8A03F",
"}@	c #E7A03F",
"|@	c #B77D2F",
"1@	c #442003",
"2@	c #5B3D19",
"3@	c #825D28",
"4@	c #914E16",
"5@	c #7F3E0F",
"6@	c #78370C",
"7@	c #86420D",
"8@	c #977676",
"9@	c #755B5E",
"0@	c #432105",
"a@	c #421E02",
"b@	c #221609",
"c@	c #BC8236",
"d@	c #D39141",
"e@	c #E09C44",
"f@	c #865D2C",
"g@	c #825729",
"h@	c #9B6530",
"i@	c #865B2A",
"j@	c #65451F",
"k@	c #D18739",
"l@	c #D08C3E",
"m@	c #A76643",
"n@	c #8C5E4E",
"o@	c #8A6A6B",
"p@	c #231000",
"q@	c #583621",
"r@	c #543524",
"s@	c #5B3A23",
"t@	c #694B21",
"u@	c #493113",
"v@	c #D68D3C",
"w@	c #CD8337",
"x@	c #CE8B3A",
"y@	c #A7712E",
"z@	c #4C2606",
"A@	c #B37D35",
"B@	c #E7A340",
"C@	c #DA973B",
"D@	c #874812",
"E@	c #83430F",
"F@	c #844410",
"G@	c #251A11",
"H@	c #836666",
"I@	c #6C5455",
"J@	c #3A1701",
"K@	c #442105",
"L@	c #261A0D",
"M@	c #241708",
"N@	c #97682D",
"O@	c #FFBB4D",
"P@	c #EEBA50",
"Q@	c #7D592B",
"R@	c #7E5C2C",
"S@	c #7D582A",
"T@	c #583E1B",
"U@	c #D69841",
"V@	c #B97E3A",
"W@	c #BE7045",
"X@	c #684D46",
"Y@	c #624C4B",
"Z@	c #371B05",
"`@	c #8A5839",
" #	c #948C99",
".#	c #4B2B15",
"+#	c #5D401E",
"@#	c #523315",
"##	c #793D0E",
"$#	c #CB8E3E",
"%#	c #B87837",
"&#	c #BC7D38",
"*#	c #D08B3A",
"=#	c #D8923E",
"-#	c #D78E3B",
";#	c #E39B3F",
">#	c #533011",
",#	c #7E4011",
"'#	c #834313",
")#	c #884611",
"!#	c #917771",
"~#	c #281C12",
"{#	c #3C1F07",
"]#	c #411F04",
"^#	c #271B0E",
"/#	c #31220D",
"(#	c #1E1407",
"_#	c #98692D",
":#	c #E49F46",
"<#	c #F1AD4B",
"[#	c #FCB851",
"}#	c #A97737",
"|#	c #563D1A",
"1#	c #E3A245",
"2#	c #C1873E",
"3#	c #8C593E",
"4#	c #955D3D",
"5#	c #745854",
"6#	c #4F3325",
"7#	c #6A5B5A",
"8#	c #72584F",
"9#	c #79492A",
"0#	c #6A4C21",
"a#	c #4E3114",
"b#	c #7A390D",
"c#	c #E6A547",
"d#	c #E5A346",
"e#	c #EAAA48",
"f#	c #E7A547",
"g#	c #D89541",
"h#	c #E09C42",
"i#	c #CC8B38",
"j#	c #813E0B",
"k#	c #814411",
"l#	c #844411",
"m#	c #E0B6B7",
"n#	c #130A00",
"o#	c #241B13",
"p#	c #3E1B01",
"q#	c #2A1E0E",
"r#	c #281C0C",
"s#	c #2C1E0B",
"t#	c #281B0B",
"u#	c #241807",
"v#	c #D08C3F",
"w#	c #DC9244",
"x#	c #F4AB4A",
"y#	c #4A3016",
"z#	c #CF8A3B",
"A#	c #D48C3F",
"B#	c #84563D",
"C#	c #8F6043",
"D#	c #4F3120",
"E#	c #442C20",
"F#	c #4A3326",
"G#	c #593622",
"H#	c #B16F41",
"I#	c #7B5623",
"J#	c #4B2D11",
"K#	c #7E3F0F",
"L#	c #D79742",
"M#	c #CD9441",
"N#	c #C3893D",
"O#	c #AE7736",
"P#	c #BC8339",
"Q#	c #66461F",
"R#	c #823E0C",
"S#	c #793D0F",
"T#	c #7F400E",
"U#	c #874510",
"V#	c #803E0E",
"W#	c #2B1C10",
"X#	c #23170D",
"Y#	c #917273",
"Z#	c #2C1604",
"`#	c #2C2010",
" $	c #342612",
".$	c #241809",
"+$	c #31210C",
"@$	c #7A5623",
"#$	c #CB8D40",
"$$	c #C28331",
"%$	c #D6903B",
"&$	c #D9963A",
"*$	c #734E1F",
"=$	c #61401B",
"-$	c #69471D",
";$	c #4D341B",
">$	c #71625B",
",$	c #5B3522",
"'$	c #87573A",
")$	c #D18D3C",
"!$	c #96561F",
"~$	c #843F0D",
"{$	c #C58B3D",
"]$	c #BE823A",
"^$	c #4E371A",
"/$	c #5E3E1A",
"($	c #7C4010",
"_$	c #7A390B",
":$	c #3A1E07",
"<$	c #9F4E0E",
"[$	c #65370B",
"}$	c #5B2D09",
"|$	c #5A2F0C",
"1$	c #4E2304",
"2$	c #22170D",
"3$	c #311D0D",
"4$	c #2E200F",
"5$	c #2F2211",
"6$	c #2F2110",
"7$	c #2D1F0E",
"8$	c #31200B",
"9$	c #33230D",
"0$	c #B57632",
"a$	c #BC7B38",
"b$	c #CD8B3B",
"c$	c #B07430",
"d$	c #875D25",
"e$	c #6A4A1B",
"f$	c #3C280D",
"g$	c #422803",
"h$	c #432B07",
"i$	c #442A09",
"j$	c #CC923F",
"k$	c #935219",
"l$	c #7F3C0C",
"m$	c #874B16",
"n$	c #643208",
"o$	c #733909",
"p$	c #7B3B11",
"q$	c #964628",
"r$	c #32180B",
"s$	c #602D0F",
"t$	c #873533",
"u$	c #893633",
"v$	c #923938",
"w$	c #2E1500",
"x$	c #312413",
"y$	c #302212",
"z$	c #2E2111",
"A$	c #322411",
"B$	c #31220F",
"C$	c #39270F",
"D$	c #36240D",
"E$	c #61350E",
"F$	c #6C370C",
"G$	c #6E370B",
"H$	c #894812",
"I$	c #783709",
"J$	c #CF8836",
"K$	c #CD8A40",
"L$	c #AE989B",
"M$	c #B8AEBE",
"N$	c #9E8C8A",
"O$	c #DE9941",
"P$	c #97581F",
"Q$	c #532904",
"R$	c #502C20",
"S$	c #8A3634",
"T$	c #8A3734",
"U$	c #8A3733",
"V$	c #873631",
"W$	c #5E2A0C",
"X$	c #903938",
"Y$	c #883632",
"Z$	c #5A2B11",
"`$	c #231A12",
" %	c #2D1E11",
".%	c #332715",
"+%	c #332513",
"@%	c #332412",
"#%	c #3D2C14",
"$%	c #3B2813",
"%%	c #3B2810",
"&%	c #21180D",
"*%	c #3A4A57",
"=%	c #382713",
"-%	c #402B11",
";%	c #593612",
">%	c #763B10",
",%	c #844612",
"'%	c #7B3C0D",
")%	c #77370E",
"!%	c #74360B",
"~%	c #81410F",
"{%	c #612915",
"]%	c #873630",
"^%	c #853630",
"/%	c #853530",
"(%	c #45260B",
"_%	c #371E09",
":%	c #73370B",
"<%	c #442108",
"[%	c #36210E",
"}%	c #362815",
"|%	c #352816",
"1%	c #322515",
"2%	c #402F15",
"3%	c #392A14",
"4%	c #2F281D",
"5%	c #171F25",
"6%	c #162027",
"7%	c #462E13",
"8%	c #15212B",
"9%	c #1C2730",
"0%	c #49351B",
"a%	c #1A2631",
"b%	c #1C262E",
"c%	c #453218",
"d%	c #482B10",
"e%	c #51280C",
"f%	c #552911",
"g%	c #542B0A",
"h%	c #572C09",
"i%	c #4E2A0A",
"j%	c #462107",
"k%	c #442408",
"l%	c #4A2306",
"m%	c #492509",
"n%	c #2E1D10",
"o%	c #291C11",
"p%	c #241810",
"q%	c #362816",
"r%	c #2E2214",
"s%	c #3B2C19",
"t%	c #332A1B",
"u%	c #26241F",
"v%	c #25231E",
"w%	c #483318",
"x%	c #26231E",
"y%	c #29241D",
"z%	c #463116",
"A%	c #121E28",
"B%	c #141E27",
"C%	c #3F2D17",
"D%	c #4C3114",
"E%	c #422711",
"F%	c #4E3012",
"G%	c #42270F",
"H%	c #342516",
"I%	c #251910",
"J%	c #2E2014",
"K%	c #3E2C19",
"L%	c #3E2F1B",
"M%	c #45341C",
"N%	c #3E2D1A",
"O%	c #42301B",
"P%	c #402E1A",
"Q%	c #48331A",
"R%	c #47331A",
"S%	c #46331B",
"T%	c #43321C",
"U%	c #413019",
"V%	c #241910",
"                                                                                                    ",
"                                                        .                                           ",
"                                  +                   @   #                                         ",
"                                $ %                 & *   = - - ; >                                 ",
"                                                    , ' ) ! - - - -                                 ",
"                              ~     {               ] ^ /         -                     (           ",
"                              _ : <                 [ } | 1                       2 3 4           5 ",
"                              6 7 8                 9 0 a b                   c d e f             g ",
"      h                       i j k                 l m n o                 p q r s t           u v ",
"      w                       x y z                 A B                   C D E F G             H I ",
"    J K                       L M N               O P Q R S             T U V W X Y Z           `  .",
"    ..+.                      @.#.                $.%.&.  *.          =.-.;.>.,.'.).!.          ~.{.",
"    ].^.                      /.(.              _.:.<.[.}.          |.1.2.3.4.                  5.6.",
"    7.8.                      9.0.        a.    b.c.d.'           e.f.g.    h.                  i.j.",
"    k.l.                      m.n.o.p.q.        r.s.t.u.v.w.    x.y.z.A.B.  C.                  D.E.",
"    F.G.H.I.              J.K.L.M.N.O.P.Q.R.S.T.U.V.f.W.X.Y.  Z.`. +.+++@+#+$+%+&+              *+=+",
"a.  -+;+>+,+'+)+!+        ~+{+]+^+/+(+_+:+<+[+}+|+1+2+3+4+5+6+7+8+9+0+a+b+c+d+e+f+g+h+i+j+a.a.k+l+  ",
"a.  m+n+  a.      o+p+q+r+s+t+u+v+w+x+y+z+A+B+C+D+E+F+G+H+I+J+K+L+M+N+O+P+Q+R+S+T+U+V+W+X+Y+a.k+Z+  ",
"    `+ @.@a.        +@@@#@$@%@&@*@=@-@;@>@,@'@)@!@~@{@]@^@/@(@_@:@<@[@}@|@1@2@3@4@5@6@6+7@  a.a.  8@",
"    9@  a.a.        0@a@b@c@d@e@f@g@h@i@j@k@l@m@n@o@p@q@r@s@t@u@g+v@w@x@y@z@A@B@C@D@E@F@G@        H@",
"    I@  a.a.        J@K@L@M@N@O@P@Q@R@S@T@U@V@W@X@Y@Z@`@ #.#+#@###$#%#&#*#=#-#;#>#,#'#)#G@a.        ",
"      !#~#a.a.a.  a.{#]#^#/#(#_#:#<#[#}#|#1#2#3#4#5#6#7#8#9#0#a#b#c#d#e#f#g#h#i#j#k#R.l#G@a.        ",
"      m#n#a.        o#p#q#r#s#t#u#v#w#x#y#z#A#B#C#D#E#F#G#H#I#J#K#L#M#N#O#P#Q#R#S#T#U#V#W#          ",
"      X#Y#a.          ]#Z#`# $.$+$+$@$#$$$%$&$*$=$-$;$>$,$'$)$!$~${$]$^$/$($_$:$<$[$}$|$1$          ",
"        2$a.            3$4$5$6$7$5+8$9$0$a$b$c$d$e$f$g$h$i$j$k$l$m$n$o$p$q$r$s$t$u$v$w$j+          ",
"        a.a.              x$y$z$A$B$C$D$E$F$G$H$I$J$K$L$M$N$O$P$Q$R$S$T$U$V$W$X$Y$U$Z$`$a.          ",
"          a.                 %.%+%@%#%$%%%&%*%=%-%;%>%,%'%)%!%~%{%V$]%]%^%/%(%_%:%<%[%a.a.a.a.      ",
"                                }%|%1%2%3%4%5%6%7%8%9%0%a%b%c%d%e%f%g%h%i%j%k%l%m%n%o%              ",
"                                  p%q%r%s%t%u%v%w%x%y%z%A%B%C%D%E%F%@#G%H%j+`$`$                    ",
"                                        I%J%K%L%M%N%O%P%Q%R%S%T%U%V%V%                              ",
"                                                                                                    ",
"                                                                                                    "};
