/* XPM */
static char * afundando5_xpm[] = {
"32 32 271 2",
"  	c None",
". 	c #FCFAF9",
"+ 	c #855E50",
"@ 	c #9A7678",
"# 	c #6F370A",
"$ 	c #6B3A1B",
"% 	c #65330B",
"& 	c #68350D",
"* 	c #9B7676",
"= 	c #AA8286",
"- 	c #6C340C",
"; 	c #422104",
"> 	c #773C0F",
", 	c #997272",
"' 	c #F9F7FC",
") 	c #7D3F0E",
"! 	c #69574A",
"~ 	c #621502",
"{ 	c #7C4111",
"] 	c #906D6D",
"^ 	c #A37B7C",
"/ 	c #B49C98",
"( 	c #763D0F",
"_ 	c #C6B0B2",
": 	c #7E4B17",
"< 	c #8D1906",
"[ 	c #E01004",
"} 	c #856761",
"| 	c #67330B",
"1 	c #916F6F",
"2 	c #AE8586",
"3 	c #8B6053",
"4 	c #977373",
"5 	c #A57F82",
"6 	c #84400F",
"7 	c #602707",
"8 	c #D31203",
"9 	c #E31004",
"0 	c #E21004",
"a 	c #89696A",
"b 	c #876058",
"c 	c #A45A1F",
"d 	c #412712",
"e 	c #7C5E5E",
"f 	c #9A7575",
"g 	c #AB8383",
"h 	c #E4AEAE",
"i 	c #B28B91",
"j 	c #70390F",
"k 	c #8D6C6E",
"l 	c #895D51",
"m 	c #2D1C0E",
"n 	c #542E0F",
"o 	c #9C7777",
"p 	c #BD9193",
"q 	c #562E16",
"r 	c #271B11",
"s 	c #86502C",
"t 	c #9E797A",
"u 	c #BB9399",
"v 	c #874514",
"w 	c #866666",
"x 	c #A88180",
"y 	c #251A11",
"z 	c #582F0E",
"A 	c #21160C",
"B 	c #664639",
"C 	c #A57E7E",
"D 	c #D2A2A4",
"E 	c #8D440A",
"F 	c #836464",
"G 	c #4E2E14",
"H 	c #7C4214",
"I 	c #FABB55",
"J 	c #FFC056",
"K 	c #654538",
"L 	c #967273",
"M 	c #22170D",
"N 	c #735452",
"O 	c #F1EBEC",
"P 	c #714A3B",
"Q 	c #AA8385",
"R 	c #A3756A",
"S 	c #1D140D",
"T 	c #6C5354",
"U 	c #20160B",
"V 	c #261B12",
"W 	c #3A1E08",
"X 	c #522606",
"Y 	c #6C3F17",
"Z 	c #FFCA5D",
"` 	c #B77F36",
" .	c #8D5E2C",
"..	c #B68761",
"+.	c #60421E",
"@.	c #261A11",
"#.	c #312319",
"$.	c #8E6B6A",
"%.	c #855743",
"&.	c #887279",
"*.	c #785C4D",
"=.	c #291A0E",
"-.	c #302219",
";.	c #462103",
">.	c #4E2203",
",.	c #412D12",
"'.	c #CA8F42",
").	c #704116",
"!.	c #B97D3A",
"~.	c #E5A24C",
"{.	c #23150D",
"].	c #3C2C25",
"^.	c #9F7A7B",
"/.	c #402717",
"(.	c #814E2D",
"_.	c #847278",
":.	c #291F17",
"<.	c #A76A45",
"[.	c #A98689",
"}.	c #9A746D",
"|.	c #7E3F0E",
"1.	c #462003",
"2.	c #42260B",
"3.	c #4C3414",
"4.	c #AD7935",
"5.	c #F6AA51",
"6.	c #D19345",
"7.	c #9F7137",
"8.	c #1D140E",
"9.	c #281C12",
"0.	c #543F3E",
"a.	c #AA8284",
"b.	c #442610",
"c.	c #6E4525",
"d.	c #3C312E",
"e.	c #2D2119",
"f.	c #251A10",
"g.	c #2D1905",
"h.	c #B79092",
"i.	c #926D67",
"j.	c #653E27",
"k.	c #734325",
"l.	c #6A360A",
"m.	c #2C1C0E",
"n.	c #412308",
"o.	c #3E2910",
"p.	c #3B260F",
"q.	c #7B5B27",
"r.	c #F9B753",
"s.	c #F4A54C",
"t.	c #DB9D45",
"u.	c #1A110D",
"v.	c #2C1F17",
"w.	c #614A4B",
"x.	c #BB8F91",
"y.	c #4B270A",
"z.	c #8B7671",
"A.	c #4B4241",
"B.	c #261A0F",
"C.	c #25190F",
"D.	c #513B33",
"E.	c #B18D90",
"F.	c #AA7E73",
"G.	c #76472D",
"H.	c #411B00",
"I.	c #5D4034",
"J.	c #594541",
"K.	c #301A08",
"L.	c #381F08",
"M.	c #422E11",
"N.	c #4A3413",
"O.	c #60431B",
"P.	c #E6A94D",
"Q.	c #F7B454",
"R.	c #724C26",
"S.	c #20170F",
"T.	c #261A10",
"U.	c #3F2F2A",
"V.	c #AA8181",
"W.	c #B58B8D",
"X.	c #C08063",
"Y.	c #2C2724",
"Z.	c #4F4543",
"`.	c #20150A",
" +	c #6F544F",
".+	c #906B61",
"++	c #5E2D02",
"@+	c #45250B",
"#+	c #311C0A",
"$+	c #3F220C",
"%+	c #2C1B0E",
"&+	c #392008",
"*+	c #3F2A10",
"=+	c #402A10",
"-+	c #462E12",
";+	c #774E23",
">+	c #F5B454",
",+	c #7D582C",
"'+	c #4B3120",
")+	c #2A1C0F",
"!+	c #8D6B6C",
"~+	c #A27B7B",
"{+	c #C79A9D",
"]+	c #864819",
"^+	c #231B14",
"/+	c #281D14",
"(+	c #321A08",
"_+	c #3C200C",
":+	c #5D4742",
"<+	c #492307",
"[+	c #33210C",
"}+	c #38260F",
"|+	c #432D11",
"1+	c #4A3113",
"2+	c #442E11",
"3+	c #F5A74F",
"4+	c #74522A",
"5+	c #A56B4C",
"6+	c #8E6C6C",
"7+	c #926F6E",
"8+	c #3E2D24",
"9+	c #30241A",
"0+	c #2A1D13",
"a+	c #231B13",
"b+	c #431E04",
"c+	c #271B0E",
"d+	c #402B11",
"e+	c #483012",
"f+	c #442D10",
"g+	c #A87A34",
"h+	c #1F150D",
"i+	c #906240",
"j+	c #806262",
"k+	c #4D3730",
"l+	c #6A646D",
"m+	c #30241D",
"n+	c #30251C",
"o+	c #2B1E12",
"p+	c #3D2008",
"q+	c #3C220D",
"r+	c #30220E",
"s+	c #412B10",
"t+	c #473012",
"u+	c #4E3614",
"v+	c #6C4921",
"w+	c #594020",
"x+	c #8E5E33",
"y+	c #96694B",
"z+	c #7B5E5E",
"A+	c #5E4C4A",
"B+	c #372C26",
"C+	c #352A24",
"D+	c #2A1D11",
"E+	c #2D1F0D",
"F+	c #483113",
"G+	c #603D16",
"H+	c #914E1B",
"I+	c #3D332E",
"J+	c #4A403D",
"K+	c #3D2910",
"L+	c #4A3213",
"M+	c #472F13",
"N+	c #573F25",
"O+	c #A55B1C",
"P+	c #6F5541",
"Q+	c #7B6F70",
"R+	c #2E221A",
"S+	c #443118",
"T+	c #1D2831",
"U+	c #564129",
"V+	c #8F4C17",
"                                                                ",
"                                                                ",
"                                                                ",
"                            .                                   ",
"      +                   @ #                                   ",
"      $                     %                                   ",
"      &                 * = - ;                                 ",
"      >                 , ' )             !   ~                 ",
"      {               ] ^ / (           _   : < [               ",
"    }   |             1 2 3           4 5 6 7 8 9 0             ",
"  a b c   d         e f g h           * i j     9 9 9           ",
"  k l   m n           o p q     r   s t u v       9             ",
"  w x   y z           *     r r A   B C D E                     ",
"  F   r y G H   I J K L   r r M N O P Q R   S r                 ",
"  T U r V W X Y Z `  ...+.@.r #.$.  %.&.*.=.r r                 ",
"    -.r   ;.>.,.'.).!.~.{.r r ].^./.(._.:.r r r       <.[.}.|.  ",
"    r r   1.2.3.4.5.6.7.8.r 9.0.a.b.c.d.e.r f.g.  h.i.j.k.l.    ",
"    r r m.n.o.p.q.r.s.t.u.r v.w.x.y.z.A.B.C.D.E.F.G.H.I.J.      ",
"    r r K.L.M.N.O.P.Q.R.S.T.U.V.W.X.Y.Z.`. +.+++@+#+$+y r r r   ",
"    r r %+&+*+=+-+;+>+,+'+)+!+~+{+]+^+/+(+_+:+    <+  r r r r   ",
"          [+}+|+1+2+3+4+5+  6+7+8+9+r   0+0+r a+b+  r r         ",
"          c+}+d+e+f+g+h+i+  j+k+l+m+n+o+r     p+q+y             ",
"            r+s+t+u+v+w+x+y+z+A+B+C+D+                          ",
"              E+t+F+G+H+      I+J+r r                           ",
"                K+L+M+N+O+    P+Q+R+                            ",
"                    S+T+U+V+                                    ",
"                                                                ",
"                                                                ",
"                                                                ",
"                                                                ",
"                                                                ",
"                                                                "};
