/* XPM */
static char * afundando3_xpm[] = {
"32 32 375 2",
"  	c None",
". 	c #AF8571",
"+ 	c #785853",
"@ 	c #72370A",
"# 	c #592C0B",
"$ 	c #9E827A",
"% 	c #6A3810",
"& 	c #7C441A",
"* 	c #916E6E",
"= 	c #592B07",
"- 	c #81523B",
"; 	c #7B1D07",
"> 	c #DF0F04",
", 	c #7A3F15",
"' 	c #977373",
") 	c #8A5A44",
"! 	c #5A2B07",
"~ 	c #967373",
"{ 	c #51300B",
"] 	c #C60E04",
"^ 	c #DD0F04",
"/ 	c #DC0F04",
"( 	c #A37974",
"_ 	c #854717",
": 	c #876666",
"< 	c #9A7576",
"[ 	c #744B37",
"} 	c #9D7878",
"| 	c #68330D",
"1 	c #936C64",
"2 	c #874719",
"3 	c #8C6B6B",
"4 	c #A37C7C",
"5 	c #A16F5F",
"6 	c #8A6969",
"7 	c #9F7877",
"8 	c #583519",
"9 	c #A2776B",
"0 	c #68320A",
"a 	c #8E6D6D",
"b 	c #A27B7A",
"c 	c #936454",
"d 	c #C0B5AA",
"e 	c #91706F",
"f 	c #A9817F",
"g 	c #A3765C",
"h 	c #7A5E5F",
"i 	c #A27462",
"j 	c #63330E",
"k 	c #906D6D",
"l 	c #A07A7A",
"m 	c #80635A",
"n 	c #8E6C6B",
"o 	c #AF8584",
"p 	c #B38773",
"q 	c #826467",
"r 	c #73452B",
"s 	c #6F380F",
"t 	c #FFB752",
"u 	c #BC8E52",
"v 	c #8B6A68",
"w 	c #785855",
"x 	c #8A6867",
"y 	c #9A7675",
"z 	c #63473C",
"A 	c #9C746C",
"B 	c #93694C",
"C 	c #876043",
"D 	c #7F6162",
"E 	c #6C493C",
"F 	c #582D0B",
"G 	c #BD8C3F",
"H 	c #FFB955",
"I 	c #9B692F",
"J 	c #805C4C",
"K 	c #BF873F",
"L 	c #987475",
"M 	c #663D26",
"N 	c #6B4A42",
"O 	c #6C5E5B",
"P 	c #AD7D6F",
"Q 	c #8C6860",
"R 	c #51290C",
"S 	c #784F38",
"T 	c #643919",
"U 	c #775B5B",
"V 	c #291A0E",
"W 	c #3C1D04",
"X 	c #66330C",
"Y 	c #93672F",
"Z 	c #F2AE50",
"` 	c #744B18",
" .	c #CC904B",
"..	c #AA7C3E",
"+.	c #2D1D0E",
"@.	c #634A46",
"#.	c #9B7778",
"$.	c #7D4823",
"%.	c #765548",
"&.	c #B08681",
"*.	c #9D7062",
"=.	c #4A2408",
"-.	c #8F6B64",
";.	c #C1999D",
">.	c #271B11",
",.	c #301C0D",
"'.	c #442106",
").	c #3D240A",
"!.	c #473013",
"~.	c #E99E4B",
"{.	c #CC8C3F",
"].	c #C1883F",
"^.	c #A17238",
"/.	c #3B2810",
"(.	c #4F3115",
"_.	c #4A2D13",
":.	c #866768",
"<.	c #937475",
"[.	c #754626",
"}.	c #988787",
"|.	c #A57B74",
"1.	c #8B5E4C",
"2.	c #855539",
"3.	c #633D25",
"4.	c #865F53",
"5.	c #B48C8E",
"6.	c #412207",
"7.	c #3C270F",
"8.	c #452E12",
"9.	c #B07F38",
"0.	c #F5A54E",
"a.	c #B2803B",
"b.	c #745329",
"c.	c #452F16",
"d.	c #4E321B",
"e.	c #977374",
"f.	c #A78383",
"g.	c #8E664E",
"h.	c #7E757A",
"i.	c #453C39",
"j.	c #271404",
"k.	c #60443A",
"l.	c #4E280D",
"m.	c #835D4F",
"n.	c #A58180",
"o.	c #6A4432",
"p.	c #AB8383",
"q.	c #A67E7E",
"r.	c #3D2108",
"s.	c #3D2A0F",
"t.	c #3B270F",
"u.	c #61461D",
"v.	c #EEB854",
"w.	c #FEB654",
"x.	c #AD7A3B",
"y.	c #8C6132",
"z.	c #8B593B",
"A.	c #5A3F32",
"B.	c #997475",
"C.	c #A47977",
"D.	c #866758",
"E.	c #51433D",
"F.	c #453730",
"G.	c #644018",
"H.	c #674426",
"I.	c #563C2E",
"J.	c #261000",
"K.	c #513220",
"L.	c #856661",
"M.	c #39210A",
"N.	c #3A280F",
"O.	c #3D2910",
"P.	c #483012",
"Q.	c #B17D39",
"R.	c #FFC15A",
"S.	c #C68E44",
"T.	c #7A542B",
"U.	c #784D33",
"V.	c #865E50",
"W.	c #987373",
"X.	c #846056",
"Y.	c #5C4537",
"Z.	c #503825",
"`.	c #452409",
" +	c #9A6C34",
".+	c #A47739",
"++	c #865522",
"@+	c #472A12",
"#+	c #3E1E05",
"$+	c #2C1C0E",
"%+	c #21170C",
"&+	c #24180E",
"*+	c #321D0B",
"=+	c #37240E",
"-+	c #3A260E",
";+	c #3E2A10",
">+	c #4E3414",
",+	c #C88841",
"'+	c #BB8941",
")+	c #855D30",
"!+	c #946042",
"~+	c #8C6152",
"{+	c #8B6763",
"]+	c #7D5845",
"^+	c #6B533B",
"/+	c #3D2B16",
"(+	c #673915",
"_+	c #845B2C",
":+	c #A17439",
"<+	c #A77A3E",
"[+	c #54300F",
"}+	c #5A2D0A",
"|+	c #251A11",
"1+	c #291B10",
"2+	c #2F1C0A",
"3+	c #35250F",
"4+	c #3A280E",
"5+	c #3F2A10",
"6+	c #412B10",
"7+	c #5B3E19",
"8+	c #9D6E36",
"9+	c #B37D3D",
"0+	c #B27450",
"a+	c #AE7358",
"b+	c #7A574A",
"c+	c #8A6656",
"d+	c #926C4A",
"e+	c #5B412E",
"f+	c #482B11",
"g+	c #A06F33",
"h+	c #C1893F",
"i+	c #9B6B32",
"j+	c #411D04",
"k+	c #764218",
"l+	c #5E3212",
"m+	c #261B12",
"n+	c #2E1B0B",
"o+	c #2F200E",
"p+	c #32220E",
"q+	c #3D290F",
"r+	c #432E11",
"s+	c #462D10",
"t+	c #96642E",
"u+	c #A9752E",
"v+	c #895B31",
"w+	c #C67C4B",
"x+	c #8B624E",
"y+	c #9C6F5A",
"z+	c #84603A",
"A+	c #673B15",
"B+	c #673C16",
"C+	c #FFB553",
"D+	c #FFB852",
"E+	c #84531C",
"F+	c #825524",
"G+	c #A26429",
"H+	c #944916",
"I+	c #593314",
"J+	c #3A2412",
"K+	c #2B1707",
"L+	c #2E1F0D",
"M+	c #33230E",
"N+	c #432D11",
"O+	c #442E12",
"P+	c #9C662E",
"Q+	c #8F5A1F",
"R+	c #896233",
"S+	c #7F5939",
"T+	c #9A7661",
"U+	c #8A6641",
"V+	c #41270F",
"W+	c #74441A",
"X+	c #FBBC56",
"Y+	c #FBB051",
"Z+	c #C28137",
"`+	c #E7A44A",
" @	c #C58739",
".@	c #894918",
"+@	c #844816",
"@@	c #753F17",
"#@	c #2A1709",
"$@	c #2F2212",
"%@	c #3D2A11",
"&@	c #2D271E",
"*@	c #524133",
"=@	c #8D551F",
"-@	c #A06D3E",
";@	c #916E4D",
">@	c #8E6945",
",@	c #9F6D38",
"'@	c #261B0B",
")@	c #7C4516",
"!@	c #CE9547",
"~@	c #F6B454",
"{@	c #FCB856",
"]@	c #ECA74C",
"^@	c #C47B32",
"/@	c #A0551A",
"(@	c #A1571C",
"_@	c #261C12",
":@	c #2A1E12",
"<@	c #352613",
"[@	c #212222",
"}@	c #222526",
"|@	c #3B2E20",
"1@	c #613D1D",
"2@	c #8F5F3A",
"3@	c #A27E64",
"4@	c #A7733B",
"5@	c #623C14",
"6@	c #4B2A0A",
"7@	c #A2672D",
"8@	c #C27E36",
"9@	c #DE9640",
"0@	c #B27B32",
"a@	c #8F4C1B",
"b@	c #9E551C",
"c@	c #9B521A",
"d@	c #281C11",
"e@	c #2C2013",
"f@	c #322414",
"g@	c #2B2215",
"h@	c #312516",
"i@	c #252420",
"j@	c #2A2D2C",
"k@	c #473016",
"l@	c #673F1C",
"m@	c #724215",
"n@	c #703A10",
"o@	c #64321F",
"p@	c #8A3F20",
"q@	c #88421F",
"r@	c #864216",
"s@	c #74370E",
"t@	c #985019",
"u@	c #965018",
"v@	c #8B4817",
"w@	c #251910",
"x@	c #2A1D12",
"y@	c #332514",
"z@	c #3A2915",
"A@	c #372A19",
"B@	c #372713",
"C@	c #222525",
"D@	c #21292D",
"E@	c #5C3813",
"F@	c #603013",
"G@	c #81342D",
"H@	c #893931",
"I@	c #813332",
"J@	c #512312",
"K@	c #6F2F1E",
"L@	c #823D24",
"M@	c #84401B",
"N@	c #613411",
"O@	c #342616",
"P@	c #3D2C18",
"Q@	c #3D2C17",
"R@	c #332A1E",
"S@	c #30291E",
"T@	c #4E2E10",
"U@	c #4F2913",
"V@	c #5B2B15",
"W@	c #79391E",
"X@	c #783423",
"Y@	c #532811",
"Z@	c #793330",
"`@	c #833434",
" #	c #743025",
".#	c #40220B",
"+#	c #422F19",
"@#	c #443118",
"##	c #462E16",
"$#	c #341E0C",
"%#	c #41260B",
"                                                                ",
"                                                                ",
"                                                                ",
"      .                   + @                                   ",
"      #                   $   %                                 ",
"      &                 *   =             -   ; >               ",
"      ,                 ' ) !           ~   { ] ^ / /           ",
"    ( _               : < [             }   |   / / /           ",
"    1 2               3 4 5           6 7 8                     ",
"    9   0             a b c         d e f g                     ",
"  h i     j           k l           m n o p                     ",
"  q r       s     t u v             w x y z               A B C ",
"  D E       F   G H I J K         L M N O           P Q R S T   ",
"  U       V W X Y Z `  ...    +.@.#.$.%.          &.*.=.-.;.    ",
"        >.,.'.).!.~.{.].^./.(._.:.<.[.}.      |.1.2.3.4.5.      ",
"        >.  6.7.8.9.H 0.a.b.c.d.e.f.g.h.i.j.k.l.m.n.o.p.q.      ",
">.    >.>.  r.s.t.u.v.w.x.y.z.A.B.C.D.E.F.G.H.I.  J.K.L.        ",
">.    >.>.  M.N.O.P.Q.R.S.T.U.V.W.X.Y.Z.`. +.+++@+#+$+%+&+>.>.>.",
">.    >.>.  *+=+-+;+>+,+'+)+!+~+{+]+^+/+(+_+:+<+[+}+  |+>.>.>.>.",
"      >.>.1+2+3+4+5+6+7+8+9+0+a+b+c+d+e+f+g+h+i+j+k+l+    >.>.  ",
"      >.>.m+n+o+p+q+r+s+t+u+v+w+x+y+z+A+B+C+D+E+F+G+H+I+J+      ",
"      >.>.    K+L+M+N+O+B+P+Q+R+S+T+U+V+W+X+Y+Z+`+ @.@+@@@      ",
"                #@$@%@6+&@*@=@-@;@>@,@'@)@!@~@{@]@^@/@(@        ",
"                _@:@<@%@[@}@|@1@2@3@4@5@6@7@8@9@0@a@b@c@        ",
"                  d@e@f@g@h@i@j@k@l@m@n@o@p@q@r@s@t@u@v@        ",
"                    w@x@y@z@A@B@C@D@E@F@G@H@I@J@K@L@M@N@        ",
"                          O@P@Q@R@S@T@U@V@W@X@Y@Z@`@ #.#        ",
"                                +#@###$#%#                      ",
"                                                                ",
"                                                                ",
"                                                                ",
"                                                                "};
