/* XPM */
static char * explosion11_xpm[] = {
"32 32 125 2",
"  	c None",
". 	c #4878D8",
"+ 	c #4890D8",
"@ 	c #4C0700",
"# 	c #3C0400",
"$ 	c #6C1400",
"% 	c #881600",
"& 	c #6E0B00",
"* 	c #8B1800",
"= 	c #9C2600",
"- 	c #901900",
"; 	c #7B1200",
"> 	c #540500",
", 	c #430000",
"' 	c #580000",
") 	c #630300",
"! 	c #871900",
"~ 	c #650500",
"{ 	c #6A0400",
"] 	c #6C0500",
"^ 	c #6A0A00",
"/ 	c #780F00",
"( 	c #280503",
"_ 	c #680600",
": 	c #690400",
"< 	c #6B0700",
"[ 	c #710B00",
"} 	c #871300",
"| 	c #6A0700",
"1 	c #6A0D00",
"2 	c #7D0F00",
"3 	c #751000",
"4 	c #000404",
"5 	c #130604",
"6 	c #841200",
"7 	c #981B00",
"8 	c #A92200",
"9 	c #8C1E00",
"0 	c #7D1700",
"a 	c #871800",
"b 	c #731100",
"c 	c #701000",
"d 	c #0E0001",
"e 	c #030304",
"f 	c #470301",
"g 	c #A01E00",
"h 	c #C52D00",
"i 	c #9C2200",
"j 	c #771300",
"k 	c #540800",
"l 	c #4C0C01",
"m 	c #931900",
"n 	c #C82E00",
"o 	c #8E1C00",
"p 	c #8B1C00",
"q 	c #902000",
"r 	c #030404",
"s 	c #B23100",
"t 	c #932100",
"u 	c #210000",
"v 	c #410000",
"w 	c #A32100",
"x 	c #430100",
"y 	c #741100",
"z 	c #811000",
"A 	c #6F1000",
"B 	c #620100",
"C 	c #731200",
"D 	c #8F1F00",
"E 	c #952100",
"F 	c #5F0000",
"G 	c #710F00",
"H 	c #7C0D00",
"I 	c #CA2E00",
"J 	c #D13000",
"K 	c #3E0000",
"L 	c #5C0C01",
"M 	c #620000",
"N 	c #961C00",
"O 	c #BD2B00",
"P 	c #310000",
"Q 	c #070304",
"R 	c #680300",
"S 	c #7B0E00",
"T 	c #AE3100",
"U 	c #420000",
"V 	c #630400",
"W 	c #5D0000",
"X 	c #450000",
"Y 	c #6E0800",
"Z 	c #701100",
"` 	c #660300",
" .	c #470000",
"..	c #811200",
"+.	c #711200",
"@.	c #831600",
"#.	c #650300",
"$.	c #510500",
"%.	c #821400",
"&.	c #500200",
"*.	c #540000",
"=.	c #3A0000",
"-.	c #450500",
";.	c #791200",
">.	c #891700",
",.	c #8E1900",
"'.	c #5E0500",
").	c #270000",
"!.	c #500000",
"~.	c #480000",
"{.	c #560100",
"].	c #6F0900",
"^.	c #831200",
"/.	c #891900",
"(.	c #962300",
"_.	c #7C1300",
":.	c #500500",
"<.	c #2C0000",
"[.	c #4A0000",
"}.	c #570D00",
"|.	c #450700",
"1.	c #640200",
"2.	c #490100",
"3.	c #922100",
"4.	c #831500",
". . . . . . . . . . . + + + . . . . . . . . . . . . . + + + . . ",
". . . . . . . . . . . . . + + . . . . . . . . . . . . . . + + . ",
". . . . . . . . . . . . . . + . . . . . . . . . . . . . . . + . ",
". . . . . . . . . . . . . . . @ # $ % & . . . . . . . . . . . + ",
". . . . . . . . . . . . . . . * = - ; > , ' ) . . . . . . . . + ",
"+ . . . . . . . . . . . . . . + + . ! ~ { ] ^ / . . . . . . . + ",
"+ + . . . . . ( _ : < [ ] . . . + + . . . } | 1 2 3 . . . . . . ",
"+ + . . . . 4 5 6 7 8 9 . . . . + + . . . . . 0 a b c . . . . . ",
"+ + + . . d e f g h . . . . . . + + + . . . . . i j c . . . . . ",
"+ + + + . k l m n . . . . . . . + + + + . . . . . b c . . . . . ",
"+ + + + . o p . . . . . . . . . + + + + . . . . . . c . . . . . ",
"+ + + + + . . . . . . . . . . . + + + + + . . . . . . . . . . . ",
". + + + + + + . . . . . . . . . . + + + + + + . . . . . . . . . ",
". + + + + + + + + . . . . . . . . + + + + + + + + . . . . q . . ",
". . r + + + + + + + + . . . . . . . + + + + + + + + + . s t . . ",
". . u v . + + + + + + + + . . . . . . . . + + + + + + + w b . . ",
". . x y z . . . . . . + + + . . . . . . . . . . . . . + A c . . ",
". . B C q D . . . . . . . + + . . . . . E . . . . . . . . F + . ",
". . . c G H . . . . . . . . + . . . . I J . . . . K . . . . + . ",
". . . . L M 2 . . . . . . . . + . . . N O . . . . P . . . . . + ",
". . . . Q R B S . . . . . . . + . . . . T . . . . U . . . . . + ",
"+ . . . . A V W . . . . . . . + + . . . . . . . M X . . . . . + ",
"+ + . . . . G Y Z . . . . . . . + + . . . . . . `  .. . . . . . ",
"+ + . . . . . ..+.. . . . . . . + + . . . . . @.#.. . . . . . . ",
"+ + + . . . . . ' . $.. . . . . + + + . . . %.&.*.. . . . . . . ",
"+ + + + . . . . *.=.-.;.>.. . . + + + + . ,.'.).!.. . . . . . . ",
"+ + + + . . . . . ~.{.].^./.(.. + + + + . _.:.<.[.. . . . . . . ",
"+ + + + + . . . . . . . . . }.|.+ + + + V 1.2.. . . . . . . . . ",
". + + + + + + . . . . . . . . . . q 3.4.S + + . . . . . . . . . ",
". + + + + + + + + . . . . . . . . + + + + + + + + . . . . . . . ",
". . + + + + + + + + + . . . . . . . + + + + + + + + + . . . . . ",
". . . . . + + + + + + + + . . . . . . . . + + + + + + + + . . . "};
