/* XPM */
static char * explosion12_xpm[] = {
"32 32 41 1",
" 	c None",
".	c #4878D8",
"+	c #4890D8",
"@	c #701000",
"#	c #400000",
"$	c #430000",
"%	c #600000",
"&	c #620200",
"*	c #620000",
"=	c #6F0F00",
"-	c #7E1000",
";	c #650300",
">	c #5F0000",
",	c #6F1000",
"'	c #801000",
")	c #040404",
"!	c #741100",
"~	c #831100",
"{	c #811000",
"]	c #360300",
"^	c #8C1600",
"/	c #922200",
"(	c #0E0202",
"_	c #AC2A00",
":	c #2F0000",
"<	c #871700",
"[	c #530000",
"}	c #771100",
"|	c #290803",
"1	c #6B0B00",
"2	c #5E0000",
"3	c #5D0000",
"4	c #780C00",
"5	c #2C0000",
"6	c #711100",
"7	c #1F0000",
"8	c #580000",
"9	c #630300",
"0	c #2D0000",
"a	c #902000",
"b	c #7D0E00",
"...........+++.............+++..",
".............++..............++.",
"..............+...............+.",
"...............+...............+",
"...............+.@#$%&.........+",
"+..............++..*%=-........+",
"++......&;;%....++...>,'........",
"++.....)!~~.....++....@'@.......",
"+++...)){.......+++.....@@......",
"++++.]).........++++............",
"++++.^..........++++............",
"+++++/..........+++++...........",
".++++++..........++++++.........",
".++++++++........++++++++.......",
"..(++++++++.......+++++++++_....",
"..:..++++++++........++++++<+...",
"..[@.......+++.............+++..",
"...@@........++..............++.",
"....}%........+...............+.",
"....|>.........+...............+",
".....12........+...............+",
"+.....13.......++..............+",
"++.....4........++..............",
"++.......%#.....++..............",
"+++.......#56...+++...#7%.......",
"++++.......89''.++++.6#0........",
"++++............++++2&#.........",
"+++++...........+aa'b...........",
".++++++..........++++++.........",
".++++++++........++++++++.......",
"..+++++++++.......+++++++++.....",
".....++++++++........++++++++..."};
