/* XPM */
static char * explosion6_xpm[] = {
"32 32 561 2",
"  	c None",
". 	c #4878D8",
"+ 	c #4890D8",
"@ 	c #310602",
"# 	c #630700",
"$ 	c #640600",
"% 	c #6B0400",
"& 	c #230703",
"* 	c #1F0000",
"= 	c #270000",
"- 	c #490000",
"; 	c #5B0000",
"> 	c #5F0800",
", 	c #660800",
"' 	c #5B0800",
") 	c #390000",
"! 	c #340000",
"~ 	c #240000",
"{ 	c #280001",
"] 	c #480001",
"^ 	c #911300",
"/ 	c #991700",
"( 	c #B42000",
"_ 	c #AD2800",
": 	c #A22700",
"< 	c #9F2600",
"[ 	c #982300",
"} 	c #7F1700",
"| 	c #5F1001",
"1 	c #2D0301",
"2 	c #000404",
"3 	c #350000",
"4 	c #1E0000",
"5 	c #400000",
"6 	c #6B0900",
"7 	c #871A00",
"8 	c #851800",
"9 	c #AB2B00",
"0 	c #A82A00",
"a 	c #C23100",
"b 	c #C92A00",
"c 	c #A42700",
"d 	c #841700",
"e 	c #BC4900",
"f 	c #EA9500",
"g 	c #EF9800",
"h 	c #EF8F00",
"i 	c #EE7900",
"j 	c #E03900",
"k 	c #B42F00",
"l 	c #CC3000",
"m 	c #DE4000",
"n 	c #DC3E00",
"o 	c #AD2C00",
"p 	c #660300",
"q 	c #1A0000",
"r 	c #670000",
"s 	c #030404",
"t 	c #010404",
"u 	c #460100",
"v 	c #841900",
"w 	c #D65200",
"x 	c #F77900",
"y 	c #F57700",
"z 	c #F37600",
"A 	c #F37E00",
"B 	c #F5AE00",
"C 	c #F5B100",
"D 	c #F49B03",
"E 	c #F6A509",
"F 	c #FCE417",
"G 	c #F7C901",
"H 	c #F6C100",
"I 	c #F6BC08",
"J 	c #F6C205",
"K 	c #ED7A00",
"L 	c #BE3500",
"M 	c #CE2F00",
"N 	c #D53500",
"O 	c #F45600",
"P 	c #F04E00",
"Q 	c #971B00",
"R 	c #761200",
"S 	c #5F0000",
"T 	c #600000",
"U 	c #0F0304",
"V 	c #4F0700",
"W 	c #931C00",
"X 	c #CB3A00",
"Y 	c #F77600",
"Z 	c #F09500",
"` 	c #F09200",
" .	c #F3A700",
"..	c #F5B700",
"+.	c #F8CD00",
"@.	c #FADD15",
"#.	c #FAE533",
"$.	c #F9DD29",
"%.	c #F9DD26",
"&.	c #F9D515",
"*.	c #FBEA4F",
"=.	c #FDF283",
"-.	c #F7CB00",
";.	c #F67900",
">.	c #DB5000",
",.	c #F35F00",
"'.	c #F08000",
").	c #F28200",
"!.	c #E95200",
"~.	c #8D1F00",
"{.	c #761300",
"].	c #620300",
"^.	c #230001",
"/.	c #450301",
"(.	c #B22500",
"_.	c #C73100",
":.	c #D63800",
"<.	c #F09100",
"[.	c #F08F00",
"}.	c #F29D00",
"|.	c #F6BA00",
"1.	c #F5B500",
"2.	c #F8CC00",
"3.	c #FAE646",
"4.	c #FAE135",
"5.	c #F9D914",
"6.	c #F8CE15",
"7.	c #FADE21",
"8.	c #FDF6A4",
"9.	c #FBEB59",
"0.	c #F8D430",
"a.	c #F5AC00",
"b.	c #F18F00",
"c.	c #F38E00",
"d.	c #CE3C00",
"e.	c #8A1C00",
"f.	c #6D0800",
"g.	c #210000",
"h.	c #691000",
"i.	c #C92D00",
"j.	c #CF2F00",
"k.	c #E24400",
"l.	c #F18000",
"m.	c #F2A400",
"n.	c #F5BB00",
"o.	c #F29E00",
"p.	c #F8C900",
"q.	c #FBEF63",
"r.	c #FAE542",
"s.	c #F9D208",
"t.	c #F5B200",
"u.	c #F3A903",
"v.	c #FAE22A",
"w.	c #FCF18B",
"x.	c #FDF9A9",
"y.	c #FAE139",
"z.	c #F5B600",
"A.	c #F09400",
"B.	c #F09300",
"C.	c #F06D00",
"D.	c #861800",
"E.	c #700700",
"F.	c #320000",
"G.	c #7F1B00",
"H.	c #CB2F00",
"I.	c #E24500",
"J.	c #F27D00",
"K.	c #F09000",
"L.	c #F08C00",
"M.	c #F4B100",
"N.	c #F8CD0B",
"O.	c #FBEC5A",
"P.	c #F7C906",
"Q.	c #F2A500",
"R.	c #F7C401",
"S.	c #FBEB65",
"T.	c #FDFCC1",
"U.	c #FCF077",
"V.	c #F9D81B",
"W.	c #F2A000",
"X.	c #EF6C00",
"Y.	c #961800",
"Z.	c #6F0700",
"`.	c #4D0300",
" +	c #8F1800",
".+	c #BD2A00",
"++	c #EC6300",
"@+	c #F08D00",
"#+	c #F19D00",
"$+	c #F19900",
"%+	c #F19800",
"&+	c #F2A100",
"*+	c #F08B00",
"=+	c #F3A900",
"-+	c #F7C700",
";+	c #F19A00",
">+	c #F3AB01",
",+	c #FBE84E",
"'+	c #FDF5A5",
")+	c #F9D500",
"!+	c #F8D227",
"~+	c #F5B400",
"{+	c #F2A300",
"]+	c #F06A00",
"^+	c #F34F00",
"/+	c #961B00",
"(+	c #7C0F00",
"_+	c #911E00",
":+	c #9D2300",
"<+	c #D33200",
"[+	c #F27A00",
"}+	c #F1A000",
"|+	c #F2A200",
"1+	c #F3A400",
"2+	c #F4AD00",
"3+	c #F19B00",
"4+	c #F29F00",
"5+	c #F4AF00",
"6+	c #FADB2A",
"7+	c #FADD17",
"8+	c #F4AB00",
"9+	c #F3A500",
"0+	c #F18200",
"a+	c #F28500",
"b+	c #F85A00",
"c+	c #BD3100",
"d+	c #891400",
"e+	c #6C0900",
"f+	c #912000",
"g+	c #A62B00",
"h+	c #DE3E00",
"i+	c #F17900",
"j+	c #F2A600",
"k+	c #F5B300",
"l+	c #F6BD00",
"m+	c #F19C00",
"n+	c #F4AA00",
"o+	c #F3A600",
"p+	c #F19600",
"q+	c #F6B900",
"r+	c #F9D71D",
"s+	c #F9DD24",
"t+	c #F8C700",
"u+	c #EF8900",
"v+	c #F16E00",
"w+	c #E04A00",
"x+	c #BC3400",
"y+	c #811100",
"z+	c #3E0000",
"A+	c #520100",
"B+	c #530500",
"C+	c #A52900",
"D+	c #E04000",
"E+	c #F27E00",
"F+	c #F7C100",
"G+	c #F9D703",
"H+	c #F9D504",
"I+	c #F9DC21",
"J+	c #F8C903",
"K+	c #F6BE03",
"L+	c #F5B900",
"M+	c #F5B800",
"N+	c #F6C000",
"O+	c #F7C605",
"P+	c #FAE43A",
"Q+	c #FBED5F",
"R+	c #F6BF01",
"S+	c #F68B00",
"T+	c #C13D00",
"U+	c #821000",
"V+	c #630E00",
"W+	c #130000",
"X+	c #090203",
"Y+	c #4A0700",
"Z+	c #9F2500",
"`+	c #CF3A00",
" @	c #F39D00",
".@	c #F7C400",
"+@	c #FAE02B",
"@@	c #FAE43F",
"#@	c #FAE748",
"$@	c #FBE84D",
"%@	c #FBE849",
"&@	c #FADF24",
"*@	c #F9D516",
"=@	c #F8CE00",
"-@	c #F6BB00",
";@	c #F7C300",
">@	c #F8CD05",
",@	c #F9D81E",
"'@	c #FAE235",
")@	c #F9D312",
"!@	c #F3A800",
"~@	c #E74B00",
"{@	c #BE4900",
"]@	c #951A00",
"^@	c #4E0200",
"/@	c #1A0603",
"(@	c #6F0D00",
"_@	c #8F1B00",
":@	c #AD2E00",
"<@	c #F59D00",
"[@	c #FADF28",
"}@	c #FAE33A",
"|@	c #FBEC5B",
"1@	c #FBEE6D",
"2@	c #FDF9AA",
"3@	c #FCF381",
"4@	c #FADF2D",
"5@	c #F6BE00",
"6@	c #F3AA00",
"7@	c #F7C809",
"8@	c #EB6400",
"9@	c #F48000",
"0@	c #D15D00",
"a@	c #200703",
"b@	c #B03000",
"c@	c #F59F00",
"d@	c #F8CA00",
"e@	c #FADF2A",
"f@	c #FAE33D",
"g@	c #FBEC5E",
"h@	c #FCEF70",
"i@	c #FDFCBE",
"j@	c #FCF58C",
"k@	c #F9DB21",
"l@	c #F6C200",
"m@	c #F6BF00",
"n@	c #F07600",
"o@	c #F06F00",
"p@	c #D87D00",
"q@	c #2F0C03",
"r@	c #AB2300",
"s@	c #A22200",
"t@	c #A02000",
"u@	c #F67A00",
"v@	c #F9CF00",
"w@	c #F9D100",
"x@	c #F9D200",
"y@	c #FDFBB8",
"z@	c #FCF386",
"A@	c #F09700",
"B@	c #F07200",
"C@	c #F19E00",
"D@	c #F19400",
"E@	c #EE5100",
"F@	c #F18D00",
"G@	c #E16200",
"H@	c #831700",
"I@	c #701000",
"J@	c #2B0B03",
"K@	c #B92C00",
"L@	c #BF3200",
"M@	c #BC3100",
"N@	c #EE5500",
"O@	c #F7C600",
"P@	c #F9D512",
"Q@	c #FBE74A",
"R@	c #FADE25",
"S@	c #F8D214",
"T@	c #F08E00",
"U@	c #F18E00",
"V@	c #F08100",
"W@	c #F19500",
"X@	c #EE6400",
"Y@	c #BF2B00",
"Z@	c #D53B00",
"`@	c #F68500",
" #	c #D23D00",
".#	c #7E1500",
"+#	c #400C02",
"@#	c #941E00",
"##	c #B93000",
"$#	c #D53100",
"%#	c #E44A00",
"&#	c #F28E00",
"*#	c #F4B300",
"=#	c #F5BA00",
"-#	c #F9D201",
";#	c #F9D50A",
">#	c #F19100",
",#	c #F07500",
"'#	c #F4B400",
")#	c #F7C501",
"!#	c #F7C913",
"~#	c #F4B200",
"{#	c #E75900",
"]#	c #CB3C00",
"^#	c #730B00",
"/#	c #911D00",
"(#	c #D24C00",
"_#	c #871300",
":#	c #6C0F00",
"<#	c #9B1F00",
"[#	c #A62200",
"}#	c #DC3700",
"|#	c #F26E00",
"1#	c #F9D007",
"2#	c #F9DC22",
"3#	c #F9D709",
"4#	c #F4A900",
"5#	c #F4AC00",
"6#	c #F6BF02",
"7#	c #EE6D00",
"8#	c #E23D00",
"9#	c #B22E00",
"0#	c #7A0E00",
"a#	c #AC2F00",
"b#	c #F57200",
"c#	c #D45300",
"d#	c #952100",
"e#	c #470200",
"f#	c #670E00",
"g#	c #942100",
"h#	c #E74E00",
"i#	c #F39100",
"j#	c #F3AC00",
"k#	c #F07C00",
"l#	c #EB6800",
"m#	c #DB3B00",
"n#	c #B72C00",
"o#	c #9D1F00",
"p#	c #E34100",
"q#	c #F27800",
"r#	c #E46600",
"s#	c #9C1F00",
"t#	c #4A0500",
"u#	c #A42200",
"v#	c #E76400",
"w#	c #ED7300",
"x#	c #F6BC00",
"y#	c #EB4900",
"z#	c #CD2B00",
"A#	c #A81F00",
"B#	c #9C2200",
"C#	c #B22D00",
"D#	c #E44200",
"E#	c #D83D00",
"F#	c #AC2A00",
"G#	c #660600",
"H#	c #650C00",
"I#	c #8B1B00",
"J#	c #A82500",
"K#	c #B32400",
"L#	c #F46A00",
"M#	c #F26D00",
"N#	c #F19000",
"O#	c #F3AF00",
"P#	c #EA7400",
"Q#	c #EB7200",
"R#	c #E75700",
"S#	c #DF4B00",
"T#	c #A22100",
"U#	c #4E0600",
"V#	c #440300",
"W#	c #6D0700",
"X#	c #971C00",
"Y#	c #D43300",
"Z#	c #D83600",
"`#	c #EB4B00",
" $	c #F18900",
".$	c #F17600",
"+$	c #F17D00",
"@$	c #F27F00",
"#$	c #DF3F00",
"$$	c #620100",
"%$	c #080303",
"&$	c #360000",
"*$	c #6B0500",
"=$	c #9E1F00",
"-$	c #D13100",
";$	c #AE3000",
">$	c #CA3900",
",$	c #E03C00",
"'$	c #DB3C00",
")$	c #DE3C00",
"!$	c #E54000",
"~$	c #F16300",
"{$	c #F05100",
"]$	c #DA3C00",
"^$	c #D13900",
"/$	c #E45600",
"($	c #E84000",
"_$	c #F08800",
":$	c #F16D00",
"<$	c #F27200",
"[$	c #3C0000",
"}$	c #1C0101",
"|$	c #000505",
"1$	c #5E0500",
"2$	c #951C00",
"3$	c #992000",
"4$	c #BB2B00",
"5$	c #C52D00",
"6$	c #D03A00",
"7$	c #CA3300",
"8$	c #A92A00",
"9$	c #C83200",
"0$	c #D73D00",
"a$	c #E84200",
"b$	c #E43E00",
"c$	c #A72900",
"d$	c #931A00",
"e$	c #9D2500",
"f$	c #B62800",
"g$	c #D43A00",
"h$	c #E75A00",
"i$	c #DA5C00",
"j$	c #D44400",
"k$	c #A01E00",
"l$	c #2E0000",
"m$	c #2F0101",
"n$	c #2D0202",
"o$	c #8B1800",
"p$	c #922100",
"q$	c #8F2000",
"r$	c #A42300",
"s$	c #A82800",
"t$	c #A02700",
"u$	c #811600",
"v$	c #A82600",
"w$	c #7B0E00",
"x$	c #790F00",
"y$	c #721000",
"z$	c #7E1400",
"A$	c #821200",
"B$	c #7F1500",
"C$	c #861300",
"D$	c #A72500",
"E$	c #8B1400",
"F$	c #2C0000",
"G$	c #5F0C00",
"H$	c #831200",
"I$	c #891600",
"J$	c #982400",
"K$	c #7D1700",
"L$	c #670100",
"M$	c #3C0200",
"N$	c #660000",
"O$	c #4E0000",
"P$	c #881800",
"Q$	c #801000",
"R$	c #831100",
"S$	c #871400",
"T$	c #9B2300",
"U$	c #871900",
"V$	c #660400",
"W$	c #5C0000",
"X$	c #1D0101",
"Y$	c #2A0000",
"Z$	c #5A0000",
"`$	c #450000",
" %	c #3B0000",
".%	c #230000",
"+%	c #510400",
"@%	c #2D0000",
"#%	c #170000",
"$%	c #000305",
"%%	c #000304",
"&%	c #1F0101",
"*%	c #220000",
". . . . . . . . . . . + + + . . . . . . . . . . . . . + + + . . ",
". . . . . . . . . . . . . + + . . . . @ # $ % & . . . . . + + . ",
". . . . . * = - ; > , ' ) ! ~ { ] ^ / ( _ : < [ } | 1 2 . . + . ",
". . . 3 4 5 6 7 8 9 0 a b c d e f g h i j k l m n o p q r . . + ",
". . s t u v w x y z A B C D E F G H I J K L M N O P Q R S T . + ",
"+ . U V W X Y Z ` `  ...+.@.#.$.%.&.*.=.-.;.>.,.'.).!.~.{.].. + ",
"+ ^./.(._.:.).<.[.}.|...1.2.3.4.5.6.7.8.9.0.a.b.<.` c.d.e.f.. . ",
"+ g.h.i.j.k.l.<.[.m.n.o.o.p.q.r.s.t.u.v.w.x.y.z.A.B.` C.D.E.. . ",
"+ F.G.H.I.J.A.<.K.m. .<.L.M.N.O.P.Q.K.R.S.T.U.V.z.W.[.X.Y.Z.. . ",
"+ `. +.+++@+#+$+%+C &+'.*+L.=+-+t.;+B.>+,+'+)+!+~+{+]+^+/+Z.. . ",
"+ (+_+:+<+[+}+|+1+z.2+K.[.A.` }.3+$+4+5+6+7+8+9+0+a+b+c+d+e+. . ",
"+ + f+g+h+i+j+1.k+l+z.1+m+n+o+p+o.$+8+q+r+s+t+u+v+w+x+y+z+A+. . ",
". + B+C+D+E+F+G+H+I+J+K+L+M+N+1.o+{+M+O+P+Q+%.R+m+S+T+U+V+W+. . ",
". X+Y+Z+`+ @.@+@@@#@$@%@&@*@=@F+5+~+-@;@>@,@'@)@M+!@~@{@]@^@. . ",
". /@(@_@:@<@-+[@}@|@1@2@3@4@.@5@6@;+$+4+9+..7@N+5+W.8@9@0@].. . ",
". a@(+e.b@c@d@e@f@g@h@i@j@k@l+l@!@` ` ;+m+M.m@5@2+o.n@o@p@S . . ",
". q@r@s@t@u@|.v@w@x@h@y@z@k@L+2+A@B@B@<.B.C@n+!@p+D@E@F@G@H@I@. ",
". J@K@L@M@N@=+5@5@O@P@Q@R@S@T@U@` V@4+;+B.%+&+#+W@X@Y@Z@`@ #.#. ",
". +#@###$#%#&#*#=#N+-#;#5.O@>#,#W.'#)#!#=+~#8+Z {#]#^#/#N@(#_#. ",
". . :#<#[#}#|# .2+H 1#2#3#2.4#1+5#t+d@6#=+p+A@7#8#9#0#a#b#c#d#+ ",
". . R e#f#g#h#i#W.~+H p.N+1.n+&+2+O@x@l+j#k#P l#m#n#o#p#q#r#s#+ ",
"+ . . . t#3 u#v#w#%+ .5+ .9+n+n+n+l+-+x#n.q#y#z#A#B#C#D#E#F#G#+ ",
"+ + . . . H#I#J#K#L#M#N#A.A.;+n+C 1.O#=+3+l.P#Q#R#S#y#T#U#V#. . ",
"+ + . . . . W#X#o#Y#Z#`# $.$i+%+A.A@.$+$Z A.<.K.<.@$#$$$%$&$. . ",
"+ + + . . . *$Q =$-$;$>$,$'$)$!$~${$]$^$/$($_$*+:$<$m#[$}$|$. . ",
"+ + + + . . 1$2$3$4$5$6$7$8$9$0$a$b$c$d$e$f$g$h$i$j$k$l$m$. . . ",
"+ + + + . . n$o$p$q$r$s$t$u$v$w$x$y$z$*$A$B$C$D$r$u#E$F$&$. . . ",
"+ + + + + . . G$R H$I$J$K$L$M$N$O$~ + + P$Q$R$S$T$U$V$W$. . . . ",
". + + + + + + X$Y$T Z$`$ %s .%3 3 + + + + +%@%#%$%%%. . . . . . ",
". + + + + + + + + . &%|$|$*%. . . + + + + + + + + . . . . . . . ",
". . + + + + + + + + + . . . . . . . + + + + + + + + + . . . . . ",
". . . . . + + + + + + + + . . . . . . . . + + + + + + + + . . . "};
