/* XPM */
static char * explosion3_xpm[] = {
"32 32 309 2",
"  	c None",
". 	c #4878D8",
"+ 	c #4890D8",
"@ 	c #180000",
"# 	c #120000",
"$ 	c #000105",
"% 	c #000104",
"& 	c #000304",
"* 	c #130101",
"= 	c #190000",
"- 	c #3F0000",
"; 	c #520600",
"> 	c #731600",
", 	c #801900",
"' 	c #691801",
") 	c #671601",
"! 	c #5B0C01",
"~ 	c #1B0703",
"{ 	c #1E0000",
"] 	c #0F0102",
"^ 	c #4C0000",
"/ 	c #540000",
"( 	c #8C1E00",
"_ 	c #821000",
": 	c #911E00",
"< 	c #A42200",
"[ 	c #902000",
"} 	c #8D1D00",
"| 	c #7F1000",
"1 	c #180703",
"2 	c #1F0000",
"3 	c #220000",
"4 	c #260B03",
"5 	c #982200",
"6 	c #9C1F00",
"7 	c #B03000",
"8 	c #B13000",
"9 	c #B13100",
"0 	c #A02000",
"a 	c #9A1D00",
"b 	c #760F00",
"c 	c #781100",
"d 	c #0A0504",
"e 	c #050404",
"f 	c #180603",
"g 	c #8F1100",
"h 	c #7E1000",
"i 	c #991D00",
"j 	c #B53100",
"k 	c #DA3B00",
"l 	c #E64C00",
"m 	c #E64D00",
"n 	c #B63200",
"o 	c #B83300",
"p 	c #A02200",
"q 	c #721000",
"r 	c #820F00",
"s 	c #750E00",
"t 	c #050303",
"u 	c #340000",
"v 	c #871200",
"w 	c #8A1900",
"x 	c #992600",
"y 	c #B43100",
"z 	c #E24000",
"A 	c #F37C00",
"B 	c #F19800",
"C 	c #F29F00",
"D 	c #F38500",
"E 	c #E84E00",
"F 	c #E74B00",
"G 	c #CA3000",
"H 	c #841600",
"I 	c #5F0000",
"J 	c #580000",
"K 	c #140703",
"L 	c #1B0001",
"M 	c #650600",
"N 	c #6F1000",
"O 	c #9B2600",
"P 	c #AE3000",
"Q 	c #D73D00",
"R 	c #E03F00",
"S 	c #F37B00",
"T 	c #F09600",
"U 	c #F09500",
"V 	c #F17000",
"W 	c #F26B00",
"X 	c #E74000",
"Y 	c #951700",
"Z 	c #600000",
"` 	c #620100",
" .	c #500E01",
"..	c #3F0801",
"+.	c #6B0E00",
"@.	c #871B00",
"#.	c #A72600",
"$.	c #D13A00",
"%.	c #E54400",
"&.	c #E04000",
"*.	c #DC4800",
"=.	c #F26500",
"-.	c #F08400",
";.	c #F09400",
">.	c #F08800",
",.	c #F08200",
"'.	c #F05800",
").	c #AC2500",
"!.	c #6D0B00",
"~.	c #6C0B00",
"{.	c #4A0C01",
"].	c #540B01",
"^.	c #991C00",
"/.	c #932100",
"(.	c #D83700",
"_.	c #F14D00",
":.	c #F18300",
"<.	c #E14200",
"[.	c #DE3E00",
"}.	c #F14E00",
"|.	c #F16900",
"1.	c #F17900",
"2.	c #F17100",
"3.	c #F55400",
"4.	c #C23900",
"5.	c #711100",
"6.	c #6F0F00",
"7.	c #490C02",
"8.	c #0A0203",
"9.	c #550900",
"0.	c #8E1F00",
"a.	c #922100",
"b.	c #C03600",
"c.	c #E34100",
"d.	c #EF5000",
"e.	c #F15100",
"f.	c #E64700",
"g.	c #E14100",
"h.	c #E04100",
"i.	c #EA4A00",
"j.	c #DC3900",
"k.	c #912000",
"l.	c #8D1E00",
"m.	c #5C0900",
"n.	c #120202",
"o.	c #5C0B00",
"p.	c #7E0F00",
"q.	c #821100",
"r.	c #A52400",
"s.	c #AD3000",
"t.	c #C52C00",
"u.	c #F05000",
"v.	c #EE4E00",
"w.	c #DF3F00",
"x.	c #D53500",
"y.	c #CE2E00",
"z.	c #DB3B00",
"A.	c #F45400",
"B.	c #D43200",
"C.	c #D03100",
"D.	c #842000",
"E.	c #160202",
"F.	c #630D00",
"G.	c #901600",
"H.	c #A02500",
"I.	c #A72700",
"J.	c #AE3100",
"K.	c #CB3100",
"L.	c #EF4F00",
"M.	c #EE5D00",
"N.	c #E34200",
"O.	c #DC3C00",
"P.	c #D73700",
"Q.	c #DE3D00",
"R.	c #F25200",
"S.	c #D83800",
"T.	c #D43700",
"U.	c #A82900",
"V.	c #4D0800",
"W.	c #260102",
"X.	c #851500",
"Y.	c #C63300",
"Z.	c #D33100",
"`.	c #AD3100",
" +	c #AF3000",
".+	c #C53700",
"++	c #F25000",
"@+	c #F27A00",
"#+	c #F35000",
"$+	c #F04F00",
"%+	c #DB3900",
"&+	c #D63700",
"*+	c #C23200",
"=+	c #E64A00",
"-+	c #C42B00",
";+	c #6C0D00",
">+	c #370000",
",+	c #1D0102",
"'+	c #8E1B00",
")+	c #D73300",
"!+	c #C23100",
"~+	c #A32B00",
"{+	c #A82D00",
"]+	c #C93D00",
"^+	c #E23B00",
"/+	c #E03E00",
"(+	c #E23F00",
"_+	c #C73700",
":+	c #BC2F00",
"<+	c #B82F00",
"[+	c #B73200",
"}+	c #E74A00",
"|+	c #EC4E00",
"1+	c #B22B00",
"2+	c #6F0D00",
"3+	c #330000",
"4+	c #190202",
"5+	c #5C0100",
"6+	c #710F00",
"7+	c #931800",
"8+	c #A32500",
"9+	c #A12100",
"0+	c #9E2100",
"a+	c #AE2F00",
"b+	c #AB2200",
"c+	c #AC2400",
"d+	c #AC2300",
"e+	c #AF2F00",
"f+	c #B42F00",
"g+	c #F45300",
"h+	c #E94600",
"i+	c #E24200",
"j+	c #9F2300",
"k+	c #640F00",
"l+	c #310000",
"m+	c #2B0101",
"n+	c #5E0000",
"o+	c #801000",
"p+	c #781500",
"q+	c #8F2000",
"r+	c #C32C00",
"s+	c #B23100",
"t+	c #8C1D00",
"u+	c #800F00",
"v+	c #9C1E00",
"w+	c #D73400",
"x+	c #A72300",
"y+	c #A32200",
"z+	c #8D1C00",
"A+	c #5C0600",
"B+	c #3A0000",
"C+	c #811000",
"D+	c #841400",
"E+	c #8F2100",
"F+	c #9C2000",
"G+	c #9F1F00",
"H+	c #9B2100",
"I+	c #831500",
"J+	c #9B1D00",
"K+	c #BE3000",
"L+	c #D33000",
"M+	c #A12000",
"N+	c #9E2000",
"O+	c #8C1B00",
"P+	c #410500",
"Q+	c #000404",
"R+	c #350001",
"S+	c #540301",
"T+	c #5A0D01",
"U+	c #821900",
"V+	c #6E0D00",
"W+	c #881400",
"X+	c #982500",
"Y+	c #8F1F00",
"Z+	c #A82C00",
"`+	c #AB2D00",
" @	c #971D00",
".@	c #961F00",
"+@	c #7C1000",
"@@	c #841200",
"#@	c #831200",
"$@	c #440902",
"%@	c #040404",
"&@	c #000305",
"*@	c #0C0001",
"=@	c #110000",
"-@	c #901800",
";@	c #932300",
">@	c #8C1900",
",@	c #891A00",
"'@	c #8B1A00",
")@	c #941A00",
"!@	c #440400",
"~@	c #711500",
"{@	c #6A1400",
"]@	c #000103",
"^@	c #4E0000",
"/@	c #3E0000",
"(@	c #7F1100",
"_@	c #7D1000",
":@	c #5E0800",
"<@	c #4D0C00",
"[@	c #2C0200",
"}@	c #320000",
"|@	c #270402",
"1@	c #1B0203",
"2@	c #200703",
"3@	c #0F0203",
"4@	c #0A0102",
". . . . . . . . . . . + + + . . . . . . . . . . . . . + + + . . ",
". . . . . . . . . . . . . + + . . . . . . . . . . . . . . + + . ",
". . . . . . . . . . . . . . + . . . . . . . . . . . . . . . + . ",
". . . . . . . . . . . . . . . @ # # $ % & . . . . . . . . . . + ",
". . . . . . . . . . . . * = - ; > , ' ) ! ~ { . . . . . . . . + ",
"+ . . . . . . . . . . ] ^ / ( _ : < [ } | 1 2 3 . . . . . . . + ",
"+ + . . . . . . . . 4 5 6 7 7 8 8 9 0 a b c d e . . . . . . . . ",
"+ + . . . . . . . f g h i j k l m k n o p q r s & . . . . . . . ",
"+ + + . . . . t u v w x y z A B C D E F G H I J K . . . . . . . ",
"+ + + + . . . L M N O P Q R S T B U V W X Y Z `  .. . . . . . . ",
"+ + + + . . . ..+.@.#.$.%.&.*.=.-.;.>.,.'.).!.~.{.. . . . . . . ",
"+ + + + + . & ].^./.(._.:.<.[.}.|.1.1.2.3.4.5.6.7.. . . . . . . ",
". + + + + + 8.9.0.a.b.c.d.&.e.e.f.g.h.h.i.j.k.l.m.. . . . . . . ",
". + + + + + n.o.p.q.r.s.t.u.v.w.x.y.&.z.[.A.B.C.D.. . . . . . . ",
". . + + + + E.F.G.H.I.J.K.L.M.N.O.P.g.O.Q.R.S.T.U.V.+ . . . . . ",
". . . . . + W.X.Y.Z.`. +.+++@+#+A.$+%+&+*+=+R.$+-+;+>++ + . . . ",
". . . . . . ,+6.'+)+!+~+{+]+^+/+(+_+:+<+[+}+e.|+1+2+3++ + + . . ",
". . . . . . 4+5+6+7+8+9+0+a+b+c+d+e+ +f+w.g+h+i+j+k+l+. . + + . ",
". . . . . . . m+n+o+p+q+r+s+t+u+o+v+7 7 !+w+x+y+z+A+l+. . . + . ",
". . . . . . . - B+C+D+E+F+G+0 H+I+J+7  +K+L+M+N+O+P+. . . . . + ",
". . . . . . . Q+Q+R+S+T+U+V+W+X+Y+Z+`+ @.@+@@@#@$@& . . . . . + ",
"+ . . . . . . . %@Q+Q+&@*@=@-@;@>@0.,@'@)@!@~@{@]@. . . . . . + ",
"+ + . . . . . . . . . . . . ^@/@+@(@_@:@<@[@. . . . . . . . . . ",
"+ + . . . . . . . . . . . . . }@|@1@2@3@4@. . . . . . . . . . . ",
"+ + + . . . . . . . . . . . . . + + + . . . . . . . . . . . . . ",
"+ + + + . . . . . . . . . . . . + + + + . . . . . . . . . . . . ",
"+ + + + . . . . . . . . . . . . + + + + . . . . . . . . . . . . ",
"+ + + + + . . . . . . . . . . . + + + + + . . . . . . . . . . . ",
". + + + + + + . . . . . . . . . . + + + + + + . . . . . . . . . ",
". + + + + + + + + . . . . . . . . + + + + + + + + . . . . . . . ",
". . + + + + + + + + + . . . . . . . + + + + + + + + + . . . . . ",
". . . . . + + + + + + + + . . . . . . . . + + + + + + + + . . . "};
