/* XPM */
static char * explosion7_xpm[] = {
"32 32 562 2",
"  	c None",
". 	c #4878D8",
"+ 	c #4890D8",
"@ 	c #2E0000",
"# 	c #490300",
"$ 	c #5D0A00",
"% 	c #640900",
"& 	c #711300",
"* 	c #7D1400",
"= 	c #6F1200",
"- 	c #5F0900",
"; 	c #4E0200",
"> 	c #2F0000",
", 	c #300000",
"' 	c #2D0000",
") 	c #3A0000",
"! 	c #3C0000",
"~ 	c #3D0000",
"{ 	c #3E0000",
"] 	c #4D0300",
"^ 	c #811000",
"/ 	c #7C0E00",
"( 	c #8C1E00",
"_ 	c #9E1F00",
": 	c #A12100",
"< 	c #9F2000",
"[ 	c #841200",
"} 	c #310000",
"| 	c #390000",
"1 	c #570000",
"2 	c #740F00",
"3 	c #721100",
"4 	c #700F00",
"5 	c #6D0F00",
"6 	c #6E0F00",
"7 	c #711000",
"8 	c #761200",
"9 	c #791300",
"0 	c #961D00",
"a 	c #B13300",
"b 	c #CA3100",
"c 	c #BB3600",
"d 	c #B23000",
"e 	c #7A0E00",
"f 	c #6F0E00",
"g 	c #901800",
"h 	c #871400",
"i 	c #841100",
"j 	c #5A0400",
"k 	c #7F1000",
"l 	c #982000",
"m 	c #A42100",
"n 	c #7B1600",
"o 	c #630300",
"p 	c #400400",
"q 	c #480200",
"r 	c #6D0E00",
"s 	c #B62A00",
"t 	c #CE3F00",
"u 	c #E34900",
"v 	c #F17400",
"w 	c #F17500",
"x 	c #F68200",
"y 	c #DC4300",
"z 	c #931800",
"A 	c #590700",
"B 	c #520000",
"C 	c #711100",
"D 	c #2C0000",
"E 	c #580900",
"F 	c #811500",
"G 	c #A62700",
"H 	c #D03500",
"I 	c #C82F00",
"J 	c #A02000",
"K 	c #971E00",
"L 	c #8E1700",
"M 	c #841900",
"N 	c #911F00",
"O 	c #BD2E00",
"P 	c #E24100",
"Q 	c #DB3B00",
"R 	c #C33300",
"S 	c #DE3000",
"T 	c #F18800",
"U 	c #F2A300",
"V 	c #F08200",
"W 	c #C85A00",
"X 	c #861300",
"Y 	c #801700",
"Z 	c #610B00",
"` 	c #4E0400",
" .	c #330000",
"..	c #4B0000",
"+.	c #780C00",
"@.	c #CB3500",
"#.	c #991D00",
"$.	c #C12700",
"%.	c #D93900",
"&.	c #E94800",
"*.	c #D33300",
"=.	c #D23000",
"-.	c #EC6500",
";.	c #E03F00",
">.	c #DA3B00",
",.	c #B83700",
"'.	c #F58A00",
").	c #F9D838",
"!.	c #FAE036",
"~.	c #F8CA00",
"{.	c #F09800",
"].	c #EB7000",
"^.	c #DA3700",
"/.	c #972100",
"(.	c #6B0F00",
"_.	c #660900",
":.	c #5E0000",
"<.	c #6C0B00",
"[.	c #AC2F00",
"}.	c #B23100",
"|.	c #E54B00",
"1.	c #AB2D00",
"2.	c #D13A00",
"3.	c #F08800",
"4.	c #F2A000",
"5.	c #F2A800",
"6.	c #F19700",
"7.	c #F18400",
"8.	c #EF6A00",
"9.	c #F19000",
"0.	c #F17600",
"a.	c #F08400",
"b.	c #F18500",
"c.	c #FAE272",
"d.	c #FEFDCB",
"e.	c #FFFFFC",
"f.	c #F9DB2B",
"g.	c #F18D00",
"h.	c #F35E00",
"i.	c #DB3800",
"j.	c #851200",
"k.	c #841300",
"l.	c #952300",
"m.	c #340000",
"n.	c #570700",
"o.	c #A82C00",
"p.	c #AB2B00",
"q.	c #AC2B00",
"r.	c #AD2900",
"s.	c #E23E00",
"t.	c #EF7E00",
"u.	c #F19B00",
"v.	c #F7C900",
"w.	c #FAD922",
"x.	c #F6C30F",
"y.	c #F29B00",
"z.	c #E66100",
"A.	c #EF7300",
"B.	c #EE7500",
"C.	c #D42C00",
"D.	c #E85001",
"E.	c #F39700",
"F.	c #F7CE23",
"G.	c #FEF9B6",
"H.	c #FBE855",
"I.	c #F4A700",
"J.	c #F55E00",
"K.	c #B83400",
"L.	c #901B00",
"M.	c #942300",
"N.	c #A32500",
"O.	c #A01C00",
"P.	c #8F1900",
"Q.	c #B52C00",
"R.	c #AE2C00",
"S.	c #881400",
"T.	c #B52E00",
"U.	c #EB5600",
"V.	c #F17700",
"W.	c #F08F00",
"X.	c #F7C100",
"Y.	c #FAE538",
"Z.	c #F6C30D",
"`.	c #F4AD00",
" +	c #F4AA00",
".+	c #F6C415",
"++	c #EE7300",
"@+	c #D83400",
"#+	c #E04300",
"$+	c #E45600",
"%+	c #F26600",
"&+	c #F3B20D",
"*+	c #F9D419",
"=+	c #F9DB24",
"-+	c #F49A00",
";+	c #E34D00",
">+	c #891700",
",+	c #6D0A00",
"'+	c #CB4300",
")+	c #BD3B00",
"!+	c #420600",
"~+	c #B52900",
"{+	c #C13300",
"]+	c #871500",
"^+	c #BA3400",
"/+	c #EA4600",
"(+	c #F17A00",
"_+	c #F09000",
":+	c #F2A400",
"<+	c #F2A602",
"[+	c #F09300",
"}+	c #F09400",
"|+	c #F7C600",
"1+	c #F9D003",
"2+	c #EE6D00",
"3+	c #C72B00",
"4+	c #C03000",
"5+	c #BC3100",
"6+	c #CC2F00",
"7+	c #F35700",
"8+	c #E55E01",
"9+	c #F7BD04",
"0+	c #F5A600",
"a+	c #F29400",
"b+	c #EB4E00",
"c+	c #CD3600",
"d+	c #B34100",
"e+	c #FA7600",
"f+	c #8C1D00",
"g+	c #A12000",
"h+	c #991A00",
"i+	c #801000",
"j+	c #A62100",
"k+	c #D53400",
"l+	c #E84200",
"m+	c #ED7D00",
"n+	c #F08D00",
"o+	c #F08C00",
"p+	c #F06E00",
"q+	c #F08500",
"r+	c #F6C000",
"s+	c #EC4900",
"t+	c #BA3200",
"u+	c #C73200",
"v+	c #A82900",
"w+	c #DD3E00",
"x+	c #D02E00",
"y+	c #CA2800",
"z+	c #B12200",
"A+	c #E37D00",
"B+	c #DC4000",
"C+	c #CC3300",
"D+	c #F47400",
"E+	c #F65F00",
"F+	c #4D0400",
"G+	c #7E0F00",
"H+	c #871A00",
"I+	c #A52700",
"J+	c #9D1E00",
"K+	c #B72D00",
"L+	c #D83500",
"M+	c #D32C00",
"N+	c #F16200",
"O+	c #F09500",
"P+	c #F19C00",
"Q+	c #F08E00",
"R+	c #F09200",
"S+	c #F19E00",
"T+	c #E23F00",
"U+	c #D43200",
"V+	c #DE3800",
"W+	c #D94B00",
"X+	c #F56700",
"Y+	c #D23100",
"Z+	c #941900",
"`+	c #7A1200",
" @	c #C52600",
".@	c #A82A00",
"+@	c #7C1000",
"@@	c #D94400",
"#@	c #EB5500",
"$@	c #9F2200",
"%@	c #4B0400",
"&@	c #781000",
"*@	c #992200",
"=@	c #C12F00",
"-@	c #A92900",
";@	c #D74400",
">@	c #F36600",
",@	c #C23B00",
"'@	c #DD3900",
")@	c #F38400",
"!@	c #F18100",
"~@	c #F07400",
"{@	c #F07700",
"]@	c #F18000",
"^@	c #E54300",
"/@	c #DF3F00",
"(@	c #DF3C00",
"_@	c #EE6B00",
":@	c #F29A00",
"<@	c #F19D00",
"[@	c #F07800",
"}@	c #C22800",
"|@	c #C62D00",
"1@	c #BB3800",
"2@	c #E44B00",
"3@	c #A92800",
"4@	c #440200",
"5@	c #3B0000",
"6@	c #7B0F00",
"7@	c #8C1F00",
"8@	c #D53700",
"9@	c #EF8900",
"0@	c #DD3700",
"a@	c #F06600",
"b@	c #F19500",
"c@	c #EF5900",
"d@	c #B12F00",
"e@	c #D63700",
"f@	c #E94900",
"g@	c #F17200",
"h@	c #E24600",
"i@	c #DD3D00",
"j@	c #D73000",
"k@	c #EF8F00",
"l@	c #F5B500",
"m@	c #F2A200",
"n@	c #EB7800",
"o@	c #CD3100",
"p@	c #9A2100",
"q@	c #A82200",
"r@	c #8F1600",
"s@	c #440100",
"t@	c #570500",
"u@	c #B72500",
"v@	c #D83800",
"w@	c #F19200",
"x@	c #F07D00",
"y@	c #F2A100",
"z@	c #E44300",
"A@	c #CC3000",
"B@	c #BF3700",
"C@	c #F57D00",
"D@	c #F25B00",
"E@	c #D33500",
"F@	c #D53C00",
"G@	c #CB4A00",
"H@	c #F6A800",
"I@	c #F9D300",
"J@	c #F29F00",
"K@	c #EC7100",
"L@	c #B42700",
"M@	c #C92D00",
"N@	c #B53100",
"O@	c #922100",
"P@	c #7A1500",
"Q@	c #430100",
"R@	c #450400",
"S@	c #791600",
"T@	c #C76600",
"U@	c #D88100",
"V@	c #F7A600",
"W@	c #F2A500",
"X@	c #F09B00",
"Y@	c #F25300",
"Z@	c #DE3F00",
"`@	c #CE4600",
" #	c #F49100",
".#	c #F27C00",
"+#	c #EC4700",
"@#	c #E46100",
"##	c #F29C00",
"$#	c #F3A700",
"%#	c #F08300",
"&#	c #DC5700",
"*#	c #AD2600",
"=#	c #CD3000",
"-#	c #C22A00",
";#	c #A42300",
">#	c #A22900",
",#	c #650B00",
"'#	c #4D0000",
")#	c #8E1B00",
"!#	c #CE7E00",
"~#	c #F8B800",
"{#	c #F19800",
"]#	c #BC3500",
"^#	c #D24100",
"/#	c #F77400",
"(#	c #F69B00",
"_#	c #F18200",
":#	c #EF9000",
"<#	c #E73C00",
"[#	c #F37500",
"}#	c #F19A00",
"|#	c #F07A00",
"1#	c #E85100",
"2#	c #AD2700",
"3#	c #A22500",
"4#	c #A72600",
"5#	c #982100",
"6#	c #8F1A00",
"7#	c #610D00",
"8#	c #320000",
"9#	c #730700",
"0#	c #CC5400",
"a#	c #FBD550",
"b#	c #F5B913",
"c#	c #EF6B00",
"d#	c #C62800",
"e#	c #B83000",
"f#	c #C43300",
"g#	c #B03600",
"h#	c #F05100",
"i#	c #F07300",
"j#	c #F3A300",
"k#	c #F3AD00",
"l#	c #F07600",
"m#	c #E44500",
"n#	c #B52B00",
"o#	c #BE3000",
"p#	c #942200",
"q#	c #7E0E00",
"r#	c #570100",
"s#	c #3E0200",
"t#	c #C45200",
"u#	c #FBBD00",
"v#	c #F9DE32",
"w#	c #F4B001",
"x#	c #F08700",
"y#	c #E23C00",
"z#	c #DC3900",
"A#	c #AD2300",
"B#	c #F27100",
"C#	c #F05600",
"D#	c #F18600",
"E#	c #F18F00",
"F#	c #EF6200",
"G#	c #C73700",
"H#	c #972400",
"I#	c #790E00",
"J#	c #370000",
"K#	c #800F00",
"L#	c #E65B00",
"M#	c #EF8A00",
"N#	c #F38700",
"O#	c #F07500",
"P#	c #EE5200",
"Q#	c #E64500",
"R#	c #DC3B00",
"S#	c #D12E00",
"T#	c #F16900",
"U#	c #EB6D00",
"V#	c #F05D00",
"W#	c #F08000",
"X#	c #F09100",
"Y#	c #F37E00",
"Z#	c #D64000",
"`#	c #9F2100",
" $	c #560F00",
".$	c #450000",
"+$	c #901600",
"@$	c #E96200",
"#$	c #DB3700",
"$$	c #F19300",
"%$	c #F07B00",
"&$	c #F25900",
"*$	c #F04F00",
"=$	c #DC3C00",
"-$	c #E54500",
";$	c #EE5E00",
">$	c #F07F00",
",$	c #F27700",
"'$	c #D03800",
")$	c #B62500",
"!$	c #DD3F00",
"~$	c #660800",
"{$	c #CB2F00",
"]$	c #D22F00",
"^$	c #F7B600",
"/$	c #F49600",
"($	c #E85300",
"_$	c #D03000",
":$	c #EF5000",
"<$	c #D73A00",
"[$	c #F35400",
"}$	c #F05500",
"|$	c #F05300",
"1$	c #F25400",
"2$	c #AD3100",
"3$	c #8B1900",
"4$	c #8C1600",
"5$	c #E64900",
"6$	c #992400",
"7$	c #560000",
"8$	c #2B0000",
"9$	c #350000",
"0$	c #4E0000",
"a$	c #971C00",
"b$	c #CF2C00",
"c$	c #C14E00",
"d$	c #F27900",
"e$	c #E74900",
"f$	c #CE3100",
"g$	c #D83B00",
"h$	c #D13400",
"i$	c #EC4E00",
"j$	c #A82B00",
"k$	c #961A00",
"l$	c #B52500",
"m$	c #EB4A00",
"n$	c #922000",
"o$	c #380000",
"p$	c #270000",
"q$	c #CF3B00",
"r$	c #C45100",
"s$	c #C03600",
"t$	c #A92A00",
"u$	c #AC2E00",
"v$	c #A32900",
"w$	c #7B0D00",
"x$	c #7C0F00",
"y$	c #7C1900",
"z$	c #B02D00",
"A$	c #861200",
"B$	c #750900",
"C$	c #CB3800",
"D$	c #E34100",
"E$	c #ED5E00",
"F$	c #A41F00",
"G$	c #811600",
"H$	c #9F2600",
"I$	c #AB2A00",
"J$	c #9D1F00",
"K$	c #9E2100",
"L$	c #981C00",
"M$	c #8E1C00",
"N$	c #8B1B00",
"O$	c #851700",
"P$	c #7E1400",
"Q$	c #5F0000",
"R$	c #901C00",
"S$	c #A92500",
"T$	c #771200",
"U$	c #640200",
"V$	c #8D1700",
"W$	c #9F2300",
"X$	c #7D1600",
"Y$	c #741100",
"Z$	c #751200",
"`$	c #932200",
" %	c #8E1A00",
".%	c #670400",
"+%	c #6D0C00",
"@%	c #410000",
"#%	c #6A0300",
"$%	c #791000",
"%%	c #6F1000",
"&%	c #701000",
"*%	c #720F00",
"=%	c #470000",
". . . . . . . . . . . + + + . . . . . . . . . . . . . + + + . . ",
". . . . . . . . . . . . . + + . . . . . . . . . . . . . . + + . ",
". . . . . . . . . @ @ @ . . + . . # $ % & * = - ; > , . . . + . ",
". . . . . . . , ' ) ! ! ~ { ~ { ' ] ^ / ( _ : < _ [ ' , . . . + ",
". . . . . . } | 1 2 3 4 5 6 7 8 9 0 a b c d e f g h i > , . . + ",
"+ . . . . { j k l m n o p q r s t u v w x y z A B & C B D . . + ",
"+ + . . E F G H I J K L M N O P Q R S T U V W X Y Z ` )  .. . . ",
"+ + . ..+.J P @.#.$.%.&.*.=.-.;.>.,.'.).!.~.{.].^./.(.(._.. . . ",
"+ + :.<.[.}.|.1.2.3.4.5.6.7.8.9.0.a.b.c.d.e.f.g.h.i.j.k.l.. . . ",
"+ m.n.o.p.q.r.s.t.u.v.w.x.y.z.A.B.C.D.E.F.G.H.I.J.K.L.M.N.O.. . ",
"+ m.P.Q.R.S.T.U.V.W.X.Y.Z.`. +.+++@+#+$+%+&+*+=+-+;+>+,+'+)+. . ",
"+ !+~+{+]+_ ^+/+(+_+:+<+[+}+|+1+2+3+4+5+6+7+8+9+0+a+b+c+d+e+f+. ",
". # g+h+i+J j+k+l+m+n+o+p+q+`.r+s+t+u+v+w+d x+y+z+A+B+C+D+E+#.. ",
". F+G+H+I+J+< K+L+M+N+O+P+Q+R+S+T+U+k+V+W+X+Y+Z+`+ @.@+@@@#@$@. ",
". %@&@*@=@I -@;@>@,@'@)@!@~@{@]@^@/@(@_@:@<@[@}@H+|@g+3 1@2@3@4@",
". 5@6@7@8@9@0@a@b@c@d@e@f@N+g@h@*.i@j@k@|+l@m@n@5+o@g+C p@q@r@s@",
". } t@u@v@w@9.x@y@]@z@A@B@C@P+D@E@F@G@H@I@J@J@K@L@M@N@7 l.O@P@Q@",
". . R@S@5 T@U@V@W@X@Y@Z@`@ #`.P+.#+#@###$#_+%#&#*#=#-#;#>#K ,#Q@",
". . . ` m.'#)#!#~#{#^@]#^#/#(#_#:#<#[#}#R+|#1#2#3#4#p.5#6#7#! . ",
". . . . , 8#9#0#a#b#c#d#e#f#g#h#i#A.j#k#l#p+m#n#o#M.p#q#r#> . + ",
". . . . . , s#t#u#v#w#x#y#z#A#q.B#C#D#<@R+R+E#F#G#H#I#J#' . . + ",
"+ . . . . .  .K#L#M#N#O#P#Q#R#S#T#U#V#W#_+X#X#Y#Z#`# $D , . . + ",
"+ + . . . . , .$+$@$#$$$%$&$*$=$-$;$C#>$>$x@,$'$m )$!$@ > . . . ",
"+ + . . . . , m.~${$]$^$/$($k+_$:$<$[$}$|$1$2$3$4$5$6$7$8$. . . ",
"+ + + . . . . > 9$0$a$b$c$d$e$f$=#g$h$e$i$j$k$e l$m$n$o$@ . . . ",
"+ + + + . . . . . p$'#q$P r$T s$t$`#u$v$7@w$x$y$z$A$B$! . . . . ",
"+ + + + . . . . . . . . C$D$E$F$G$H$I$J$K$L$M$N$O$P$Q$. . . . . ",
"+ + + + + . . . . . . . . R$S$T$U$V$W$X$Y$Z$p#`$ %.%. . . . . . ",
". + + + + + + . . . . . . . +%@%, #%$%%%&%&%*%B$=%. . . . . . . ",
". + + + + + + + + . . . . . . . . + + + + + + + + . . . . . . . ",
". . + + + + + + + + + . . . . . . . + + + + + + + + + . . . . . ",
". . . . . + + + + + + + + . . . . . . . . + + + + + + + + . . . "};
