/* XPM */
static char * explosion9_xpm[] = {
"32 32 309 2",
"  	c None",
". 	c #4878D8",
"+ 	c #4890D8",
"@ 	c #5C0E00",
"# 	c #5B0E00",
"$ 	c #891700",
"% 	c #660B00",
"& 	c #750A00",
"* 	c #911F00",
"= 	c #952200",
"- 	c #851900",
"; 	c #600700",
"> 	c #530000",
", 	c #5D0000",
"' 	c #6E0D00",
") 	c #720800",
"! 	c #902000",
"~ 	c #811100",
"{ 	c #770F00",
"] 	c #6C0E00",
"^ 	c #7E0F00",
"/ 	c #610200",
"( 	c #781100",
"_ 	c #600000",
": 	c #610100",
"< 	c #801000",
"[ 	c #7F0F00",
"} 	c #912100",
"| 	c #8E1D00",
"1 	c #781000",
"2 	c #7E1100",
"3 	c #711000",
"4 	c #761000",
"5 	c #771000",
"6 	c #2B0903",
"7 	c #851300",
"8 	c #8E1500",
"9 	c #9E2500",
"0 	c #962400",
"a 	c #8F2000",
"b 	c #A32100",
"c 	c #9D2300",
"d 	c #DE3700",
"e 	c #E44000",
"f 	c #DE3C00",
"g 	c #B42900",
"h 	c #962300",
"i 	c #9D2400",
"j 	c #7E1700",
"k 	c #6F1000",
"l 	c #020304",
"m 	c #4F0801",
"n 	c #A82000",
"o 	c #D93700",
"p 	c #D33100",
"q 	c #A12600",
"r 	c #861700",
"s 	c #921E00",
"t 	c #9C1F00",
"u 	c #D73200",
"v 	c #C73100",
"w 	c #F85A00",
"x 	c #F27C00",
"y 	c #F76F00",
"z 	c #C93800",
"A 	c #BA2C00",
"B 	c #841600",
"C 	c #701000",
"D 	c #570800",
"E 	c #4B0B01",
"F 	c #9A1B00",
"G 	c #D43500",
"H 	c #E14100",
"I 	c #CE2E00",
"J 	c #851200",
"K 	c #D93600",
"L 	c #C52F00",
"M 	c #B32600",
"N 	c #AB2900",
"O 	c #D84600",
"P 	c #F27700",
"Q 	c #F09900",
"R 	c #EF5E00",
"S 	c #A92400",
"T 	c #741100",
"U 	c #7A1000",
"V 	c #901F00",
"W 	c #931F00",
"X 	c #EC4C00",
"Y 	c #E54300",
"Z 	c #B43000",
"` 	c #6C0D00",
" .	c #ED6300",
"..	c #ED6500",
"+.	c #EB5F00",
"@.	c #C02A00",
"#.	c #992300",
"$.	c #C53200",
"%.	c #F35B00",
"&.	c #EB6F00",
"*.	c #9E2000",
"=.	c #710E00",
"-.	c #811000",
";.	c #B83200",
">.	c #D33000",
",.	c #D13100",
"'.	c #D53200",
").	c #F09000",
"!.	c #F19600",
"~.	c #F19800",
"{.	c #F18800",
"].	c #CA3800",
"^.	c #9F1F00",
"/.	c #B03000",
"(.	c #E34100",
"_.	c #B82900",
":.	c #300000",
"<.	c #3B0000",
"[.	c #B93400",
"}.	c #A82900",
"|.	c #911E00",
"1.	c #E66800",
"2.	c #F6BB00",
"3.	c #F5B600",
"4.	c #F18600",
"5.	c #CA3900",
"6.	c #6D0F00",
"7.	c #560000",
"8.	c #912000",
"9.	c #350200",
"0.	c #2D0000",
"a.	c #B14200",
"b.	c #EA8300",
"c.	c #F49800",
"d.	c #EF8600",
"e.	c #CB3400",
"f.	c #921F00",
"g.	c #B02500",
"h.	c #AE2C00",
"i.	c #3F0500",
"j.	c #070103",
"k.	c #4F0800",
"l.	c #2F0000",
"m.	c #340100",
"n.	c #A01700",
"o.	c #C14E00",
"p.	c #A52800",
"q.	c #D53100",
"r.	c #B82E00",
"s.	c #932100",
"t.	c #100101",
"u.	c #3E0300",
"v.	c #570000",
"w.	c #640400",
"x.	c #AC2D00",
"y.	c #F66A00",
"z.	c #801200",
"A.	c #9F2100",
"B.	c #B93100",
"C.	c #9C2100",
"D.	c #721200",
"E.	c #370000",
"F.	c #620C00",
"G.	c #2E0500",
"H.	c #D23E00",
"I.	c #F36600",
"J.	c #F09100",
"K.	c #F07000",
"L.	c #7F1000",
"M.	c #A52200",
"N.	c #5F0000",
"O.	c #6B0C00",
"P.	c #8E2000",
"Q.	c #EA4A00",
"R.	c #EF4D00",
"S.	c #EA4B00",
"T.	c #981C00",
"U.	c #AA2C00",
"V.	c #B43200",
"W.	c #B23000",
"X.	c #2C0000",
"Y.	c #701100",
"Z.	c #710F00",
"`.	c #B52D00",
" +	c #D23800",
".+	c #D53D00",
"++	c #C02900",
"@+	c #8A1F00",
"#+	c #841400",
"$+	c #AC2400",
"%+	c #C22C00",
"&+	c #D22F00",
"*+	c #F45200",
"=+	c #D13200",
"-+	c #A72A00",
";+	c #390300",
">+	c #3B0A02",
",+	c #610000",
"'+	c #A82800",
")+	c #951F00",
"!+	c #540300",
"~+	c #A02900",
"{+	c #DE3800",
"]+	c #D53500",
"^+	c #F05000",
"/+	c #E74600",
"(+	c #BA2700",
"_+	c #650C00",
":+	c #6B0A00",
"<+	c #760E00",
"[+	c #9D2000",
"}+	c #9C2300",
"|+	c #D33700",
"1+	c #EE5100",
"2+	c #E85500",
"3+	c #EB4A00",
"4+	c #E44400",
"5+	c #EE5000",
"6+	c #A32400",
"7+	c #480400",
"8+	c #670800",
"9+	c #690A00",
"0+	c #871300",
"a+	c #881B00",
"b+	c #DE4400",
"c+	c #EF8A00",
"d+	c #F06C00",
"e+	c #F06000",
"f+	c #F14F00",
"g+	c #DF4000",
"h+	c #901B00",
"i+	c #4F0600",
"j+	c #721100",
"k+	c #3D0000",
"l+	c #861C00",
"m+	c #D33800",
"n+	c #F17300",
"o+	c #E54D00",
"p+	c #9A1D00",
"q+	c #740900",
"r+	c #4A0000",
"s+	c #7E1200",
"t+	c #470600",
"u+	c #660C00",
"v+	c #921900",
"w+	c #EF4E00",
"x+	c #F18500",
"y+	c #F14A00",
"z+	c #D23300",
"A+	c #AB2E00",
"B+	c #8D1E00",
"C+	c #780C00",
"D+	c #4C0000",
"E+	c #680300",
"F+	c #8C1B00",
"G+	c #931A00",
"H+	c #881C00",
"I+	c #700D00",
"J+	c #DD3B00",
"K+	c #E45300",
"L+	c #8E1F00",
"M+	c #740C00",
"N+	c #620000",
"O+	c #4D0000",
"P+	c #570400",
"Q+	c #861A00",
"R+	c #B33100",
"S+	c #AC2100",
"T+	c #600400",
"U+	c #8F1900",
"V+	c #972100",
"W+	c #B42700",
"X+	c #A32300",
"Y+	c #8F1F00",
"Z+	c #922200",
"`+	c #6E0A00",
" @	c #410000",
".@	c #3E0000",
"+@	c #3E0400",
"@@	c #7D1200",
"#@	c #B23100",
"$@	c #A21F00",
"%@	c #680C00",
"&@	c #861400",
"*@	c #831300",
"=@	c #8B1A00",
"-@	c #932300",
";@	c #871400",
">@	c #330000",
",@	c #710800",
"'@	c #800F00",
")@	c #8C1C00",
"!@	c #4F0000",
"~@	c #5E0B00",
"{@	c #630200",
"]@	c #7E1000",
"^@	c #731100",
"/@	c #3C0000",
"(@	c #2E0000",
"_@	c #270000",
":@	c #480D00",
"<@	c #8E1900",
"[@	c #841300",
"}@	c #801300",
"|@	c #731200",
"1@	c #660500",
"2@	c #932200",
"3@	c #8B1900",
"4@	c #821100",
". . . . . . . . . . . + + + . . . . . . . . . . . . . + + + . . ",
". . . . . . . . . . . . . + + . . . . . . . . . . . . . . + + . ",
". . . . . . . . . . . . . . + . . @ # $ % . . . . . . . . . + . ",
". . . . . . . . . . . . . . . + & * = - ; > , ' . . . . . . . + ",
". . . . . . . . . . . . . . . + ) ! ~ ~ { ] ^ / ( . . . . . . + ",
"+ . . . . . . _ _ : : . . . . + < [ } | 1 2 3 3 4 5 . . . . . + ",
"+ + . . . . 6 7 8 9 0 a . . . . + b c d e f g h i j k . . . . . ",
"+ + . . . l m n o p q r . . s . + t u v w x y z A B C . . . . . ",
"+ + + . D E F G H I J . . K L M + + + N O P Q R S T U . . . . . ",
"+ + + + V W G X Y Z ` .  ...+.@.+ + + + #.$.%.&.*.=.. . . . . . ",
"+ + + + -.;.>.,.'.^ . ).!.~.{.].+ + + + . ^./.(._.. . . :.. . . ",
"+ + + + <.[.}.|.. . . 1.2.3.4.5.+ + + + + . 6.7.. . . 8.9.0.. . ",
". + + + + + + . . . . a.b.c.d.e.. + + + + + + . . . f.g.h.i.. . ",
". + j.k.l.m.+ + + . . . n.o.. . . + + + + + + + + . p.q.r.s.. . ",
". . t.u.v.w.x.y.+ + + . . . . . . . + + + + + + + z.A.B.C.D.. . ",
". . E.F.^ G.H.I.J.K.+ + + . . . . . . . . + + + + + L.M.k C . . ",
". . N.O.P.c K Q.R.S.T.+ + + . . . . . . V U.V.W.. . . X._ : . . ",
". . . Y.Z.^ `. +.+++@+. . + + . . . #+$+%+&+*+=+-+. . . ;++ + . ",
". . . . >+,+z.p.'+)+P.. . . + . . !+~+{+o ]+^+/+(+_+. . . . + . ",
". . . . . :+_ <+)+} [+. . . . + . }+|+1+2+3+4+5+6+7+. . . . . + ",
". . . . . . 8+9+D.0+s.. . . . + a+b+c+d+e+f+^+g+h+i+. . . . . + ",
"+ . . . . . . 4 j+k+. . . . . + l+m+K.K.n+o+,.p+q+r+. . . . . + ",
"+ + . . . . . . . . . s+t+. . . u+v+w+x+y+z+A+B+C+D+. . . . . . ",
"+ + . . . . . . . . E+F+G+H+I+. + t J+K+$.*.L+} M+. . . . . . . ",
"+ + + . . . . . N+O+P+Q+*.R+S+T+U+V+W+X+Y+P.Z+`+ @. . . . . . . ",
"+ + + + . . . . . .@+@@@| #@$@r+%@&@0+*@=@-@;@k+>@. . . . . . . ",
"+ + + + . . . . . . N.,@'@! )@!@~@{@_ w.Y.]@^@/@(@. . . . . . . ",
"+ + + + + . . . . . . . . . _@:@<@*@[@}@|@1@_ .@. . . . . . . . ",
". + + + + + + . . . . . . . . . . Z+Z+2@3@4@+ . . . . . . . . . ",
". + + + + + + + + . . . . . . . . + + + + + + + + . . . . . . . ",
". . + + + + + + + + + . . . . . . . + + + + + + + + + . . . . . ",
". . . . . + + + + + + + + . . . . . . . . + + + + + + + + . . . "};
