/* XPM */
static char * explosion13_xpm[] = {
"32 32 15 1",
" 	c None",
".	c #4878D8",
"+	c #4890D8",
"@	c #701000",
"#	c #7F1000",
"$	c #801000",
"%	c #040404",
"&	c #200000",
"*	c #A02000",
"=	c #600000",
"-	c #400000",
";	c #300000",
">	c #610000",
",	c #450000",
"'	c #902000",
"...........+++.............+++..",
".............++..............++.",
"..............+...............+.",
"...............+...............+",
"...............+...............+",
"+..............++....@#........+",
"++..............++.....$........",
"++..............++......@.......",
"+++.............+++......@@.....",
"++++...%........++++............",
"++++.&&.........++++............",
"+++++...........+++++...........",
".++++++..........++++++.........",
".++++++++........++++++++.......",
"..+++++++++.......+++++++++.....",
".....++++++++........+++++++*...",
"...........+++.............+@+..",
".............++..............++.",
"..............+...............+.",
"...............+...............+",
"...............+...............+",
"+..............++..............+",
"++...@@.........++..............",
"++.....$........++..............",
"+++......=......+++.............",
"++++......-.....++++.....==.....",
"++++............++++....;.......",
"+++++...........+++++.>,........",
".++++++..........+'++$+.........",
".++++++++........++++++++.......",
"..+++++++++.......+++++++++.....",
".....++++++++........++++++++..."};
