/* XPM */
static char * explosion2_xpm[] = {
"32 32 215 2",
"  	c None",
". 	c #4878D8",
"+ 	c #4890D8",
"@ 	c #1C0000",
"# 	c #060103",
"$ 	c #000204",
"% 	c #000304",
"& 	c #200000",
"* 	c #1E0000",
"= 	c #3F0000",
"- 	c #710F00",
"; 	c #780B00",
"> 	c #9A2200",
", 	c #922100",
"' 	c #801000",
") 	c #5C0C00",
"! 	c #160000",
"~ 	c #3C0402",
"{ 	c #6C0300",
"] 	c #9B2200",
"^ 	c #A32000",
"/ 	c #800E00",
"( 	c #9D2300",
"_ 	c #942300",
": 	c #851400",
"< 	c #610D00",
"[ 	c #280100",
"} 	c #2A0803",
"| 	c #891100",
"1 	c #9A1D00",
"2 	c #BC3400",
"3 	c #DD4300",
"4 	c #EB5B00",
"5 	c #EA5400",
"6 	c #CA3800",
"7 	c #C03400",
"8 	c #BA3000",
"9 	c #831000",
"0 	c #850D00",
"a 	c #1D0603",
"b 	c #090302",
"c 	c #3C0000",
"d 	c #831200",
"e 	c #8D1C00",
"f 	c #B53200",
"g 	c #DD3C00",
"h 	c #F27200",
"i 	c #F19700",
"j 	c #F29100",
"k 	c #ED6700",
"l 	c #EB5900",
"m 	c #E03E00",
"n 	c #A21E00",
"o 	c #5A0000",
"p 	c #460701",
"q 	c #060404",
"r 	c #2E0000",
"s 	c #630800",
"t 	c #6E1000",
"u 	c #952400",
"v 	c #CA3500",
"w 	c #E03B00",
"x 	c #F17100",
"y 	c #F09700",
"z 	c #F09600",
"A 	c #F07E00",
"B 	c #F17300",
"C 	c #F15000",
"D 	c #B42100",
"E 	c #560000",
"F 	c #770D00",
"G 	c #090504",
"H 	c #510901",
"I 	c #981C00",
"J 	c #8D1E00",
"K 	c #D43500",
"L 	c #ED7200",
"M 	c #E35100",
"N 	c #E14600",
"O 	c #F15B00",
"P 	c #F06500",
"Q 	c #F17600",
"R 	c #F17500",
"S 	c #CF3D00",
"T 	c #761000",
"U 	c #070504",
"V 	c #480B01",
"W 	c #8F1F00",
"X 	c #BF3500",
"Y 	c #ED4C00",
"Z 	c #E34300",
"` 	c #EF4F00",
" .	c #EB4B00",
"..	c #E04100",
"+.	c #E14100",
"@.	c #DC4600",
"#.	c #881D00",
"$.	c #891400",
"%.	c #230100",
"&.	c #4A0C01",
"*.	c #841200",
"=.	c #861200",
"-.	c #A52500",
";.	c #BE2E00",
">.	c #EA4900",
",.	c #F05500",
"'.	c #E03F00",
").	c #DA3A00",
"!.	c #D03000",
"~.	c #EC4B00",
"{.	c #D53100",
"].	c #C63500",
"^.	c #400600",
"/.	c #5C1601",
"(.	c #CB3200",
"_.	c #D43200",
":.	c #AC3000",
"<.	c #C23600",
"[.	c #ED4900",
"}.	c #F18700",
"|.	c #F24F00",
"1.	c #F25200",
"2.	c #E44300",
"3.	c #DE3D00",
"4.	c #C93000",
"5.	c #DB4100",
"6.	c #F65600",
"7.	c #DE3900",
"8.	c #B32D00",
"9.	c #420000",
"0.	c #551201",
"a.	c #972200",
"b.	c #D53200",
"c.	c #BB3100",
"d.	c #AC2F00",
"e.	c #CC3F00",
"f.	c #E53F00",
"g.	c #E64400",
"h.	c #DD4000",
"i.	c #C43200",
"j.	c #C32F00",
"k.	c #CB3B00",
"l.	c #F75500",
"m.	c #D33B00",
"n.	c #961D00",
"o.	c #520000",
"p.	c #410401",
"q.	c #750E00",
"r.	c #AC2800",
"s.	c #A62600",
"t.	c #AC2E00",
"u.	c #B22500",
"v.	c #B12900",
"w.	c #AE3100",
"x.	c #AD3000",
"y.	c #C73100",
"z.	c #F04E00",
"A.	c #EF4B00",
"B.	c #B82F00",
"C.	c #A42A00",
"D.	c #3B0000",
"E.	c #430000",
"F.	c #4C0200",
"G.	c #841100",
"H.	c #881800",
"I.	c #9B2100",
"J.	c #A52400",
"K.	c #A12100",
"L.	c #9E1F00",
"M.	c #972000",
"N.	c #AC2B00",
"O.	c #B13100",
"P.	c #AF2700",
"Q.	c #9C2300",
"R.	c #8F1500",
"S.	c #230000",
"T.	c #080404",
"U.	c #050404",
"V.	c #4B0100",
"W.	c #6B0500",
"X.	c #921C00",
"Y.	c #8F1600",
"Z.	c #811000",
"`.	c #902000",
" +	c #9B2500",
".+	c #B43200",
"++	c #A52300",
"@+	c #932200",
"#+	c #9D1D00",
"$+	c #7E0F00",
"%+	c #8E1200",
"&+	c #130504",
"*+	c #040404",
"=+	c #030404",
"-+	c #010404",
";+	c #100102",
">+	c #150000",
",+	c #9B1E00",
"'+	c #AF3000",
")+	c #A32900",
"!+	c #8E1F00",
"~+	c #A62100",
"{+	c #290B03",
"]+	c #5C0000",
"^+	c #380000",
"/+	c #610900",
"(+	c #711401",
"_+	c #690C01",
":+	c #7A1C01",
"<+	c #580A00",
"[+	c #100000",
"}+	c #1F0000",
"|+	c #0D0001",
"1+	c #000205",
"2+	c #000104",
". . . . . . . . . . . + + + . . . . . . . . . . . . . + + + . . ",
". . . . . . . . . . . . . + + . . . . . . . . . . . . . . + + . ",
". . . . . . . . . . . . . . + . . . . . . . . . . . . . . . + . ",
". . . . . . . . . . . . . . . + . . . . . . . . . . . . . . . + ",
". . . . . . . . . . . . . . . + . . . . . . . . . . . . . . . + ",
"+ . . . . . . . . . . . . . @ @ # $ % % . . . . . . . . . . . + ",
"+ + . . . . . . . . . & * = - ; > , ' ) ! . . . . . . . . . . . ",
"+ + . . . . . . . . . ~ { ] ^ / ( _ : < [ . . . . . . . . . . . ",
"+ + + . . . . . . } | 1 2 3 4 5 6 7 8 9 0 a . . . . . . . . . . ",
"+ + + + . . . b c d e f g h i j k l m n o p q . . . . . . . . . ",
"+ + + + . . . r s t u v w x y z A B C D E F G . . . . . . . . . ",
"+ + + + + . . H I J K L M N O P Q R C S s T U . . . . . . . . . ",
". + + + + + + V W , X Y Z ` C  .....+.@.#.$.%.. . . . . . . . . ",
". + + + + + + &.*.=.-.;.>.,.'.).).+.!.~.{.].^.+ + . . . . . . . ",
". . + + + + + /.(._.:.<.[.}.|.1.2.3.4.5.6.7.8.9.+ + + . . . . . ",
". . . . . + + 0.a.b.c.d.e.f.g.h.i.j.:.k.l.m.n.o.+ + + + + . . . ",
". . . . . . . p.q.n r.s.t.u.u.v.w.x.y.z.A.B.C.D.. . . + + + . . ",
". . . . . . . E.F.G.H.I.J.K.L.M.N.O.c.K P.Q.R.S.. . . . . + + . ",
". . . . . . . T.U.V.W.X.Y.Z.`. +.+++@+#+$+%+&+U.. . . . . . + . ",
". . . . . . . . *+=+-+;+>+,+'+)+!+`.Z.K.~+{+=+. . . . . . . . + ",
". . . . . . . . . . . . . ]+^+/+(+_+:+<+[+}+. . . . . . . . . + ",
"+ . . . . . . . . . . . . . . |+1+% 2+. . . . . . . . . . . . + ",
"+ + . . . . . . . . . . . . . . + + . . . . . . . . . . . . . . ",
"+ + . . . . . . . . . . . . . . + + . . . . . . . . . . . . . . ",
"+ + + . . . . . . . . . . . . . + + + . . . . . . . . . . . . . ",
"+ + + + . . . . . . . . . . . . + + + + . . . . . . . . . . . . ",
"+ + + + . . . . . . . . . . . . + + + + . . . . . . . . . . . . ",
"+ + + + + . . . . . . . . . . . + + + + + . . . . . . . . . . . ",
". + + + + + + . . . . . . . . . . + + + + + + . . . . . . . . . ",
". + + + + + + + + . . . . . . . . + + + + + + + + . . . . . . . ",
". . + + + + + + + + + . . . . . . . + + + + + + + + + . . . . . ",
". . . . . + + + + + + + + . . . . . . . . + + + + + + + + . . . "};
