/* XPM */
static char * explosion5_xpm[] = {
"32 32 510 2",
"  	c None",
". 	c #4878D8",
"+ 	c #4890D8",
"@ 	c #511403",
"# 	c #6D1A00",
"$ 	c #400C00",
"% 	c #060000",
"& 	c #020304",
"* 	c #310F03",
"= 	c #7D2301",
"- 	c #B72E00",
"; 	c #EC4100",
"> 	c #D94700",
", 	c #C13E00",
"' 	c #0B0000",
") 	c #0C0000",
"! 	c #120303",
"~ 	c #942501",
"{ 	c #7D2401",
"] 	c #000003",
"^ 	c #020204",
"/ 	c #040404",
"( 	c #030404",
"_ 	c #0F0704",
": 	c #B93200",
"< 	c #D03A00",
"[ 	c #EF4D00",
"} 	c #F08E00",
"| 	c #F05D00",
"1 	c #F04F00",
"2 	c #EE4F00",
"3 	c #EC4D00",
"4 	c #E04000",
"5 	c #D53300",
"6 	c #AF3000",
"7 	c #B43100",
"8 	c #411403",
"9 	c #010304",
"0 	c #0B0604",
"a 	c #B53200",
"b 	c #E74A00",
"c 	c #EC5600",
"d 	c #F38600",
"e 	c #F3AE00",
"f 	c #F5B800",
"g 	c #F18900",
"h 	c #F05200",
"i 	c #F05600",
"j 	c #F05E00",
"k 	c #F05800",
"l 	c #F15700",
"m 	c #F35A00",
"n 	c #E74300",
"o 	c #E74500",
"p 	c #E73E00",
"q 	c #E63400",
"r 	c #190A03",
"s 	c #000104",
"t 	c #0D0704",
"u 	c #A52900",
"v 	c #F16C00",
"w 	c #F29700",
"x 	c #F09400",
"y 	c #F09500",
"z 	c #F5BA00",
"A 	c #F7C500",
"B 	c #F3A100",
"C 	c #F07300",
"D 	c #F39D00",
"E 	c #F3AB00",
"F 	c #F19100",
"G 	c #F08400",
"H 	c #F08600",
"I 	c #F16200",
"J 	c #F15200",
"K 	c #F36500",
"L 	c #E44100",
"M 	c #BB2B00",
"N 	c #5B1B02",
"O 	c #210C03",
"P 	c #952000",
"Q 	c #E44F00",
"R 	c #F08D00",
"S 	c #F09000",
"T 	c #F08F00",
"U 	c #F09200",
"V 	c #F6BC00",
"W 	c #F9D00A",
"X 	c #F9DE34",
"Y 	c #FAE561",
"Z 	c #FAE547",
"` 	c #F8D120",
" .	c #F29E00",
"..	c #F07600",
"+.	c #F29D00",
"@.	c #F2A300",
"#.	c #F06B00",
"$.	c #F07400",
"%.	c #F18A00",
"&.	c #EA5F00",
"*.	c #DF3500",
"=.	c #2C0D03",
"-.	c #C73500",
";.	c #ED5C00",
">.	c #F09300",
",.	c #F4AF00",
"'.	c #F6C100",
").	c #F6C204",
"!.	c #F9DD25",
"~.	c #FCF389",
"{.	c #FDF9AE",
"].	c #FAE233",
"^.	c #FADE14",
"/.	c #F3A700",
"(.	c #F6C212",
"_.	c #FADC13",
":.	c #F6C301",
"<.	c #F19800",
"[.	c #F19700",
"}.	c #F09100",
"|.	c #F67400",
"1.	c #3F1303",
"2.	c #CB3300",
"3.	c #F47600",
"4.	c #F8C700",
"5.	c #F3A800",
"6.	c #F8CF18",
"7.	c #FEFAC0",
"8.	c #FDF59F",
"9.	c #F8D207",
"0.	c #F7C706",
"a.	c #F6C228",
"b.	c #FDFBAA",
"c.	c #FBE96B",
"d.	c #F9D201",
"e.	c #F49700",
"f.	c #DA4500",
"g.	c #120001",
"h.	c #020404",
"i.	c #E73800",
"j.	c #EC6F00",
"k.	c #F19600",
"l.	c #F6BA00",
"m.	c #F3A600",
"n.	c #F6C00C",
"o.	c #FDF595",
"p.	c #F7C81A",
"q.	c #FDFCB6",
"r.	c #FFFFF0",
"s.	c #FDF599",
"t.	c #F8D01B",
"u.	c #F19400",
"v.	c #F4A800",
"w.	c #E34E00",
"x.	c #C13400",
"y.	c #000005",
"z.	c #BE3A00",
"A.	c #F59A00",
"B.	c #F2A000",
"C.	c #F2A200",
"D.	c #F3A900",
"E.	c #F19900",
"F.	c #F4AC03",
"G.	c #F5B602",
"H.	c #F19500",
"I.	c #F2A100",
"J.	c #F4B000",
"K.	c #F6C003",
"L.	c #F9DD26",
"M.	c #FDF8AB",
"N.	c #FEFAB1",
"O.	c #F6BB08",
"P.	c #F35500",
"Q.	c #070504",
"R.	c #140603",
"S.	c #080404",
"T.	c #4B0200",
"U.	c #C23500",
"V.	c #F27000",
"W.	c #F4AA00",
"X.	c #F6BA06",
"Y.	c #F4AC00",
"Z.	c #F4AF02",
"`.	c #F5B804",
" +	c #F7CB1B",
".+	c #FADB10",
"++	c #F8CC09",
"@+	c #F5B100",
"#+	c #F4AB00",
"$+	c #F8CE0A",
"%+	c #FBEA5F",
"&+	c #F5B707",
"*+	c #350A02",
"=+	c #470300",
"-+	c #7A1100",
";+	c #C62E00",
">+	c #EF6400",
",+	c #F5B500",
"'+	c #F6C208",
")+	c #FCEE78",
"!+	c #F9DC60",
"~+	c #F9D83C",
"{+	c #F9D92B",
"]+	c #F3A601",
"^+	c #F5B200",
"/+	c #F9D30A",
"(+	c #F9DE1F",
"_+	c #FDFAA9",
":+	c #FBEE67",
"<+	c #FAE02B",
"[+	c #F9D82B",
"}+	c #F7C90E",
"|+	c #F25500",
"1+	c #0F0604",
"2+	c #310001",
"3+	c #7F1000",
"4+	c #EA4500",
"5+	c #F16E00",
"6+	c #F9D920",
"7+	c #FBEA5B",
"8+	c #FDFCBB",
"9+	c #FDFAB2",
"0+	c #FCF592",
"a+	c #F8CB0A",
"b+	c #F6BD00",
"c+	c #F9D107",
"d+	c #FBE952",
"e+	c #FEFED5",
"f+	c #FCEE67",
"g+	c #FAE235",
"h+	c #FAE541",
"i+	c #F9DA1E",
"j+	c #F9D413",
"k+	c #FF6100",
"l+	c #2D0101",
"m+	c #DB3700",
"n+	c #F17700",
"o+	c #F5BB00",
"p+	c #F9D403",
"q+	c #FBEC66",
"r+	c #FBE854",
"s+	c #FCF071",
"t+	c #FEFEDE",
"u+	c #FDF8AA",
"v+	c #FAD913",
"w+	c #F8C800",
"x+	c #F6BF00",
"y+	c #F9D922",
"z+	c #FBE74D",
"A+	c #FBF183",
"B+	c #F9DC22",
"C+	c #FAE33A",
"D+	c #F9D100",
"E+	c #F4B100",
"F+	c #F3AA00",
"G+	c #F46300",
"H+	c #000004",
"I+	c #591101",
"J+	c #8A1400",
"K+	c #AA2A00",
"L+	c #E06000",
"M+	c #F9C900",
"N+	c #F8CB05",
"O+	c #FCEF72",
"P+	c #FDF89B",
"Q+	c #FBEB59",
"R+	c #FFFFEC",
"S+	c #FCF084",
"T+	c #FAE330",
"U+	c #F8D10A",
"V+	c #F9D302",
"W+	c #FAE029",
"X+	c #F7C700",
"Y+	c #F2A400",
"Z+	c #F5B300",
"`+	c #F58C00",
" @	c #B82F00",
".@	c #290B02",
"+@	c #8B2101",
"@@	c #A82900",
"#@	c #9E2800",
"$@	c #AF2F00",
"%@	c #EFA700",
"&@	c #F9D400",
"*@	c #F9D812",
"=@	c #F9D931",
"-@	c #FADB1C",
";@	c #FCF587",
">@	c #FCEF71",
",@	c #FAD808",
"'@	c #F6BE0A",
")@	c #F5B700",
"!@	c #F19C00",
"~@	c #F4AD00",
"{@	c #DA3900",
"]@	c #822501",
"^@	c #962201",
"/@	c #ED4F00",
"(@	c #C12900",
"_@	c #8D1900",
":@	c #E46500",
"<@	c #F9D200",
"[@	c #F9D000",
"}@	c #F8CA00",
"|@	c #F8CE08",
"1@	c #F9D005",
"2@	c #F07700",
"3@	c #F5B400",
"4@	c #F5B600",
"5@	c #F2A500",
"6@	c #F19300",
"7@	c #F19E00",
"8@	c #F09900",
"9@	c #EF4F00",
"0@	c #7D2201",
"a@	c #942201",
"b@	c #EE4E00",
"c@	c #EB4A00",
"d@	c #C53400",
"e@	c #D93600",
"f@	c #F29C00",
"g@	c #F9D300",
"h@	c #FADE2D",
"i@	c #FBE64B",
"j@	c #F9D20F",
"k@	c #F8CC00",
"l@	c #F7C405",
"m@	c #F3AC06",
"n@	c #F38100",
"o@	c #D63800",
"p@	c #EF5200",
"q@	c #CD2D00",
"r@	c #410E02",
"s@	c #3A1203",
"t@	c #C73700",
"u@	c #E14100",
"v@	c #E95900",
"w@	c #EA4800",
"x@	c #F9CF00",
"y@	c #FBE74E",
"z@	c #FDFEC9",
"A@	c #FDFABB",
"B@	c #F9DA18",
"C@	c #F9DC20",
"D@	c #FBE747",
"E@	c #F29F00",
"F@	c #F6BB00",
"G@	c #EB5D00",
"H@	c #9D1E00",
"I@	c #E44800",
"J@	c #F18C00",
"K@	c #F07800",
"L@	c #F15100",
"M@	c #D53A00",
"N@	c #390D02",
"O@	c #A02700",
"P@	c #EE4B00",
"Q@	c #F7C300",
"R@	c #F9D91A",
"S@	c #FBE957",
"T@	c #FCF075",
"U@	c #FAE33E",
"V@	c #FBEB57",
"W@	c #FCF074",
"X@	c #F9DD29",
"Y@	c #F8C801",
"Z@	c #F19B00",
"`@	c #F19A00",
" #	c #F28F00",
".#	c #DE4900",
"+#	c #A92A00",
"@#	c #F15800",
"##	c #F27E00",
"$#	c #A52000",
"%#	c #350902",
"&#	c #000304",
"*#	c #AB2C00",
"=#	c #730D00",
"-#	c #951800",
";#	c #F37400",
">#	c #F7C400",
",#	c #F9DA1D",
"'#	c #FAE544",
")#	c #FBE84C",
"!#	c #F9DC23",
"~#	c #FAE748",
"{#	c #FAE74A",
"]#	c #F3A300",
"^#	c #EC6100",
"/#	c #D43400",
"(#	c #E03F00",
"_#	c #F15500",
":#	c #D93E00",
"<#	c #9E1F00",
"[#	c #5A0B01",
"}#	c #1D0803",
"|#	c #601101",
"1#	c #5A1201",
"2#	c #E43B00",
"3#	c #EB6700",
"4#	c #F5AB00",
"5#	c #F9D62A",
"6#	c #FBE545",
"7#	c #F9D303",
"8#	c #FADD20",
"9#	c #F9DD23",
"0#	c #F8CA01",
"a#	c #F8C900",
"b#	c #F28900",
"c#	c #F36000",
"d#	c #CC3D00",
"e#	c #972000",
"f#	c #A72700",
"g#	c #651801",
"h#	c #000204",
"i#	c #7B2100",
"j#	c #D82D00",
"k#	c #EB7D00",
"l#	c #F7C712",
"m#	c #F7C502",
"n#	c #FADC16",
"o#	c #FADC19",
"p#	c #F8CD06",
"q#	c #F9CE00",
"r#	c #F19D00",
"s#	c #EB5A00",
"t#	c #780E00",
"u#	c #750800",
"v#	c #470902",
"w#	c #140803",
"x#	c #E93C00",
"y#	c #E64500",
"z#	c #F17B00",
"A#	c #F5BA02",
"B#	c #F17400",
"C#	c #F16B00",
"D#	c #E84800",
"E#	c #6C0E00",
"F#	c #430A02",
"G#	c #CC3800",
"H#	c #DB3E00",
"I#	c #D83900",
"J#	c #DC3D00",
"K#	c #F06A00",
"L#	c #F18F00",
"M#	c #F25800",
"N#	c #DA3800",
"O#	c #9E1900",
"P#	c #CA2B00",
"Q#	c #D53600",
"R#	c #ED6800",
"S#	c #EE8A00",
"T#	c #EE6000",
"U#	c #B03000",
"V#	c #640300",
"W#	c #4F1402",
"X#	c #0A0504",
"Y#	c #902601",
"Z#	c #C73600",
"`#	c #C23600",
" $	c #C83800",
".$	c #ED4A00",
"+$	c #F04900",
"@$	c #F07500",
"#$	c #F06F00",
"$$	c #EF5300",
"%$	c #B62700",
"&$	c #A62700",
"*$	c #BB2E00",
"=$	c #AC2E00",
"-$	c #BE2B00",
";$	c #C63000",
">$	c #B22C00",
",$	c #761000",
"'$	c #440E02",
")$	c #090504",
"!$	c #B22B01",
"~$	c #E54100",
"{$	c #F14F00",
"]$	c #F25100",
"^$	c #EB4700",
"/$	c #BA3200",
"($	c #DD4100",
"_$	c #F04E00",
":$	c #DA4000",
"<$	c #D63E00",
"[$	c #D33900",
"}$	c #D43100",
"|$	c #C03400",
"1$	c #A41E00",
"2$	c #531402",
"3$	c #A92E00",
"4$	c #D43200",
"5$	c #DE3F00",
"6$	c #DB3A00",
"7$	c #BA3000",
"8$	c #9F2000",
"9$	c #E14200",
"0$	c #D23300",
"a$	c #CD3000",
"b$	c #B23100",
"c$	c #060404",
"d$	c #0E0704",
"e$	c #8E2701",
"f$	c #130303",
"g$	c #6F1000",
"h$	c #751300",
"i$	c #8D1E00",
"j$	c #691601",
"k$	c #610D01",
". . . . . . . . . . . + + + . . . . . . . . . . . . . + + + . . ",
". . . . . . . . . . @ # $ % + . . . . . . . . . . . . . . + + . ",
". . . . . . . & * = - ; > , ' ' ) ) ! ~ { = ] ^ . . . . . . + . ",
". . . . . / ( _ : < [ } | 1 2 2 2 2 3 4 5 6 7 8 9 / . . . . . + ",
". . . . . 0 a b c d e f g h i j k i i l m n o p q r s . . . . + ",
"+ . . . t u v w x y z A B C D E F G H H H I J K L M N O . . . + ",
"+ + . ( P Q R S T U V W X Y Z `  .S ..+.@.#.$.} %.&.*.=.. . . . ",
"+ + . ( -.;.R S >.,.'.).!.~.{.].^./...(._.:.<.[.}.>.|.1.( . . . ",
"+ + + ( 2.3.>.S @.'.4.5.6.7.8.9.0. .U a.b.c.d./.S <.e.f.8 g.. . ",
"+ + + h.i.j.}.k. .l.m.<.n.o.~.,.>.T U p.q.r.s.t.S u.v.w.x.y.. . ",
"+ + / h.z.A.B.C.D.z }.T E.F.G.x H.<.I.J.K.L.M.N.O.S B.P.Q./ . . ",
"+ R.S.T.U.V.W.@.,.X. .B.B.y Y.Z.`. +.+++@+#+$+%+&+I.m.P.h./ . . ",
". *+=+-+;+>+#+,+'+)+!+~+{+]+^+/+(+_+:+<+[+}+l.Y.E.}.B.|+h.. . . ",
". 1+2+3+4+5+,.6+7+{.8+9+0+a+b+c+d+e+f+g+h+i+j+,.}.}.<.k+s . . . ",
". . l+3+m+n+o+p+q+r+s+t+u+v+w+x+y+z+A+B+C+i+D+E+}.H.F+G+7 H+. . ",
". . I+J+K+L+M+N+O+P+Q+R+S+T+#+E.#+F+U+w+V+W+X+/.S Y+Z+`+ @.@. . ",
". . +@@@#@$@%@&@*@=@-@;@>@,@/.S H./.z F+'@)@J.!@S !@~@+.{@]@. . ",
". . ^@/@(@_@:@b+<@[@}@|@L.1@u.2@T Y.E.<.J.3@4@5@6@7@W.8@9@0@s . ",
". . a@b@c@d@e@f@A g@h@i@j@k@l@m@I.@.<.y }@g+X+n@o@p@S S 1 q@r@. ",
". . s@t@u@v@w@>.E x@y@z@A@B@C@D@X+@+E@}.E+F@F+G@H@I@J@K@L@M@N@+ ",
". . H+: O@$@P@7@m.Q@R@S@T@U@V@W@X@Y@Z@}.`@f@ #.#+#@#8@##o $#%#+ ",
"+ . / &#*#=#-#;#!@>#,#'#)#!#}@~#{#p+V ]#}.T ^#/#(#_#C :#<#[#&#+ ",
"+ + . / }#|#1#2#3#4#5#6#C+7#>#8#9#0#a#Y.U k.k.b#c#d#e#f#g#h#. . ",
"+ + . . . . s i#j#k#5.F@l#m#n#o#p#q#F@r#U  .U H.s#t#u#v#&#. . . ",
"+ + + . . . . w#x#y#u.z#@.@.A#C.<.B.e.B#C#>.S <.D#E#F#( . . . . ",
"+ + + + . . . _ G#H#I#J#K#L#T H M#N#O#P#Q#R#S#T#U#V#W#. . . . . ",
"+ + + + . . . X#Y#Z#`# $.$+$@$#$$$%$&$*$=$-$;$>$#@,$'$. . . . . ",
"+ + + + + . . . )$!$~$L@L@L@{$]$^$/$($_$:$<$[$}$|$1$2$. . . . . ",
". + + + + + + . . s 3$4$u@5$5$6$7$8$5 9$0$a$b$8 & ( ( . . . . . ",
". + + + + + + + + c$H+d$e$)$H+f$g$h$i$j$k$s H+&#+ . . . . . . . ",
". . + + + + + + + + + . . . . . . . + + + + + + + + + . . . . . ",
". . . . . + + + + + + + + . . . . . . . . + + + + + + + + . . . "};
