/* XPM */
static char * explosion8_xpm[] = {
"32 32 457 2",
"  	c None",
". 	c #4878D8",
"+ 	c #4890D8",
"@ 	c #690D00",
"# 	c #4B0900",
"$ 	c #791600",
"% 	c #7E1200",
"& 	c #630100",
"* 	c #861500",
"= 	c #972400",
"- 	c #901E00",
"; 	c #731200",
"> 	c #530000",
", 	c #550000",
"' 	c #630400",
") 	c #780E00",
"! 	c #610000",
"~ 	c #8A1A00",
"{ 	c #801000",
"] 	c #6F0F00",
"^ 	c #710F00",
"/ 	c #730900",
"( 	c #690A00",
"_ 	c #7E1000",
": 	c #610100",
"< 	c #620100",
"[ 	c #630200",
"} 	c #640300",
"| 	c #6F1000",
"1 	c #701000",
"2 	c #761300",
"3 	c #962300",
"4 	c #952200",
"5 	c #8A1600",
"6 	c #781200",
"7 	c #851200",
"8 	c #711100",
"9 	c #721200",
"0 	c #801100",
"a 	c #000304",
"b 	c #781100",
"c 	c #901700",
"d 	c #A42100",
"e 	c #A32900",
"f 	c #9B2400",
"g 	c #811600",
"h 	c #6E0F00",
"i 	c #8D1C00",
"j 	c #921E00",
"k 	c #D34000",
"l 	c #DC5500",
"m 	c #D64000",
"n 	c #EC4500",
"o 	c #E23C00",
"p 	c #DC4400",
"q 	c #AE2900",
"r 	c #A42600",
"s 	c #9E2300",
"t 	c #000203",
"u 	c #300002",
"v 	c #941A00",
"w 	c #C82E00",
"x 	c #DC3800",
"y 	c #CC3000",
"z 	c #B02C00",
"A 	c #A32100",
"B 	c #7F1700",
"C 	c #771000",
"D 	c #902200",
"E 	c #841300",
"F 	c #6E0600",
"G 	c #D64F00",
"H 	c #F69A00",
"I 	c #F38A00",
"J 	c #F17A00",
"K 	c #F16400",
"L 	c #F28B00",
"M 	c #EC6600",
"N 	c #C93600",
"O 	c #A02500",
"P 	c #7C1000",
"Q 	c #6E1000",
"R 	c #821A00",
"S 	c #CD2F00",
"T 	c #E03F00",
"U 	c #E04000",
"V 	c #D83600",
"W 	c #B53100",
"X 	c #9D1F00",
"Y 	c #AE2C00",
"Z 	c #CC2D00",
"` 	c #B12600",
" .	c #9B1E00",
"..	c #8D1E00",
"+.	c #7D0E00",
"@.	c #A62A00",
"#.	c #F17200",
"$.	c #F3A600",
"%.	c #F4AC00",
"&.	c #F08C00",
"*.	c #F07600",
"=.	c #F28A00",
"-.	c #E24800",
";.	c #711000",
">.	c #841100",
",.	c #861600",
"'.	c #8F2100",
").	c #CC2E00",
"!.	c #EE4E00",
"~.	c #E14100",
"{.	c #D73700",
"].	c #D23100",
"^.	c #E44700",
"/.	c #F47500",
"(.	c #ED4F00",
"_.	c #E44500",
":.	c #DA3700",
"<.	c #A62200",
"[.	c #912100",
"}.	c #A11F00",
"|.	c #9F2200",
"1.	c #D73A00",
"2.	c #F18F00",
"3.	c #F2A300",
"4.	c #F08700",
"5.	c #F35B00",
"6.	c #CD4B00",
"7.	c #8A1500",
"8.	c #741200",
"9.	c #270000",
"0.	c #400400",
"a.	c #6F0B00",
"b.	c #A22800",
"c.	c #C33100",
"d.	c #D12F00",
"e.	c #DD3D00",
"f.	c #E54500",
"g.	c #E03E00",
"h.	c #F15600",
"i.	c #F19500",
"j.	c #F19900",
"k.	c #F19200",
"l.	c #F38200",
"m.	c #E44C00",
"n.	c #AD2C00",
"o.	c #8F1F00",
"p.	c #961A00",
"q.	c #8D1900",
"r.	c #901A00",
"s.	c #D46500",
"t.	c #F49400",
"u.	c #F3AB00",
"v.	c #F27B00",
"w.	c #DB3900",
"x.	c #992300",
"y.	c #982100",
"z.	c #4E0800",
"A.	c #2D0000",
"B.	c #630000",
"C.	c #831400",
"D.	c #AE2F00",
"E.	c #BC3000",
"F.	c #D43300",
"G.	c #E94700",
"H.	c #EC5700",
"I.	c #F06E00",
"J.	c #F08F00",
"K.	c #F5B700",
"L.	c #F46300",
"M.	c #C62C00",
"N.	c #8C1F00",
"O.	c #720E00",
"P.	c #730E00",
"Q.	c #7C1300",
"R.	c #CB4800",
"S.	c #F3A100",
"T.	c #F48900",
"U.	c #C13C00",
"V.	c #981E00",
"W.	c #A82A00",
"X.	c #AA2B00",
"Y.	c #691300",
"Z.	c #2C0000",
"`.	c #330300",
" +	c #6D0900",
".+	c #5D0000",
"++	c #AF3000",
"@+	c #E44100",
"#+	c #F15C00",
"$+	c #F07100",
"%+	c #F06F00",
"&+	c #F4AF00",
"*+	c #F4AA00",
"=+	c #F09900",
"-+	c #F56200",
";+	c #B83200",
">+	c #8E1F00",
",+	c #7F1000",
"'+	c #851300",
")+	c #FB5C00",
"!+	c #F55800",
"~+	c #C93D00",
"{+	c #AA2E00",
"]+	c #CD3000",
"^+	c #CE3000",
"/+	c #C63100",
"(+	c #5E1200",
"_+	c #1C0703",
":+	c #6D0800",
"<+	c #780D00",
"[+	c #D63400",
"}+	c #F07300",
"|+	c #EE4D00",
"1+	c #EF8800",
"2+	c #F08E00",
"3+	c #F19600",
"4+	c #F19300",
"5+	c #E65200",
"6+	c #B23000",
"7+	c #6D0F00",
"8+	c #901F00",
"9+	c #A32000",
"0+	c #CF2F00",
"a+	c #AB2300",
"b+	c #C62D00",
"c+	c #D03000",
"d+	c #AE2800",
"e+	c #310000",
"f+	c #5F0500",
"g+	c #4B0000",
"h+	c #8C2000",
"i+	c #F45400",
"j+	c #F07800",
"k+	c #F07C00",
"l+	c #ED5600",
"m+	c #C73000",
"n+	c #D93400",
"o+	c #EB6100",
"p+	c #F18000",
"q+	c #EC7000",
"r+	c #C73300",
"s+	c #8F2000",
"t+	c #951E00",
"u+	c #C73100",
"v+	c #BF3000",
"w+	c #942100",
"x+	c #5B0300",
"y+	c #831800",
"z+	c #6D1700",
"A+	c #BC2C00",
"B+	c #E74700",
"C+	c #F26000",
"D+	c #F56800",
"E+	c #CA3900",
"F+	c #AC2D00",
"G+	c #CD2E00",
"H+	c #EC4D00",
"I+	c #F16300",
"J+	c #E84B00",
"K+	c #A02000",
"L+	c #992100",
"M+	c #B32A00",
"N+	c #B22A00",
"O+	c #AA2A00",
"P+	c #9C2700",
"Q+	c #971D00",
"R+	c #A12300",
"S+	c #751200",
"T+	c #701100",
"U+	c #7B1000",
"V+	c #AE2E00",
"W+	c #D33200",
"X+	c #E54300",
"Y+	c #E13D00",
"Z+	c #A82500",
"`+	c #A72D00",
" @	c #DE3F00",
".@	c #F25200",
"+@	c #F15400",
"@@	c #D33000",
"#@	c #AD2F00",
"$@	c #CF3000",
"%@	c #DE4000",
"&@	c #D63500",
"*@	c #B73100",
"=@	c #731100",
"-@	c #420000",
";@	c #450200",
">@	c #640100",
",@	c #5F0300",
"'@	c #750A00",
")@	c #AB2E00",
"!@	c #AD2E00",
"~@	c #A72800",
"{@	c #931F00",
"]@	c #9A2000",
"^@	c #CE2F00",
"/@	c #DE3E00",
"(@	c #A21F00",
"_@	c #AC2C00",
":@	c #CE3100",
"<@	c #D53300",
"[@	c #F25300",
"}@	c #F25700",
"|@	c #E84900",
"1@	c #E64200",
"2@	c #962200",
"3@	c #210000",
"4@	c #3C0000",
"5@	c #540A00",
"6@	c #4C0601",
"7@	c #5E0000",
"8@	c #720900",
"9@	c #921B00",
"0@	c #972000",
"a@	c #921F00",
"b@	c #A72900",
"c@	c #C63000",
"d@	c #DE3B00",
"e@	c #D13500",
"f@	c #941B00",
"g@	c #C22C00",
"h@	c #E74300",
"i@	c #E24100",
"j@	c #ED4D00",
"k@	c #DB4400",
"l@	c #F27C00",
"m@	c #F45B00",
"n@	c #DA3600",
"o@	c #991B00",
"p@	c #600000",
"q@	c #5E0900",
"r@	c #6C0C00",
"s@	c #5C0000",
"t@	c #992200",
"u@	c #9D2800",
"v@	c #A92700",
"w@	c #B12B00",
"x@	c #8C1B00",
"y@	c #861A00",
"z@	c #991E00",
"A@	c #A32A00",
"B@	c #D93C00",
"C@	c #EB4800",
"D@	c #E84800",
"E@	c #D23200",
"F@	c #F35000",
"G@	c #ED4B00",
"H@	c #C83700",
"I@	c #771100",
"J@	c #7D0F00",
"K@	c #5D0A00",
"L@	c #560100",
"M@	c #660300",
"N@	c #841400",
"O@	c #961E00",
"P@	c #A62B00",
"Q@	c #C82D00",
"R@	c #DE4200",
"S@	c #F17000",
"T@	c #F05E00",
"U@	c #EF4A00",
"V@	c #EF6A00",
"W@	c #EC4C00",
"X@	c #E34000",
"Y@	c #AF2600",
"Z@	c #620200",
"`@	c #6D0B00",
" #	c #4F0100",
".#	c #3E0000",
"+#	c #902100",
"@#	c #951F00",
"##	c #C32B00",
"$#	c #DF3E00",
"%#	c #E24400",
"&#	c #F17E00",
"*#	c #F09500",
"=#	c #F07B00",
"-#	c #F07200",
";#	c #F05200",
">#	c #EF4F00",
",#	c #EA4900",
"'#	c #B42A00",
")#	c #821100",
"!#	c #640200",
"~#	c #750F00",
"{#	c #922200",
"]#	c #912000",
"^#	c #9A1F00",
"/#	c #A92C00",
"(#	c #C12E00",
"_#	c #EF5000",
":#	c #EC7C00",
"<#	c #F17500",
"[#	c #F07A00",
"}#	c #F06700",
"|#	c #F16800",
"1#	c #D73500",
"2#	c #B22800",
"3#	c #861400",
"4#	c #650100",
"5#	c #6B0B00",
"6#	c #610200",
"7#	c #800F00",
"8#	c #922100",
"9#	c #9C1F00",
"0#	c #A62500",
"a#	c #AC3000",
"b#	c #C03500",
"c#	c #DC3500",
"d#	c #EC4E00",
"e#	c #F27A00",
"f#	c #F75900",
"g#	c #DF3A00",
"h#	c #AA2400",
"i#	c #942400",
"j#	c #680500",
"k#	c #A62400",
"l#	c #AD3000",
"m#	c #B83000",
"n#	c #DE3C00",
"o#	c #AD2600",
"p#	c #952100",
"q#	c #902000",
"r#	c #932200",
"s#	c #780F00",
"t#	c #4C0000",
"u#	c #390000",
"v#	c #A42500",
"w#	c #D23000",
"x#	c #AE3000",
"y#	c #A92B00",
"z#	c #9B1C00",
"A#	c #8D1F00",
"B#	c #7D1200",
"C#	c #3B0000",
"D#	c #811000",
"E#	c #BA2F00",
"F#	c #CD3200",
"G#	c #B03100",
"H#	c #A22900",
"I#	c #811400",
"J#	c #700700",
"K#	c #710800",
"L#	c #851B00",
"M#	c #630900",
"N#	c #280000",
"O#	c #621300",
"P#	c #5B0E00",
"Q#	c #A22400",
"R#	c #7A0D00",
"S#	c #730800",
"T#	c #6E0E00",
"U#	c #680300",
"V#	c #560300",
"W#	c #380000",
"X#	c #8E2000",
". . . . . . . . . . . + + + . . . . . . . . . . . . . + + + . . ",
". . . . . . . . . . . . . + + . . @ # $ % . . . . . . . . + + . ",
". . . . . . . . . . . . . . + . & * = - ; > , ' ) . . . . . + . ",
". . . . . . . . . . . . . . . + ! * ~ { { ] ^ / ( _ . . . . . + ",
". . . . . : < [ } [ | . . . . 1 2 3 4 3 5 6 7 8 9 0 1 . . . . + ",
"+ . . . a b c d e f g h . . i 8 j k l m n o p q r s 1 1 . . . + ",
"+ + . t u v w x y z A B C D E ' F G H I J K L M N O P Q . . . . ",
"+ + . @ R S T U V W X Y Z `  ...+.@.#.$.%.&.*.=.-.g ;.>.. . . . ",
"+ + ,.'.).U !.~.{.].^./.(._.:.<.[.}.|.1.2.3.4.5.6.7.8.9.. . . . ",
"+ 0.a.b.c.d.e.f.g.h.i.j.k.l.m.n.o.p.q.r.s.t.u.v.w.x.y.z.A.. . . ",
"+ A.B.C.D.E.F.G.H.I.J.%.K.3.L.M.N.O.+ P.Q.R.S.T.U.V.W.X.Y.Z.. . ",
"+ `. +.+..++@+#+$+%+J.&+*+=+-+;+>++ + + ,+'+)+!+~+{+]+^+/+(+. . ",
". _+:+.+<+[+5.}+$+|+1+2+3+4+5+6+o.+ + + 7+8+9+0+a+b+c+c+].d+. . ",
". e+f+g+h+i+j+k+l+m+n+o+p+q+r+}.s++ + + + 7.s+t+t+b./+u+v+w+. . ",
". x+y+z+A+B+C+D+E+F+G+H+I+J+. . . . + + + K+L+M+N+O+P+Q+R+S+. . ",
". . T+U+V+W+X+Y+Z+`+ @.@+@. . . . . . . @@#@$@%@&@*@=@-@;@>@. . ",
". . . ,@'@)@!@~@{@]@^@U /@+ . . . . (@_@:@<@[@}@|@1@2@3@4@5@. . ",
". . . 6@7@8@9@0@a@b@c@d@e@+ + . . f@g@h@i@j@k@l@m@n@o@p@q@+ + . ",
". . . . r@s@8 g t+t@u@v@w@x@y@z@A@B@C@D@g.E@e.F@G@H@I@! . . + . ",
". . . . . J@1 K@L@M@[ N@[.O@P@Q@R@S@T@U@V@j@W@B+X@Y@Z@p@. . . + ",
". . . . . . . `@ #.#1 E +#@###$#%#&#*#=#-#;#>#,#'#)#7@. . . . + ",
"+ . . . . . . . ;.!#~#{#]#^#/#(#_#:#<#[#}#|#1#2#3#4#.#. . . . + ",
"+ + . . . . . . 5#6#7#8#9#0##@a#b#c#d#e#f#g#h#i#]#j#. . . . . . ",
"+ + . . . . . . < p@7#8#k#l#c@]+]+m#d@n#o#p#q#r#s#p@. . . . . . ",
"+ + + . . . . . t#u#Q a@v#c.w#$@x#y#z#- A#q#]#B#C#. . . . . . . ",
"+ + + + . . . . . .#( D#]#E#F#G#H#I#J#K#<+L#~ M#N#> . . . . . . ",
"+ + + + . . . . . . . . . O#P#Q#V.R#K#S#T#7+U#V#W#. . . . . . . ",
"+ + + + + . . . . . . . . . . . + + o.o.X#_ +.. . . . . . . . . ",
". + + + + + + . . . . . . . . . . + + + + + + . . . . . . . . . ",
". + + + + + + + + . . . . . . . . + + + + + + + + . . . . . . . ",
". . + + + + + + + + + . . . . . . . + + + + + + + + + . . . . . ",
". . . . . + + + + + + + + . . . . . . . . + + + + + + + + . . . "};
