/* XPM */
static char * explosion1_xpm[] = {
"32 32 83 1",
" 	c None",
".	c #4878D8",
"+	c #4890D8",
"@	c #200100",
"#	c #290A03",
"$	c #440600",
"%	c #420600",
"&	c #320902",
"*	c #210502",
"=	c #170000",
"-	c #1C0000",
";	c #641402",
">	c #891B00",
",	c #841900",
"'	c #8A1B00",
")	c #731701",
"!	c #2C0401",
"~	c #620D00",
"{	c #710D00",
"]	c #8F1F00",
"^	c #B53100",
"/	c #CB3900",
"(	c #A32700",
"_	c #961F00",
":	c #741300",
"<	c #2B0100",
"[	c #6F1000",
"}	c #A12100",
"|	c #B63300",
"1	c #E54200",
"2	c #D13B00",
"3	c #AE3000",
"4	c #9D2700",
"5	c #952000",
"6	c #481805",
"7	c #210201",
"8	c #1D0100",
"9	c #701000",
"0	c #A52200",
"a	c #D03100",
"b	c #AD2F00",
"c	c #C43300",
"d	c #C53400",
"e	c #9C2700",
"f	c #7E1400",
"g	c #290200",
"h	c #1D0000",
"i	c #3F1405",
"j	c #851400",
"k	c #B43200",
"l	c #C32C00",
"m	c #BE2C00",
"n	c #B93100",
"o	c #E55500",
"p	c #C64900",
"q	c #992300",
"r	c #7E1500",
"s	c #4D0800",
"t	c #881B00",
"u	c #AC2A00",
"v	c #8B1F00",
"w	c #901F00",
"x	c #A32200",
"y	c #AC2800",
"z	c #9A2300",
"A	c #8C1C00",
"B	c #5D0D00",
"C	c #280100",
"D	c #3C0500",
"E	c #8B1700",
"F	c #831800",
"G	c #791801",
"H	c #5A1D07",
"I	c #771C06",
"J	c #611703",
"K	c #240301",
"L	c #2F0300",
"M	c #300300",
"N	c #2C0300",
"O	c #230703",
"P	c #340A04",
"Q	c #300200",
"R	c #270401",
"...........+++.............+++..",
".............++..............++.",
"..............+...............+.",
"...............+...............+",
"...............+...............+",
"+..............++..............+",
"++..............++..............",
"++..............++..............",
"+++.............+++.............",
"++++.......@#$%$&*++............",
"++++......=-;>,')!-+............",
"+++++....-~{]^/(_:<++...........",
".++++++..-[}|1234567+++.........",
".++++++++890ab3cdefg+++++.......",
"..++++++hijklmnopqrg+++++++.....",
".....++++stuvwxyzABC.++++++++...",
"..........DEFGHIEJK........+++..",
"...........LMNOPQR...........++.",
"..............+...............+.",
"...............+...............+",
"...............+...............+",
"+..............++..............+",
"++..............++..............",
"++..............++..............",
"+++.............+++.............",
"++++............++++............",
"++++............++++............",
"+++++...........+++++...........",
".++++++..........++++++.........",
".++++++++........++++++++.......",
"..+++++++++.......+++++++++.....",
".....++++++++........++++++++..."};
