/* XPM */
static char * explosion4_xpm[] = {
"32 32 402 2",
"  	c None",
". 	c #4878D8",
"+ 	c #4890D8",
"@ 	c #010304",
"# 	c #180603",
"$ 	c #190603",
"% 	c #180503",
"& 	c #1E0803",
"* 	c #1E0903",
"= 	c #000304",
"- 	c #340E03",
"; 	c #8E1700",
"> 	c #911800",
", 	c #971B00",
"' 	c #AB2500",
") 	c #B82600",
"! 	c #3E1103",
"~ 	c #401403",
"{ 	c #0C0604",
"] 	c #000104",
"^ 	c #912000",
"/ 	c #A42100",
"( 	c #BD2D00",
"_ 	c #CD3500",
": 	c #D33D00",
"< 	c #E54000",
"[ 	c #E03900",
"} 	c #D43800",
"| 	c #7D2101",
"1 	c #4D1202",
"2 	c #3E0902",
"3 	c #000005",
"4 	c #A32B00",
"5 	c #B12D00",
"6 	c #F05D00",
"7 	c #ED8100",
"8 	c #F18400",
"9 	c #F16800",
"0 	c #E95B00",
"a 	c #E53E00",
"b 	c #E03C00",
"c 	c #AB2C00",
"d 	c #7B0D00",
"e 	c #330A02",
"f 	c #040404",
"g 	c #240A03",
"h 	c #871E00",
"i 	c #972800",
"j 	c #AF3000",
"k 	c #E14500",
"l 	c #F27300",
"m 	c #F07400",
"n 	c #F07000",
"o 	c #F06F00",
"p 	c #EF7A00",
"q 	c #F08E00",
"r 	c #EC5100",
"s 	c #A52900",
"t 	c #530A01",
"u 	c #050404",
"v 	c #280B03",
"w 	c #962100",
"x 	c #A92C00",
"y 	c #E54800",
"z 	c #F17400",
"A 	c #F08000",
"B 	c #F09600",
"C 	c #F25500",
"D 	c #AA2C00",
"E 	c #540A01",
"F 	c #030404",
"G 	c #0B0504",
"H 	c #771000",
"I 	c #540400",
"J 	c #941A00",
"K 	c #9D1F00",
"L 	c #D43900",
"M 	c #F39900",
"N 	c #F09A00",
"O 	c #F07700",
"P 	c #F09500",
"Q 	c #F09400",
"R 	c #F2A200",
"S 	c #F5B500",
"T 	c #EE9000",
"U 	c #941800",
"V 	c #2D0002",
"W 	c #090304",
"X 	c #0F0404",
"Y 	c #060404",
"Z 	c #670A00",
"` 	c #831A00",
" .	c #9E1B00",
"..	c #A72400",
"+.	c #BC2F00",
"@.	c #F19600",
"#.	c #F6BF09",
"$.	c #F7C511",
"%.	c #F6BD0D",
"&.	c #F5BD14",
"*.	c #F3AE00",
"=.	c #F2A400",
"-.	c #F08700",
";.	c #F3A200",
">.	c #F8D009",
",.	c #F8C910",
"'.	c #DC6F00",
").	c #6B0800",
"!.	c #4E0400",
"~.	c #650000",
"{.	c #1E0000",
"].	c #000404",
"^.	c #5D0200",
"/.	c #C63100",
"(.	c #E75100",
"_.	c #DD3A00",
":.	c #EF4500",
"<.	c #F29B00",
"[.	c #FAE736",
"}.	c #FBEB54",
"|.	c #FCF47C",
"1.	c #FBE52F",
"2.	c #F6BD00",
"3.	c #F3A800",
"4.	c #F07D00",
"5.	c #F08800",
"6.	c #F8D10F",
"7.	c #FAE13E",
"8.	c #F58400",
"9.	c #B02800",
"0.	c #871800",
"a.	c #6E0700",
"b.	c #4A0600",
"c.	c #1B0000",
"d.	c #891B00",
"e.	c #EA5F00",
"f.	c #F45C00",
"g.	c #E84500",
"h.	c #EC5800",
"i.	c #F19A00",
"j.	c #FADF18",
"k.	c #FADF2F",
"l.	c #FADD39",
"m.	c #F8CD04",
"n.	c #F09000",
"o.	c #F06700",
"p.	c #F08200",
"q.	c #F7C200",
"r.	c #F9D512",
"s.	c #F48700",
"t.	c #D33200",
"u.	c #C32900",
"v.	c #891A00",
"w.	c #710D00",
"x.	c #0D0001",
"y.	c #2E0D03",
"z.	c #781701",
"A.	c #DC6000",
"B.	c #F05500",
"C.	c #E03D00",
"D.	c #E04D00",
"E.	c #F06C00",
"F.	c #F08F00",
"G.	c #F4AD02",
"H.	c #F5B600",
"I.	c #F19D00",
"J.	c #F09300",
"K.	c #F04700",
"L.	c #F06500",
"M.	c #F19B00",
"N.	c #F9D200",
"O.	c #F09100",
"P.	c #ED6000",
"Q.	c #F04800",
"R.	c #A72C00",
"S.	c #620B00",
"T.	c #160102",
"U.	c #130503",
"V.	c #821700",
"W.	c #8B1B00",
"X.	c #E76B00",
"Y.	c #ED4D00",
"Z.	c #AB2300",
"`.	c #EC6B00",
" +	c #F09200",
".+	c #F18C00",
"++	c #F17200",
"@+	c #F07300",
"#+	c #F19700",
"$+	c #F5B800",
"%+	c #F19300",
"&+	c #DE3E00",
"*+	c #680900",
"=+	c #0D0102",
"-+	c #190803",
";+	c #932100",
">+	c #881D00",
",+	c #D43A00",
"'+	c #C82C00",
")+	c #AC2500",
"!+	c #F27100",
"~+	c #DF3C00",
"{+	c #EF5400",
"]+	c #F07100",
"^+	c #CF3300",
"/+	c #DC3D00",
"(+	c #F27E00",
"_+	c #F3AC00",
":+	c #F4AE00",
"<+	c #F4A900",
"[+	c #F05000",
"}+	c #7B1800",
"|+	c #150002",
"1+	c #190001",
"2+	c #250703",
"3+	c #6F0E00",
"4+	c #951C00",
"5+	c #A72200",
"6+	c #B42600",
"7+	c #E44400",
"8+	c #F25C00",
"9+	c #E44B00",
"0+	c #E03B00",
"a+	c #E24200",
"b+	c #D02B00",
"c+	c #A22000",
"d+	c #A02100",
"e+	c #F66600",
"f+	c #F2A500",
"g+	c #F8CC0D",
"h+	c #F9D61C",
"i+	c #F08D00",
"j+	c #952200",
"k+	c #190002",
"l+	c #370701",
"m+	c #760F00",
"n+	c #AD2300",
"o+	c #DC3900",
"p+	c #DE3B00",
"q+	c #EE6500",
"r+	c #F18200",
"s+	c #E64D00",
"t+	c #DD3900",
"u+	c #CF2B00",
"v+	c #B42200",
"w+	c #CC4B00",
"x+	c #F38900",
"y+	c #F5B400",
"z+	c #FBE753",
"A+	c #FCF67C",
"B+	c #F4B100",
"C+	c #F09800",
"D+	c #EA4A00",
"E+	c #981E00",
"F+	c #350302",
"G+	c #3B0701",
"H+	c #820E00",
"I+	c #BB2F00",
"J+	c #DA3700",
"K+	c #DC3800",
"L+	c #EA6000",
"M+	c #F19800",
"N+	c #F18300",
"O+	c #EC7100",
"P+	c #E26A00",
"Q+	c #E45400",
"R+	c #F48E00",
"S+	c #F3AA00",
"T+	c #F6BF00",
"U+	c #FAE237",
"V+	c #F8D225",
"W+	c #F3AD00",
"X+	c #F48400",
"Y+	c #F77000",
"Z+	c #DC3700",
"`+	c #A22500",
" @	c #491002",
".@	c #2F0903",
"+@	c #7F1100",
"@@	c #871500",
"#@	c #BA3100",
"$@	c #A82400",
"%@	c #EB8300",
"&@	c #F18D00",
"*@	c #F2A600",
"=@	c #F3AA04",
"-@	c #F68600",
";@	c #F76600",
">@	c #F87B00",
",@	c #CE4000",
"'@	c #B62A00",
")@	c #851700",
"!@	c #921E00",
"~@	c #110704",
"{@	c #650E00",
"]@	c #972300",
"^@	c #C93000",
"/@	c #C63700",
"(@	c #EE4C00",
"_@	c #F07E00",
":@	c #F07500",
"<@	c #F07B00",
"[@	c #F18900",
"}@	c #EC5400",
"|@	c #A92700",
"1@	c #982400",
"2@	c #B83600",
"3@	c #961E00",
"4@	c #831000",
"5@	c #6D0F00",
"6@	c #060504",
"7@	c #020404",
"8@	c #650F00",
"9@	c #821100",
"0@	c #BC3200",
"a@	c #BE2F00",
"b@	c #D43C00",
"c@	c #E03E00",
"d@	c #E24100",
"e@	c #F15C00",
"f@	c #F06E00",
"g@	c #F04A00",
"h@	c #F55200",
"i@	c #B32B00",
"j@	c #9F1F00",
"k@	c #B13100",
"l@	c #BF3100",
"m@	c #981D00",
"n@	c #6C0E00",
"o@	c #902000",
"p@	c #000204",
"q@	c #690F00",
"r@	c #B42D00",
"s@	c #BC2E00",
"t@	c #CF3B00",
"u@	c #E14000",
"v@	c #E14100",
"w@	c #EF5900",
"x@	c #F06A00",
"y@	c #F08600",
"z@	c #F04F00",
"A@	c #F35100",
"B@	c #BA2D00",
"C@	c #A12200",
"D@	c #B93300",
"E@	c #C13200",
"F@	c #971C00",
"G@	c #720F00",
"H@	c #791C01",
"I@	c #500B02",
"J@	c #4E0C01",
"K@	c #8F1600",
"L@	c #A32400",
"M@	c #A72A00",
"N@	c #E74800",
"O@	c #E85400",
"P@	c #F15600",
"Q@	c #F07200",
"R@	c #EF7100",
"S@	c #E94600",
"T@	c #D93500",
"U@	c #C13600",
"V@	c #E74300",
"W@	c #C33400",
"X@	c #7F1200",
"Y@	c #760B00",
"Z@	c #010404",
"`@	c #461002",
" #	c #3A0C02",
".#	c #841500",
"+#	c #A32600",
"@#	c #E84600",
"##	c #F46D00",
"$#	c #F27400",
"%#	c #F19900",
"&#	c #EC7300",
"*#	c #DC3B00",
"=#	c #E13B00",
"-#	c #C63000",
";#	c #8D2100",
">#	c #270602",
",#	c #1B0102",
"'#	c #140403",
")#	c #A72100",
"!#	c #BE3100",
"~#	c #DC4300",
"{#	c #E65500",
"]#	c #F56500",
"^#	c #EF5200",
"/#	c #E83900",
"(#	c #D83D00",
"_#	c #991C00",
":#	c #2A0A03",
"<#	c #120704",
"[#	c #C23300",
"}#	c #AE2200",
"|#	c #C33600",
"1#	c #B52C01",
"2#	c #1A0A04",
"3#	c #100504",
"4#	c #200000",
"5#	c #040504",
". . . . . . . . . . . + + + . . . . . . . . . . . . . + + + . . ",
". . . . . . . . . . . . . @ # $ % & * . . . . . . . . . . + + . ",
". . . . . . . . . . . . = - ; > , ' ) ! ~ { . . . . . . . . + . ",
". . . . . . . . . . . . ] ^ / ( _ : < [ } | 1 2 = . . . . . . + ",
". . . . . . . . . . @ ] 3 4 5 6 7 8 9 0 a b c d e . . . . . . + ",
"+ . . . . . . . f f g h i j k l m m n o p q r s t = f . . . . + ",
"+ + . . . . . . f u v w x j y z n n n o A B C D E = f . . . . . ",
"+ + . . . . . F G H I J K L M A N 6 O P Q R S T U V W X Y . . . ",
"+ + + . . . . = Z `  ...+.@.#.$.%.&.*.=.-.;.>.,.'.).!.~.{.. . . ",
"+ + + + . . . ].^./.(._.:.<.[.}.|.1.2.3.4.5.6.7.8.9.0.a.b.c.. . ",
"+ + + + . . = 3 d.e.f.g.h.i.j.k.l.m.R n.o.p.q.r.s.t.u.v.w.x.. . ",
"+ + + + + @ y.z.A.B.C.D.E.F.2.G.H.I.J.p.K.L.M.N.O.P.Q.R.S.T.. . ",
". + + + + U.V.W.X.Y.Z.`. + +J..+n ++@+ +q q #+$+;.q %+&+*+=+. . ",
". + + + + -+;+>+,+'+)+h.!+~+-.{+]+^+/+(+_+=.:+<+#+Q Q [+}+|+. . ",
". . + + + 1+2+3+4+5+6+7+8+9+0+a+b+c+d+e+f+g+h+<+i+n.Q [+j+k+. . ",
". . . . . + l+m+n+o+p+q+i.r+s+t+u+v+w+x+y+z+A+B+n.J.C+D+E+F+. . ",
". . . . . . G+H+I+J+K+L+<.M+N+O+P+Q+R+S+T+U+V+W+=.X+Y+Z+`+ @. . ",
". . . . . . .@+@@@#@$@/.%@i.J.J.%+&@B M.*@=@-@;@>@,@'@)@!@~@+ . ",
". . . . . . . f {@]@^@/@(@%+++_@P :@]+<@[@}@|@1@2@3@4@5@6@7@+ . ",
". . . . . . . = 8@9@0@a@b@c@d@e@f@i+F.g@h@i@j@k@l@m@n@o@p@. . + ",
". . . . . . . = q@9@r@s@t@u@v@w@x@y@q z@A@B@C@D@E@F@G@H@p@. . + ",
"+ . . . . . . = I@J@K@L@M@t@N@O@P@Q@J.R@S@T@U@V@W@X@Y@p@u . . + ",
"+ + . . . . . . . Z@`@ #.#+#@###$#%+%#&#~+*#=#-#;#>#,#. . . . . ",
"+ + . . . . . . . . . = '#)#!#c@~#{#]#^#/#(#_#:#& = . . . . . . ",
"+ + + . . . . . . . . . Z@<#[#}#}#!#|#1#<#2#3#Z@. . . . . . . . ",
"+ + + + . . . . . . . . . 4#5#u u u u Y . . . . . . . . . . . . ",
"+ + + + . . . . . . . . . . . . + + + + . . . . . . . . . . . . ",
"+ + + + + . . . . . . . . . . . + + + + + . . . . . . . . . . . ",
". + + + + + + . . . . . . . . . . + + + + + + . . . . . . . . . ",
". + + + + + + + + . . . . . . . . + + + + + + + + . . . . . . . ",
". . + + + + + + + + + . . . . . . . + + + + + + + + + . . . . . ",
". . . . . + + + + + + + + . . . . . . . . + + + + + + + + . . . "};
