/* XPM */
static char * explosion10_xpm[] = {
"32 32 225 2",
"  	c None",
". 	c #4878D8",
"+ 	c #4890D8",
"@ 	c #3F0400",
"# 	c #340100",
"$ 	c #891D00",
"% 	c #7E1000",
"& 	c #770B00",
"* 	c #8D1A00",
"= 	c #9B2400",
"- 	c #871300",
"; 	c #6C0F00",
"> 	c #420000",
", 	c #4D0000",
"' 	c #630100",
") 	c #6B0500",
"! 	c #8A1A00",
"~ 	c #9B2000",
"{ 	c #A02200",
"] 	c #7B1300",
"^ 	c #680200",
"/ 	c #680300",
"( 	c #690800",
"_ 	c #790F00",
": 	c #660500",
"< 	c #680400",
"[ 	c #6A0600",
"} 	c #6B0600",
"| 	c #8E2000",
"1 	c #8D2000",
"2 	c #A42100",
"3 	c #871600",
"4 	c #8B1500",
"5 	c #700800",
"6 	c #680B00",
"7 	c #010404",
"8 	c #801200",
"9 	c #951900",
"0 	c #A22100",
"a 	c #891600",
"b 	c #952200",
"c 	c #9C1D00",
"d 	c #841600",
"e 	c #781600",
"f 	c #851600",
"g 	c #701000",
"h 	c #000304",
"i 	c #2D0002",
"j 	c #981A00",
"k 	c #C32D00",
"l 	c #B12A00",
"m 	c #A12600",
"n 	c #AE2900",
"o 	c #A02400",
"p 	c #520700",
"q 	c #3B0902",
"r 	c #7C1000",
"s 	c #C22C00",
"t 	c #BC3100",
"u 	c #A32B00",
"v 	c #C33300",
"w 	c #9C1C00",
"x 	c #731100",
"y 	c #911C00",
"z 	c #851900",
"A 	c #BD2C00",
"B 	c #C03200",
"C 	c #DE3E00",
"D 	c #CD2D00",
"E 	c #5A0700",
"F 	c #500600",
"G 	c #721100",
"H 	c #871500",
"I 	c #A32900",
"J 	c #BD3200",
"K 	c #962400",
"L 	c #F15100",
"M 	c #EB4700",
"N 	c #DA3A00",
"O 	c #F75700",
"P 	c #550000",
"Q 	c #440000",
"R 	c #A72C00",
"S 	c #A32300",
"T 	c #F64F00",
"U 	c #F38800",
"V 	c #F34D00",
"W 	c #D93700",
"X 	c #A92600",
"Y 	c #E04500",
"Z 	c #931A00",
"` 	c #A92300",
" .	c #721A00",
"..	c #310000",
"+.	c #400400",
"@.	c #731000",
"#.	c #AD2700",
"$.	c #400B02",
"%.	c #4F0500",
"&.	c #400000",
"*.	c #A42A00",
"=.	c #2F0000",
"-.	c #5A0000",
";.	c #410000",
">.	c #AE2D00",
",.	c #891800",
"'.	c #590900",
").	c #851200",
"!.	c #250000",
"~.	c #932100",
"{.	c #B23100",
"].	c #670800",
"^.	c #871C00",
"/.	c #902000",
"(.	c #D13100",
"_.	c #AE3000",
":.	c #AF2F00",
"<.	c #912000",
"[.	c #6F1000",
"}.	c #780C00",
"|.	c #AA2D00",
"1.	c #AE2E00",
"2.	c #9C1E00",
"3.	c #9F2000",
"4.	c #9F2700",
"5.	c #B33200",
"6.	c #8F1E00",
"7.	c #5B0F01",
"8.	c #5C0000",
"9.	c #780B00",
"0.	c #A92B00",
"a.	c #8F1F00",
"b.	c #871B00",
"c.	c #A12200",
"d.	c #BF3700",
"e.	c #DB3600",
"f.	c #C83100",
"g.	c #811000",
"h.	c #3E0000",
"i.	c #000305",
"j.	c #5C0400",
"k.	c #5D0000",
"l.	c #7B0D00",
"m.	c #941B00",
"n.	c #781100",
"o.	c #B63000",
"p.	c #F35000",
"q.	c #CB3500",
"r.	c #751200",
"s.	c #330000",
"t.	c #741300",
"u.	c #650500",
"v.	c #5E0000",
"w.	c #761400",
"x.	c #7F1800",
"y.	c #D23000",
"z.	c #DC3B00",
"A.	c #EA4B00",
"B.	c #C63700",
"C.	c #9B1C00",
"D.	c #740E00",
"E.	c #721200",
"F.	c #6D0700",
"G.	c #D23100",
"H.	c #BB2800",
"I.	c #C23200",
"J.	c #801000",
"K.	c #650100",
"L.	c #811200",
"M.	c #701100",
"N.	c #760A00",
"O.	c #9A1E00",
"P.	c #7F1400",
"Q.	c #660300",
"R.	c #600000",
"S.	c #810F00",
"T.	c #6D0E00",
"U.	c #6A0C00",
"V.	c #7F1200",
"W.	c #8C1F00",
"X.	c #851700",
"Y.	c #630200",
"Z.	c #590000",
"`.	c #4A0000",
" +	c #670A00",
".+	c #891900",
"++	c #831900",
"@+	c #8D1F00",
"#+	c #841A00",
"$+	c #8E1D00",
"%+	c #871800",
"&+	c #4E0100",
"*+	c #4F0000",
"=+	c #340000",
"-+	c #590B00",
";+	c #831400",
">+	c #922100",
",+	c #A72B00",
"'+	c #801A00",
")+	c #7D1100",
"!+	c #952300",
"~+	c #901F00",
"{+	c #680900",
"]+	c #270000",
"^+	c #560000",
"/+	c #5D0100",
"(+	c #7B0E00",
"_+	c #831300",
":+	c #992500",
"<+	c #881A00",
"[+	c #350000",
"}+	c #5B0000",
"|+	c #751000",
"1+	c #7A1400",
"2+	c #841400",
"3+	c #590800",
"4+	c #2E0000",
"5+	c #3A0400",
"6+	c #280000",
"7+	c #720C00",
"8+	c #790C00",
"9+	c #6D0F00",
"0+	c #500100",
"a+	c #8C1E00",
"b+	c #7D0F00",
". . . . . . . . . . . + + + . . . . . . . . . . . . . + + + . . ",
". . . . . . . . . . . . . + + . . . . . . . . . . . . . . + + . ",
". . . . . . . . . . . . . . + . @ # $ % . . . . . . . . . . + . ",
". . . . . . . . . . . . . . . & * = - ; > , ' . . . . . . . . + ",
". . . . . . . . . . . . . . . ) ! ~ { ] ^ / ( _ . . . . . . . + ",
"+ . . . . . . : < [ } . . . . + + | 1 2 3 4 5 6 % . . . . . . + ",
"+ + . . . . 7 8 9 0 a . . . . . + + . . b c d e f g . . . . . . ",
"+ + . . . h i j k l a . . . . . + + . . . . m n o g g . . . . . ",
"+ + + . p q r s t u . . . . . . + + + . . . . v w x g . . . . . ",
"+ + + + y z A B . . . . C D . . + + + + . . . . E F G . . . . . ",
"+ + + + H I J K . . . L M N O . + + + + . . . . . P . . . . . . ",
"+ + + + Q R S . . . . T U V W . + + + + + . . . . . . . . . . . ",
". + + + + + + . . . . X Y Z ` . . + + + + + + . . . . .  .. . . ",
". + + ..+ + + + + . . . +.@.. . . + + + + + + + + . . . #.. . . ",
". . + $.%.&.+ + + + + . . . . . . . + + + + + + + + + . *.. . . ",
". . . =.-.;.g + + + + + + . . . . . . . . + + + + + + >.,.. . . ",
". . . '.).!.~.{.. . . + + + . . . . . . . . . . . . . + g + . . ",
". . . ].^./.(._.:.. . . . + + . . . . . <.<.. . /.. . . . + + . ",
". . . . [.}.|.1.2.3.. . . . + . . . . ~.2 4.5.. 6.. . . . . + . ",
". . . . 7.8.9.0.a.b.. . . . . + . . c.d.e.f.. . g.h.. . . . . + ",
". . . . i.j.k.l.m.n.. . . . . + . . o.p.L q.. . r.s.. . . . . + ",
"+ . . . . t.u.v.w.x.. . . . . + + . y.z.A.B.. C.D.> . . . . . + ",
"+ + . . . . E.F.[.. . . . . . . + + G.H.I.. . J.K.&.. . . . . . ",
"+ + . . . . . L.M.. N.. . . . . + + . O.. . P.* Q.&.. . . . . . ",
"+ + + . . . . . . R.& S.T.. . . + + + . U.V.W.X.Y.. . . . . . . ",
"+ + + + . . . . Z.`. +.+++@+. . + + + [.#+$+%+&+. . . . . . . . ",
"+ + + + . . . . *+=+-+;+>+,+'+. + + v.)+!+~+{+]+^+. . . . . . . ",
"+ + + + + . . . . *+/+(+_+:+<+^++ [+}+|+1+2+3+4+. . . . . . . . ",
". + + + + + + . . . . . . . 5+6+. 7+8+9+T.' 0+. . . . . . . . . ",
". + + + + + + + + . . . . . . . . 6.6.a+b+l.+ + + . . . . . . . ",
". . + + + + + + + + + . . . . . . . + + + + + + + + + . . . . . ",
". . . . . + + + + + + + + . . . . . . . . + + + + + + + + . . . "};
