/* XPM */
static char * afundando2_xpm[] = {
"32 32 174 2",
"  	c None",
". 	c #4878D8",
"+ 	c #4890D8",
"@ 	c #2A1D13",
"# 	c #694839",
"$ 	c #906963",
"% 	c #9B6F62",
"& 	c #C18E85",
"* 	c #B98982",
"= 	c #CC9D9B",
"- 	c #EBBCBD",
"; 	c #34291A",
"> 	c #A55E2A",
", 	c #884A23",
"' 	c #7E461D",
") 	c #86511F",
"! 	c #864617",
"~ 	c #8A5836",
"{ 	c #261B11",
"] 	c #844513",
"^ 	c #42290F",
"/ 	c #793F14",
"( 	c #89470E",
"_ 	c #442104",
": 	c #3C1C03",
"< 	c #3D2007",
"[ 	c #44230B",
"} 	c #2B1C0C",
"| 	c #33220C",
"1 	c #2E200A",
"2 	c #3B250D",
"3 	c #301D0A",
"4 	c #5C3411",
"5 	c #AD7330",
"6 	c #332515",
"7 	c #5D3E1A",
"8 	c #BD8438",
"9 	c #E59A48",
"0 	c #F8B74F",
"a 	c #2E2314",
"b 	c #3C280F",
"c 	c #845824",
"d 	c #FFCC59",
"e 	c #F6AC50",
"f 	c #D59F50",
"g 	c #E3A055",
"h 	c #C08A52",
"i 	c #372815",
"j 	c #3C2611",
"k 	c #CC9040",
"l 	c #FFBC54",
"m 	c #C79B48",
"n 	c #7B563B",
"o 	c #6E4C3C",
"p 	c #755242",
"q 	c #957376",
"r 	c #906E6F",
"s 	c #A68D8F",
"t 	c #EBAC4E",
"u 	c #9A6C34",
"v 	c #A27338",
"w 	c #AB7B3A",
"x 	c #57290A",
"y 	c #B08875",
"z 	c #572905",
"A 	c #D9BABB",
"B 	c #392918",
"C 	c #212423",
"D 	c #7C4214",
"E 	c #735429",
"F 	c #7F5826",
"G 	c #99682A",
"H 	c #6C461B",
"I 	c #723B10",
"J 	c #65340E",
"K 	c #713809",
"L 	c #1A1F22",
"M 	c #45413D",
"N 	c #BF6F27",
"O 	c #A66941",
"P 	c #49341D",
"Q 	c #593819",
"R 	c #916333",
"S 	c #443116",
"T 	c #633913",
"U 	c #65451C",
"V 	c #B1714F",
"W 	c #A56948",
"X 	c #DC8854",
"Y 	c #502F13",
"Z 	c #2D302D",
"` 	c #9A5B29",
" .	c #815B2C",
"..	c #996A57",
"+.	c #694C45",
"@.	c #6D5252",
"#.	c #7F6367",
"$.	c #7C5E5D",
"%.	c #70534D",
"&.	c #614C46",
"*.	c #41311A",
"=.	c #23231F",
"-.	c #AC7857",
";.	c #6C4A22",
">.	c #6A4229",
",.	c #5E3924",
"'.	c #795B53",
").	c #AA7E78",
"!.	c #97736B",
"~.	c #613C28",
"{.	c #232E38",
"].	c #CA9B67",
"^.	c #785939",
"/.	c #8A6558",
"(.	c #856255",
"_.	c #7A7077",
":.	c #5B4339",
"<.	c #6D4222",
"[.	c #836668",
"}.	c #846464",
"|.	c #8A6A6B",
"1.	c #3B2C19",
"2.	c #987148",
"3.	c #96642B",
"4.	c #8F632F",
"5.	c #896248",
"6.	c #5A545C",
"7.	c #A47667",
"8.	c #C7A694",
"9.	c #CDB3A2",
"0.	c #805544",
"a.	c #4A2609",
"b.	c #723323",
"c.	c #4B2A09",
"d.	c #422816",
"e.	c #332B26",
"f.	c #B37B51",
"g.	c #8F4325",
"h.	c #8B3936",
"i.	c #D99A45",
"j.	c #734826",
"k.	c #A16C30",
"l.	c #513121",
"m.	c #B61607",
"n.	c #791102",
"o.	c #803A20",
"p.	c #D9933D",
"q.	c #9B6F44",
"r.	c #C09595",
"s.	c #D30E04",
"t.	c #DC0D04",
"u.	c #8E3938",
"v.	c #F7B24F",
"w.	c #A46C2D",
"x.	c #AD8483",
"y.	c #754C38",
"z.	c #F4AF4C",
"A.	c #F9AA4B",
"B.	c #55300F",
"C.	c #895C4A",
"D.	c #C4863A",
"E.	c #633512",
"F.	c #300F00",
"G.	c #652E19",
"H.	c #6D380E",
"I.	c #934D16",
"J.	c #9D7572",
"K.	c #602B0E",
"L.	c #6B3B13",
"M.	c #B78E8E",
"N.	c #A9817B",
"O.	c #BC9495",
"P.	c #442C12",
"Q.	c #DCADAD",
". . . . . . . . . . . + + + . @ @ . . . . . . . . . . + + + . . ",
". . . . . . . . . . . . . + + . . # $ % & * = - - . . . . + + . ",
". . . . . . . . . . . . . . ; . . . . > > , , ' ) ! ~ . . . + . ",
". . . . . . . . . . { { . { { { @ { . . . ] . . . . . . . . . + ",
". . . . . . . . . . . . { . { { { { . ^ / . . . . . . . . . . + ",
"+ . . . . . . . . . . . . { . + + . . ( . . . . . . . . . . . + ",
"+ + . . . . . . . . . @ . _ : < _ [ / . . . . . . . . . . . . . ",
"+ + . . . . . . . . } | } } 1 2 3 4 5 . . . . . . . . . . . . . ",
"+ + + . . . . . . @ 1 } 1 } 6 7 8 9 0 0 . . . . . . . . . . . . ",
"+ + + + . . . . @ a 1 2 b b c d e 5 f g h . . . . . . . . . . . ",
"+ + + + . . . @ i j j j @ k l m k ~ n o p q r q s r . . . . . . ",
"+ + + + + . { 6 i b b j k e t u u v u w + x y : . z . < . A . . ",
". + + + + + @ B C ; D 8 8 E F F G E H + + + + . . ! I J . K . . ",
". + + + + + ; 6 L M N ) O E P Q R S 4 + + + + + + . . . . . . . ",
". . + + + { i ; 6 T G U V W W X v } Y { + + + + + + + . . . . . ",
". . . . . + S C Z `  .c ..+.@.#.#.$.%.&.+.+ + + + + + + + . . . ",
". . . . . *.; =.4 -.;.>.p ,.'.# ).!.~.. . . . . . . . + + + . . ",
". . . . . B C {.J ].^./.(.p _.:.~., , <.[.}.[.|.[.[.}.. . + + . ",
". . . . . 1.^ Y ] F ;.2.3.4.3.Q 5.6.. . +.# 7...~ 8.9.0.8.. + . ",
". . . . . P a.b.T c.: D D J ^ { d.e.. . . . . . . z _ c.. f.. + ",
". . . . . { ^ g.h.( c i.l 3.j.c k.^ l.. . . . . . . . m.n.. . + ",
"+ . . . . { a.o.h.( 3.t 9 p.p. .w q.<.r.. . . . . . s.s.t.. . + ",
"+ + . . . . a.o.u.( u v.9 w.p.w i.D x.y.r.. . . . . s.s.. . . . ",
"+ + . . . . : b.x ] ) z.A.H a.T B.+ . /.C.7.. . . . . s.. . . . ",
"+ + + . . . a.u.u.z ] D.p.8 5 E.: : F.!.a.x.. . . . . . . . . . ",
"+ + + + . . } G.u.H.( ! I.] H.J + + + J./.,.o . . . . . . . . . ",
"+ + + + . . . { K.L.] ] I.I.[ d.+ + + M.x.N.~.O.. . . . . . . . ",
"+ + + + + . . { } x d.P.E.E.I { + + + + + . % 0.. . . . . . . . ",
". + + + + + + . . . . . . . . { . + + + + + + . E.. . . . . . . ",
". + + + + + + + + . . . . . { @ { + + + + + + + I . . . . . . . ",
". . + + + + + + + + + . . . . { . . + $.+ + @.+ + + + . . . . . ",
". . . . . + + + + + + + + . . . . . . . '.# O.Q.= Q.- + + . . . "};
