/* XPM */
static char * afundando1_xpm[] = {
"32 50 200 2",
"  	c None",
". 	c #4878D8",
"+ 	c #4890D8",
"@ 	c #261B11",
"# 	c #6C5353",
"$ 	c #7D5F60",
"% 	c #D6A8A9",
"& 	c #FFDBDC",
"* 	c #FDD3D4",
"= 	c #FDCACB",
"- 	c #FDC4C5",
"; 	c #EAB6B8",
"> 	c #F3BCBD",
", 	c #E4B4B4",
"' 	c #937474",
") 	c #6C3303",
"! 	c #632B05",
"~ 	c #78370B",
"{ 	c #5C2D0B",
"] 	c #A87052",
"^ 	c #763B10",
"/ 	c #25190C",
"( 	c #170900",
"_ 	c #FFE5E7",
": 	c #372818",
"< 	c #2B1D11",
"[ 	c #321F13",
"} 	c #8A4916",
"| 	c #341D0B",
"1 	c #6B360B",
"2 	c #97561D",
"3 	c #65340C",
"4 	c #3D1F08",
"5 	c #3A1701",
"6 	c #431C01",
"7 	c #5A330E",
"8 	c #914E17",
"9 	c #442105",
"0 	c #3B1C04",
"a 	c #8A4612",
"b 	c #2C1402",
"c 	c #2E200F",
"d 	c #241807",
"e 	c #322513",
"f 	c #2E2112",
"g 	c #33220D",
"h 	c #BD8238",
"i 	c #DA9941",
"j 	c #F7AB49",
"k 	c #FCB851",
"l 	c #F2AB4A",
"m 	c #1E1407",
"n 	c #95662D",
"o 	c #D3923E",
"p 	c #E09443",
"q 	c #EDA948",
"r 	c #BC8549",
"s 	c #362816",
"t 	c #FEB94E",
"u 	c #E29C44",
"v 	c #6A4A1C",
"w 	c #5C484D",
"x 	c #8B6A6B",
"y 	c #755959",
"z 	c #866A67",
"A 	c #C1A5A5",
"B 	c #EAB5B5",
"C 	c #836465",
"D 	c #23170A",
"E 	c #EEBA50",
"F 	c #845B2A",
"G 	c #7B562A",
"H 	c #4A250B",
"I 	c #44240B",
"J 	c #683814",
"K 	c #562C12",
"L 	c #542B0A",
"M 	c #E4C1C3",
"N 	c #D59442",
"O 	c #7D5A2B",
"P 	c #8A622C",
"Q 	c #77582C",
"R 	c #74360C",
"S 	c #3C2A13",
"T 	c #7A5524",
"U 	c #D99442",
"V 	c #9B6530",
"W 	c #E5A345",
"X 	c #FFC254",
"Y 	c #3D2D1A",
"Z 	c #CC8C40",
"` 	c #AA7635",
" .	c #885C28",
"..	c #B37832",
"+.	c #C88537",
"@.	c #4A2C12",
"#.	c #5B3E1A",
"$.	c #64441E",
"%.	c #6B4C21",
"&.	c #654327",
"*.	c #3B290E",
"=.	c #864B16",
"-.	c #2C261D",
";.	c #BB7D39",
">.	c #D38C3D",
",.	c #CD8B3A",
"'.	c #D18739",
").	c #ECA443",
"!.	c #432E13",
"~.	c #834411",
"{.	c #26231E",
"].	c #141E27",
"^.	c #3A4A57",
"/.	c #D9953C",
"(.	c #C48A3D",
"_.	c #734E1F",
":.	c #88583C",
"<.	c #895B49",
"[.	c #BA7343",
"}.	c #B16F41",
"|.	c #DF8B54",
"1.	c #44321A",
"2.	c #4A341A",
"3.	c #8B6249",
"4.	c #955F43",
"5.	c #694E48",
"6.	c #75584A",
"7.	c #6C4537",
"8.	c #654E4D",
"9.	c #18222B",
"0.	c #4D3224",
"a.	c #E1AEAF",
"b.	c #C19595",
"c.	c #1B2731",
"d.	c #442C20",
"e.	c #361600",
"f.	c #251101",
"g.	c #522302",
"h.	c #592704",
"i.	c #7E6561",
"j.	c #FAD7D7",
"k.	c #84420E",
"l.	c #AE989B",
"m.	c #432A06",
"n.	c #756256",
"o.	c #665A5C",
"p.	c #5A3621",
"q.	c #C1B1BF",
"r.	c #B48D7C",
"s.	c #4C2304",
"t.	c #573519",
"u.	c #6B5546",
"v.	c #7C3C0D",
"w.	c #B8AEBE",
"x.	c #9D96A2",
"y.	c #95898E",
"z.	c #746B71",
"A.	c #926A57",
"B.	c #6C3C0E",
"C.	c #4E2A0D",
"D.	c #784526",
"E.	c #463116",
"F.	c #C0BBD1",
"G.	c #7E8196",
"H.	c #CB0E03",
"I.	c #7A3D10",
"J.	c #CC923F",
"K.	c #5D401E",
"L.	c #BB7B36",
"M.	c #4C3114",
"N.	c #523214",
"O.	c #422914",
"P.	c #612915",
"Q.	c #823E0D",
"R.	c #563826",
"S.	c #D61004",
"T.	c #863631",
"U.	c #502C20",
"V.	c #E8A03F",
"W.	c #BD9292",
"X.	c #8A3733",
"Y.	c #CD9441",
"Z.	c #C49A9B",
"`.	c #743707",
" +	c #E39B3F",
".+	c #A47633",
"++	c #B38A8B",
"@+	c #B18785",
"#+	c #A7712E",
"$+	c #B77D2F",
"%+	c #965233",
"&+	c #A5786F",
"*+	c #913938",
"=+	c #B88F8F",
"-+	c #744D3A",
";+	c #9F4E0E",
">+	c #AB8383",
",+	c #2C1E0C",
"'+	c #7F410F",
")+	c #7E4112",
". . + + + + + + + + + . . . @ @ . . + + + + + + + + + . . . . . ",
". . . . . + + + + + + + + . . . . . . . . + + + + + + + + . . . ",
". . . . . . . . . . . # $ % & * * = = - ; > . . . . . + + + . . ",
". . . . . . . . @ , ' . . ) ) ! ~ ) ) ) ) { ] ^ . . . . . + + . ",
". . . . . . @ / ' ( @ @ @ @ + _ : . . . . . . . . . . . . . + . ",
". . . . . @ @ @ < @ @ @ @ @ @ [ } . . . . . . . . . . . . . . + ",
". . . . . . . . . . @ . . . . | . . . . . . . . . . . . . . . + ",
"+ . . . . . . . . . @ . . . . 1 + . . . . . . . . . . . . . . + ",
"+ + . . . . . . . . . . . . . 2 + + . . . . . . . . . . . . . . ",
"+ + . . . . . . . . @ . . . 3 . + + . . . . . . . . . . . . . . ",
"+ + + . . . . . . @ 4 5 6 7 8 . + + + . . . . . . . . . . . . . ",
"+ + + + . . . . 9 0 6 9 6 1 a . + + + + . . . . . . . . . . . . ",
"+ + + + . . . | b c c / d | / . + + + + . . . . . . . . . . . . ",
"+ + + + + . e c f / g d h i j k l + + + + . . . . . . . . . . . ",
". + + + + < e f e c m n o p l q r + + + + + + . . . . . . . . . ",
". + + + + s f c d / n t u u v w x y $ z ' A & B B = C . . . . . ",
". . + + s e c c g D u E F G H I b b H J K H L I I b + . M . . . ",
". . . @ s e g c g N l O F P F F Q F . . . 8 J 3 { L + + ! R . . ",
". . . s e S S | T U k O V n W F X q . . . . . . . . a + + + . . ",
". . . f Y S g g Z l ` G  .P G F G F . . . . . . . . . . . + + . ",
". . @ Y S S 3 ..+.@.#.#.$.%.&.*.=.. . . . . . . . . . . . . + . ",
". . f : -.d 1 ;.>.,.W N '.).T !.~.. @ . . . . . . . . . . . . + ",
". . Y {.].^.1 ,./.Z h h (.>./.*.R . . . . . . . . . . . . . . + ",
"+ . Y {.].S a .._.:.<.[.}.|.[.!.=.. . . . . . . . . . . . . . + ",
"+ + 1.2.!.!.~  .J 3.4.5.<.3.6.5.7.# 8.w . . . . . . . . . . . . ",
"+ + Y {.9.7 ,.v v 0.y w x x ' 6.* B a.b.b.A . . . . . . . . . . ",
"+ + 1.-.c.^ ,.*.2.d.0.e.f.g.h.h.6 ( z # i.x C j.B ; a._ # . . . ",
"+ + Y 1.2.k.l.m.n.0.o.:.p.z q.7 L p.e.b I r.s.g.J t.5 5 t.u.. . ",
"+ + 1.].c.v.w.m.p.p.6.x.p.@.y.g z.6.+ n.. A.. A.] ) B.C.. . k.. ",
"+ + 1.].c.R y.m.:.}.D.E.p.g z.g o.u.+ + x.F.. 6.i.G.. H.h.I.. . ",
". + 1.!.E.~ u J.>.T %.K.%.L.S v.. + + + + + + . . . . H.H.. . . ",
". + 1.@.!.k.2 2 2 M.M.N.M. .g L @ + + + + + + + + . . H.H.. . . ",
". . 1.O.L P.L v.Q.Q.^ v.g { I L g.R.+ + + + + + + + + H.S.. . . ",
". . @ M.L T.U.=.(.N W Z >.V.F o l 6 W.. . + + + + + H.H.H.. . . ",
". . / N.L T.X.! h Y.W L.'.V.E.W u ' 6 Z.. . . . . . . + + + . . ",
". . . O.{ X.X.`.2.Z q ;.,. +n .+u B.++s.@+. . . . . . . . + + . ",
". . . e C.T.T.~ $.` W ,.#+$+` o Z I.. &.A.Z.. . . . . . . . + . ",
". . . @ 9 T.T.%+^ h U /.s.9 5 f.f.. . ++t.<.Z.. . . . . . . . + ",
". . . @ I I { | v.$././.$+#.,.#.H L 4 6 t.b 0.&+. . . . . . . + ",
"+ . . @ s.| *+P.4 Q.,. +W  . .0 0 . . . =+&+s.-+D.. . . . . . + ",
"+ + . . H R X.T.;+v.k.N./.8 C.*.C.+ . . >+++@+s.Z.. . . . . . . ",
"+ + . . ,+I X.X.3 '+)+)+a v.3 0 + + . . =+>+=+=+6 % . . . . . . ",
"+ + + . @ | K *+{ a k.~.k.~ Q.v.+ + + . b.>+. W.&+s.. . . . . . ",
"+ + + + . @ @ e.7 v.k.a ~.v.k.)++ + + + . . . . . K . . . . . . ",
"+ + + + . @ @ @ s.< @ @ @ k.3 @ + + + + . . . . . . & . . . . . ",
"+ + + + + @ . . . . @ @ . . < @ + + + + + . . . . . . . . . . . ",
". + + + + @ + . . . . . . @ @ @ . + + + + + + . . . . . . . . . ",
". + + + + + + + + . . . . @ @ ,+. + + + + + + + + . . . . . . . ",
". . + + + + + + + + + . . . 8.# # y y - > > > - + + + . . . . . ",
". . . . . + + + + + + + x ' . . 0 &+4.:.6.-+B % % % + + + . . . "};
