/* XPM */
static char * afundando5_xpm[] = {
"32 32 148 2",
"  	c None",
". 	c #4878D8",
"+ 	c #4890D8",
"@ 	c #6C5354",
"# 	c #846563",
"$ 	c #8D6B6C",
"% 	c #271B11",
"& 	c #32220D",
"* 	c #30241B",
"= 	c #21160C",
"- 	c #AA8284",
"; 	c #895D51",
"> 	c #876058",
", 	c #A55B1E",
"' 	c #7C4213",
") 	c #743B0F",
"! 	c #6B360B",
"~ 	c #6B3A1B",
"{ 	c #855E50",
"] 	c #2C1C0E",
"^ 	c #311B09",
"/ 	c #66330B",
"( 	c #261A0F",
"_ 	c #3B230C",
": 	c #391F08",
"< 	c #43250A",
"[ 	c #452103",
"} 	c #4E2E14",
"| 	c #582F0E",
"1 	c #542E0F",
"2 	c #422713",
"3 	c #3E2910",
"4 	c #432D11",
"5 	c #4C2305",
"6 	c #522606",
"7 	c #473012",
"8 	c #4A3313",
"9 	c #6C3F17",
"0 	c #60431D",
"a 	c #7B5B27",
"b 	c #AB7A35",
"c 	c #CA8F42",
"d 	c #FFCA5D",
"e 	c #FABB55",
"f 	c #754D25",
"g 	c #E6A94D",
"h 	c #F9B753",
"i 	c #F6AA51",
"j 	c #704116",
"k 	c #B77F36",
"l 	c #FFC056",
"m 	c #443118",
"n 	c #603D16",
"o 	c #6C4921",
"p 	c #F5A64E",
"q 	c #F6B454",
"r 	c #B97D3A",
"s 	c #8D5E2C",
"t 	c #664639",
"u 	c #1D2831",
"v 	c #573F25",
"w 	c #914E1B",
"x 	c #594020",
"y 	c #74522A",
"z 	c #86502C",
"A 	c #D69845",
"B 	c #9F7137",
"C 	c #E5A24C",
"D 	c #B68761",
"E 	c #977373",
"F 	c #9A7678",
"G 	c #916E6E",
"H 	c #564129",
"I 	c #8E5E33",
"J 	c #906240",
"K 	c #A56B4C",
"L 	c #4B3120",
"M 	c #1D140D",
"N 	c #BC9296",
"O 	c #A37C7C",
"P 	c #9B7575",
"Q 	c #8F4C17",
"R 	c #96694B",
"S 	c #2A1E14",
"T 	c #562E16",
"U 	c #E4AEAE",
"V 	c #8B6053",
"W 	c #B49C98",
"X 	c #F9F7FC",
"Y 	c #7C5E5E",
"Z 	c #3F2F2A",
"` 	c #7E3F0E",
" .	c #FCFAF9",
"..	c #6F5541",
"+.	c #3D322E",
"@.	c #5E4C4A",
"#.	c #4D3730",
"$.	c #614A4B",
"%.	c #4A403D",
"&.	c #3D2D25",
"*.	c #421D02",
"=.	c #7B6F70",
"-.	c #543F3E",
";.	c #362B25",
">.	c #6A646D",
",.	c #C79A9D",
"'.	c #B58B8D",
").	c #BB8F91",
"!.	c #735452",
"~.	c #2E221A",
"{.	c #2C2724",
"].	c #8D440A",
"^.	c #AA7E73",
"/.	c #4B270A",
"(.	c #F1EBEC",
"_.	c #8B7671",
":.	c #6E4525",
"<.	c #814E2D",
"[.	c #855743",
"}.	c #714A3B",
"|.	c #4D4442",
"1.	c #847278",
"2.	c #887279",
"3.	c #A98689",
"4.	c #9F7A7B",
"5.	c #785C4D",
"6.	c #A3756A",
"7.	c #D2A2A4",
"8.	c #B28C91",
"9.	c #A57F82",
"0.	c #C6B0B2",
"a.	c #6C564D",
"b.	c #874514",
"c.	c #5B4642",
"d.	c #916C64",
"e.	c #513B33",
"f.	c #602707",
"g.	c #7E4B17",
"h.	c #2D1905",
"i.	c #D31203",
"j.	c #8D1906",
"k.	c #621502",
"l.	c #E21004",
"m.	c #76472D",
"n.	c #653E27",
"o.	c #A76A45",
"p.	c #734325",
"q.	c #9A746D",
". . . . . . . . . . . + + + . . . . . . . . . . . . . + + + . . ",
". . . . . . . . . . . . . + + . . @ # # $ $ . . . . . . . + + . ",
". . . . . . . . . . . . % & % % * = . - ; > # . . . . . . . + . ",
". . . . . . . . . . . . % % % % % % % . . , . ' ) ! ~ { . . . + ",
". . . . . . . . . . . . ] ^ ] + . % % % ] . / . . . . . . . . + ",
"+ . . . . . . . . . ( & _ : < [ [ : } | 1 2 . . . . . . . . . + ",
"+ + . . . . . . . & & _ 3 4 3 < 5 6 ' . . . . . . . . . . . . . ",
"+ + . . . . . . ] 4 4 4 4 7 3 8 4 9 . . . . . . . . . . . . . . ",
"+ + + . . . . 3 7 7 8 8 7 0 a b c d e . . . . . . . . . . . . . ",
"+ + + + . . . 8 7 8 7 4 f g h i j k l + . . . . . . . . . . . . ",
"+ + + + . . m 4 n o b p h q p c r s t + . > . . . . . . . . . . ",
"+ + + + + . u v w x = y z f A B C D E F F F G G . . . . . . . . ",
". + + + + + H , . I J K L = M M = 0 + + N - - O P F . . . . . . ",
". + + + + + Q + + R . . % % ] S % % % + T U V W X - . F . . . . ",
". . + + + + + + + Y # $ $ Z S S % % % % + + + ) ` ! / !  .. . . ",
". . . . . + + ..+.@.#.G O - $.%.&.* = % . + + + + *.+ + + . . . ",
". . . . . . . =.-.;.>.L ,.'.).- O $ !.= % . . . . . . + + + . . ",
". . . . . . . ~.= ;.{.* ].^./.2 2 . (.. . . . . . . . . . + + . ",
". . . . . . . . % % * % % ;._.:.<.[.}.t z . . . . . . . . . + . ",
". . . . . . . . . . % . S |.|.Z 1.2.3.O 4.F E . . . . . . . . + ",
". . . . . . . . . . % ~.^ = ] ~.S 5.6.7.N 8.9.0.. . . . . . . + ",
"+ . . . . . . . . . . % _ a.( ( % % . ].b.) b.. a.. . . . . . + ",
"+ + . . . . . . . . . % c.d.e.% % % = . . . f.g.. . . . . . . . ",
"+ + . . . . . . . . _ % . f.8.h.% % % . . . i.j.k.. . . . . . . ",
"+ + + . . . . . . . _ *.. < ^.. + + + . . l.l.l.. . . . . . . . ",
"+ + + + . . . . . . % . /.^ m.N + + + + l.l.l.. . . . . . . . . ",
"+ + + + . . . . . . . % . < *.d.+ + + + . l.. . . . . . . . . . ",
"+ + + + + . . . . . . % % % e.n.o.+ + + + . . . . . . . . . . . ",
". + + + + + + . . . . . % % c.p.3.+ + + + + + . . . . . . . . . ",
". + + + + + + + + . . . % % . ! q.+ + + + + + + + . . . . . . . ",
". . + + + + + + + + + . % % . . ' . + + + + + + + + + . . . . . ",
". . . . . + + + + + + + + . . . . . . . . + + + + + + + + . . . "};
