/* XPM */
static char * afundando7_xpm[] = {
"32 32 79 1",
" 	c None",
".	c #4878D8",
"+	c #4890D8",
"@	c #8C6B6B",
"#	c #8A6969",
"$	c #876666",
"%	c #7E605D",
"&	c #90665D",
"*	c #A77A73",
"=	c #A0766F",
"-	c #AD928C",
";	c #543C34",
">	c #443028",
",	c #1D140A",
"'	c #411D00",
")	c #7C523B",
"!	c #66482D",
"~	c #7D3903",
"{	c #804010",
"]	c #532E0E",
"^	c #783B09",
"/	c #5C300C",
"(	c #815D45",
"_	c #96644C",
":	c #4A362F",
"<	c #AE8686",
"[	c #A47D7D",
"}	c #A37C7C",
"|	c #9F7A7A",
"1	c #997474",
"2	c #906D6D",
"3	c #251A11",
"4	c #6F534F",
"5	c #CE9EA1",
"6	c #B98D8E",
"7	c #B1888A",
"8	c #AA8182",
"9	c #281C13",
"0	c #3A210C",
"a	c #7E4110",
"b	c #CCA087",
"c	c #562500",
"d	c #47260A",
"e	c #3B1E06",
"f	c #331D08",
"g	c #1F1105",
"h	c #C5B8B2",
"i	c #150C04",
"j	c #211912",
"k	c #472912",
"l	c #854717",
"m	c #61330E",
"n	c #6F3508",
"o	c #957C6A",
"p	c #542C0D",
"q	c #BC9193",
"r	c #331E0E",
"s	c #C58873",
"t	c #B37D6A",
"u	c #A78275",
"v	c #482F23",
"w	c #514040",
"x	c #776362",
"y	c #915622",
"z	c #A85E20",
"A	c #9D591C",
"B	c #874815",
"C	c #6E3910",
"D	c #FFFFFF",
"E	c #381C0D",
"F	c #A51409",
"G	c #D30F04",
"H	c #8A1704",
"I	c #681D07",
"J	c #DA1105",
"K	c #E41004",
"L	c #EC0F04",
"M	c #E31004",
"N	c #BC1207",
"...........+++.............+++..",
".............++..............++.",
"..............+...............+.",
"...............+...............+",
"............@#$+...............+",
"+..........%&*=-;>.............+",
"++.........,')!~{]^/(_..........",
"++..............++..............",
"+++.............+++.............",
"++++............++++............",
"++++............++++............",
"+++++...........+++++...........",
".++++++..........++++++.........",
".++++++++........++++++++.......",
"..+++++++++.......+++++++++.....",
".....++++++:<[}}|12..++++++++...",
"...........345667<8[.......+++..",
"..........930abcdefg8h.......++.",
"..............ijklmmnco.......+.",
"...............+3..p...........+",
"...............+...............+",
"+..............++..............+",
"++..............++..............",
"++........q7<q<.++..............",
"+++......rstuvw.x4+.............",
"++++.....39yzAaBC+D+............",
"++++..........E.++++............",
"+++++.........FGHI+++...........",
".++++++.......JKL++++++.........",
".++++++++.....KM.++++++++.......",
"..+++++++++...N...+++++++++.....",
".....++++++++........++++++++..."};
