/* XPM */
static char * afundando3_xpm[] = {
"32 32 170 2",
"  	c None",
". 	c #4878D8",
"+ 	c #4890D8",
"@ 	c #271B11",
"# 	c #795D5D",
"$ 	c #856565",
"% 	c #7F6162",
"& 	c #6B4737",
"* 	c #774627",
"= 	c #A57A68",
"- 	c #936C64",
"; 	c #A37C7C",
"> 	c #8B4817",
", 	c #86441A",
"' 	c #7A3C1A",
") 	c #784617",
"! 	c #592D0B",
"~ 	c #B38773",
"{ 	c #251A0D",
"] 	c #68330C",
"^ 	c #321D0C",
"/ 	c #2D1C0D",
"( 	c #65330D",
"_ 	c #34240E",
": 	c #3B240C",
"< 	c #432207",
"[ 	c #3D1E05",
"} 	c #6A3810",
"| 	c #271709",
"1 	c #2F200E",
"2 	c #3C290F",
"3 	c #3D2A12",
"4 	c #442D12",
"5 	c #473015",
"6 	c #95662F",
"7 	c #BF873F",
"8 	c #291D11",
"9 	c #2D2113",
"0 	c #63431B",
"a 	c #B8863D",
"b 	c #E99E4B",
"c 	c #EEB854",
"d 	c #FEB955",
"e 	c #FEB553",
"f 	c #342614",
"g 	c #4C3214",
"h 	c #AC7B3D",
"i 	c #C7873B",
"j 	c #9C682F",
"k 	c #BC8E52",
"l 	c #C88841",
"m 	c #F5A54E",
"n 	c #CD9349",
"o 	c #825D4E",
"p 	c #8C6B6A",
"q 	c #916E6E",
"r 	c #866768",
"s 	c #232423",
"t 	c #2D271E",
"u 	c #663B15",
"v 	c #9B6C34",
"w 	c #BB8941",
"x 	c #A06F33",
"y 	c #997475",
"z 	c #967374",
"A 	c #554338",
"B 	c #A9752E",
"C 	c #875C31",
"D 	c #77542A",
"E 	c #8B6233",
"F 	c #8B6454",
"G 	c #A16F5F",
"H 	c #764C35",
"I 	c #8B5C48",
"J 	c #9E827A",
"K 	c #785854",
"L 	c #3C2815",
"M 	c #332A1C",
"N 	c #8F5A1F",
"O 	c #B27450",
"P 	c #946042",
"Q 	c #8D5C3B",
"R 	c #422F19",
"S 	c #5A2B07",
"T 	c #73370C",
"U 	c #262B2D",
"V 	c #643C1B",
"W 	c #A06D3E",
"X 	c #C67C4B",
"Y 	c #A9755A",
"Z 	c #865F52",
"` 	c #5B412E",
" .	c #49321A",
"..	c #4C2C12",
"+.	c #926C4C",
"@.	c #83543A",
"#.	c #7A5748",
"$.	c #8C6964",
"%.	c #674A44",
"&.	c #AF8571",
"*.	c #8C6843",
"=.	c #9C7362",
"-.	c #986A57",
";.	c #846056",
">.	c #A47A75",
",.	c #AD8484",
"'.	c #9B7778",
").	c #5C3313",
"!.	c #754319",
"~.	c #A37439",
"{.	c #84603A",
"].	c #6B533B",
"^.	c #836559",
"/.	c #8D644E",
"(.	c #653D26",
"_.	c #C0B5AA",
":.	c #532811",
"<.	c #733D14",
"[.	c #503825",
"}.	c #91706F",
"|.	c #988787",
"1.	c #42250C",
"2.	c #562714",
"3.	c #893931",
"4.	c #64321F",
"5.	c #4D290C",
"6.	c #453730",
"7.	c #3B2E20",
"8.	c #6C5E5B",
"9.	c #B08681",
"0.	c #A68282",
"a.	c #9D7878",
"b.	c #8A3F20",
"c.	c #A2662B",
"d.	c #845B2C",
"e.	c #62463B",
"f.	c #583519",
"g.	c #763224",
"h.	c #823433",
"i.	c #F6B454",
"j.	c #674426",
"k.	c #53300D",
"l.	c #944916",
"m.	c #89541E",
"n.	c #845523",
"o.	c #563C2E",
"p.	c #C60E04",
"q.	c #7B1D07",
"r.	c #793330",
"s.	c #6F2F1E",
"t.	c #B27B32",
"u.	c #EAA64B",
"v.	c #411D04",
"w.	c #DD0F04",
"x.	c #823929",
"y.	c #9B521A",
"z.	c #965018",
"A.	c #C37D34",
"B.	c #271202",
"C.	c #A1561B",
"D.	c #613212",
"E.	c #844816",
"F.	c #A9817F",
"G.	c #4A2408",
"H.	c #B48C8E",
"I.	c #51290C",
"J.	c #C1999D",
"K.	c #784F38",
"L.	c #9C746C",
"M.	c #876043",
". . . . . . . . . . . + + @ @ @ . . . . . . . . . . . + + + . . ",
". . . . . . . . . . . . . + + . . . # $ % # . . . . . . . + + . ",
". . . . . . . . . . . . . . + . . . . & * = = - ; . . . . . + . ",
". . . . . . . . . . @ @ @ @ @ @ . . . . . . . > , ' ) ! ~ . . + ",
". . . . . . . . . . @ @ @ @ @ { @ @ . . . . ] . . . . . . . . + ",
"+ . . . . . . . . . . @ @ . . + + ^ / . . ( . . . . . . . . . + ",
"+ + . . . . . . . . . / ^ ^ _ : < < [ ! } . . . . . . . . . . . ",
"+ + . . . . . . . . | 1 _ : 2 2 2 : ( . . . . . . . . . . . . . ",
"+ + + . . . . . @ | 1 _ 2 : 3 2 4 5 6 7 . . . . . . . . . . . . ",
"+ + + + . . . 8 9 9 _ 2 4 3 5 0 a b c d e . . . . . . . . . . . ",
"+ + + + . . @ 9 f 2 4 4 3 g h c e i ) j k . . . . . . . . . . . ",
"+ + + + + . 8 f 2 4 4 4 0 l e e m 7 n o p q q p r . . . . . . . ",
". + + + + + f 9 s t u 6 v w l a a x a a + ; ; ; y z q . . . . . ",
". + + + + f 3 f s A j B h C D E D _ + + + + F G H I . J K . . . ",
". . + + + L M s M N N C O P H Q R g + + + + + + + S S . T . . . ",
". . . . . L L U V W E X Y F Z `  .../ . . + + + + + + } + . . . ",
". . . . R M s 5 E +.@.F #.$.z y y r %.. . . . . . . . + + + . . ",
". . . .  .s U u &.*.=.-.F #.;.>.,.z '.y . . . . . . . . . + + . ",
". . . . 5 g ).!.~.v *.{.+.].A ^./.* * (.K ^._.. . . . . . . + . ",
". . . . ^ :.).<.0 { 4 u ` 3 [.A }.|.#.%.r p z p . . . . . . . + ",
". . . . 1.2.3.4.5.) ) u ..u < 6.7.. . 8.y 9.0.a.a.z . . . . . + ",
"+ . . . . ' 3.b.c.n d e x d.v V 8 . . . e.~ Y f.. . @.. . . . + ",
"+ + . . . g.h.> i i.e e i ~.~.j.%.+ . . . . . . ] k.. . . . . . ",
"+ + . . . :.:.l.i e a m.v h n.o...; . . . . . . . p.q.. . . . . ",
"+ + + . . r.s.T t.u.u.n.v.:.4 . Z I + . . . . . w.w.w.. . . . . ",
"+ + + + . h.x.y.z.A.i c.!.! v.B.0.Q 9.+ . . . . w.w.. . . . . . ",
"+ + + + . g., z.y.C.> l.).. /  .& (.=.= . . . . w.w.. . . . . . ",
"+ + + + + 1.D.> y.y.E.f.. @ { $ F.Z G.$.+ . . . . . . . . . . . ",
". + + + + + + . . . ' 3 . @ { . ; H.- I.+ + + . . . . . . . . . ",
". + + + + + + + + . . . @ @ @ . . + J.K.L.+ + + + . . . . . . . ",
". . + + + + + + + + + . @ @ @ . . . + V +.+ + + + + + . . . . . ",
". . . . . + + + + + + + + @ @ . . . . . M.+ + + + + + + + . . . "};
