/* XPM */
static char * afundando6_xpm[] = {
"32 32 105 2",
"  	c None",
". 	c #4878D8",
"+ 	c #4890D8",
"@ 	c #725758",
"# 	c #271B11",
"$ 	c #21160C",
"% 	c #46342D",
"& 	c #533E39",
"* 	c #7D5F5D",
"= 	c #927072",
"- 	c #8F6D6D",
"; 	c #856566",
"> 	c #413029",
", 	c #7D5341",
"' 	c #AB807D",
") 	c #6B4B41",
"! 	c #7D5F5B",
"~ 	c #FAECEC",
"{ 	c #CCA0A0",
"] 	c #743B0B",
"^ 	c #5D310D",
"/ 	c #7B4211",
"( 	c #64340E",
"_ 	c #542400",
": 	c #845B49",
"< 	c #24180E",
"[ 	c #4D2C17",
"} 	c #68330B",
"| 	c #432710",
"1 	c #201811",
"2 	c #793E10",
"3 	c #3B210C",
"4 	c #603615",
"5 	c #441E02",
"6 	c #824516",
"7 	c #4B3314",
"8 	c #5D3A15",
"9 	c #593D19",
"0 	c #B68038",
"a 	c #AC7537",
"b 	c #FFC85B",
"c 	c #9C6228",
"d 	c #372C27",
"e 	c #8D6B6B",
"f 	c #997474",
"g 	c #957171",
"h 	c #37281F",
"i 	c #A98181",
"j 	c #A57D7D",
"k 	c #906E6E",
"l 	c #77554C",
"m 	c #BE8D88",
"n 	c #BF9C9C",
"o 	c #AC8487",
"p 	c #A47E80",
"q 	c #9E7A7C",
"r 	c #362214",
"s 	c #7D4F34",
"t 	c #8C674E",
"u 	c #673D22",
"v 	c #834927",
"w 	c #814C29",
"x 	c #8E5535",
"y 	c #734B35",
"z 	c #311F0F",
"A 	c #2D1E10",
"B 	c #673208",
"C 	c #462105",
"D 	c #944D16",
"E 	c #AC8583",
"F 	c #AF8688",
"G 	c #6A370F",
"H 	c #A1756F",
"I 	c #B98C89",
"J 	c #BC928B",
"K 	c #936D68",
"L 	c #3A1300",
"M 	c #735647",
"N 	c #A28B7D",
"O 	c #4C2401",
"P 	c #A78982",
"Q 	c #8D7B78",
"R 	c #5B555A",
"S 	c #7C5649",
"T 	c #946D69",
"U 	c #413734",
"V 	c #4E4444",
"W 	c #311C0A",
"X 	c #764D3C",
"Y 	c #D39F9C",
"Z 	c #CEA6A1",
"` 	c #C5AFAD",
" .	c #542A06",
"..	c #673711",
"+.	c #653813",
"@.	c #6E4423",
"#.	c #DFCEC0",
"$.	c #2D2015",
"%.	c #2E2723",
"&.	c #2B1F17",
"*.	c #442B09",
"=.	c #CB1206",
"-.	c #BD1204",
";.	c #3B2409",
">.	c #E31004",
". . . . . . . . . . . + + + . . . . . . . . . . . . . + + + . . ",
". . . . . . . . . . . . . + + . . . . . . . . . . . . . . + + . ",
". . . . . . . . . . . . . . + @ . . . . . . . . . . . . . . + . ",
". . . . . . . . . . . . # $ % & * = - - ; . . . . . . . . . . + ",
". . . . . . . . . . . . . # # # > , ' ) ! . ~ { . . . . . . . + ",
"+ . . . . . . . . . . . . # # # + . ] ^ / ( . _ : . . . . . . + ",
"+ + . . . . . . . . . . # # # # # < [ } | 1 . . . 2 . . . . . . ",
"+ + . . . . . . . . . . . . . . 3 4 . . . . . . . . . . . . . . ",
"+ + + . . . . . . . . . . . 5 2 6 + + . . . . . . . . . . . . . ",
"+ + + + . . . . . . . . . 7 8 . + + + + . . . . . . . . . . . . ",
"+ + + + . . . . . . . . 9 0 a b + + + + . . . . . . . . . . . . ",
"+ + + + + . . . . . . . . . c . + + + + + . . . . . . . . . . . ",
". + + + + + + . . . . . . . _ [ . + + + + + + . . . . . . . . . ",
". + + + + + + + + . . . . . d e f f g - + + + + + . . . . . . . ",
". . + + + + + + + + + . # # # $ h i ' j j g k + + + + . . . . . ",
". . . . . + + + + + + + # # # # < l m n f o p q + + + + + . . . ",
". . . . . . . . . . . + # # # # # r s t u v w x y . . + + + . . ",
". . . . . . . . . . . . < # # # # # z z A B C . D E . . . + + . ",
". . . . . . . . . . F j i . + . # # . # # # . G . . . . . . + . ",
". . . . . . . . . H I J K e k + . < . . . . . . . . . . . . . + ",
". . . . . . . . . L M N 4 O [ P Q . . . . . . . . . . . . . . + ",
"+ . . . . . . . . . . R . S T T g k . . . . . . . . . . . . . + ",
"+ + . . . . . . . . . U d V W F i j j f . . . . . . . . . . . . ",
"+ + . . . . . . . . . . # < 1 X Y Z ) . ` . . . . . . . . . . . ",
"+ + + . . . . . . . . . # # # |  ...+.B . @.#.. . . . . . . . . ",
"+ + + + . . . . . . . . . . . $.+ %.&.3 *.. . . . . . . . . . . ",
"+ + + + . . . . . . . . . . . # + + + =.-.;.. . . . . . . . . . ",
"+ + + + + . . . . . . . . . . # # + >.>.>.. . . . . . . . . . . ",
". + + + + + + . . . . . . . . # . + >.>.>.+ + . . . . . . . . . ",
". + + + + + + + + . . . . . . # . + >.>.+ + + + + . . . . . . . ",
". . + + + + + + + + + . . ^ . # . . + + + + + + + + + . . . . . ",
". . . . . + + + + + + + + . . . . . . . . + + + + + + + + . . . "};
