/* XPM */
static char * afundando4_xpm[] = {
"32 32 167 2",
"  	c None",
". 	c #4878D8",
"+ 	c #4890D8",
"@ 	c #271B11",
"# 	c #8C6B6C",
"$ 	c #906C6C",
"% 	c #876768",
"& 	c #8A5F53",
"* 	c #865B48",
"= 	c #B48C8D",
"- 	c #A55D20",
"; 	c #7E4315",
"> 	c #6C360C",
", 	c #6E380D",
"' 	c #805237",
") 	c #A77B73",
"! 	c #2B1B0D",
"~ 	c #25190D",
"{ 	c #2A1D12",
"] 	c #44230B",
"^ 	c #632F09",
"/ 	c #4C2405",
"( 	c #331D0B",
"_ 	c #3B230B",
": 	c #421E03",
"< 	c #482508",
"[ 	c #5D2C08",
"} 	c #3D1C03",
"| 	c #3B290F",
"1 	c #432D11",
"2 	c #633915",
"3 	c #2D2113",
"4 	c #463112",
"5 	c #3B2911",
"6 	c #4B3314",
"7 	c #653E18",
"8 	c #342412",
"9 	c #4B2D12",
"0 	c #67421C",
"a 	c #886129",
"b 	c #D19044",
"c 	c #FDB554",
"d 	c #FCBF57",
"e 	c #2C231A",
"f 	c #7D5526",
"g 	c #BD843D",
"h 	c #E5B350",
"i 	c #855121",
"j 	c #704618",
"k 	c #32200C",
"l 	c #A27032",
"m 	c #E49F4E",
"n 	c #FFC95B",
"o 	c #EAA44B",
"p 	c #EB9E4B",
"q 	c #B78741",
"r 	c #A06527",
"s 	c #5E3D2B",
"t 	c #977268",
"u 	c #89655C",
"v 	c #1B262E",
"w 	c #252B2F",
"x 	c #A46A2E",
"y 	c #A6793B",
"z 	c #A3743A",
"A 	c #C19240",
"B 	c #C48942",
"C 	c #E9AA4D",
"D 	c #BF9044",
"E 	c #C8965A",
"F 	c #947272",
"G 	c #9A7575",
"H 	c #3A2C1A",
"I 	c #2F291F",
"J 	c #593B1D",
"K 	c #985C28",
"L 	c #895839",
"M 	c #AA7243",
"N 	c #53351B",
"O 	c #895F30",
"P 	c #684422",
"Q 	c #BB9193",
"R 	c #AB8384",
"S 	c #9D797A",
"T 	c #232524",
"U 	c #593812",
"V 	c #88521B",
"W 	c #865B27",
"X 	c #A26E50",
"Y 	c #A36B4D",
"Z 	c #8D6143",
"` 	c #2F200C",
" .	c #562D18",
"..	c #D7A3A3",
"+.	c #CAB6B6",
"@.	c #FBF9FF",
"#.	c #AA8587",
"$.	c #A37D7D",
"%.	c #987578",
"&.	c #44342B",
"*.	c #A38870",
"=.	c #B37351",
"-.	c #A57565",
";.	c #61483E",
">.	c #763B10",
",.	c #393534",
"'.	c #775847",
").	c #7D533B",
"!.	c #B88A77",
"~.	c #A67255",
"{.	c #8F604A",
"].	c #624B4C",
"^.	c #3D2D26",
"/.	c #33261D",
"(.	c #40280D",
"_.	c #3E3839",
":.	c #B29C9F",
"<.	c #906C66",
"[.	c #AD9595",
"}.	c #C19497",
"|.	c #B38789",
"1.	c #B38B90",
"2.	c #783822",
"3.	c #864816",
"4.	c #3B2512",
"5.	c #5D5456",
"6.	c #53290B",
"7.	c #D1AC8F",
"8.	c #8D8682",
"9.	c #88332F",
"0.	c #564B4A",
"a.	c #79727D",
"b.	c #474043",
"c.	c #7A461F",
"d.	c #72493B",
"e.	c #853430",
"f.	c #B67632",
"g.	c #DDA148",
"h.	c #99662C",
"i.	c #58433B",
"j.	c #4A231E",
"k.	c #95541E",
"l.	c #F6AD50",
"m.	c #BF8E41",
"n.	c #8F6850",
"o.	c #8F6457",
"p.	c #C29EA4",
"q.	c #A7561A",
"r.	c #F6B455",
"s.	c #A6702C",
"t.	c #593F22",
"u.	c #6A4F4A",
"v.	c #241001",
"w.	c #814313",
"x.	c #573E37",
"y.	c #FFD05B",
"z.	c #331804",
"A.	c #1F130C",
"B.	c #571E03",
"C.	c #9E766D",
"D.	c #D31204",
"E.	c #881C06",
"F.	c #734E41",
"G.	c #E21004",
"H.	c #7F584E",
"I.	c #5B300C",
"J.	c #936C5F",
". . . . . . . . . . . + + + . @ . . . . . . . . . . . + + + . . ",
". . . . . . . . . . . . . + + . . . . . # $ # # % . . . . + + . ",
". . . . . . . . . . . . . . + . . . . . . . & * = . . . . . + . ",
". . . . . . . . . . . . @ @ @ @ @ @ @ . . . . - . ; > , ' ) . + ",
". . . . . . . . . . . . @ ! ! ~ ! ! { @ . . . ] ^ . . . . . . + ",
"+ . . . . . . . . . . / ( ( ( _ _ : < _ ! [ , . . . . . . . . + ",
"+ + . . . . . . . . } ( ! | | 1 1 | / / , 2 . . . . . . . . . . ",
"+ + . . . . . . . ! 3 ( 1 | 1 1 4 5 6 7 . . . . . . . . . . . . ",
"+ + + . . . . . { 8 | 1 9 6 1 6 0 a b c d . . . . . . . . . . . ",
"+ + + + . . . e 8 1 6 6 6 6 f g h c i j c . . . . . . . . . . . ",
"+ + + + . . 3 8 k 6 6 6 1 l m n o p q r s t . u . . . . . . . . ",
"+ + + + + . 8 5 v w 2 x y z A B C D b E $ F G G $ $ . . . . . . ",
". + + + + H | I e J K f L M N O P k + + + + Q R R ) G S . . . . ",
". + + + + 1 T w U V W q X Y Z ' ` N + + + +  ...G +.@.#.$.%.. . ",
". . + + + T H &.- *.a =.-.% # ;.P @ @ + + + + + + + >., , ' . . ",
". . . . . T ,.i '.).!.~.{.-.$.$.].].^./.. + + + + + + } + . . . ",
". . . . . (.P . _.&.:.<.[.&.Q }.|.1.$.%.$ . . . . . . + + + . . ",
". . . . . 2.3.~ 2 4./.@ 5.~ 6.7 7.9 4.{ 8.$.. . . . . . . + + . ",
". . . . . 9. .3.9 0 8 ~ ! 0.H a.b.Z c.* d.s L . . . . . . . + . ",
". . . . . e.2.i f.g.K 0 h.7 8 i.&.. a.. R $.$.G G . . . . . . + ",
". . . . . j.k.o c l.o m.M q n.) . . . . o...p.1.R +.. . . . . + ",
"+ . . . . ( q.c r.r s.l y t.u.v.{ . . . . . w., 3.. x.. . . . + ",
"+ + . . . > ; y.c t.: z.A.~ ! z.$ ~ . . . . . . B.V . >.. . . . ",
"+ + . . . . . . . . @ k ] ( @ u C.x.@ . . . . . D.E.. . . . . . ",
"+ + + . . . . . . . @ . . ] F.Q 3.= @ . . . . G.G.G.. . . . . . ",
"+ + + + . . . . . . @ . @ e H.< [ = + + . . . G.G.. . . . . . . ",
"+ + + + . . . . . . . @ @ { # t F.* + + . . . . . . . . . . . . ",
"+ + + + + . . . . . . @ @ @ ~ i.1.I.~.+ + . . . . . . . . . . . ",
". + + + + + + . . . . . @ . @ . . 6.R + + + + . . . . . . . . . ",
". + + + + + + + + . . . @ . @ . . + J.+ + + + + + . . . . . . . ",
". . + + + + + + + + + . . . @ . . . , + + + + + + + + . . . . . ",
". . . . . + + + + + + + + @ @ . . . . . . + + + + + + + + . . . "};
