/* XPM */
static char * barcoN_xpm[] = {
"32 32 359 2",
"  	c None",
". 	c #4878D8",
"+ 	c #4890D8",
"@ 	c #F1C6C3",
"# 	c #EEC2C0",
"$ 	c #ECBCBB",
"% 	c #EEBCBA",
"& 	c #EFB9B6",
"* 	c #C5A8A7",
"= 	c #7C5644",
"- 	c #AE7B64",
"; 	c #BA8B73",
"> 	c #AC7F67",
", 	c #9C6D50",
"' 	c #AC795F",
") 	c #A36D52",
"! 	c #9A654B",
"~ 	c #7D4721",
"{ 	c #44332A",
"] 	c #816862",
"^ 	c #7B6964",
"/ 	c #5A4336",
"( 	c #5F4131",
"_ 	c #5B3E2F",
": 	c #B4887D",
"< 	c #603008",
"[ 	c #462D1C",
"} 	c #5F3A27",
"| 	c #854612",
"1 	c #733F16",
"2 	c #7E4011",
"3 	c #2D1C0E",
"4 	c #381B03",
"5 	c #603110",
"6 	c #391C05",
"7 	c #3E1C03",
"8 	c #3B1A01",
"9 	c #71380F",
"0 	c #2C1D0E",
"a 	c #281E0F",
"b 	c #261C0D",
"c 	c #7C5426",
"d 	c #EEA846",
"e 	c #654D4D",
"f 	c #6A5151",
"g 	c #6B5151",
"h 	c #2E2212",
"i 	c #2C2011",
"j 	c #372713",
"k 	c #CB8F3B",
"l 	c #C4823B",
"m 	c #C5893D",
"n 	c #8E6849",
"o 	c #6C514F",
"p 	c #795852",
"q 	c #7B564C",
"r 	c #D49F95",
"s 	c #E2A9A0",
"t 	c #D59F98",
"u 	c #C6948D",
"v 	c #C18D82",
"w 	c #C59288",
"x 	c #322514",
"y 	c #3F2D15",
"z 	c #A47531",
"A 	c #976C2F",
"B 	c #744D21",
"C 	c #452E1A",
"D 	c #563612",
"E 	c #6C4212",
"F 	c #79461B",
"G 	c #78401A",
"H 	c #612B00",
"I 	c #642D00",
"J 	c #4C2100",
"K 	c #3B1A00",
"L 	c #5E2C04",
"M 	c #703305",
"N 	c #6D340B",
"O 	c #332615",
"P 	c #332614",
"Q 	c #2B2010",
"R 	c #865B29",
"S 	c #8E642D",
"T 	c #684B22",
"U 	c #6B471F",
"V 	c #6E4B1D",
"W 	c #67441F",
"X 	c #7A5625",
"Y 	c #65461D",
"Z 	c #352716",
"` 	c #372915",
" .	c #4D371A",
"..	c #B37C37",
"+.	c #E8A648",
"@.	c #D2913E",
"#.	c #D48D3C",
"$.	c #D6943E",
"%.	c #B27A36",
"&.	c #A27534",
"*.	c #AA7735",
"=.	c #3B2B16",
"-.	c #3F2912",
";.	c #583411",
">.	c #764C1E",
",.	c #885A24",
"'.	c #865822",
").	c #8B5C21",
"!.	c #875820",
"~.	c #865722",
"{.	c #7B5120",
"].	c #392A19",
"^.	c #362A19",
"/.	c #573A19",
"(.	c #BA7329",
"_.	c #D18D36",
":.	c #C88C38",
"<.	c #C58A37",
"[.	c #BC7D31",
"}.	c #C08332",
"|.	c #A06E2E",
"1.	c #432C13",
"2.	c #2E2315",
"3.	c #1D2326",
"4.	c #543F28",
"5.	c #9B6021",
"6.	c #97662D",
"7.	c #9A6534",
"8.	c #A06535",
"9.	c #A36332",
"0.	c #B87139",
"a.	c #936129",
"b.	c #3E2C16",
"c.	c #412C21",
"d.	c #42321B",
"e.	c #2B251F",
"f.	c #5D3D1F",
"g.	c #8B571E",
"h.	c #764E27",
"i.	c #7E5138",
"j.	c #8F6254",
"k.	c #80615F",
"l.	c #7B5C5B",
"m.	c #9A7773",
"n.	c #A47F78",
"o.	c #F7C0C1",
"p.	c #BE9596",
"q.	c #7D6163",
"r.	c #957678",
"s.	c #CDA2A5",
"t.	c #F7C2C4",
"u.	c #F7C1C3",
"v.	c #F0BBBD",
"w.	c #EBB8BB",
"x.	c #40301A",
"y.	c #2F281F",
"z.	c #69411C",
"A.	c #895720",
"B.	c #4E361B",
"C.	c #493124",
"D.	c #2B1B13",
"E.	c #331A08",
"F.	c #6F380F",
"G.	c #834D2B",
"H.	c #4E2605",
"I.	c #3D2513",
"J.	c #3C2210",
"K.	c #452002",
"L.	c #824C2B",
"M.	c #6E370B",
"N.	c #6C3409",
"O.	c #6A3407",
"P.	c #6B3205",
"Q.	c #6C3003",
"R.	c #8B5028",
"S.	c #874D23",
"T.	c #282621",
"U.	c #634124",
"V.	c #825E3A",
"W.	c #5C4837",
"X.	c #563622",
"Y.	c #5F4437",
"Z.	c #684C3E",
"`.	c #574949",
" +	c #7B6C6D",
".+	c #4F3E35",
"++	c #655452",
"@+	c #715A53",
"#+	c #655756",
"$+	c #7A737E",
"%+	c #594944",
"&+	c #8E848F",
"*+	c #9F1303",
"=+	c #921400",
"-+	c #46341C",
";+	c #2D2820",
">+	c #4C3621",
",+	c #705442",
"'+	c #755E4E",
")+	c #6D462E",
"!+	c #452D22",
"~+	c #77615E",
"{+	c #452F26",
"]+	c #62452B",
"^+	c #5A4E45",
"/+	c #6B5F63",
"(+	c #84808E",
"_+	c #CA0E03",
":+	c #362817",
"<+	c #162129",
"[+	c #4C4135",
"}+	c #684B31",
"|+	c #644923",
"1+	c #69451E",
"2+	c #5F3F18",
"3+	c #573B1C",
"4+	c #533717",
"5+	c #422B11",
"6+	c #44331E",
"7+	c #483B35",
"8+	c #C70E03",
"9+	c #422F19",
"0+	c #483319",
"a+	c #644219",
"b+	c #B47227",
"c+	c #CB8C38",
"d+	c #C78634",
"e+	c #C58734",
"f+	c #BA7E33",
"g+	c #C18535",
"h+	c #744C1E",
"i+	c #3F260D",
"j+	c #6E3C1B",
"k+	c #4A361C",
"l+	c #48290D",
"m+	c #512709",
"n+	c #642D0D",
"o+	c #68310A",
"p+	c #8C511C",
"q+	c #9E6424",
"r+	c #A06525",
"s+	c #9C5C21",
"t+	c #82521D",
"u+	c #7D4B1A",
"v+	c #925F2B",
"w+	c #835B4E",
"x+	c #93685D",
"y+	c #4A2F13",
"z+	c #5E2811",
"A+	c #82342E",
"B+	c #723E19",
"C+	c #AA6D2B",
"D+	c #C18738",
"E+	c #BB8034",
"F+	c #B8772F",
"G+	c #BC8030",
"H+	c #573C18",
"I+	c #996F33",
"J+	c #7C4F2C",
"K+	c #7F533F",
"L+	c #876054",
"M+	c #412D16",
"N+	c #522208",
"O+	c #7A3028",
"P+	c #783519",
"Q+	c #986024",
"R+	c #AE7832",
"S+	c #B97F33",
"T+	c #C28032",
"U+	c #CA8A34",
"V+	c #765121",
"W+	c #895E24",
"X+	c #834711",
"Y+	c #A6776D",
"Z+	c #6C4530",
"`+	c #744B37",
" @	c #AB7F74",
".@	c #2B1D10",
"+@	c #4C260F",
"@@	c #772F24",
"#@	c #8D3B27",
"$@	c #884717",
"%@	c #AD742F",
"&@	c #BC7F34",
"*@	c #7E4B1A",
"=@	c #401D05",
"-@	c #452106",
";@	c #4B2508",
">@	c #4C2708",
",@	c #4C2505",
"'@	c #6E493B",
")@	c #7B564A",
"!@	c #391A04",
"~@	c #936554",
"{@	c #2B1C10",
"]@	c #361E08",
"^@	c #52250D",
"/@	c #703120",
"(@	c #72340E",
"_@	c #8B561D",
":@	c #B97C31",
"<@	c #C18033",
"[@	c #B57C2E",
"}@	c #65431A",
"|@	c #58300C",
"1@	c #B88F90",
"2@	c #B68D8E",
"3@	c #AA7F77",
"4@	c #724936",
"5@	c #B38986",
"6@	c #2B1B0D",
"7@	c #5B2611",
"8@	c #7A2F28",
"9@	c #723712",
"0@	c #67320A",
"a@	c #8E531A",
"b@	c #A66826",
"c@	c #A86A23",
"d@	c #6A3B10",
"e@	c #3A1801",
"f@	c #B08787",
"g@	c #B58D8D",
"h@	c #AB817B",
"i@	c #774E3C",
"j@	c #2E1D0D",
"k@	c #51240C",
"l@	c #7D302A",
"m@	c #883C22",
"n@	c #70360D",
"o@	c #73390C",
"p@	c #793F10",
"q@	c #75390B",
"r@	c #723507",
"s@	c #592905",
"t@	c #8E5D49",
"u@	c #291B10",
"v@	c #321D0C",
"w@	c #4C220D",
"x@	c #5D2619",
"y@	c #7E3E0F",
"z@	c #73380B",
"A@	c #743A0C",
"B@	c #783C0B",
"C@	c #763A0A",
"D@	c #6E3609",
"E@	c #271B11",
"F@	c #241A12",
"G@	c #2C1C0C",
"H@	c #743B0D",
"I@	c #4D2C11",
"J@	c #532B0C",
"K@	c #46270E",
"L@	c #4F290C",
"M@	c #602C06",
"N@	c #261B12",
"O@	c #1D1712",
"P@	c #221911",
"Q@	c #241A11",
"R@	c #231912",
". . . . . . . . . . . + + + . @ # $ % & . . . . . . . + + + . . ",
". . . . . . . . . . . . * = - ; > , ' ) ! ~ . . . . . . . + + . ",
". . . . . . . . . . { ] ^ / ( _ : < [ . . . . . . . . . . . + . ",
". . . . . . . . . . . . . . . + } | . . . . . . . . . . . . . + ",
". . . . . . . . . . . . . . . + 1 . . . . . . . . . . . . . . + ",
"+ . . . . . . . . . . . . . . + 2 . . . . . . . . . . . . . . + ",
"+ + . . . . . . . . . . . 3 4 5 + + . . . . . . . . . . . . . . ",
"+ + . . . . . . . . . . 6 7 8 9 + + . . . . . . . . . . . . . . ",
"+ + + . . . . . . . . . 0 a b c d + + . . e f g . . . . . . . . ",
"+ + + + . . . . . . . h i j k l m n o p q r s t u v w . . . . . ",
"+ + + + . . . . . . x h y z A B C D E F G H I J K L M N . . . . ",
"+ + + + + . . . . O P Q R S T U V W X Y + . . . . . . . . . . . ",
". + + + + + + . . Z `  ...+.@.#.$.%.&.*.+ + + . . . . . . . . . ",
". + + + + + + + + =.-.;.>.,.'.).!.~.{.+ + + + + + . . . . . . . ",
". . + + + + + + ].^./.(._.:.<.[.}.|.1.+ + + + + + + + . . . . . ",
". . . . . + + + 2.3.4.5.6.7.8.9.0.a.b.c.. + + + + + + + + . . . ",
". . . . . . . . d.e.f.g.h.i.j.k.l.m.n.o.p.q.r.s.t.u.v.w.+ + . . ",
". . . . . . . . x.y.z.A.B.C.D.E.F.G.H.I.J.K.L.M.N.O.P.Q.R.S.+ . ",
". . . . . . . . d.T.U.V.W.X.Y.Z.`. +.+++@+#+$+%+&+. . *+=+. + . ",
". . . . . . . . -+;+>+,+'+)+!+~+{+]+^+/+. (+. . . . . _+. . . + ",
". . . . . . . . :+<+[+}+|+1+2+3+4+5+6+7+. . . . . . . 8+. . . + ",
"+ . . . . . . . 9+0+a+b+c+d+e+f+g+h+i+j+. . . . . . . 8+. . . + ",
"+ + . . . . . . k+l+m+n+o+p+q+r+s+t+u+v+w+x+. . . . . . . . . . ",
"+ + . . . . . . . y+z+A+B+C+D+E+F+G+H+I+J+K+L+. . . . . . . . . ",
"+ + + . . . . . . M+N+O+P+Q+R+S+T+U+V+W+X+Y+Z+`+ @. . . . . . . ",
"+ + + + . . . . . .@+@@@#@$@%@&@*@=@-@;@>@,@'@)@!@~@. . . . . . ",
"+ + + + . . . . . {@]@^@/@(@_@:@<@[@}@|@. . 1@2@3@4@5@. . . . . ",
"+ + + + + . . . . . 6@7@8@9@0@a@b@c@d@e@+ . . f@g@h@i@. . . . . ",
". + + + + + + . . . j@k@l@m@n@o@p@q@r@s@+ + + . . . . t@. . . . ",
". + + + + + + + + . u@v@w@x@y@z@A@B@C@D@+ + + + + . . . . . . . ",
". . + + + + + + + + + E@F@G@H@I@J@K@L@M@+ + + + + + + . . . . . ",
". . . . . + + + + + + E@E@N@O@P@. Q@R@. . + + + + + + + + . . . "};
