/* XPM */
static char *afundando7_tmp[] = {
/* columns rows colors chars-per-pixel */
"32 32 81 1 ",
"  c #150C04",
". c #1F1105",
"X c #1D140A",
"o c #3B1E06",
"O c #331D08",
"+ c #331E0E",
"@ c #381C0D",
"# c #211912",
"$ c #251A11",
"% c #271B11",
"& c #281C13",
"* c #3A210C",
"= c #411D00",
"- c #681D07",
"; c #47260A",
": c #562500",
"> c #532E0E",
", c #542C0D",
"< c #5C300C",
"1 c #472912",
"2 c #61330E",
"3 c #6F3508",
"4 c #7D3903",
"5 c #783B09",
"6 c #6E3910",
"7 c #482F23",
"8 c #443028",
"9 c #4A362F",
"0 c #543C34",
"q c #7E4110",
"w c #66482D",
"e c #7C523B",
"r c #514040",
"t c #6F534F",
"y c #7E605D",
"u c #776362",
"i c #8A1704",
"p c #A51409",
"a c #BC1207",
"s c #D30F04",
"d c #DA1105",
"f c #EC0F04",
"g c #E31004",
"h c #E41004",
"j c #804010",
"k c #854717",
"l c #874815",
"z c #9D591C",
"x c #915622",
"c c #A85E20",
"v c #815D45",
"b c #96644C",
"n c #90665D",
"m c #876666",
"M c #8A6969",
"N c #8C6B6B",
"B c #906D6D",
"V c #957C6A",
"C c #997474",
"Z c #9F7A7A",
"A c #A0766F",
"S c #B37D6A",
"D c #A77A73",
"F c #A37C7C",
"G c #A47D7D",
"H c #A78275",
"J c #C58873",
"K c #AA8182",
"L c #AE8686",
"P c #B1888A",
"I c #B2888A",
"U c #B98D8E",
"Y c #B88D8F",
"T c #AD928C",
"R c #BB8F91",
"E c #BC9193",
"W c #CCA087",
"Q c #CE9EA1",
"! c #C5B8B2",
"~ c white",
"^ c None",
/* pixels */
"^^^^^^^^^^^^^^^^^^^^^^^^^^^^^^^^",
"^^^^^^^^^^^^^^^^^a^^^^^^^^^^^^^^",
"^^^^^^^^^^^^^^^^gh^^^^^^^^^^^^^^",
"^^^^^^^^^^^^^^^fhd^^^^^^^^^^^^^^",
"^^^^^^^^^^^^^^-isp^^^^^^^^^^^^^^",
"^^^^^^^^^^^^^^^^^@^^^^^^^^^^^^^^",
"^^^^^^^^^^^^^~^6lqzcx&$^^^^^^^^^",
"^^^^^^^^^^^^^^tu^r7HSJ+^^^^^^^^^",
"^^^^^^^^^^^^^^^^^LELPE^^^^^^^^^^",
"^^^^^^^^^^^^^^^^^^^^^^^^^^^^^^^^",
"^^^^^^^^^^^^^^^^^^^^^^^^^^^^^^^^",
"^^^^^^^^^^^^^^^^^^^^^^^^^^^^^^^^",
"^^^^^^^^^^^^,^^$^^^^^^^^^^^^^^^^",
"^^^^^^^^^V:322k1# ^^^^^^^^^^^^^^",
"^^^^^^^^^^!K.Oo;:Wq*$&^^^^^^^^^^",
"^^^^^^^^^^^^GKLPUUQt$^^^^^^^^^^^",
"^^^^^^^^^^^^^BCZFFGL9^^^^^^^^^^^",
"^^^^^^^^^^^^^^^^^^^^^^^^^^^^^^^^",
"^^^^^^^^^^^^^^^^^^^^^^^^^^^^^^^^",
"^^^^^^^^^^^^^^^^^^^^^^^^^^^^^^^^",
"^^^^^^^^^^^^^^^^^^^^^^^^^^^^^^^^",
"^^^^^^^^^^^^^^^^^^^^^^^^^^^^^^^^",
"^^^^^^^^^^^^^^^^^^^^^^^^^^^^^^^^",
"^^^^^^^^^^^^^^^^^^^^^^^^^^^^^^^^",
"^^^^^^^^^^^^^^^^^^^^^^^^^^^^^^^^",
"^^^^^^^^^^bv<5>j4we=X^^^^^^^^^^^",
"^^^^^^^^^^^^^^80TADny^^^^^^^^^^^",
"^^^^^^^^^^^^^^^^^mMN^^^^^^^^^^^^",
"^^^^^^^^^^^^^^^^^^^^^^^^^^^^^^^^",
"^^^^^^^^^^^^^^^^^^^^^^^^^^^^^^^^",
"^^^^^^^^^^^^^^^^^^^^^^^^^^^^^^^^",
"^^^^^^^^^^^^^^^^^^^^^^^^^^^^^^^^"
};
