/* XPM */
static char *afundando1_tmp[] = {
/* columns rows colors chars-per-pixel */
"32 50 198 2 ",
"   c #170900",
".  c #1E1407",
"X  c #251101",
"o  c #2C1402",
"O  c #241807",
"+  c #23170A",
"@  c #25190C",
"#  c #2C1E0C",
"$  c #361600",
"%  c #3A1701",
"&  c #3B1C04",
"*  c #341D0B",
"=  c #3D1F08",
"-  c #261B11",
";  c #2B1D11",
":  c #321F13",
">  c #2E200F",
",  c #33220D",
"<  c #3B290E",
"1  c #2E2112",
"2  c #26231E",
"3  c #2C261D",
"4  c #322513",
"5  c #362816",
"6  c #3C2A13",
"7  c #372818",
"8  c #3D2D1A",
"9  c #141E27",
"0  c #18222B",
"q  c #1B2731",
"w  c #431C01",
"e  c #442105",
"r  c #4C2304",
"t  c #432A06",
"y  c #44240B",
"u  c #4A250B",
"i  c #4E2A0D",
"p  c #522302",
"a  c #592704",
"s  c #542B0A",
"d  c #5C2D0B",
"f  c #5A330E",
"g  c #432E13",
"h  c #422914",
"j  c #4A2C12",
"k  c #562C12",
"l  c #463116",
"z  c #4C3114",
"x  c #44321A",
"c  c #4A341A",
"v  c #523214",
"b  c #573519",
"n  c #5B3E1A",
"m  c #632B05",
"M  c #6C3303",
"N  c #65340C",
"B  c #6B360B",
"V  c #6C3C0E",
"C  c #743707",
"Z  c #74360C",
"A  c #78370B",
"S  c #7C3C0D",
"D  c #612915",
"F  c #683814",
"G  c #763B10",
"H  c #7A3D10",
"J  c #442C20",
"K  c #502C20",
"L  c #4D3224",
"P  c #5A3621",
"I  c #563826",
"U  c #5D401E",
"Y  c #7F410F",
"T  c #64441E",
"R  c #6A4A1C",
"E  c #7E4112",
"W  c #734E1F",
"Q  c #654327",
"!  c #6B4C21",
"~  c #784526",
"^  c #7A5524",
"/  c #7B562A",
"(  c #77582C",
")  c #7D5A2B",
"_  c #6C4537",
"`  c #744D3A",
"'  c #3A4A57",
"]  c #5C484D",
"[  c #654E4D",
"{  c #694E48",
"}  c #6B5546",
"|  c #75584A",
" . c #6C5353",
".. c #665A5C",
"X. c #755959",
"o. c #756256",
"O. c #7D5F60",
"+. c #7E6561",
"@. c #746B71",
"#. c #823E0D",
"$. c #863631",
"%. c #8A3733",
"&. c #913938",
"*. c #CB0E03",
"=. c #D61004",
"-. c #84420E",
";. c #9F4E0E",
":. c #834411",
">. c #8A4612",
",. c #864B16",
"<. c #8A4916",
"1. c #914E17",
"2. c #97561D",
"3. c #845B2A",
"4. c #885C28",
"5. c #88583C",
"6. c #965233",
"7. c #8A622C",
"8. c #95662D",
"9. c #9B6530",
"0. c #A7712E",
"q. c #B77D2F",
"w. c #A47633",
"e. c #AA7635",
"r. c #B37832",
"t. c #BB7B36",
"y. c #BB7D39",
"u. c #895B49",
"i. c #955F43",
"p. c #8B6249",
"a. c #926A57",
"s. c #B16F41",
"d. c #BA7343",
"f. c #A87052",
"g. c #836465",
"h. c #866A67",
"j. c #8B6A6B",
"k. c #937474",
"l. c #A5786F",
"z. c #BD8238",
"x. c #C88537",
"c. c #C48A3D",
"v. c #CD8B3A",
"b. c #D18739",
"n. c #D38C3D",
"m. c #CC923F",
"M. c #D3923E",
"N. c #D9953C",
"B. c #E39B3F",
"V. c #E8A03F",
"C. c #BC8549",
"Z. c #B48D7C",
"A. c #CC8C40",
"S. c #CD9441",
"D. c #D59442",
"F. c #D99442",
"G. c #DA9941",
"H. c #DF8B54",
"J. c #E09443",
"K. c #E29C44",
"L. c #E5A345",
"P. c #ECA443",
"I. c #EDA948",
"U. c #F2AB4A",
"Y. c #F7AB49",
"T. c #FEB94E",
"R. c #EEBA50",
"E. c #FCB851",
"W. c #FFC254",
"Q. c #7E8196",
"!. c #95898E",
"~. c #AB8383",
"^. c #B18785",
"/. c #B38A8B",
"(. c #B88F8F",
"). c #AE989B",
"_. c #BD9292",
"`. c #9D96A2",
"'. c #B8AEBE",
"]. c #C19595",
"[. c #C49A9B",
"{. c #C1A5A5",
"}. c #D6A8A9",
"|. c #C1B1BF",
" X c #E1AEAF",
".X c #E4B4B4",
"XX c #EAB5B5",
"oX c #EAB6B8",
"OX c #F3BCBD",
"+X c #C0BBD1",
"@X c #E4C1C3",
"#X c #FDC4C5",
"$X c #FDCACB",
"%X c #FDD3D4",
"&X c #FAD7D7",
"*X c #FFDBDC",
"=X c #FFE5E7",
"-X c None",
/* pixels */
"-X-X-X-X-X-X}.}.}.XX` | 5.i.l.& -X-Xk.j.-X-X-X-X-X-X-X-X-X-X-X-X",
"-X-X-X-X-X-X-X-X#XOXOXOX#XX.X. . .[ -X-X-X-X-X-X-X-X-X-X-X-X-X-X",
"-X-X-X-X-X-X-X-X-X-X-X-X-X-X-X-X# - - -X-X-X-X-X-X-X-X-X-X-X-X-X",
"-X-X-X-X-X-X-X-X-X-X-X-X-X-X-X-X- - - -X-X-X-X-X-X-X- -X-X-X-X-X",
"-X-X-X-X-X-X-X-X-X-X-X-X-X-X-X-X- ; -X-X- - -X-X-X-X- -X-X-X-X-X",
"-X-X-X-X-X*X-X-X-X-X-X-X-X-X-X-X- N -.- - - ; r - - - -X-X-X-X-X",
"-X-X-X-X-X-Xk -X-X-X-X-X-X-X-X-XE -.S :.>.-.S f $ - - -X-X-X-X-X",
"-X-X-X-X-X-Xr l._.-X~.].-X-X-X-XS #.A -.:.-.>.d &.k * - -X-X-X-X",
"-X-X-X-X-X-X}.w (.(.~.(.-X-X-X-X& N S >.E E Y N %.%.y # -X-X-X-X",
"-X-X-X-X-X-X-X[.r ^./.~.-X-X-Xi < i 1.N.v -.S ;.$.%.Z u -X-X-X-X",
"-X-X-X-X-X-X-X~ ` r l.(.-X-X-X& & 4.4.L.B.v.#.= D &.* r - -X-X-X",
"-X-X-X-X-X-X-X-Xl.L o b w = s u n v.n q.N.N.T S * d y y - -X-X-X",
"-X-X-X-X-X-X-X-X-X[.u.b /.-X-XX X % e r N.F.z.G 6.$.$.e - -X-X-X",
"-X-X-X-X-X-X-X-X-X-X[.a.Q -XH A.M.e.q.0.v.L.e.T A $.$.i 4 -X-X-X",
"-X-X-X-X-X-X-X-X-X-X-X^.r /.V K.w.8.B.v.y.I.A.c C %.%.d h -X-X-X",
"-X-X-X-X-X-X-X-X-X-X-X-X[.w k.K.L.l V.b.t.L.S.z.m %.$.s v @ -X-X",
"-X-X-X*.*.*.-X-X-X-X-X-X-X_.w U.M.3.V.n.A.L.D.c.,.K $.s z - -X-X",
"-X-X-X=.*.-X-X-X-X-X-X-X-X-XI p s y d , S G #.#.S s D s h x -X-X",
"-X-X-X*.*.-X-X-X-X-X-X-X-X-X-X- s , 4.z v z z 2.2.2.-.g j x -X-X",
"-X-X-X*.*.-X-X-X-X-X-X-X-X-X-X-XS 6 t.! U ! ^ n.m.K.A l g x -X-X",
"-X-XH a *.-XQ.+.| -X+X`.-X-X} .., @., P l ~ s.5.t !.Z q 9 x -X-X",
"-X-.-X-Xi V M f.a.-Xa.-Xo.-X| @., !.j P `.| P P t '.S q 9 x -X-X",
"-X-X} b % % b F p r Z.y o $ P s f |.h.P 5...L o.t ).-.c x 8 -X-X",
"-X-X-X .=X XoXXX&Xg.j.+. .h.  w a a p X $ L J c < v.G q 3 x -X-X",
"-X-X-X-X-X-X-X-X-X-X{.].]. XXX%X| k.j.j.] X.L R R v.f 0 2 8 -X-X",
"-X-X-X-X-X-X-X-X-X-X-X-X] [  ._ { | p.u.{ i.p.F 4.A g g c x -X-X",
"-X-X-X-X-X-X-X-X-X-X-X-X-X-X-X,.g d.H.s.d.u.5.W r.>.6 9 2 8 -X-X",
"-X-X-X-X-X-X-X-X-X-X-X-X-X-X-XZ < N.n.c.z.z.A.N.v.B ' 9 2 8 -X-X",
"-X-X-X-X-X-X-X-X-X-X-X-X-X- -X:.g ^ P.b.D.L.v.n.y.B O 3 7 1 -X-X",
"-X-X-X-X-X-X-X-X-X-X-X-X-X-X-X,.< Q ! T n n j x.r.N 6 6 8 - -X-X",
"-X-X-X-X-X-X-X-X-X-X-X-X-X-X3./ 3./ 7.4./ e.U.A., , 6 8 1 -X-X-X",
"-X-X-X-X-X>.-X-X-X-X-X-X-X-XI.W.3.L.8.9.) E.F.^ * 6 6 4 5 -X-X-X",
"-X-XZ m -X-Xs d N F 1.-X-X-X3.( 3.3.7.3.) U.D., > , 4 5 - -X-X-X",
"-X-X-X@X-X-Xo y y s u k F u o o y u / 3.R.K.+ , > > 4 5 -X-X-X-X",
"-X-X-X-X-Xg.$XXXXX*X{.k.h.O.X.j.] R K.K.T.8.@ O > 1 5 -X-X-X-X-X",
"-X-X-X-X-X-X-X-X-X-X-X-X-X-X-XC.I.U.J.M.8.. > 4 1 4 ; -X-X-X-X-X",
"-X-X-X-X-X-X-X-X-X-X-X-X-X-X-XU.E.Y.G.z.O , @ 1 > 4 -X-X-X-X-X-X",
"-X-X-X-X-X-X-X-X-X-X-X-X-X-X-X-X-X@ * O @ > > o * -X-X-X-X-X-X-X",
"-X-X-X-X-X-X-X-X-X-X-X-X-X-X-X-X-X>.B w e w & e -X-X-X-X-X-X-X-X",
"-X-X-X-X-X-X-X-X-X-X-X-X-X-X-X-X-X1.f w % = - -X-X-X-X-X-X-X-X-X",
"-X-X-X-X-X-X-X-X-X-X-X-X-X-X-X-X-XN -X-X-X- -X-X-X-X-X-X-X-X-X-X",
"-X-X-X-X-X-X-X-X-X-X-X-X-X-X-X-X2.-X-X-X-X-X-X-X-X-X-X-X-X-X-X-X",
"-X-X-X-X-X-X-X-X-X-X-X-X-X-X-X-XB -X-X-X-X- -X-X-X-X-X-X-X-X-X-X",
"-X-X-X-X-X-X-X-X-X-X-X-X-X-X-X-X* -X-X-X-X- -X-X-X-X-X-X-X-X-X-X",
"-X-X-X-X-X-X-X-X-X-X-X-X-X-X-X<.: - - - - - - ; - - - -X-X-X-X-X",
"-X-X-X-X-X-X-X-X-X-X-X-X-X-X-X7 =X-X- - - -   k.@ - -X-X-X-X-X-X",
"-X-X-X-X-X-X-X-XG f.d M M M M A m M M -X-Xk..X- -X-X-X-X-X-X-X-X",
"-X-X-X-X-X-X-X-X-X-XOXoX#X$X$X%X%X*X}.O. .-X-X-X-X-X-X-X-X-X-X-X",
"-X-X-X-X-X-X-X-X-X-X-X-X-X-X-X-X-X-X-X-X-X-X-X-X-X-X-X-X-X-X-X-X",
"-X-X-X-X-X-X-X-X-X-X-X-X-X-X-X-X- - -X-X-X-X-X-X-X-X-X-X-X-X-X-X"
};
