/* XPM */
static char *afundando6_tmp[] = {
/* columns rows colors chars-per-pixel */
"32 32 116 2 ",
"   c #21160C",
".  c #23170E",
"X  c #22180D",
"o  c #24180E",
"O  c #3A1300",
"+  c #311C0A",
"@  c #311F0F",
"#  c #371F0E",
"$  c #201811",
"%  c #271B11",
"&  c #261B12",
"*  c #2D1E10",
"=  c #2B1F17",
"-  c #3B2409",
";  c #3B210C",
":  c #2D2015",
">  c #362214",
",  c #37281F",
"<  c #2E2723",
"1  c #372C27",
"2  c #441E02",
"3  c #462105",
"4  c #4C2401",
"5  c #442B09",
"6  c #4E2B0F",
"7  c #542400",
"8  c #542A06",
"9  c #5D310D",
"0  c #432710",
"q  c #402512",
"w  c #4D2C17",
"e  c #4B3314",
"r  c #5D3A15",
"t  c #593D19",
"y  c #633009",
"u  c #673208",
"i  c #64340E",
"p  c #68330B",
"a  c #6A370F",
"s  c #743B0B",
"d  c #673711",
"f  c #603615",
"g  c #653813",
"h  c #793E10",
"j  c #413029",
"k  c #46342D",
"l  c #413734",
"z  c #533E39",
"x  c #673D22",
"c  c #7B4211",
"v  c #6E4423",
"b  c #734B35",
"n  c #7D4F34",
"m  c #764D3C",
"M  c #4E4444",
"N  c #5B555A",
"B  c #6B4B41",
"V  c #6F5047",
"C  c #735647",
"Z  c #7D5341",
"A  c #77554C",
"S  c #7C5649",
"D  c #725758",
"F  c #7D5F5B",
"G  c #7D5F5D",
"H  c #BD1204",
"J  c #CB1206",
"K  c #E31004",
"L  c #824516",
"P  c #944D16",
"I  c #834927",
"U  c #814C29",
"Y  c #8E5535",
"T  c #9C6228",
"R  c #AC7537",
"E  c #845B49",
"W  c #8C674E",
"Q  c #856566",
"!  c #8E6A67",
"~  c #8D6B6B",
"^  c #8F6D6D",
"/  c #936D68",
"(  c #946D69",
")  c #906E6E",
"_  c #8D7B78",
"`  c #927072",
"'  c #957171",
"]  c #9A7473",
"[  c #997474",
"{  c #9E7A7C",
"}  c #A1756F",
"|  c #A47D7D",
" . c #A57D7D",
".. c #A77F7F",
"X. c #B68038",
"o. c #AB807D",
"O. c #A28B7D",
"+. c #FFC85B",
"@. c #A47E80",
"#. c #A98181",
"$. c #AB8282",
"%. c #AC8583",
"&. c #AC8487",
"*. c #A78982",
"=. c #AF8688",
"-. c #B98C89",
";. c #BE8D88",
":. c #BC928B",
">. c #BF9C9C",
",. c #D39F9C",
"<. c #CCA0A0",
"1. c #CEA6A1",
"2. c #C5AFAD",
"3. c #DFCEC0",
"4. c #FAECEC",
"5. c None",
/* pixels */
"5.5.5.5.5.5.5.5.5.5.5.5.5.5.5.5.5.5.5.5.5.5.5.5.5.5.5.5.5.5.5.5.",
"5.5.5.5.5.5.5.5.5.5.5.5.5.5.5.5.% 5.9 5.5.5.5.5.5.5.5.5.5.5.5.5.",
"5.5.5.5.5.5.5.5.5.5.5.5.K K 5.5.% 5.5.5.5.5.5.5.5.5.5.5.5.5.5.5.",
"5.5.5.5.5.5.5.5.5.5.5.K K K 5.5.% 5.5.5.5.5.5.5.5.5.5.5.5.5.5.5.",
"5.5.5.5.5.5.5.5.5.5.5.K K K 5.% % 5.5.5.5.5.5.5.5.5.5.5.5.5.5.5.",
"5.5.5.5.5.5.5.5.5.5.- H J 5.5.5.% 5.5.5.5.5.5.5.5.5.5.5.5.5.5.5.",
"5.5.5.5.5.5.5.5.5.5.5.5 ; = < 5.: 5.5.5.5.5.5.5.5.5.5.5.5.5.5.5.",
"5.5.5.5.5.5.5.5.5.3.v 5.u g d 8 0 & % % 5.5.5.5.5.5.5.5.5.5.5.5.",
"5.5.5.5.5.5.5.5.5.5.5.2.5.B 1.,.m $ o % 5.5.5.5.5.5.5.5.5.5.5.5.",
"5.5.5.5.5.5.5.5.5.5.5.5.[  . .$.=.+ M 1 l 5.5.5.5.5.5.5.5.5.5.5.",
"5.5.5.5.5.5.5.5.5.5.5.5.5.5.) ' ( ( S 5.N 5.5.5.5.5.5.5.5.5.5.5.",
"5.5.5.5.5.5.5.5.5.5.5.5.5.5.5._ *.w 4 f O.C O 5.5.5.5.5.5.5.5.5.",
"5.5.5.5.5.5.5.5.5.5.5.5.5.5.o 5.5.) ! / :.-.} 5.5.5.5.5.5.5.5.5.",
"5.5.5.5.5.5.5.5.a 5.% % % 5.% % 5.5.5.#...=.5.5.5.5.5.5.5.5.5.5.",
"5.5.5.5.5.5.%.P 5.3 y * @ @ % % % % % o 5.5.5.5.5.5.5.5.5.5.5.5.",
"5.5.5.5.5.5.5.b Y U I x W n > % % % % % 5.5.5.5.5.5.5.5.5.5.5.5.",
"5.5.5.5.5.5.5.5.{ @.&.[ >.;.A o % % % % 5.5.5.5.5.5.5.5.5.5.5.5.",
"5.5.5.5.5.5.5.5.5.) '  . .o.#.,   % % % 5.5.5.5.5.5.5.5.5.5.5.5.",
"5.5.5.5.5.5.5.5.5.5.5.5.^ ' [ [ ~ 1 5.5.5.5.5.5.5.5.5.5.5.5.5.5.",
"5.5.5.5.5.5.5.5.5.5.5.5.5.5.5.5.w 7 5.5.5.5.5.5.5.5.5.5.5.5.5.5.",
"5.5.5.5.5.5.5.5.5.5.5.5.5.5.5.5.5.T 5.5.5.5.5.5.5.5.5.5.5.5.5.5.",
"5.5.5.5.5.5.5.5.5.5.5.5.5.5.5.5.+.R X.t 5.5.5.5.5.5.5.5.5.5.5.5.",
"5.5.5.5.5.5.5.5.5.5.5.5.5.5.5.5.5.r e 5.5.5.5.5.5.5.5.5.5.5.5.5.",
"5.5.5.5.5.5.5.5.5.5.5.5.5.5.5.L h 2 5.5.5.5.5.5.5.5.5.5.5.5.5.5.",
"5.5.5.5.5.5.5.5.5.5.5.5.5.5.f ; 5.5.5.5.5.5.5.5.5.5.5.5.5.5.5.5.",
"5.5.5.5.5.5.h 5.5.5.$ 0 p w o % % % % % 5.5.5.5.5.5.5.5.5.5.5.5.",
"5.5.5.5.5.5.5.E 7 5.i c 9 s 5.5.% % % 5.5.5.5.5.5.5.5.5.5.5.5.5.",
"5.5.5.5.5.5.5.5.<.4.5.F B o.Z j % % % 5.5.5.5.5.5.5.5.5.5.5.5.5.",
"5.5.5.5.5.5.5.5.5.5.5.Q ^ ^ ` G z k   % 5.5.5.5.5.5.5.5.5.5.5.5.",
"5.5.5.5.5.5.5.5.5.5.5.5.5.5.5.5.D 5.5.5.5.5.5.5.5.5.5.5.5.5.5.5.",
"5.5.5.5.5.5.5.5.5.5.5.5.5.5.5.5.5.5.5.5.5.5.5.5.5.5.5.5.5.5.5.5.",
"5.5.5.5.5.5.5.5.5.5.5.5.5.5.5.5.5.5.5.5.5.5.5.5.5.5.5.5.5.5.5.5."
};
