/* XPM */
static char *afundando2_tmp[] = {
/* columns rows colors chars-per-pixel */
"32 32 176 2 ",
"   c #1E1305",
".  c #300F00",
"X  c #2B1C0C",
"o  c #3C1C03",
"O  c #301D0A",
"+  c #261B11",
"@  c #2A1D13",
"#  c #2E200A",
"$  c #3D2007",
"%  c #33220C",
"&  c #3B250D",
"*  c #3C280F",
"=  c #2E2314",
"-  c #23231F",
";  c #332515",
":  c #3C2611",
">  c #372815",
",  c #34291A",
"<  c #392918",
"1  c #3B2C19",
"2  c #1A1F22",
"3  c #212423",
"4  c #332B26",
"5  c #2D302D",
"6  c #232E38",
"7  c #791102",
"8  c #442104",
"9  c #44230B",
"0  c #4A2609",
"q  c #42290F",
"w  c #4B2A09",
"e  c #572905",
"r  c #57290A",
"t  c #55300F",
"y  c #442C12",
"u  c #422816",
"i  c #502F13",
"p  c #443116",
"a  c #41311A",
"s  c #49341D",
"d  c #5C3411",
"f  c #593819",
"g  c #5D3E1A",
"h  c #602B0E",
"j  c #65340E",
"k  c #6D380E",
"l  c #713809",
"z  c #652E19",
"x  c #633512",
"c  c #633913",
"v  c #6B3B13",
"b  c #723B10",
"n  c #793F14",
"m  c #513121",
"M  c #5E3924",
"N  c #613C28",
"B  c #723323",
"V  c #65451C",
"C  c #6C461B",
"Z  c #7C4214",
"A  c #7E461D",
"S  c #45413D",
"D  c #5B4339",
"F  c #6D4222",
"G  c #6C4A22",
"H  c #6A4229",
"J  c #734826",
"K  c #7F5826",
"L  c #735429",
"P  c #694839",
"I  c #6E4C3C",
"U  c #754C38",
"Y  c #7B563B",
"T  c #785939",
"R  c #5A545C",
"E  c #614C46",
"W  c #694C45",
"Q  c #755242",
"!  c #70534D",
"~  c #6D5252",
"^  c #795B53",
"/  c #7C5E5D",
"(  c #7F6367",
")  c #7A7077",
"_  c #B61607",
"`  c #803A20",
"'  c #8B3936",
"]  c #8E3938",
"[  c #D30E04",
"{  c #DC0D04",
"}  c #89470E",
"|  c #844513",
" . c #864617",
".. c #934D16",
"X. c #86511F",
"o. c #8F4325",
"O. c #884A23",
"+. c #845824",
"@. c #875926",
"#. c #815B2C",
"$. c #9A5B29",
"%. c #9F5B28",
"&. c #8A5836",
"*. c #A55E2A",
"=. c #8F632F",
"-. c #96642B",
";. c #99682A",
":. c #916333",
">. c #986C34",
",. c #9A6C34",
"<. c #A46C2D",
"1. c #BF6F27",
"2. c #A16C30",
"3. c #AD7330",
"4. c #A27338",
"5. c #AB7B3A",
"6. c #805544",
"7. c #895C4A",
"8. c #896248",
"9. c #9B6F44",
"0. c #987148",
"q. c #856255",
"w. c #8A6558",
"e. c #996A57",
"r. c #A66941",
"t. c #A56948",
"y. c #B1714F",
"u. c #AC7857",
"i. c #B37B51",
"p. c #846464",
"a. c #836668",
"s. c #8A6A6B",
"d. c #906963",
"f. c #9B6F62",
"g. c #906E6F",
"h. c #97736B",
"j. c #957376",
"k. c #9D7572",
"l. c #A47667",
"z. c #AA7E78",
"x. c #BD8438",
"c. c #C4863A",
"v. c #D9933D",
"b. c #A9817B",
"n. c #B08875",
"m. c #CC9040",
"M. c #C79B48",
"N. c #D99A45",
"B. c #C08A52",
"V. c #DC8854",
"C. c #D59F50",
"Z. c #E59A48",
"A. c #EBAC4E",
"S. c #F4AF4C",
"D. c #F9AA4B",
"F. c #F7B24F",
"G. c #F8B74F",
"H. c #E3A055",
"J. c #F6AC50",
"K. c #FFBC54",
"L. c #CA9B67",
"P. c #FFCC59",
"I. c #AD8483",
"U. c #A68D8F",
"Y. c #B98982",
"T. c #B78E8E",
"R. c #BC9495",
"E. c #C18E85",
"W. c #C09595",
"Q. c #CC9D9B",
"!. c #C7A694",
"~. c #DCADAD",
"^. c #CDB3A2",
"/. c #D9BABB",
"(. c #EBBCBD",
"). c None",
/* pixels */
").).).).).(.~.Q.~.R.P ^ ).).).).).).).).).).).).).).).).).).).).",
").).).).).).).).).~ ).)./ ).).).+ ).).).).).).).).).).).).).).).",
").).).).).).).b ).).).).).).).+ @ + ).).).).).).).).).).).).).).",
").).).).).).).x ).).).).).).).).+ ).).).).).).).).).).).).).).).",
").).).).).).).).6.f.).).).).).).+ b x x y u r X + ).).).).).).).",
").).).).).).).).R.N b.I.T.).).).u 9 ....| | v h + ).).).).).).).",
").).).).).).).).).I M w.k.).).).j k | .. .} k ] z X ).).).).).).",
").).).).).).).).).).I.0 h.. o o x 3.x.v.c.| e ] ] 0 ).).).).).).",
").).).).[ ).).).).).l.7.w.).).t c 0 C D.S.X.| r B o ).).).).).).",
").).).).[ [ ).).).).).W.U I.Z N.5.v.<.Z.F.,.} ] ` 0 ).).).).).).",
").).).{ [ [ ).).).).).).W.F 9.5.#.v.v.Z.A.-.} ' ` 0 + ).).).).).",
").).).7 _ ).).).).).).).).m q 2.+.J -.K.N.+.} ' o.q + ).).).).).",
").).i.).w 8 e ).).).).).).).4 u + q j Z Z o w c B 0 s ).).).).).",
").).).!.6.^.!.&.e.l.P W ).).R 8.f -.=.-.0.G K | i q 1 ).).).).).",
").).).).).p.a.a.s.a.p.a.F O.O.N D ) Q q.w.T L.j 6 3 < ).).).).).",
").).).).).).).).).).).).).N h.z.P ^ M Q H G u.d - , a ).).).).).",
").).).).).).).).).).).W E ! / ( ( ~ W e.+.#.$.5 3 p ).).).).).).",
").).).).).).).).).).).).+ i X 4.V.t.t.y.V ;.c ; , > + ).).).).).",
").).).).).).).).).).).).).d p :.f s L r.X.1.S 2 ; , ).).).).).).",
").).l ).j b  .).).).).).).C L ;.K K L x.x.Z , 3 < @ ).).).).).).",
").)./.).$ ).e ).o n.r ).5.,.4.,.>.A.J.m.: * * > ; + ).).).).).).",
").).).).).).g.U.j.g.j.Q I Y &.m.M.K.m.@ : : : > @ ).).).).).).).",
").).).).).).).).).).).B.H.C.3.J.P.+.* * & # = @ ).).).).).).).).",
").).).).).).).).).).).).G.G.Z.x.g ; X # X # @ ).).).).).).).).).",
").).).).).).).).).).).).).3.d O & # X X % X ).).).).).).).).).).",
").).).).).).).).).).).).).n 9 8 $ o 8 ).@ ).).).).).).).).).).).",
").).).).).).).).).).).).} ).).).).).+ ).).).).).).).).).).).).).",
").).).).).).).).).).).n q ).+ + + + ).+ ).).).).).).).).).).).).",
").).).).).).).).).).| ).).).+ @ + + + ).+ + ).).).).).).).).).).",
").).).).).&. .X.A O.O.*.*.).).).)., ).).).).).).).).).).).).).).",
").).).).).).).(.(.Q.Y.E.f.d.P ).).).).).).).).).).).).).).).).).",
").).).).).).).).).).).).).).).@ @ ).).).).).).).).).).).).).).)."
};
