/* XPM */
static char *afundando3_tmp[] = {
/* columns rows colors chars-per-pixel */
"32 32 172 2 ",
"   c #271202",
".  c #271709",
"X  c #251A0D",
"o  c #2D1C0D",
"O  c #3D1E05",
"+  c #321D0C",
"@  c #271B11",
"#  c #291D11",
"$  c #2F200E",
"%  c #34240E",
"&  c #3B240C",
"*  c #3C290F",
"=  c #2D2113",
"-  c #2D271E",
";  c #342614",
":  c #3D2A12",
">  c #3C2815",
",  c #332A1C",
"<  c #232423",
"1  c #262B2D",
"2  c #3B2E20",
"3  c #411D04",
"4  c #7B1D07",
"5  c #432207",
"6  c #42250C",
"7  c #4A2408",
"8  c #4D290C",
"9  c #5A2B07",
"0  c #51290C",
"q  c #592D0B",
"w  c #53300D",
"e  c #442D12",
"r  c #4C2C12",
"t  c #422F19",
"y  c #562714",
"u  c #532811",
"i  c #473015",
"p  c #4C3214",
"a  c #49321A",
"s  c #5C3313",
"d  c #583519",
"f  c #65330D",
"g  c #68330C",
"h  c #73370C",
"j  c #6F2F1E",
"k  c #613212",
"l  c #663B15",
"z  c #6A3810",
"x  c #64321F",
"c  c #643C1B",
"v  c #733D14",
"b  c #7A3C1A",
"n  c #503825",
"m  c #563C2E",
"M  c #453730",
"N  c #5A3F32",
"B  c #653D26",
"V  c #763224",
"C  c #793330",
"Z  c #63431B",
"A  c #784617",
"S  c #754319",
"D  c #5B412E",
"F  c #554338",
"G  c #674426",
"H  c #774627",
"J  c #77542A",
"K  c #6B4737",
"L  c #62463B",
"P  c #764C35",
"I  c #784F38",
"U  c #6B533B",
"Y  c #674A44",
"T  c #7A5748",
"R  c #6C5E5B",
"E  c #785854",
"W  c #795D5D",
"Q  c #7F6162",
"!  c #8A3F20",
"~  c #823929",
"^  c #823433",
"/  c #893931",
"(  c #C60E04",
")  c #DD0F04",
"_  c #844816",
"`  c #8B4817",
"'  c #86441A",
"]  c #944916",
"[  c #89541E",
"{  c #8F5A1F",
"}  c #965018",
"|  c #9B521A",
" . c #A1561B",
".. c #845523",
"X. c #845B2C",
"o. c #875C31",
"O. c #83543A",
"+. c #8D5C3B",
"@. c #95662F",
"#. c #9C682F",
"$. c #8B6233",
"%. c #84603A",
"&. c #9B6C34",
"*. c #A2662B",
"=. c #A9752E",
"-. c #A06F33",
";. c #A06D3E",
":. c #A37439",
">. c #AC7B3D",
",. c #B27B32",
"<. c #B17E3A",
"1. c #C37D34",
"2. c #825D4E",
"3. c #8B5C48",
"4. c #865F52",
"5. c #876043",
"6. c #8C6843",
"7. c #8D644E",
"8. c #946042",
"9. c #926C4C",
"0. c #846056",
"q. c #8B6454",
"w. c #836559",
"e. c #986A57",
"r. c #A16F5F",
"t. c #A9755A",
"y. c #B27450",
"u. c #856565",
"i. c #8C6964",
"p. c #866768",
"a. c #8C6B6A",
"s. c #936C64",
"d. c #916E6E",
"f. c #9C7362",
"g. c #91706F",
"h. c #9C746C",
"j. c #967374",
"k. c #997475",
"l. c #9B7778",
"z. c #9D7878",
"x. c #A57A68",
"c. c #A47A75",
"v. c #A37C7C",
"b. c #C67C4B",
"n. c #B8863D",
"m. c #BF873F",
"M. c #C58739",
"N. c #C7873B",
"B. c #C1893F",
"V. c #BB8941",
"C. c #BC8E52",
"Z. c #9E827A",
"A. c #AF8571",
"S. c #A9817F",
"D. c #B38773",
"F. c #C88841",
"G. c #CD9349",
"H. c #E99E4B",
"J. c #EAA64B",
"K. c #F5A54E",
"L. c #EEB854",
"P. c #F6B454",
"I. c #FEB553",
"U. c #FEB955",
"Y. c #988787",
"T. c #A68282",
"R. c #AD8484",
"E. c #B08681",
"W. c #B48C8E",
"Q. c #C1999D",
"!. c #C0B5AA",
"~. c None",
/* pixels */
"~.~.~.~.~.~.~.~.~.~.~.5.~.~.~.~.~.@ @ ~.~.~.~.~.~.~.~.~.~.~.~.~.",
"~.~.~.~.~.~.~.~.~.~.~.9.c ~.~.~.~.@ @ @ ~.~.~.~.~.~.~.~.~.~.~.~.",
"~.~.~.~.~.~.~.~.~.~.~.h.I Q.~.~.~.@ @ @ ~.~.~.~.~.~.~.~.~.~.~.~.",
"~.~.~.~.~.~.~.~.~.~.~.~.0 s.W.v.~.X @ ~.* b ~.~.~.~.~.~.~.~.~.~.",
"~.~.~.~.~.~.~.~.~.~.~.~.i.7 4.S.u.X @ ~.d _ | | ` k 6 ~.~.~.~.~.",
"~.~.~.~.~.~.) ) ~.~.~.~.x.f.B K a o ~.s ] `  .| } ' V ~.~.~.~.~.",
"~.~.~.~.~.~.) ) ~.~.~.~.~.E.+.T.  3 q S *.M.1.} | ~ ^ ~.~.~.~.~.",
"~.~.~.~.~.) ) ) ~.~.~.~.~.~.3.4.~.e u 3 ..J.J.,.h j C ~.~.~.~.~.",
"~.~.~.~.~.4 ( ~.~.~.~.~.~.~.v.r m ..>.&.[ n.I.M.] u u ~.~.~.~.~.",
"~.~.~.~.~.~.w g ~.~.~.~.~.~.~.Y G :.:.F.I.I.P.M.` ^ V ~.~.~.~.~.",
"~.~.~.~.~.O.~.~.d t.D.L ~.~.~.# c &.X.-.I.U.G.*.! / b ~.~.~.~.~.",
"~.~.~.~.~.~.j.z.z.T.E.k.R ~.~.2 M 5 l r l A A 8 x / y 6 ~.~.~.~.",
"~.~.~.~.~.~.~.~.a.j.a.p.Y T Y.g.F n : D l e X Z v s u + ~.~.~.~.",
"~.~.~.~.~.~.~.~.~.!.w.E B H H 7.w.F U 9.%.6.&.:.S s p i ~.~.~.~.",
"~.~.~.~.~.~.~.~.~.~.~.~.k.l.j.R.c.0.T q.e.f.6.A.l 1 < a ~.~.~.~.",
"~.~.~.~.~.~.~.~.~.~.~.~.~.Y p.k.k.j.i.T q.O.9.$.i < , t ~.~.~.~.",
"~.~.~.~.z ~.~.~.~.~.~.~.~.o r a D 4.q.t.b.$.;.c 1 > > ~.~.~.~.~.",
"~.~.~.h ~.9 9 ~.~.~.~.~.~.~.p t +.P 8.y.o.{ { , < , > ~.~.~.~.~.",
"~.~.~.E Z.~.3.P r.q.~.~.~.~.% J $.J o.>.=.#.F < ; : ; ~.~.~.~.~.",
"~.~.~.~.~.d.j.k.v.v.v.~.n.n.-.n.n.F.V.&.@.l - < = ; ~.~.~.~.~.~.",
"~.~.~.~.~.~.~.p.a.d.d.a.2.G.m.K.I.I.F.Z e e e * ; # ~.~.~.~.~.~.",
"~.~.~.~.~.~.~.~.~.~.~.C.#.A N.I.L.>.p : e e * ; = @ ~.~.~.~.~.~.",
"~.~.~.~.~.~.~.~.~.~.~.I.U.L.H.n.Z i : e * % = = # ~.~.~.~.~.~.~.",
"~.~.~.~.~.~.~.~.~.~.~.~.m.@.i e * : & * % $ . @ ~.~.~.~.~.~.~.~.",
"~.~.~.~.~.~.~.~.~.~.~.~.~.f & * * * & % $ . ~.~.~.~.~.~.~.~.~.~.",
"~.~.~.~.~.~.~.~.~.~.~.z q O 5 5 & % + + o ~.~.~.~.~.~.~.~.~.~.~.",
"~.~.~.~.~.~.~.~.~.~.f ~.~.o + ~.~.~.~.@ @ ~.~.~.~.~.~.~.~.~.~.~.",
"~.~.~.~.~.~.~.~.~.g ~.~.~.~.@ @ X @ @ @ @ @ ~.~.~.~.~.~.~.~.~.~.",
"~.~.~.D.q A b ' ` ~.~.~.~.~.~.~.@ @ @ @ @ @ ~.~.~.~.~.~.~.~.~.~.",
"~.~.~.~.~.~.~.v.s.x.x.H K ~.~.~.~.~.~.~.~.~.~.~.~.~.~.~.~.~.~.~.",
"~.~.~.~.~.~.~.~.~.~.W Q u.W ~.~.~.~.~.~.~.~.~.~.~.~.~.~.~.~.~.~.",
"~.~.~.~.~.~.~.~.~.~.~.~.~.~.~.~.@ @ @ ~.~.~.~.~.~.~.~.~.~.~.~.~."
};
